<svg xmlns="http://www.w3.org/2000/svg" width="176" height="102" viewBox="0 0 176 102"><g transform="translate(16521 7097)"><g transform="translate(-11237.441 -14903.853)"><g transform="translate(-5242.277 7842.624)"><path d="M2440.495-1389.709a.488.488,0,0,0-.121.073.565.565,0,0,1-.2.081.563.563,0,0,0-.222.1.575.575,0,0,1-.17.1c-.053.012-.093.048-.093.081s-.036.069-.081.081-.081.048-.081.081a.1.1,0,0,1-.061.077.327.327,0,0,0-.121.158.7.7,0,0,1-.117.19.227.227,0,0,0-.064.158.826.826,0,0,1-.081.279c-.073.153-.081.246-.081,1.139s.008.986.081,1.123a1.214,1.214,0,0,1,.1.3.26.26,0,0,0,.085.178.107.107,0,0,1,.056.089,2.157,2.157,0,0,0,.614.61.24.24,0,0,1,.125.081.266.266,0,0,0,.2.081.736.736,0,0,1,.283.081c.141.077.226.081,2.02.081s1.875,0,2.028-.081a.825.825,0,0,1,.311-.081c.1,0,.162-.024.19-.077a.283.283,0,0,1,.133-.1,1.832,1.832,0,0,0,.517-.444.442.442,0,0,1,.081-.133.363.363,0,0,0,.081-.174.331.331,0,0,1,.077-.158,4.454,4.454,0,0,0,.117-1.769c-.016-.743-.032-.913-.085-.97a.587.587,0,0,1-.089-.182.445.445,0,0,0-.1-.178.238.238,0,0,1-.077-.117.655.655,0,0,0-.279-.3c-.024,0-.044-.028-.044-.061s-.036-.061-.093-.061a.264.264,0,0,1-.166-.077.443.443,0,0,0-.2-.109.518.518,0,0,1-.2-.093,8.606,8.606,0,0,0-2.141-.073C2441.485-1389.729,2440.527-1389.721,2440.495-1389.709Z" transform="translate(-2410.721 1389.726)" fill="#fff"/><path d="M1739.848-1380.844a.659.659,0,0,1-.214.077,1.226,1.226,0,0,0-.473.469.779.779,0,0,1-.081.218c-.081.157-.081.238-.081,13.55v13.392l.117.081a.43.43,0,0,0,.194.085.251.251,0,0,1,.154.081.258.258,0,0,0,.161.081.392.392,0,0,1,.194.081.388.388,0,0,0,.2.081.4.4,0,0,1,.2.081.39.39,0,0,0,.2.081.585.585,0,0,1,.234.077,1.237,1.237,0,0,0,.3.1,1.241,1.241,0,0,1,.3.109.729.729,0,0,0,.262.077.325.325,0,0,1,.19.065.711.711,0,0,0,.287.093.911.911,0,0,1,.315.1.587.587,0,0,0,.315.069.481.481,0,0,1,.319.081.516.516,0,0,0,.352.081.673.673,0,0,1,.368.077,1.089,1.089,0,0,0,.453.093,1.2,1.2,0,0,1,.424.081,1.388,1.388,0,0,0,.465.085,2.071,2.071,0,0,1,.505.081,2.9,2.9,0,0,0,.638.105,6.737,6.737,0,0,1,.707.085,7.236,7.236,0,0,0,.848.085c.355.02.848.056,1.091.081a20.944,20.944,0,0,0,2.667,0c.222-.024.719-.061,1.1-.085a3.862,3.862,0,0,0,.755-.081,1.906,1.906,0,0,1,.493-.085,2.456,2.456,0,0,0,.55-.1,1.369,1.369,0,0,1,.4-.085,1.307,1.307,0,0,0,.432-.1.777.777,0,0,1,.3-.073.593.593,0,0,0,.283-.081.57.57,0,0,1,.263-.081.457.457,0,0,0,.242-.081.459.459,0,0,1,.246-.081.294.294,0,0,0,.214-.077.474.474,0,0,1,.222-.1.41.41,0,0,0,.206-.085.247.247,0,0,1,.166-.061.307.307,0,0,0,.186-.077.459.459,0,0,1,.194-.109.467.467,0,0,0,.194-.1.263.263,0,0,1,.174-.077.137.137,0,0,0,.121-.061.293.293,0,0,1,.158-.1.294.294,0,0,0,.157-.1.111.111,0,0,1,.1-.061.25.25,0,0,0,.149-.081.234.234,0,0,1,.129-.081.218.218,0,0,0,.121-.081c.041-.044.085-.081.105-.081a.653.653,0,0,0,.174-.137,1.3,1.3,0,0,1,.279-.2.415.415,0,0,0,.157-.125.1.1,0,0,1,.085-.061.062.062,0,0,0,.061-.061c0-.032.016-.061.036-.061a3.743,3.743,0,0,0,.65-.638c0-.024.036-.057.081-.069s.081-.053.081-.081a.146.146,0,0,1,.081-.1c.045-.024.081-.065.081-.085a.514.514,0,0,1,.1-.174c.057-.069.137-.166.174-.214a2.143,2.143,0,0,1,.161-.194.4.4,0,0,0,.089-.158.24.24,0,0,1,.081-.125.237.237,0,0,0,.081-.137.17.17,0,0,1,.081-.117.184.184,0,0,0,.081-.141.191.191,0,0,1,.081-.141.192.192,0,0,0,.081-.145.268.268,0,0,1,.081-.166.259.259,0,0,0,.081-.162.348.348,0,0,1,.077-.186.606.606,0,0,0,.1-.226.409.409,0,0,1,.085-.174.488.488,0,0,0,.085-.234.475.475,0,0,1,.081-.234.574.574,0,0,0,.085-.262.481.481,0,0,1,.085-.267.522.522,0,0,0,.081-.3.7.7,0,0,1,.085-.331.9.9,0,0,0,.089-.444,1.435,1.435,0,0,1,.085-.469,1.922,1.922,0,0,0,.089-.667,4.44,4.44,0,0,1,.073-.727,17.765,17.765,0,0,0,0-2.784,4.325,4.325,0,0,1-.073-.727,1.9,1.9,0,0,0-.1-.751.938.938,0,0,1-.073-.424c0-.218-.02-.307-.081-.384a.534.534,0,0,1-.081-.348.518.518,0,0,0-.077-.343.724.724,0,0,1-.093-.291.572.572,0,0,0-.085-.263.583.583,0,0,1-.081-.25.386.386,0,0,0-.085-.222.378.378,0,0,1-.085-.2.528.528,0,0,0-.105-.234.277.277,0,0,1-.077-.186.29.29,0,0,0-.081-.186.259.259,0,0,1-.081-.161.259.259,0,0,0-.081-.162.245.245,0,0,1-.081-.141.244.244,0,0,0-.081-.141.242.242,0,0,1-.081-.146.25.25,0,0,0-.073-.145.7.7,0,0,1-.121-.186c-.024-.061-.065-.109-.089-.109s-.04-.028-.04-.061a2.622,2.622,0,0,0-.335-.477,4.59,4.59,0,0,1-.364-.485.1.1,0,0,0-.085-.069c-.028,0-.065-.036-.077-.081a.1.1,0,0,0-.085-.081c-.036,0-.065-.02-.065-.04a2.1,2.1,0,0,0-.311-.339,3.267,3.267,0,0,0-.727-.594c-.073-.049-.133-.1-.133-.121s-.045-.057-.1-.077-.1-.057-.1-.077-.065-.061-.145-.085a.331.331,0,0,1-.166-.1.1.1,0,0,0-.093-.057.246.246,0,0,1-.141-.081.246.246,0,0,0-.121-.081.4.4,0,0,1-.149-.077.659.659,0,0,0-.21-.109.194.194,0,0,1-.133-.081c-.008-.028-.089-.061-.174-.077a.3.3,0,0,1-.178-.081c-.012-.032-.089-.069-.174-.081a.76.76,0,0,1-.263-.105.474.474,0,0,0-.218-.077.4.4,0,0,1-.206-.081.452.452,0,0,0-.275-.081.452.452,0,0,1-.275-.081.449.449,0,0,0-.279-.081.985.985,0,0,1-.335-.077,2.038,2.038,0,0,0-.505-.1,2.143,2.143,0,0,1-.485-.093,19.878,19.878,0,0,0-4.545,0,1.808,1.808,0,0,1-.505.093,2.158,2.158,0,0,0-.553.1,1.061,1.061,0,0,1-.38.077.458.458,0,0,0-.283.065.765.765,0,0,1-.335.093.757.757,0,0,0-.339.1.4.4,0,0,1-.246.069.435.435,0,0,0-.275.081.475.475,0,0,1-.25.081.652.652,0,0,0-.247.061c-.149.085-.222.073-.287-.052a29.446,29.446,0,0,1-.081-3.381c-.024-3.454-.032-3.6-.21-3.7a.136.136,0,0,1-.069-.093.058.058,0,0,0-.052-.061.233.233,0,0,1-.121-.081.214.214,0,0,0-.125-.081.924.924,0,0,1-.23-.081c-.17-.077-.271-.081-2.7-.077S1739.986-1380.921,1739.848-1380.844Zm11.514,11.389a4.878,4.878,0,0,1,.626.093,2.287,2.287,0,0,0,.4.069.591.591,0,0,1,.283.081.54.54,0,0,0,.247.081.284.284,0,0,1,.2.081.268.268,0,0,0,.17.081.24.24,0,0,1,.161.081.259.259,0,0,0,.161.081.288.288,0,0,1,.182.1.281.281,0,0,0,.137.1.1.1,0,0,1,.073.061.1.1,0,0,0,.077.061,1.712,1.712,0,0,1,.348.311c.4.424.408.436.408.485a.255.255,0,0,0,.081.113.232.232,0,0,1,.081.121.232.232,0,0,0,.081.121.241.241,0,0,1,.081.15.25.25,0,0,0,.073.145.491.491,0,0,1,.105.21.43.43,0,0,0,.081.2.608.608,0,0,1,.077.238.58.58,0,0,0,.085.246.863.863,0,0,1,.1.331,2.206,2.206,0,0,0,.1.42,1.676,1.676,0,0,1,.065.424,3.136,3.136,0,0,0,.081.6,8.1,8.1,0,0,1,.081,1.891,6.853,6.853,0,0,1-.061,1.672,2.488,2.488,0,0,0-.1.6,2.684,2.684,0,0,1-.093.6,1.254,1.254,0,0,0-.085.331.95.95,0,0,1-.085.3.861.861,0,0,0-.085.246.722.722,0,0,1-.1.259.346.346,0,0,0-.077.19.3.3,0,0,1-.081.178.273.273,0,0,0-.081.154.241.241,0,0,1-.081.149.232.232,0,0,0-.081.121.233.233,0,0,1-.081.121.25.25,0,0,0-.081.109,3.462,3.462,0,0,1-.469.574,2.378,2.378,0,0,1-.469.359c-.04.012-.073.044-.073.065s-.061.061-.137.085a.29.29,0,0,0-.161.1.13.13,0,0,1-.117.061.39.39,0,0,0-.2.081.379.379,0,0,1-.19.081.489.489,0,0,0-.218.077,1.048,1.048,0,0,1-.351.1,1.151,1.151,0,0,0-.364.1c-.129.069-.267.073-1.935.073a9.887,9.887,0,0,1-2.036-.073,4.277,4.277,0,0,0-.667-.093,1.62,1.62,0,0,1-.525-.085,1.392,1.392,0,0,0-.416-.089c-.344-.028-.367-.044-.436-.287-.052-.19-.057-11.683,0-12.015.04-.255.081-.307.238-.307a.3.3,0,0,0,.174-.064.58.58,0,0,1,.283-.089,1.006,1.006,0,0,0,.335-.093.627.627,0,0,1,.323-.077.589.589,0,0,0,.323-.081.573.573,0,0,1,.335-.081.89.89,0,0,0,.339-.065,2.084,2.084,0,0,1,.529-.1,4.551,4.551,0,0,0,.57-.085A6.769,6.769,0,0,1,1751.362-1369.456Z" transform="translate(-1739 1381.282)" fill="#fff"/><path d="M2748.348-1380.919a.9.9,0,0,1-.226.081,1.11,1.11,0,0,0-.44.412.7.7,0,0,1-.089.214l-.093.162v10.322c0,8.387.012,10.395.052,10.706.032.21.081.638.109.949a5.031,5.031,0,0,0,.117.764,1.437,1.437,0,0,1,.065.376.808.808,0,0,0,.081.323.813.813,0,0,1,.081.315.593.593,0,0,0,.081.283.524.524,0,0,1,.081.246.438.438,0,0,0,.081.23.389.389,0,0,1,.081.2.386.386,0,0,0,.073.194.616.616,0,0,1,.105.214,1.057,1.057,0,0,0,.1.222,2.325,2.325,0,0,1,.23.392.642.642,0,0,0,.117.178.167.167,0,0,1,.064.1.214.214,0,0,0,.081.125.25.25,0,0,1,.081.109.344.344,0,0,0,.084.121,2.546,2.546,0,0,1,.44.537.05.05,0,0,0,.04.052.289.289,0,0,1,.129.1.3.3,0,0,0,.134.1.777.777,0,0,1,.222.182.726.726,0,0,0,.226.182.081.081,0,0,1,.069.057c.024.057.125.121.376.242a.346.346,0,0,1,.149.125.141.141,0,0,0,.117.061.192.192,0,0,1,.146.081.19.19,0,0,0,.166.081.289.289,0,0,1,.186.081.292.292,0,0,0,.19.081.322.322,0,0,1,.194.081.321.321,0,0,0,.2.081.381.381,0,0,1,.21.077.748.748,0,0,0,.311.093.7.7,0,0,1,.283.081.82.82,0,0,0,.372.093,2.029,2.029,0,0,1,.445.089,2.412,2.412,0,0,0,.606.081,2.538,2.538,0,0,1,.545.065,1.167,1.167,0,0,0,.343.061c.529.028,2.177.012,2.646-.028.267-.024.86-.061,1.317-.081a10.337,10.337,0,0,0,1.071-.089c.133-.024.456-.069.723-.093s.513-.061.545-.073a1.794,1.794,0,0,1,.5-.113.416.416,0,0,0,.218-.081.37.37,0,0,1,.162-.081.588.588,0,0,0,.295-.263c0-.024.036-.065.081-.093a.169.169,0,0,0,.081-.121,1.013,1.013,0,0,1,.061-.23,14.357,14.357,0,0,0,0-2.7.857.857,0,0,1-.061-.251.3.3,0,0,0-.081-.182.272.272,0,0,1-.081-.141c0-.032-.016-.061-.036-.061a.27.27,0,0,1-.109-.069,1.067,1.067,0,0,0-.275-.15,2.6,2.6,0,0,0-1.034-.085,4.48,4.48,0,0,0-.974.052,4.413,4.413,0,0,1-.7.089,2.617,2.617,0,0,0-.6.081,5.437,5.437,0,0,1-1.467-.016,1.753,1.753,0,0,0-.372-.081.656.656,0,0,1-.283-.081.6.6,0,0,0-.2-.085c-.072-.016-.145-.052-.157-.085s-.089-.073-.174-.1a.32.32,0,0,1-.178-.1.091.091,0,0,0-.072-.061.208.208,0,0,1-.121-.073,3.314,3.314,0,0,0-.271-.226c-.113-.089-.206-.182-.206-.214s-.036-.073-.081-.1a.177.177,0,0,1-.081-.121.132.132,0,0,0-.077-.109.4.4,0,0,1-.125-.166c-.028-.065-.064-.121-.081-.121s-.048-.073-.077-.166a.354.354,0,0,0-.109-.186c-.036-.012-.056-.077-.056-.174a.3.3,0,0,0-.077-.218c-.056-.048-.081-.141-.093-.327a.634.634,0,0,0-.081-.331c-.1-.109-.113-.541-.138-4.925l-.02-3.967.113-.109.113-.109,2.917,0a21.676,21.676,0,0,0,3.091-.057,1.1,1.1,0,0,1,.254-.061.24.24,0,0,0,.15-.073c.085-.089.154-.158.242-.243a.448.448,0,0,0,.1-.206.818.818,0,0,1,.1-.263c.064-.109.072-.246.076-1.495,0-1.3,0-1.386-.081-1.527a.7.7,0,0,1-.081-.251c0-.137-.355-.509-.489-.509a.365.365,0,0,1-.2-.081c-.093-.081-.149-.081-3.139-.081h-3.042l-.052-.113c-.036-.081-.052-.953-.061-3.6a27.424,27.424,0,0,0-.081-3.737.957.957,0,0,0-.137-.311.256.256,0,0,1-.073-.113c0-.024-.028-.04-.061-.04a.146.146,0,0,1-.1-.081.162.162,0,0,0-.125-.081.743.743,0,0,1-.238-.081c-.154-.077-.238-.081-2.674-.081C2748.623-1381,2748.5-1380.992,2748.348-1380.919Z" transform="translate(-2706.757 1381.352)" fill="#fff"/><path d="M3878.97-1380.9a.4.4,0,0,0-.113.081.263.263,0,0,1-.158.052c-.068,0-.162.065-.291.2-.364.376-.332-1.119-.315,14.568.008,12.063.016,13.881.069,14.039a1.4,1.4,0,0,0,.469.566l.117.1h2.82a13.917,13.917,0,0,0,2.868-.065.342.342,0,0,1,.129-.093,1.112,1.112,0,0,0,.384-.432.264.264,0,0,1,.072-.129c.065-.073.069-.808.081-14.043.008-13.918.008-13.962-.073-14.071a.413.413,0,0,1-.081-.178,1.129,1.129,0,0,0-.5-.461.479.479,0,0,1-.206-.081c-.117-.077-.19-.081-2.667-.077C3880.177-1380.925,3879-1380.913,3878.97-1380.9Z" transform="translate(-3791.667 1381.282)" fill="#fff"/><path d="M3192.994-1216.619a6.8,6.8,0,0,1-.933.052,2.811,2.811,0,0,0-.978.081,1.309,1.309,0,0,1-.5.1,1.994,1.994,0,0,0-.562.1,1.031,1.031,0,0,1-.355.077.615.615,0,0,0-.3.069,1.047,1.047,0,0,1-.344.1.767.767,0,0,0-.311.093.365.365,0,0,1-.214.065.471.471,0,0,0-.246.081.389.389,0,0,1-.2.081.4.4,0,0,0-.2.081.39.39,0,0,1-.2.081.356.356,0,0,0-.194.077.722.722,0,0,1-.2.1.718.718,0,0,0-.2.105.319.319,0,0,1-.166.077.245.245,0,0,0-.141.081.246.246,0,0,1-.141.081.245.245,0,0,0-.141.081.245.245,0,0,1-.142.081.246.246,0,0,0-.141.081.233.233,0,0,1-.121.081.233.233,0,0,0-.121.081.234.234,0,0,1-.129.081.218.218,0,0,0-.121.081.248.248,0,0,1-.109.081.317.317,0,0,0-.121.081c-.214.2-.315.283-.348.283s-.061.036-.089.081-.069.081-.085.081a3.637,3.637,0,0,0-.416.392c-.206.218-.416.432-.461.477a.394.394,0,0,0-.081.109.5.5,0,0,1-.105.142c-.056.061-.129.141-.161.178a.216.216,0,0,0-.057.109c0,.028-.036.069-.081.1a.166.166,0,0,0-.081.109.228.228,0,0,1-.061.121,1.918,1.918,0,0,0-.3.473.242.242,0,0,1-.081.117.245.245,0,0,0-.081.141.246.246,0,0,1-.081.141.258.258,0,0,0-.081.162.258.258,0,0,1-.081.161.251.251,0,0,0-.081.15.374.374,0,0,1-.081.182.371.371,0,0,0-.081.182.874.874,0,0,1-.1.267.842.842,0,0,0-.1.287.293.293,0,0,1-.064.17.548.548,0,0,0-.085.247.665.665,0,0,1-.1.271.455.455,0,0,0-.077.291.633.633,0,0,1-.081.327.682.682,0,0,0-.081.368,1.7,1.7,0,0,1-.077.465,2.768,2.768,0,0,0-.1.679,1.954,1.954,0,0,1-.073.545,7.46,7.46,0,0,0-.057,1.612,7.3,7.3,0,0,0,.073,1.757,2.432,2.432,0,0,1,.069.59,1.27,1.27,0,0,0,.081.541,1.131,1.131,0,0,1,.081.436.689.689,0,0,0,.077.372,1.056,1.056,0,0,1,.093.355.671.671,0,0,0,.081.3.721.721,0,0,1,.089.271.622.622,0,0,0,.085.267.256.256,0,0,1,.06.145.986.986,0,0,0,.1.279,1.02,1.02,0,0,1,.1.287.258.258,0,0,0,.081.157.269.269,0,0,1,.081.17.241.241,0,0,0,.081.162.27.27,0,0,1,.081.178.278.278,0,0,0,.081.178.245.245,0,0,1,.081.141.172.172,0,0,0,.069.125.7.7,0,0,1,.121.186c.029.073.069.133.089.133s.052.04.069.089a.428.428,0,0,0,.081.153,1.268,1.268,0,0,1,.259.36c0,.024.036.065.081.093s.081.069.081.089a13.451,13.451,0,0,0,1.442,1.438c.02,0,.056.036.084.081s.069.081.093.081a1.225,1.225,0,0,1,.364.263.231.231,0,0,0,.109.061c.024,0,.065.036.089.081a.171.171,0,0,0,.137.081.317.317,0,0,1,.186.1.308.308,0,0,0,.154.1.381.381,0,0,1,.158.081.372.372,0,0,0,.161.081.372.372,0,0,1,.162.081.368.368,0,0,0,.161.081.371.371,0,0,1,.162.081.392.392,0,0,0,.194.081.259.259,0,0,1,.162.081.287.287,0,0,0,.2.081.4.4,0,0,1,.226.077.685.685,0,0,0,.275.1.365.365,0,0,1,.206.073.555.555,0,0,0,.262.081.749.749,0,0,1,.295.089.805.805,0,0,0,.319.081,1.362,1.362,0,0,1,.371.081,1.794,1.794,0,0,0,.437.089,2.058,2.058,0,0,1,.457.089,3.786,3.786,0,0,0,.727.093c.323.02.739.061.929.085a21.945,21.945,0,0,0,2.828,0c.279-.024.84-.061,1.252-.081a8.178,8.178,0,0,0,.949-.085c.113-.024.428-.069.707-.093a2.9,2.9,0,0,0,.594-.1,1.693,1.693,0,0,1,.424-.077.879.879,0,0,0,.408-.085.671.671,0,0,1,.3-.081,1.055,1.055,0,0,0,.356-.093.532.532,0,0,1,.254-.077.443.443,0,0,0,.238-.081.441.441,0,0,1,.23-.081.524.524,0,0,0,.246-.081.512.512,0,0,1,.227-.081.255.255,0,0,0,.174-.077.474.474,0,0,1,.222-.1.409.409,0,0,0,.206-.085.167.167,0,0,1,.105-.061.379.379,0,0,0,.161-.1.382.382,0,0,1,.2-.1c.052,0,.1-.016.1-.032a1.058,1.058,0,0,1,.416-.291.106.106,0,0,0,.089-.081c.012-.044.044-.081.069-.081a5.227,5.227,0,0,0,.76-.763c0-.024.036-.061.081-.085a.147.147,0,0,0,.081-.1.422.422,0,0,1,.1-.174.442.442,0,0,0,.1-.17.206.206,0,0,1,.061-.105.418.418,0,0,0,.085-.17.364.364,0,0,1,.085-.158.42.42,0,0,0,.081-.242.5.5,0,0,1,.081-.242c.045-.032.073-.166.093-.444a2.4,2.4,0,0,1,.077-.509,1.782,1.782,0,0,0-.016-.852.6.6,0,0,1-.061-.23c0-.133-.315-.481-.44-.481a.377.377,0,0,1-.178-.081c-.1-.077-.161-.081-2.137-.081a11.741,11.741,0,0,0-2.113.057.911.911,0,0,1-.283.085.72.72,0,0,0-.295.1.4.4,0,0,1-.194.077c-.052,0-.1.016-.1.04s-.061.069-.129.1a4.57,4.57,0,0,0-.6.546,4.688,4.688,0,0,1-.509.481.251.251,0,0,0-.109.081.218.218,0,0,1-.121.081.233.233,0,0,0-.129.081.245.245,0,0,1-.142.081.217.217,0,0,0-.137.077.472.472,0,0,1-.226.1.5.5,0,0,0-.218.085.539.539,0,0,1-.254.085.676.676,0,0,0-.263.089.968.968,0,0,1-.384.089,2.4,2.4,0,0,0-.493.1,4.692,4.692,0,0,1-1.257.065,4.045,4.045,0,0,1-1.317-.081,1.643,1.643,0,0,0-.44-.081.836.836,0,0,1-.323-.065,1.124,1.124,0,0,0-.3-.1.609.609,0,0,1-.242-.093.5.5,0,0,0-.186-.089.639.639,0,0,1-.218-.105.359.359,0,0,0-.129-.073,2.025,2.025,0,0,1-.432-.283.361.361,0,0,0-.133-.081c-.021,0-.036-.024-.036-.056a.107.107,0,0,0-.081-.085.107.107,0,0,1-.081-.085c0-.032-.016-.056-.036-.056a2.066,2.066,0,0,1-.509-.566.163.163,0,0,0-.081-.1.131.131,0,0,1-.061-.117.267.267,0,0,0-.081-.17.259.259,0,0,1-.081-.162.39.39,0,0,0-.081-.194.416.416,0,0,1-.081-.222.441.441,0,0,0-.089-.23.647.647,0,0,1-.1-.335,1.055,1.055,0,0,0-.093-.351.809.809,0,0,1-.077-.465.809.809,0,0,0-.065-.436.216.216,0,0,1,.1-.356c.114-.04,1.786-.052,7.943-.052,6.84,0,7.821-.012,7.947-.065a.874.874,0,0,1,.259-.061.275.275,0,0,0,.182-.073c.036-.036.121-.117.19-.178a.407.407,0,0,0,.125-.157.16.16,0,0,1,.073-.1c.064-.045.068-.182.068-1.846a8.332,8.332,0,0,0-.056-1.862,1.238,1.238,0,0,1-.081-.525,1.4,1.4,0,0,0-.089-.55,1.386,1.386,0,0,1-.1-.424.924.924,0,0,0-.089-.392.632.632,0,0,1-.085-.283.476.476,0,0,0-.093-.287.322.322,0,0,1-.077-.246.307.307,0,0,0-.081-.246.28.28,0,0,1-.081-.182.411.411,0,0,0-.081-.214.391.391,0,0,1-.081-.2.269.269,0,0,0-.081-.17.258.258,0,0,1-.081-.162.252.252,0,0,0-.077-.157.448.448,0,0,1-.1-.21c-.016-.077-.044-.137-.069-.137s-.065-.061-.1-.133a.694.694,0,0,0-.117-.19.16.16,0,0,1-.065-.1.25.25,0,0,0-.081-.121.24.24,0,0,1-.081-.125.16.16,0,0,0-.081-.1.169.169,0,0,1-.081-.121.178.178,0,0,0-.073-.121.254.254,0,0,1-.093-.1,4.269,4.269,0,0,0-.505-.6,1.122,1.122,0,0,1-.19-.238c-.012-.036-.044-.069-.064-.069a1.327,1.327,0,0,1-.283-.234,4.727,4.727,0,0,0-.388-.331,1.78,1.78,0,0,1-.234-.194.275.275,0,0,0-.137-.089.05.05,0,0,1-.052-.044c0-.02-.057-.061-.121-.085a.329.329,0,0,1-.166-.117.155.155,0,0,0-.121-.077.113.113,0,0,1-.1-.061.293.293,0,0,0-.158-.1.294.294,0,0,1-.157-.1.13.13,0,0,0-.117-.061.268.268,0,0,1-.17-.081.245.245,0,0,0-.141-.081.508.508,0,0,1-.2-.1.5.5,0,0,0-.222-.1.25.25,0,0,1-.154-.081.265.265,0,0,0-.186-.081.248.248,0,0,1-.166-.061.412.412,0,0,0-.2-.085.694.694,0,0,1-.242-.1.435.435,0,0,0-.242-.077.572.572,0,0,1-.267-.081.592.592,0,0,0-.282-.081.593.593,0,0,1-.283-.081.565.565,0,0,0-.311-.081,1.3,1.3,0,0,1-.4-.081,1.451,1.451,0,0,0-.4-.085,2.793,2.793,0,0,1-.715-.117c-.146-.04-1.038-.093-2.424-.141A2.633,2.633,0,0,0,3192.994-1216.619Zm1.236,4.529a1.956,1.956,0,0,0,.473.077,1.739,1.739,0,0,1,.525.1.983.983,0,0,0,.267.085.8.8,0,0,1,.279.1.368.368,0,0,0,.19.081.259.259,0,0,1,.162.081.258.258,0,0,0,.166.081.171.171,0,0,1,.137.081c.024.044.065.081.085.081a.427.427,0,0,1,.157.089c.064.052.19.145.279.21a.633.633,0,0,1,.166.15,1.1,1.1,0,0,0,.182.222.931.931,0,0,1,.182.242.239.239,0,0,0,.081.117.234.234,0,0,1,.081.121.231.231,0,0,0,.081.121.259.259,0,0,1,.081.162.257.257,0,0,0,.081.162.28.28,0,0,1,.081.182.413.413,0,0,0,.081.214.445.445,0,0,1,.081.242.417.417,0,0,0,.077.234.845.845,0,0,1,.1.428,1.642,1.642,0,0,0,.085.461,1.357,1.357,0,0,1-.012.889l-.077.1-4.715.012a39.168,39.168,0,0,1-4.852-.057.279.279,0,0,1-.161-.166,1.34,1.34,0,0,1,.081-.679.722.722,0,0,0,.065-.372.672.672,0,0,1,.069-.376.914.914,0,0,0,.1-.311.59.59,0,0,1,.093-.275.536.536,0,0,0,.089-.214.59.59,0,0,1,.077-.21.387.387,0,0,0,.081-.174.292.292,0,0,1,.1-.154.153.153,0,0,0,.077-.129.619.619,0,0,1,.162-.267,1.038,1.038,0,0,0,.162-.2,1.22,1.22,0,0,1,.182-.2.887.887,0,0,0,.182-.21.043.043,0,0,1,.049-.04c.044,0,.117-.06.283-.234a.308.308,0,0,1,.133-.089.233.233,0,0,0,.121-.081.245.245,0,0,1,.141-.081.245.245,0,0,0,.142-.081.26.26,0,0,1,.157-.081.479.479,0,0,0,.206-.081.891.891,0,0,1,.3-.1,1.256,1.256,0,0,0,.323-.1.865.865,0,0,1,.364-.081,2.063,2.063,0,0,0,.424-.057A6.275,6.275,0,0,1,3194.23-1212.09Z" transform="translate(-3123.224 1223.633)" fill="#fff"/><path d="M2441.677-1193.919a.46.46,0,0,1-.186.081.9.9,0,0,0-.36.295.3.3,0,0,1-.081.109.3.3,0,0,0-.081.182.68.68,0,0,1-.049.214c-.068.141-.032,20.115.032,20.414a.752.752,0,0,0,.226.376.806.806,0,0,0,.234.186.175.175,0,0,1,.1.069c.049.069.23.073,2.856.073,2.574,0,2.812,0,2.881-.069a.776.776,0,0,1,.19-.109c.061-.024.109-.069.109-.1a.1.1,0,0,1,.061-.077.4.4,0,0,0,.117-.161.445.445,0,0,1,.1-.166c.032-.02.044-2.864.044-10.3,0-8.88-.008-10.282-.056-10.322a.334.334,0,0,1-.085-.166,1,1,0,0,0-.46-.444.483.483,0,0,1-.186-.081c-.117-.077-.194-.081-2.707-.081S2441.793-1194,2441.677-1193.919Z" transform="translate(-2412.529 1201.907)" fill="#fff"/></g></g><rect width="176" height="102" transform="translate(-16521 -7097)" fill="none"/></g></svg>