<svg xmlns="http://www.w3.org/2000/svg" width="60" height="60" viewBox="0 0 60 60"><g transform="translate(-17508 9832)"><rect width="60" height="60" transform="translate(17508 -9832)" fill="none"/><path d="M26.3.75A12.4,12.4,0,0,1,35.07,21.92,12.4,12.4,0,0,1,17.532,4.382,12.32,12.32,0,0,1,26.3.75Zm0,21.8a9.4,9.4,0,1,0-9.4-9.4A9.412,9.412,0,0,0,26.3,22.552Zm0,8.337a23.284,23.284,0,0,1,23.3,23.3,1.5,1.5,0,0,1-.875,1.363,53.633,53.633,0,0,1-22.354,4.881H26.3a54.141,54.141,0,0,1-11.649-1.265A53.53,53.53,0,0,1,3.875,55.555,1.5,1.5,0,0,1,3,54.193a23.281,23.281,0,0,1,23.3-23.3Zm20.28,22.34A20.308,20.308,0,0,0,7.594,46.29a20.12,20.12,0,0,0-1.571,6.94A50.53,50.53,0,0,0,15.3,56.242a51.14,51.14,0,0,0,11,1.194h.074A50.631,50.631,0,0,0,46.581,53.23Z" transform="translate(17511.998 -9832.75)" fill="#8353f2"/></g></svg>