<svg xmlns="http://www.w3.org/2000/svg" width="60" height="60" viewBox="0 0 60 60">
  <g id="Groupe_1744" data-name="Groupe 1744" transform="translate(-14770 9092)">
    <rect id="Rectangle_987" data-name="Rectangle 987" width="60" height="60" transform="translate(14770 -9092)" fill="none"/>
    <path id="Tracé_2561" data-name="Tracé 2561" d="M40.954,40.538a22.349,22.349,0,0,0,9.194-1.177,7.372,7.372,0,0,0-11.506-6.684m2.31,7.859,0,.076a14.417,14.417,0,0,1-.091,1.637,29.53,29.53,0,0,1-29.308,0,14.9,14.9,0,0,1-.091-1.713m29.49,0a14.673,14.673,0,0,0-2.313-7.856m0,0a14.749,14.749,0,0,0-24.863,0m0,0a7.372,7.372,0,0,0-11.5,6.684,22.083,22.083,0,0,0,9.191,1.172m2.31-7.856a14.673,14.673,0,0,0-2.31,7.856M33.581,11.122A7.372,7.372,0,1,1,26.209,3.75a7.372,7.372,0,0,1,7.372,7.372Zm14.745,7.372A5.529,5.529,0,1,1,42.8,12.965,5.529,5.529,0,0,1,48.326,18.495Zm-33.176,0a5.529,5.529,0,1,1-5.529-5.529A5.529,5.529,0,0,1,15.15,18.495Z" transform="translate(14774.249 -9087.25)" fill="none" stroke="#8353f2" stroke-linecap="round" stroke-linejoin="round" stroke-width="3"/>
  </g>
</svg>
