<svg xmlns="http://www.w3.org/2000/svg" width="60" height="60" viewBox="0 0 60 60">
  <g id="Groupe_1742" data-name="Groupe 1742" transform="translate(-14770 8524)">
    <rect id="Rectangle_989" data-name="Rectangle 989" width="60" height="60" transform="translate(14770 -8524)" fill="none"/>
    <path id="Tracé_2562" data-name="Tracé 2562" d="M15.492,16.241h22.7m-22.7,7.567h11.35M2.25,27.617a8.119,8.119,0,0,0,6.828,8.139q4.271.628,8.634.956a2.882,2.882,0,0,1,2.182,1.264L26.842,48.4l6.949-10.424a2.875,2.875,0,0,1,2.182-1.264q4.333-.323,8.634-.956a8.118,8.118,0,0,0,6.828-8.142V12.435a8.118,8.118,0,0,0-6.828-8.142,122.592,122.592,0,0,0-35.528,0A8.12,8.12,0,0,0,2.25,12.435V27.614Z" transform="translate(14773.25 -8519.5)" fill="none" stroke="#8353f2" stroke-linecap="round" stroke-linejoin="round" stroke-width="3"/>
  </g>
</svg>
