<svg xmlns="http://www.w3.org/2000/svg" width="60" height="60" viewBox="0 0 60 60">
  <g id="Groupe_1742" data-name="Groupe 1742" transform="translate(-15697 9023)">
    <rect id="Rectangle_990" data-name="Rectangle 990" width="60" height="60" transform="translate(15697 -9023)" fill="none"/>
    <path id="Tracé_2568" data-name="Tracé 2568" d="M12.814,22.135a6.353,6.353,0,0,0,4.9-2.6,21.791,21.791,0,0,1,6.9-5.785,8.356,8.356,0,0,0,3.984-4.134,10.841,10.841,0,0,0,.776-4.03V4.058A1.808,1.808,0,0,1,31.173,2.25,5.423,5.423,0,0,1,36.6,7.673a18.034,18.034,0,0,1-1.743,7.756,2.14,2.14,0,0,0,1.747,3.09h7.535a4.814,4.814,0,0,1,4.951,4.134,29.178,29.178,0,0,1,.164,3.1,28.8,28.8,0,0,1-6.385,18.128A4.917,4.917,0,0,1,39,45.635h-9.68a10.918,10.918,0,0,1-3.43-.554l-7.506-2.507a10.849,10.849,0,0,0-3.43-.554H11.057m20.116-23.5H36.6m-25.539,23.5c.2.494.417.976.651,1.451a1.489,1.489,0,0,1-1.261,2.164H8.259a4.854,4.854,0,0,1-4.753-3.3,29.063,29.063,0,0,1,.747-19.053,4.876,4.876,0,0,1,4.625-2.957h2.538a1.516,1.516,0,0,1,1.205,2.314A21.739,21.739,0,0,0,11.06,42.019Z" transform="translate(15701.25 -9016.75)" fill="none" stroke="#8353f2" stroke-linecap="round" stroke-linejoin="round" stroke-width="3"/>
  </g>
</svg>
