<svg xmlns="http://www.w3.org/2000/svg" width="52" height="52" viewBox="0 0 52 52"><g transform="translate(16539 8218)"><rect width="52" height="52" transform="translate(-16539 -8218)" fill="none"/><path d="M-16510.4-8169.8a1.139,1.139,0,0,1-.8-.3,1.481,1.481,0,0,1-.4-2.1,42.348,42.348,0,0,0,5.5-11.8,1.461,1.461,0,0,1,1.9-1,1.46,1.46,0,0,1,1,1.9,44.081,44.081,0,0,1-5.9,12.6A1.571,1.571,0,0,1-16510.4-8169.8Zm-9.5-1.7a1.433,1.433,0,0,1-1-.4,1.55,1.55,0,0,1-.2-2.1,32.7,32.7,0,0,0,7.9-21.4,1.538,1.538,0,0,1,1.5-1.5h0a1.538,1.538,0,0,1,1.5,1.5,35.7,35.7,0,0,1-8.6,23.3A1.385,1.385,0,0,1-16519.9-8171.5Zm21.8-3.4a1.266,1.266,0,0,1-.6-.1,1.431,1.431,0,0,1-.8-1.9,50.518,50.518,0,0,0,3.5-18.4,15.851,15.851,0,0,0-2.6-8.7,15.648,15.648,0,0,0-21.7-4.4,1.48,1.48,0,0,1-2.1-.4,1.479,1.479,0,0,1,.4-2.1,18.7,18.7,0,0,1,25.9,5.3,18.859,18.859,0,0,1,3.1,10.3,51.985,51.985,0,0,1-3.7,19.5A1.422,1.422,0,0,1-16498.1-8174.9Zm-28.8-1.6a1.285,1.285,0,0,1-1-.4,1.454,1.454,0,0,1-.1-2.1,24.14,24.14,0,0,0,6.3-16.3,10.072,10.072,0,0,1,10.1-10.1,10.072,10.072,0,0,1,10.1,10.1c0,1.2-.1,2.5-.2,3.7a1.617,1.617,0,0,1-1.6,1.4,1.616,1.616,0,0,1-1.4-1.6c.1-1.1.1-2.3.1-3.5a7.126,7.126,0,0,0-7.1-7.1,7.127,7.127,0,0,0-7.1,7.1,26.928,26.928,0,0,1-7.1,18.3A1.236,1.236,0,0,1-16526.9-8176.5Zm-4.6-8.2a1.888,1.888,0,0,1-.8-.2,1.577,1.577,0,0,1-.5-2.1,15.41,15.41,0,0,0,2.4-8.3,18.859,18.859,0,0,1,3.1-10.3,1.48,1.48,0,0,1,2.1-.4,1.481,1.481,0,0,1,.4,2.1,15.766,15.766,0,0,0-2.6,8.6,18.764,18.764,0,0,1-2.9,10A1.3,1.3,0,0,1-16531.5-8184.7Z" fill="#8353f2"/></g></svg>