<svg xmlns="http://www.w3.org/2000/svg" xmlns:xlink="http://www.w3.org/1999/xlink" width="52" height="52" viewBox="0 0 52 52"><defs><clipPath id="a"><rect width="29.242" height="51.845" fill="#8353f2"/></clipPath></defs><g transform="translate(16880 8533)"><rect width="52" height="52" transform="translate(-16880 -8533)" fill="none"/><g transform="translate(-16869 -8533)"><g clip-path="url(#a)"><path d="M13.351,29.561c-.213-.2-.362-.333-.5-.474-1.159-1.187-2.311-2.38-3.477-3.56a1.111,1.111,0,0,1-.379-.9,2.022,2.022,0,0,0-1.956-2.04,2.071,2.071,0,0,0-2.093,1.919,2.1,2.1,0,0,0,1.8,2.144A1.372,1.372,0,0,1,7.474,27c1.841,1.865,3.657,3.756,5.5,5.624a1.322,1.322,0,0,1,.419,1.02Q13.367,42,13.38,50.359c0,.951.469,1.5,1.248,1.486.752-.015,1.2-.554,1.2-1.474q0-4.393,0-8.785v-.7c.544-.083,1.049-.15,1.551-.239A14.567,14.567,0,0,0,29.222,25.819a17.843,17.843,0,0,0-1.91-6.371A104.555,104.555,0,0,0,15.708.692c-.709-.954-1.519-.91-2.24.062a129.012,129.012,0,0,0-8.7,13.223c-1.229,2.165-2.32,4.416-3.355,6.682A13.439,13.439,0,0,0,0,26.46a14.249,14.249,0,0,0,3.657,9.466,1,1,0,0,1,.3.968,2.957,2.957,0,1,0,5.861.68,2.8,2.8,0,0,0-3.06-3.043c-1.168.17-1.6-.4-2.105-1.142-.137-.2-.28-.4-.406-.615A10.773,10.773,0,0,1,2.6,24.739a23.208,23.208,0,0,1,1.628-4.612A97,97,0,0,1,13.044,5.4c.5-.715,1.012-1.417,1.578-2.207,1.175,1.7,2.315,3.3,3.4,4.927a78.581,78.581,0,0,1,7.307,12.833,16.927,16.927,0,0,1,1.4,4.672A11.889,11.889,0,0,1,18.983,37.7c-1,.373-2.066.576-3.217.888v-.786c0-1.454-.024-2.909.019-4.361a1.52,1.52,0,0,1,.41-.94q2.39-2.388,4.848-4.707a1.26,1.26,0,0,1,.787-.3,2.28,2.28,0,0,0,2.323-2.216,2.214,2.214,0,1,0-4.428.031,1.258,1.258,0,0,1-.335.773c-1.058,1.056-2.148,2.079-3.229,3.111a4.015,4.015,0,0,1-.349.263,2.687,2.687,0,0,1-.043-.3c0-3.215-.01-6.43.015-9.645a1.035,1.035,0,0,1,.4-.663,3.031,3.031,0,0,0,1-3.521,3.076,3.076,0,0,0-3.214-1.96A3.116,3.116,0,0,0,11.294,15.8a2.969,2.969,0,0,0,1.632,3.322.721.721,0,0,1,.459.793c-.012,3.01-.006,6.021-.008,9.031,0,.174-.015.348-.027.616" transform="translate(0 0)" fill="#8353f2"/><path d="M13.351,29.561c.012-.267.027-.441.027-.616,0-3.01,0-6.021.008-9.031a.721.721,0,0,0-.459-.793A2.969,2.969,0,0,1,11.294,15.8a3.116,3.116,0,0,1,2.678-2.435,3.076,3.076,0,0,1,3.214,1.96,3.031,3.031,0,0,1-1,3.521,1.035,1.035,0,0,0-.4.663c-.026,3.215-.017,6.43-.015,9.645a2.687,2.687,0,0,0,.043.3,4.015,4.015,0,0,0,.349-.263c1.082-1.032,2.172-2.055,3.229-3.111a1.258,1.258,0,0,0,.335-.773,2.214,2.214,0,1,1,4.428-.031A2.28,2.28,0,0,1,21.829,27.5a1.26,1.26,0,0,0-.787.3q-2.452,2.325-4.848,4.707a1.52,1.52,0,0,0-.41.94c-.043,1.453-.019,2.907-.019,4.361v.786c1.151-.313,2.216-.515,3.217-.888a11.889,11.889,0,0,0,7.745-12.08,16.927,16.927,0,0,0-1.4-4.672A78.581,78.581,0,0,0,18.023,8.118c-1.086-1.631-2.225-3.227-3.4-4.927-.566.791-1.081,1.493-1.578,2.207A97,97,0,0,0,4.232,20.126,23.208,23.208,0,0,0,2.6,24.739a10.773,10.773,0,0,0,1.642,8.036c.126.21.269.411.406.615.5.744.937,1.312,2.105,1.142a2.8,2.8,0,0,1,3.06,3.043,2.957,2.957,0,1,1-5.861-.68,1,1,0,0,0-.3-.968A14.249,14.249,0,0,1,0,26.46a13.439,13.439,0,0,1,1.408-5.8c1.035-2.266,2.126-4.517,3.355-6.682A129.012,129.012,0,0,1,13.467.754C14.189-.218,15-.262,15.708.692a104.555,104.555,0,0,1,11.6,18.755,17.843,17.843,0,0,1,1.91,6.371A14.567,14.567,0,0,1,17.38,40.651c-.5.088-1.007.155-1.551.239v.7q0,4.393,0,8.785c0,.92-.447,1.459-1.2,1.474-.779.015-1.248-.535-1.248-1.486q0-8.356.008-16.711a1.322,1.322,0,0,0-.419-1.02C11.13,30.761,9.314,28.87,7.474,27a1.372,1.372,0,0,0-.725-.349,2.1,2.1,0,0,1-1.8-2.144A2.071,2.071,0,0,1,7.04,22.591,2.022,2.022,0,0,1,9,24.632a1.111,1.111,0,0,0,.379.9c1.166,1.18,2.318,2.373,3.477,3.56.138.141.286.272.5.474" transform="translate(0 0)" fill="#8353f2"/></g></g></g></svg>