<svg xmlns="http://www.w3.org/2000/svg" width="60" height="60" viewBox="0 0 60 60">
  <g id="Groupe_1748" data-name="Groupe 1748" transform="translate(-14770 10276)">
    <rect id="Rectangle_983" data-name="Rectangle 983" width="60" height="60" transform="translate(14770 -10276)" fill="none"/>
    <path id="Tracé_2557" data-name="Tracé 2557" d="M53.955,10.466V38.307a5.966,5.966,0,0,1-5.966,5.966H8.216A5.966,5.966,0,0,1,2.25,38.307V10.466m51.705,0A5.966,5.966,0,0,0,47.989,4.5H8.216A5.966,5.966,0,0,0,2.25,10.466m51.705,0v.644a5.966,5.966,0,0,1-2.838,5.081L31.231,28.427a5.966,5.966,0,0,1-6.258,0L5.087,16.193a5.966,5.966,0,0,1-2.837-5.08v-.647" transform="translate(14772.25 -10270)" fill="none" stroke="#8353f2" stroke-linecap="round" stroke-linejoin="round" stroke-width="3"/>
  </g>
</svg>
