<svg xmlns="http://www.w3.org/2000/svg" width="60" height="60" viewBox="0 0 60 60">
  <g id="Groupe_1744" data-name="Groupe 1744" transform="translate(-15697 9277)">
    <rect id="Rectangle_993" data-name="Rectangle 993" width="60" height="60" transform="translate(15697 -9277)" fill="none"/>
    <path id="Tracé_2565" data-name="Tracé 2565" d="M18.227,39.163v2.556A7.614,7.614,0,0,1,16,47.1L14.42,48.68H37.26L35.684,47.1a7.613,7.613,0,0,1-2.231-5.385V39.163M48.68,8.71V33.453a5.71,5.71,0,0,1-5.71,5.71H8.71A5.71,5.71,0,0,1,3,33.453V8.71m45.68,0A5.71,5.71,0,0,0,42.97,3H8.71A5.71,5.71,0,0,0,3,8.71m45.68,0V25.84a5.71,5.71,0,0,1-5.71,5.71H8.71A5.71,5.71,0,0,1,3,25.84V8.71" transform="translate(15701.5 -9272.5)" fill="none" stroke="#8353f2" stroke-linecap="round" stroke-linejoin="round" stroke-width="3"/>
  </g>
</svg>
