<svg xmlns="http://www.w3.org/2000/svg" width="60" height="60" viewBox="0 0 60 60">
  <g id="Groupe_1746" data-name="Groupe 1746" transform="translate(-15697 9418)">
    <g id="Groupe_1743" data-name="Groupe 1743">
      <rect id="Rectangle_992" data-name="Rectangle 992" width="60" height="60" transform="translate(15697 -9418)" fill="none"/>
      <path id="Tracé_2567" data-name="Tracé 2567" d="M28.954,3.081V4.593a2.989,2.989,0,0,0,1.078,2.3l2.842,2.369a3,3,0,0,1,.575,3.966l-1.357,2.039A5.988,5.988,0,0,1,29,17.623l-.381.128A2.946,2.946,0,0,0,27.1,22.179a2.949,2.949,0,0,1-1.136,4.272l-6.994,3.5L20.1,32.767a2.544,2.544,0,0,1-4.4,2.47L13.9,32.825a2.994,2.994,0,0,0-5.073.458L7,36.935l-1.629.407M28.954,3.084A23.953,23.953,0,0,0,5.368,37.342M28.954,3.084A23.953,23.953,0,0,1,46.759,40.44m0,0-.471-1.408a5.988,5.988,0,0,0-5.682-4.093H38.934l-.862-.862a3.867,3.867,0,0,0-6.2,1l-.1.194a4.221,4.221,0,0,1-2.614,2.172l-2.635.751A2.993,2.993,0,0,0,24.4,41.568l.194,1.166a2.619,2.619,0,0,0,2.582,2.185,5.232,5.232,0,0,1,4.964,3.58l.572,1.711m14.042-9.768A23.985,23.985,0,0,1,32.714,50.21m0,0A23.953,23.953,0,0,1,5.368,37.342M36.938,18.97a7.966,7.966,0,0,1-2.7,5.988" transform="translate(15700.503 -9415.499)" fill="none" stroke="#8353f2" stroke-linecap="round" stroke-linejoin="round" stroke-width="3"/>
    </g>
  </g>
</svg>
