<svg xmlns="http://www.w3.org/2000/svg" xmlns:xlink="http://www.w3.org/1999/xlink" width="1216" height="346" viewBox="0 0 1216 346"><defs><clipPath id="a"><rect width="1216" height="346" rx="16" fill="#50e2aa"/></clipPath></defs><g transform="translate(-1055.25 -3567)" opacity="0.273" style="mix-blend-mode:hard-light;isolation:isolate"><g transform="translate(1055.25 3567)" clip-path="url(#a)"><g transform="translate(-829.21 173.418) rotate(-45)"><path d="M682.547,1348.691-.892.452l1.784-.9L684.331,1347.787Z" transform="translate(0 0)" fill="#50e2aa"/><path d="M682.547,1348.691-.892.452l1.784-.9L684.331,1347.787Z" transform="translate(12.071 6.119)" fill="#50e2aa"/><path d="M682.547,1348.691-.892.452l1.784-.9L684.331,1347.787Z" transform="translate(22.417 11.363)" fill="#50e2aa"/><path d="M682.547,1348.691-.892.452l1.784-.9L684.331,1347.787Z" transform="translate(34.487 17.482)" fill="#50e2aa"/><path d="M682.547,1348.691-.892.452l1.784-.9L684.331,1347.787Z" transform="translate(44.834 22.727)" fill="#50e2aa"/><path d="M682.547,1348.691-.892.452l1.784-.9L684.331,1347.787Z" transform="translate(56.904 28.845)" fill="#50e2aa"/><path d="M682.547,1348.691-.892.452l1.784-.9L684.331,1347.787Z" transform="translate(67.25 34.09)" fill="#50e2aa"/><path d="M682.547,1348.691-.892.452l1.784-.9L684.331,1347.787Z" transform="translate(79.321 40.209)" fill="#50e2aa"/><path d="M682.547,1348.691-.892.452l1.784-.9L684.331,1347.787Z" transform="translate(89.667 45.453)" fill="#50e2aa"/><path d="M682.547,1348.691-.892.452l1.784-.9L684.331,1347.787Z" transform="translate(101.738 51.572)" fill="#50e2aa"/><path d="M682.547,1348.691-.892.452l1.784-.9L684.331,1347.787Z" transform="translate(112.084 56.817)" fill="#50e2aa"/><path d="M682.547,1348.691-.892.452l1.784-.9L684.331,1347.787Z" transform="translate(124.155 62.936)" fill="#50e2aa"/><path d="M682.547,1348.691-.892.452l1.784-.9L684.331,1347.787Z" transform="translate(134.501 68.18)" fill="#50e2aa"/><path d="M682.547,1348.691-.892.452l1.784-.9L684.331,1347.787Z" transform="translate(146.572 74.299)" fill="#50e2aa"/><path d="M682.547,1348.691-.892.452l1.784-.9L684.331,1347.787Z" transform="translate(156.918 79.544)" fill="#50e2aa"/><path d="M682.547,1348.691-.892.452l1.784-.9L684.331,1347.787Z" transform="translate(168.988 85.662)" fill="#50e2aa"/><path d="M682.547,1348.691-.892.452l1.784-.9L684.331,1347.787Z" transform="translate(179.335 90.907)" fill="#50e2aa"/><path d="M682.547,1348.691-.892.452l1.784-.9L684.331,1347.787Z" transform="translate(191.405 97.026)" fill="#50e2aa"/><path d="M682.547,1348.691-.892.452l1.784-.9L684.331,1347.787Z" transform="translate(201.751 102.27)" fill="#50e2aa"/><path d="M682.547,1348.691-.892.452l1.784-.9L684.331,1347.787Z" transform="translate(213.822 108.389)" fill="#50e2aa"/><path d="M682.547,1348.691-.892.452l1.784-.9L684.331,1347.787Z" transform="translate(224.168 113.634)" fill="#50e2aa"/><path d="M682.547,1348.691-.892.452l1.784-.9L684.331,1347.787Z" transform="translate(236.239 119.752)" fill="#50e2aa"/><path d="M682.547,1348.691-.892.452l1.784-.9L684.331,1347.787Z" transform="translate(246.585 124.997)" fill="#50e2aa"/><path d="M682.547,1348.691-.892.452l1.784-.9L684.331,1347.787Z" transform="translate(258.656 131.116)" fill="#50e2aa"/><path d="M682.547,1348.691-.892.452l1.784-.9L684.331,1347.787Z" transform="translate(269.002 136.36)" fill="#50e2aa"/><path d="M682.547,1348.691-.892.452l1.784-.9L684.331,1347.787Z" transform="translate(281.073 142.479)" fill="#50e2aa"/><path d="M682.547,1348.691-.892.452l1.784-.9L684.331,1347.787Z" transform="translate(291.419 147.724)" fill="#50e2aa"/><path d="M682.547,1348.691-.892.452l1.784-.9L684.331,1347.787Z" transform="translate(303.489 153.842)" fill="#50e2aa"/><path d="M682.547,1348.691-.892.452l1.784-.9L684.331,1347.787Z" transform="translate(313.836 159.087)" fill="#50e2aa"/><path d="M682.547,1348.691-.892.452l1.784-.9L684.331,1347.787Z" transform="translate(325.906 165.206)" fill="#50e2aa"/><path d="M682.547,1348.691-.892.452l1.784-.9L684.331,1347.787Z" transform="translate(337.977 171.325)" fill="#50e2aa"/><path d="M682.547,1348.691-.892.452l1.784-.9L684.331,1347.787Z" transform="translate(348.323 176.569)" fill="#50e2aa"/><path d="M682.547,1348.691-.892.452l1.784-.9L684.331,1347.787Z" transform="translate(360.394 182.688)" fill="#50e2aa"/><path d="M682.547,1348.691-.892.452l1.784-.9L684.331,1347.787Z" transform="translate(370.74 187.933)" fill="#50e2aa"/><path d="M682.547,1348.691-.892.452l1.784-.9L684.331,1347.787Z" transform="translate(382.81 194.051)" fill="#50e2aa"/><path d="M682.547,1348.691-.892.452l1.784-.9L684.331,1347.787Z" transform="translate(393.157 199.296)" fill="#50e2aa"/><path d="M682.547,1348.691-.892.452l1.784-.9L684.331,1347.787Z" transform="translate(405.227 205.415)" fill="#50e2aa"/><path d="M682.547,1348.691-.892.452l1.784-.9L684.331,1347.787Z" transform="translate(415.574 210.659)" fill="#50e2aa"/><path d="M682.547,1348.691-.892.452l1.784-.9L684.331,1347.787Z" transform="translate(427.644 216.778)" fill="#50e2aa"/><path d="M682.547,1348.691-.892.452l1.784-.9L684.331,1347.787Z" transform="translate(437.99 222.023)" fill="#50e2aa"/><path d="M682.547,1348.691-.892.452l1.784-.9L684.331,1347.787Z" transform="translate(450.061 228.141)" fill="#50e2aa"/><path d="M682.547,1348.691-.892.452l1.784-.9L684.331,1347.787Z" transform="translate(460.407 233.386)" fill="#50e2aa"/><path d="M682.547,1348.691-.892.452l1.784-.9L684.331,1347.787Z" transform="translate(482.824 244.749)" fill="#50e2aa"/><path d="M682.547,1348.691-.892.452l1.784-.9L684.331,1347.787Z" transform="translate(494.895 250.868)" fill="#50e2aa"/><path d="M682.547,1348.691-.892.452l1.784-.9L684.331,1347.787Z" transform="translate(517.311 262.231)" fill="#50e2aa"/><path d="M682.547,1348.691-.892.452l1.784-.9L684.331,1347.787Z" transform="translate(539.728 273.595)" fill="#50e2aa"/><path d="M682.547,1348.691-.892.452l1.784-.9L684.331,1347.787Z" transform="translate(572.491 290.203)" fill="#50e2aa"/><path d="M682.547,1348.691-.892.452l1.784-.9L684.331,1347.787Z" transform="translate(584.562 296.322)" fill="#50e2aa"/><path d="M682.547,1348.691-.892.452l1.784-.9L684.331,1347.787Z" transform="translate(606.979 307.685)" fill="#50e2aa"/><path d="M682.547,1348.691-.892.452l1.784-.9L684.331,1347.787Z" transform="translate(629.396 319.048)" fill="#50e2aa"/><path d="M682.547,1348.691-.892.452l1.784-.9L684.331,1347.787Z" transform="translate(662.159 335.656)" fill="#50e2aa"/><path d="M682.547,1348.691-.892.452l1.784-.9L684.331,1347.787Z" transform="translate(674.229 341.775)" fill="#50e2aa"/><path d="M682.547,1348.691-.892.452l1.784-.9L684.331,1347.787Z" transform="translate(696.646 353.138)" fill="#50e2aa"/><path d="M682.547,1348.691-.892.452l1.784-.9L684.331,1347.787Z" transform="translate(719.063 364.502)" fill="#50e2aa"/><path d="M682.547,1348.691-.892.452l1.784-.9L684.331,1347.787Z" transform="translate(753.55 381.984)" fill="#50e2aa"/><path d="M682.547,1348.691-.892.452l1.784-.9L684.331,1347.787Z" transform="translate(775.967 393.347)" fill="#50e2aa"/><path d="M682.547,1348.691-.892.452l1.784-.9L684.331,1347.787Z" transform="translate(786.313 398.592)" fill="#50e2aa"/><path d="M682.547,1348.691-.892.452l1.784-.9L684.331,1347.787Z" transform="translate(808.73 409.955)" fill="#50e2aa"/><path d="M682.547,1348.691-.892.452l1.784-.9L684.331,1347.787Z" transform="translate(831.147 421.319)" fill="#50e2aa"/><path d="M682.547,1348.691-.892.452l1.784-.9L684.331,1347.787Z" transform="translate(865.634 438.801)" fill="#50e2aa"/><path d="M682.547,1348.691-.892.452l1.784-.9L684.331,1347.787Z" transform="translate(875.981 444.045)" fill="#50e2aa"/><path d="M682.547,1348.691-.892.452l1.784-.9L684.331,1347.787Z" transform="translate(898.398 455.409)" fill="#50e2aa"/><path d="M682.547,1348.691-.892.452l1.784-.9L684.331,1347.787Z" transform="translate(920.814 466.772)" fill="#50e2aa"/><path d="M682.547,1348.691-.892.452l1.784-.9L684.331,1347.787Z" transform="translate(955.302 484.254)" fill="#50e2aa"/><path d="M682.547,1348.691-.892.452l1.784-.9L684.331,1347.787Z" transform="translate(965.648 489.499)" fill="#50e2aa"/><path d="M682.547,1348.691-.892.452l1.784-.9L684.331,1347.787Z" transform="translate(988.065 500.862)" fill="#50e2aa"/><path d="M682.547,1348.691-.892.452l1.784-.9L684.331,1347.787Z" transform="translate(1012.206 513.1)" fill="#50e2aa"/><path d="M682.547,1348.691-.892.452l1.784-.9L684.331,1347.787Z" transform="translate(1034.623 524.463)" fill="#50e2aa"/><path d="M682.547,1348.691-.892.452l1.784-.9L684.331,1347.787Z" transform="translate(1044.969 529.707)" fill="#50e2aa"/><path d="M682.547,1348.691-.892.452l1.784-.9L684.331,1347.787Z" transform="translate(1057.04 535.826)" fill="#50e2aa"/><path d="M682.547,1348.691-.892.452l1.784-.9L684.331,1347.787Z" transform="translate(1067.386 541.071)" fill="#50e2aa"/><path d="M682.547,1348.691-.892.452l1.784-.9L684.331,1347.787Z" transform="translate(1079.457 547.19)" fill="#50e2aa"/><path d="M682.547,1348.691-.892.452l1.784-.9L684.331,1347.787Z" transform="translate(472.478 239.505)" fill="#50e2aa"/><path d="M682.547,1348.691-.892.452l1.784-.9L684.331,1347.787Z" transform="translate(1089.803 552.434)" fill="#50e2aa"/><path d="M682.547,1348.691-.892.452l1.784-.9L684.331,1347.787Z" transform="translate(505.241 256.113)" fill="#50e2aa"/><path d="M682.547,1348.691-.892.452l1.784-.9L684.331,1347.787Z" transform="translate(1101.873 558.553)" fill="#50e2aa"/><path d="M682.547,1348.691-.892.452l1.784-.9L684.331,1347.787Z" transform="translate(527.658 267.476)" fill="#50e2aa"/><path d="M682.547,1348.691-.892.452l1.784-.9L684.331,1347.787Z" transform="translate(1112.219 563.798)" fill="#50e2aa"/><path d="M682.547,1348.691-.892.452l1.784-.9L684.331,1347.787Z" transform="translate(550.075 278.839)" fill="#50e2aa"/><path d="M682.547,1348.691-.892.452l1.784-.9L684.331,1347.787Z" transform="translate(1124.29 569.916)" fill="#50e2aa"/><path d="M682.547,1348.691-.892.452l1.784-.9L684.331,1347.787Z" transform="translate(562.145 284.958)" fill="#50e2aa"/><path d="M682.547,1348.691-.892.452l1.784-.9L684.331,1347.787Z" transform="translate(1134.636 575.161)" fill="#50e2aa"/><path d="M682.547,1348.691-.892.452l1.784-.9L684.331,1347.787Z" transform="translate(594.908 301.566)" fill="#50e2aa"/><path d="M682.547,1348.691-.892.452l1.784-.9L684.331,1347.787Z" transform="translate(1146.707 581.28)" fill="#50e2aa"/><path d="M682.547,1348.691-.892.452l1.784-.9L684.331,1347.787Z" transform="translate(617.325 312.93)" fill="#50e2aa"/><path d="M682.547,1348.691-.892.452l1.784-.9L684.331,1347.787Z" transform="translate(1157.053 586.524)" fill="#50e2aa"/><path d="M682.547,1348.691-.892.452l1.784-.9L684.331,1347.787Z" transform="translate(639.742 324.293)" fill="#50e2aa"/><path d="M682.547,1348.691-.892.452l1.784-.9L684.331,1347.787Z" transform="translate(1169.124 592.643)" fill="#50e2aa"/><path d="M682.547,1348.691-.892.452l1.784-.9L684.331,1347.787Z" transform="translate(651.812 330.412)" fill="#50e2aa"/><path d="M682.547,1348.691-.892.452l1.784-.9L684.331,1347.787Z" transform="translate(1179.47 597.888)" fill="#50e2aa"/><path d="M682.547,1348.691-.892.452l1.784-.9L684.331,1347.787Z" transform="translate(686.3 347.894)" fill="#50e2aa"/><path d="M682.547,1348.691-.892.452l1.784-.9L684.331,1347.787Z" transform="translate(1191.541 604.006)" fill="#50e2aa"/><path d="M682.547,1348.691-.892.452l1.784-.9L684.331,1347.787Z" transform="translate(708.717 359.257)" fill="#50e2aa"/><path d="M682.547,1348.691-.892.452l1.784-.9L684.331,1347.787Z" transform="translate(1201.887 609.251)" fill="#50e2aa"/><path d="M682.547,1348.691-.892.452l1.784-.9L684.331,1347.787Z" transform="translate(731.134 370.621)" fill="#50e2aa"/><path d="M682.547,1348.691-.892.452l1.784-.9L684.331,1347.787Z" transform="translate(1213.958 615.37)" fill="#50e2aa"/><path d="M682.547,1348.691-.892.452l1.784-.9L684.331,1347.787Z" transform="translate(741.48 375.865)" fill="#50e2aa"/><path d="M682.547,1348.691-.892.452l1.784-.9L684.331,1347.787Z" transform="translate(1224.304 620.615)" fill="#50e2aa"/><path d="M682.547,1348.691-.892.452l1.784-.9L684.331,1347.787Z" transform="translate(763.897 387.228)" fill="#50e2aa"/><path d="M682.547,1348.691-.892.452l1.784-.9L684.331,1347.787Z" transform="translate(1236.374 626.733)" fill="#50e2aa"/><path d="M682.547,1348.691-.892.452l1.784-.9L684.331,1347.787Z" transform="translate(798.384 404.711)" fill="#50e2aa"/><path d="M682.547,1348.691-.892.452l1.784-.9L684.331,1347.787Z" transform="translate(1246.72 631.978)" fill="#50e2aa"/><path d="M682.547,1348.691-.892.452l1.784-.9L684.331,1347.787Z" transform="translate(820.801 416.074)" fill="#50e2aa"/><path d="M682.547,1348.691-.892.452l1.784-.9L684.331,1347.787Z" transform="translate(1258.791 638.097)" fill="#50e2aa"/><path d="M682.547,1348.691-.892.452l1.784-.9L684.331,1347.787Z" transform="translate(843.218 427.437)" fill="#50e2aa"/><path d="M682.547,1348.691-.892.452l1.784-.9L684.331,1347.787Z" transform="translate(1269.137 643.341)" fill="#50e2aa"/><path d="M682.547,1348.691-.892.452l1.784-.9L684.331,1347.787Z" transform="translate(853.564 432.682)" fill="#50e2aa"/><path d="M682.547,1348.691-.892.452l1.784-.9L684.331,1347.787Z" transform="translate(1281.208 649.46)" fill="#50e2aa"/><path d="M682.547,1348.691-.892.452l1.784-.9L684.331,1347.787Z" transform="translate(888.051 450.164)" fill="#50e2aa"/><path d="M682.547,1348.691-.892.452l1.784-.9L684.331,1347.787Z" transform="translate(1291.554 654.705)" fill="#50e2aa"/><path d="M682.547,1348.691-.892.452l1.784-.9L684.331,1347.787Z" transform="translate(910.468 461.527)" fill="#50e2aa"/><path d="M682.547,1348.691-.892.452l1.784-.9L684.331,1347.787Z" transform="translate(1303.625 660.823)" fill="#50e2aa"/><path d="M682.547,1348.691-.892.452l1.784-.9L684.331,1347.787Z" transform="translate(932.885 472.891)" fill="#50e2aa"/><path d="M682.547,1348.691-.892.452l1.784-.9L684.331,1347.787Z" transform="translate(1313.971 666.068)" fill="#50e2aa"/><path d="M682.547,1348.691-.892.452l1.784-.9L684.331,1347.787Z" transform="translate(943.231 478.135)" fill="#50e2aa"/><path d="M682.547,1348.691-.892.452l1.784-.9L684.331,1347.787Z" transform="translate(1326.042 672.187)" fill="#50e2aa"/><path d="M682.547,1348.691-.892.452l1.784-.9L684.331,1347.787Z" transform="translate(977.719 495.617)" fill="#50e2aa"/><path d="M682.547,1348.691-.892.452l1.784-.9L684.331,1347.787Z" transform="translate(1336.388 677.431)" fill="#50e2aa"/><path d="M682.547,1348.691-.892.452l1.784-.9L684.331,1347.787Z" transform="translate(1000.135 506.981)" fill="#50e2aa"/><path d="M682.547,1348.691-.892.452l1.784-.9L684.331,1347.787Z" transform="translate(1348.458 683.55)" fill="#50e2aa"/><path d="M682.547,1348.691-.892.452l1.784-.9L684.331,1347.787Z" transform="translate(1022.552 518.344)" fill="#50e2aa"/></g></g><rect width="1216" height="346" rx="16" transform="translate(1055.25 3567)" fill="#50e2aa" opacity="0.276"/></g></svg>