<svg xmlns="http://www.w3.org/2000/svg" xmlns:xlink="http://www.w3.org/1999/xlink" width="480" height="623" viewBox="0 0 480 623"><defs><clipPath id="a"><rect width="480" height="623" fill="#50e2aa"/></clipPath></defs><g transform="translate(11836 6368)"><g transform="translate(-11836 -6368)" clip-path="url(#a)"><g transform="translate(-818.028 312.168) rotate(-45)"><path d="M.981,999.565l-1.962-.388L196.47-.194l1.962.388Z" transform="translate(149.608 347.104)" fill="#50e2aa"/><path d="M.981,999.565l-1.962-.388L196.47-.194l1.962.388Z" transform="translate(158.556 345.337)" fill="#50e2aa"/><path d="M.981,999.565l-1.962-.388L196.47-.194l1.962.388Z" transform="translate(166.225 343.821)" fill="#50e2aa"/><path d="M.981,999.565l-1.962-.388L196.47-.194l1.962.388Z" transform="translate(175.172 342.054)" fill="#50e2aa"/><path d="M.981,999.565l-1.962-.388L196.47-.194l1.962.388Z" transform="translate(182.841 340.539)" fill="#50e2aa"/><path d="M.981,999.565l-1.962-.388L196.47-.194l1.962.388Z" transform="translate(191.788 338.771)" fill="#50e2aa"/><path d="M.981,999.565l-1.962-.388L196.47-.194l1.962.388Z" transform="translate(199.457 337.256)" fill="#50e2aa"/><path d="M.981,999.565l-1.962-.388L196.47-.194l1.962.388Z" transform="translate(208.405 335.488)" fill="#50e2aa"/><path d="M.981,999.565l-1.962-.388L196.47-.194l1.962.388Z" transform="translate(216.074 333.973)" fill="#50e2aa"/><path d="M.981,999.565l-1.962-.388L196.47-.194l1.962.388Z" transform="translate(225.021 332.205)" fill="#50e2aa"/><path d="M.981,999.565l-1.962-.388L196.47-.194l1.962.388Z" transform="translate(232.69 330.69)" fill="#50e2aa"/><path d="M.981,999.565l-1.962-.388L196.47-.194l1.962.388Z" transform="translate(241.637 328.922)" fill="#50e2aa"/><path d="M.981,999.565l-1.962-.388L196.47-.194l1.962.388Z" transform="translate(249.306 327.407)" fill="#50e2aa"/><path d="M.981,999.565l-1.962-.388L196.47-.194l1.962.388Z" transform="translate(258.253 325.639)" fill="#50e2aa"/><path d="M.981,999.565l-1.962-.388L196.47-.194l1.962.388Z" transform="translate(265.923 324.124)" fill="#50e2aa"/><path d="M.981,999.565l-1.962-.388L196.47-.194l1.962.388Z" transform="translate(274.87 322.356)" fill="#50e2aa"/><path d="M.981,999.565l-1.962-.388L196.47-.194l1.962.388Z" transform="translate(282.539 320.841)" fill="#50e2aa"/><path d="M.981,999.565l-1.962-.388L196.47-.194l1.962.388Z" transform="translate(291.486 319.073)" fill="#50e2aa"/><path d="M.981,999.565l-1.962-.388L196.47-.194l1.962.388Z" transform="translate(299.155 317.558)" fill="#50e2aa"/><path d="M.981,999.565l-1.962-.388L196.47-.194l1.962.388Z" transform="translate(308.102 315.79)" fill="#50e2aa"/><path d="M.981,999.565l-1.962-.388L196.47-.194l1.962.388Z" transform="translate(315.771 314.275)" fill="#50e2aa"/><path d="M.981,999.565l-1.962-.388L196.47-.194l1.962.388Z" transform="translate(324.719 312.507)" fill="#50e2aa"/><path d="M.981,999.565l-1.962-.388L196.47-.194l1.962.388Z" transform="translate(332.388 310.992)" fill="#50e2aa"/><path d="M.981,999.565l-1.962-.388L196.47-.194l1.962.388Z" transform="translate(341.335 309.224)" fill="#50e2aa"/><path d="M.981,999.565l-1.962-.388L196.47-.194l1.962.388Z" transform="translate(349.004 307.709)" fill="#50e2aa"/><path d="M.981,999.565l-1.962-.388L196.47-.194l1.962.388Z" transform="translate(357.951 305.941)" fill="#50e2aa"/><path d="M.981,999.565l-1.962-.388L196.47-.194l1.962.388Z" transform="translate(365.62 304.426)" fill="#50e2aa"/><path d="M.981,999.565l-1.962-.388L196.47-.194l1.962.388Z" transform="translate(374.568 302.658)" fill="#50e2aa"/><path d="M.981,999.565l-1.962-.388L196.47-.194l1.962.388Z" transform="translate(382.237 301.143)" fill="#50e2aa"/><path d="M.981,999.565l-1.962-.388L196.47-.194l1.962.388Z" transform="translate(391.184 299.375)" fill="#50e2aa"/><path d="M.981,999.565l-1.962-.388L196.47-.194l1.962.388Z" transform="translate(400.131 297.607)" fill="#50e2aa"/><path d="M.981,999.565l-1.962-.388L196.47-.194l1.962.388Z" transform="translate(407.8 296.092)" fill="#50e2aa"/><path d="M.981,999.565l-1.962-.388L196.47-.194l1.962.388Z" transform="translate(416.747 294.324)" fill="#50e2aa"/><path d="M.981,999.565l-1.962-.388L196.47-.194l1.962.388Z" transform="translate(424.416 292.809)" fill="#50e2aa"/><path d="M.981,999.565l-1.962-.388L196.47-.194l1.962.388Z" transform="translate(433.364 291.042)" fill="#50e2aa"/><path d="M.981,999.565l-1.962-.388L196.47-.194l1.962.388Z" transform="translate(441.033 289.526)" fill="#50e2aa"/><path d="M.981,999.565l-1.962-.388L196.47-.194l1.962.388Z" transform="translate(449.98 287.759)" fill="#50e2aa"/><path d="M.981,999.565l-1.962-.388L196.47-.194l1.962.388Z" transform="translate(457.649 286.243)" fill="#50e2aa"/><path d="M.981,999.565l-1.962-.388L196.47-.194l1.962.388Z" transform="translate(466.596 284.476)" fill="#50e2aa"/><path d="M.981,999.565l-1.962-.388L196.47-.194l1.962.388Z" transform="translate(474.265 282.96)" fill="#50e2aa"/><path d="M.981,999.565l-1.962-.388L196.47-.194l1.962.388Z" transform="translate(483.213 281.193)" fill="#50e2aa"/><path d="M.981,999.565l-1.962-.388L196.47-.194l1.962.388Z" transform="translate(490.882 279.677)" fill="#50e2aa"/><path d="M.981,999.565l-1.962-.388L196.47-.194l1.962.388Z" transform="translate(507.498 276.394)" fill="#50e2aa"/><path d="M.981,999.565l-1.962-.388L196.47-.194l1.962.388Z" transform="translate(516.445 274.627)" fill="#50e2aa"/><path d="M.981,999.565l-1.962-.388L196.47-.194l1.962.388Z" transform="translate(533.061 271.344)" fill="#50e2aa"/><path d="M.981,999.565l-1.962-.388L196.47-.194l1.962.388Z" transform="translate(549.678 268.061)" fill="#50e2aa"/><path d="M.981,999.565l-1.962-.388L196.47-.194l1.962.388Z" transform="translate(573.963 263.263)" fill="#50e2aa"/><path d="M.981,999.565l-1.962-.388L196.47-.194l1.962.388Z" transform="translate(582.91 261.495)" fill="#50e2aa"/><path d="M.981,999.565l-1.962-.388L196.47-.194l1.962.388Z" transform="translate(599.527 258.212)" fill="#50e2aa"/><path d="M.981,999.565l-1.962-.388L196.47-.194l1.962.388Z" transform="translate(616.143 254.929)" fill="#50e2aa"/><path d="M.981,999.565l-1.962-.388L196.47-.194l1.962.388Z" transform="translate(640.428 250.131)" fill="#50e2aa"/><path d="M.981,999.565l-1.962-.388L196.47-.194l1.962.388Z" transform="translate(649.376 248.363)" fill="#50e2aa"/><path d="M.981,999.565l-1.962-.388L196.47-.194l1.962.388Z" transform="translate(665.992 245.08)" fill="#50e2aa"/><path d="M.981,999.565l-1.962-.388L196.47-.194l1.962.388Z" transform="translate(682.608 241.797)" fill="#50e2aa"/><path d="M.981,999.565l-1.962-.388L196.47-.194l1.962.388Z" transform="translate(708.172 236.746)" fill="#50e2aa"/><path d="M.981,999.565l-1.962-.388L196.47-.194l1.962.388Z" transform="translate(724.788 233.463)" fill="#50e2aa"/><path d="M.981,999.565l-1.962-.388L196.47-.194l1.962.388Z" transform="translate(732.457 231.948)" fill="#50e2aa"/><path d="M.981,999.565l-1.962-.388L196.47-.194l1.962.388Z" transform="translate(749.073 228.665)" fill="#50e2aa"/><path d="M.981,999.565l-1.962-.388L196.47-.194l1.962.388Z" transform="translate(765.69 225.382)" fill="#50e2aa"/><path d="M.981,999.565l-1.962-.388L196.47-.194l1.962.388Z" transform="translate(791.253 220.332)" fill="#50e2aa"/><path d="M.981,999.565l-1.962-.388L196.47-.194l1.962.388Z" transform="translate(798.922 218.816)" fill="#50e2aa"/><path d="M.981,999.565l-1.962-.388L196.47-.194l1.962.388Z" transform="translate(815.539 215.533)" fill="#50e2aa"/><path d="M.981,999.565l-1.962-.388L196.47-.194l1.962.388Z" transform="translate(832.155 212.25)" fill="#50e2aa"/><path d="M.981,999.565l-1.962-.388L196.47-.194l1.962.388Z" transform="translate(857.718 207.2)" fill="#50e2aa"/><path d="M.981,999.565l-1.962-.388L196.47-.194l1.962.388Z" transform="translate(865.387 205.684)" fill="#50e2aa"/><path d="M.981,999.565l-1.962-.388L196.47-.194l1.962.388Z" transform="translate(882.004 202.401)" fill="#50e2aa"/><path d="M.981,999.565l-1.962-.388L196.47-.194l1.962.388Z" transform="translate(899.898 198.866)" fill="#50e2aa"/><path d="M.981,999.565l-1.962-.388L196.47-.194l1.962.388Z" transform="translate(916.514 195.583)" fill="#50e2aa"/><path d="M.981,999.565l-1.962-.388L196.47-.194l1.962.388Z" transform="translate(924.183 194.068)" fill="#50e2aa"/><path d="M.981,999.565l-1.962-.388L196.47-.194l1.962.388Z" transform="translate(933.131 192.3)" fill="#50e2aa"/><path d="M.981,999.565l-1.962-.388L196.47-.194l1.962.388Z" transform="translate(940.8 190.785)" fill="#50e2aa"/><path d="M.981,999.565l-1.962-.388L196.47-.194l1.962.388Z" transform="translate(949.747 189.017)" fill="#50e2aa"/><path d="M.981,999.565l-1.962-.388L196.47-.194l1.962.388Z" transform="translate(499.829 277.91)" fill="#50e2aa"/><path d="M.981,999.565l-1.962-.388L196.47-.194l1.962.388Z" transform="translate(957.416 187.502)" fill="#50e2aa"/><path d="M.981,999.565l-1.962-.388L196.47-.194l1.962.388Z" transform="translate(524.114 273.111)" fill="#50e2aa"/><path d="M.981,999.565l-1.962-.388L196.47-.194l1.962.388Z" transform="translate(966.363 185.734)" fill="#50e2aa"/><path d="M.981,999.565l-1.962-.388L196.47-.194l1.962.388Z" transform="translate(540.731 269.829)" fill="#50e2aa"/><path d="M.981,999.565l-1.962-.388L196.47-.194l1.962.388Z" transform="translate(974.032 184.219)" fill="#50e2aa"/><path d="M.981,999.565l-1.962-.388L196.47-.194l1.962.388Z" transform="translate(557.347 266.546)" fill="#50e2aa"/><path d="M.981,999.565l-1.962-.388L196.47-.194l1.962.388Z" transform="translate(982.98 182.451)" fill="#50e2aa"/><path d="M.981,999.565l-1.962-.388L196.47-.194l1.962.388Z" transform="translate(566.294 264.778)" fill="#50e2aa"/><path d="M.981,999.565l-1.962-.388L196.47-.194l1.962.388Z" transform="translate(990.649 180.936)" fill="#50e2aa"/><path d="M.981,999.565l-1.962-.388L196.47-.194l1.962.388Z" transform="translate(590.579 259.98)" fill="#50e2aa"/><path d="M.981,999.565l-1.962-.388L196.47-.194l1.962.388Z" transform="translate(999.596 179.168)" fill="#50e2aa"/><path d="M.981,999.565l-1.962-.388L196.47-.194l1.962.388Z" transform="translate(607.196 256.697)" fill="#50e2aa"/><path d="M.981,999.565l-1.962-.388L196.47-.194l1.962.388Z" transform="translate(1007.265 177.653)" fill="#50e2aa"/><path d="M.981,999.565l-1.962-.388L196.47-.194l1.962.388Z" transform="translate(623.812 253.414)" fill="#50e2aa"/><path d="M.981,999.565l-1.962-.388L196.47-.194l1.962.388Z" transform="translate(1016.212 175.885)" fill="#50e2aa"/><path d="M.981,999.565l-1.962-.388L196.47-.194l1.962.388Z" transform="translate(632.759 251.646)" fill="#50e2aa"/><path d="M.981,999.565l-1.962-.388L196.47-.194l1.962.388Z" transform="translate(1023.881 174.37)" fill="#50e2aa"/><path d="M.981,999.565l-1.962-.388L196.47-.194l1.962.388Z" transform="translate(658.323 246.595)" fill="#50e2aa"/><path d="M.981,999.565l-1.962-.388L196.47-.194l1.962.388Z" transform="translate(1032.829 172.602)" fill="#50e2aa"/><path d="M.981,999.565l-1.962-.388L196.47-.194l1.962.388Z" transform="translate(674.939 243.312)" fill="#50e2aa"/><path d="M.981,999.565l-1.962-.388L196.47-.194l1.962.388Z" transform="translate(1040.498 171.087)" fill="#50e2aa"/><path d="M.981,999.565l-1.962-.388L196.47-.194l1.962.388Z" transform="translate(691.555 240.029)" fill="#50e2aa"/><path d="M.981,999.565l-1.962-.388L196.47-.194l1.962.388Z" transform="translate(1049.445 169.319)" fill="#50e2aa"/><path d="M.981,999.565l-1.962-.388L196.47-.194l1.962.388Z" transform="translate(699.224 238.514)" fill="#50e2aa"/><path d="M.981,999.565l-1.962-.388L196.47-.194l1.962.388Z" transform="translate(1057.114 167.804)" fill="#50e2aa"/><path d="M.981,999.565l-1.962-.388L196.47-.194l1.962.388Z" transform="translate(715.841 235.231)" fill="#50e2aa"/><path d="M.981,999.565l-1.962-.388L196.47-.194l1.962.388Z" transform="translate(1066.061 166.036)" fill="#50e2aa"/><path d="M.981,999.565l-1.962-.388L196.47-.194l1.962.388Z" transform="translate(741.404 230.18)" fill="#50e2aa"/><path d="M.981,999.565l-1.962-.388L196.47-.194l1.962.388Z" transform="translate(1073.73 164.521)" fill="#50e2aa"/><path d="M.981,999.565l-1.962-.388L196.47-.194l1.962.388Z" transform="translate(758.021 226.897)" fill="#50e2aa"/><path d="M.981,999.565l-1.962-.388L196.47-.194l1.962.388Z" transform="translate(1082.677 162.753)" fill="#50e2aa"/><path d="M.981,999.565l-1.962-.388L196.47-.194l1.962.388Z" transform="translate(774.637 223.614)" fill="#50e2aa"/><path d="M.981,999.565l-1.962-.388L196.47-.194l1.962.388Z" transform="translate(1090.347 161.238)" fill="#50e2aa"/><path d="M.981,999.565l-1.962-.388L196.47-.194l1.962.388Z" transform="translate(782.306 222.099)" fill="#50e2aa"/><path d="M.981,999.565l-1.962-.388L196.47-.194l1.962.388Z" transform="translate(1099.294 159.47)" fill="#50e2aa"/><path d="M.981,999.565l-1.962-.388L196.47-.194l1.962.388Z" transform="translate(807.869 217.049)" fill="#50e2aa"/><path d="M.981,999.565l-1.962-.388L196.47-.194l1.962.388Z" transform="translate(1106.963 157.955)" fill="#50e2aa"/><path d="M.981,999.565l-1.962-.388L196.47-.194l1.962.388Z" transform="translate(824.486 213.766)" fill="#50e2aa"/><path d="M.981,999.565l-1.962-.388L196.47-.194l1.962.388Z" transform="translate(1115.91 156.187)" fill="#50e2aa"/><path d="M.981,999.565l-1.962-.388L196.47-.194l1.962.388Z" transform="translate(841.102 210.483)" fill="#50e2aa"/><path d="M.981,999.565l-1.962-.388L196.47-.194l1.962.388Z" transform="translate(1123.579 154.672)" fill="#50e2aa"/><path d="M.981,999.565l-1.962-.388L196.47-.194l1.962.388Z" transform="translate(848.771 208.967)" fill="#50e2aa"/><path d="M.981,999.565l-1.962-.388L196.47-.194l1.962.388Z" transform="translate(1132.526 152.904)" fill="#50e2aa"/><path d="M.981,999.565l-1.962-.388L196.47-.194l1.962.388Z" transform="translate(874.335 203.917)" fill="#50e2aa"/><path d="M.981,999.565l-1.962-.388L196.47-.194l1.962.388Z" transform="translate(1140.195 151.389)" fill="#50e2aa"/><path d="M.981,999.565l-1.962-.388L196.47-.194l1.962.388Z" transform="translate(890.951 200.634)" fill="#50e2aa"/><path d="M.981,999.565l-1.962-.388L196.47-.194l1.962.388Z" transform="translate(1149.143 149.621)" fill="#50e2aa"/><path d="M.981,999.565l-1.962-.388L196.47-.194l1.962.388Z" transform="translate(907.567 197.351)" fill="#50e2aa"/></g></g><rect width="480" height="623" transform="translate(-11836 -6368)" fill="#50e2aa" opacity="0.276"/></g></svg>