<svg xmlns="http://www.w3.org/2000/svg" xmlns:xlink="http://www.w3.org/1999/xlink" width="480" height="623" viewBox="0 0 480 623"><defs><clipPath id="a"><rect width="480" height="623" fill="#50e2aa"/></clipPath></defs><g transform="translate(11836 6368)"><g transform="translate(-11836 -6368)" clip-path="url(#a)"><g transform="translate(-818.028 312.168) rotate(-45)"><path d="M.981,999.565l-1.962-.388L196.47-.194l1.962.388Z" transform="translate(149.608 347.104)" fill="rgba(81,94,129,0.15)"/><path d="M.981,999.565l-1.962-.388L196.47-.194l1.962.388Z" transform="translate(158.556 345.337)" fill="rgba(81,94,129,0.15)"/><path d="M.981,999.565l-1.962-.388L196.47-.194l1.962.388Z" transform="translate(166.225 343.821)" fill="rgba(81,94,129,0.15)"/><path d="M.981,999.565l-1.962-.388L196.47-.194l1.962.388Z" transform="translate(175.172 342.054)" fill="rgba(81,94,129,0.15)"/><path d="M.981,999.565l-1.962-.388L196.47-.194l1.962.388Z" transform="translate(182.841 340.539)" fill="rgba(81,94,129,0.15)"/><path d="M.981,999.565l-1.962-.388L196.47-.194l1.962.388Z" transform="translate(191.788 338.771)" fill="rgba(81,94,129,0.15)"/><path d="M.981,999.565l-1.962-.388L196.47-.194l1.962.388Z" transform="translate(199.457 337.256)" fill="rgba(81,94,129,0.15)"/><path d="M.981,999.565l-1.962-.388L196.47-.194l1.962.388Z" transform="translate(208.405 335.488)" fill="rgba(81,94,129,0.15)"/><path d="M.981,999.565l-1.962-.388L196.47-.194l1.962.388Z" transform="translate(216.074 333.973)" fill="rgba(81,94,129,0.15)"/><path d="M.981,999.565l-1.962-.388L196.47-.194l1.962.388Z" transform="translate(225.021 332.205)" fill="rgba(81,94,129,0.15)"/><path d="M.981,999.565l-1.962-.388L196.47-.194l1.962.388Z" transform="translate(232.69 330.69)" fill="rgba(81,94,129,0.15)"/><path d="M.981,999.565l-1.962-.388L196.47-.194l1.962.388Z" transform="translate(241.637 328.922)" fill="rgba(81,94,129,0.15)"/><path d="M.981,999.565l-1.962-.388L196.47-.194l1.962.388Z" transform="translate(249.306 327.407)" fill="rgba(81,94,129,0.15)"/><path d="M.981,999.565l-1.962-.388L196.47-.194l1.962.388Z" transform="translate(258.253 325.639)" fill="rgba(81,94,129,0.15)"/><path d="M.981,999.565l-1.962-.388L196.47-.194l1.962.388Z" transform="translate(265.923 324.124)" fill="rgba(81,94,129,0.15)"/><path d="M.981,999.565l-1.962-.388L196.47-.194l1.962.388Z" transform="translate(274.87 322.356)" fill="rgba(81,94,129,0.15)"/><path d="M.981,999.565l-1.962-.388L196.47-.194l1.962.388Z" transform="translate(282.539 320.841)" fill="rgba(81,94,129,0.15)"/><path d="M.981,999.565l-1.962-.388L196.47-.194l1.962.388Z" transform="translate(291.486 319.073)" fill="rgba(81,94,129,0.15)"/><path d="M.981,999.565l-1.962-.388L196.47-.194l1.962.388Z" transform="translate(299.155 317.558)" fill="rgba(81,94,129,0.15)"/><path d="M.981,999.565l-1.962-.388L196.47-.194l1.962.388Z" transform="translate(308.102 315.79)" fill="rgba(81,94,129,0.15)"/><path d="M.981,999.565l-1.962-.388L196.47-.194l1.962.388Z" transform="translate(315.771 314.275)" fill="rgba(81,94,129,0.15)"/><path d="M.981,999.565l-1.962-.388L196.47-.194l1.962.388Z" transform="translate(324.719 312.507)" fill="rgba(81,94,129,0.15)"/><path d="M.981,999.565l-1.962-.388L196.47-.194l1.962.388Z" transform="translate(332.388 310.992)" fill="rgba(81,94,129,0.15)"/><path d="M.981,999.565l-1.962-.388L196.47-.194l1.962.388Z" transform="translate(341.335 309.224)" fill="rgba(81,94,129,0.15)"/><path d="M.981,999.565l-1.962-.388L196.47-.194l1.962.388Z" transform="translate(349.004 307.709)" fill="rgba(81,94,129,0.15)"/><path d="M.981,999.565l-1.962-.388L196.47-.194l1.962.388Z" transform="translate(357.951 305.941)" fill="rgba(81,94,129,0.15)"/><path d="M.981,999.565l-1.962-.388L196.47-.194l1.962.388Z" transform="translate(365.62 304.426)" fill="rgba(81,94,129,0.15)"/><path d="M.981,999.565l-1.962-.388L196.47-.194l1.962.388Z" transform="translate(374.568 302.658)" fill="rgba(81,94,129,0.15)"/><path d="M.981,999.565l-1.962-.388L196.47-.194l1.962.388Z" transform="translate(382.237 301.143)" fill="rgba(81,94,129,0.15)"/><path d="M.981,999.565l-1.962-.388L196.47-.194l1.962.388Z" transform="translate(391.184 299.375)" fill="rgba(81,94,129,0.15)"/><path d="M.981,999.565l-1.962-.388L196.47-.194l1.962.388Z" transform="translate(400.131 297.607)" fill="rgba(81,94,129,0.15)"/><path d="M.981,999.565l-1.962-.388L196.47-.194l1.962.388Z" transform="translate(407.8 296.092)" fill="rgba(81,94,129,0.15)"/><path d="M.981,999.565l-1.962-.388L196.47-.194l1.962.388Z" transform="translate(416.747 294.324)" fill="rgba(81,94,129,0.15)"/><path d="M.981,999.565l-1.962-.388L196.47-.194l1.962.388Z" transform="translate(424.416 292.809)" fill="rgba(81,94,129,0.15)"/><path d="M.981,999.565l-1.962-.388L196.47-.194l1.962.388Z" transform="translate(433.364 291.042)" fill="rgba(81,94,129,0.15)"/><path d="M.981,999.565l-1.962-.388L196.47-.194l1.962.388Z" transform="translate(441.033 289.526)" fill="rgba(81,94,129,0.15)"/><path d="M.981,999.565l-1.962-.388L196.47-.194l1.962.388Z" transform="translate(449.98 287.759)" fill="rgba(81,94,129,0.15)"/><path d="M.981,999.565l-1.962-.388L196.47-.194l1.962.388Z" transform="translate(457.649 286.243)" fill="rgba(81,94,129,0.15)"/><path d="M.981,999.565l-1.962-.388L196.47-.194l1.962.388Z" transform="translate(466.596 284.476)" fill="rgba(81,94,129,0.15)"/><path d="M.981,999.565l-1.962-.388L196.47-.194l1.962.388Z" transform="translate(474.265 282.96)" fill="rgba(81,94,129,0.15)"/><path d="M.981,999.565l-1.962-.388L196.47-.194l1.962.388Z" transform="translate(483.213 281.193)" fill="rgba(81,94,129,0.15)"/><path d="M.981,999.565l-1.962-.388L196.47-.194l1.962.388Z" transform="translate(490.882 279.677)" fill="rgba(81,94,129,0.15)"/><path d="M.981,999.565l-1.962-.388L196.47-.194l1.962.388Z" transform="translate(507.498 276.394)" fill="rgba(81,94,129,0.15)"/><path d="M.981,999.565l-1.962-.388L196.47-.194l1.962.388Z" transform="translate(516.445 274.627)" fill="rgba(81,94,129,0.15)"/><path d="M.981,999.565l-1.962-.388L196.47-.194l1.962.388Z" transform="translate(533.061 271.344)" fill="rgba(81,94,129,0.15)"/><path d="M.981,999.565l-1.962-.388L196.47-.194l1.962.388Z" transform="translate(549.678 268.061)" fill="rgba(81,94,129,0.15)"/><path d="M.981,999.565l-1.962-.388L196.47-.194l1.962.388Z" transform="translate(573.963 263.263)" fill="rgba(81,94,129,0.15)"/><path d="M.981,999.565l-1.962-.388L196.47-.194l1.962.388Z" transform="translate(582.91 261.495)" fill="rgba(81,94,129,0.15)"/><path d="M.981,999.565l-1.962-.388L196.47-.194l1.962.388Z" transform="translate(599.527 258.212)" fill="rgba(81,94,129,0.15)"/><path d="M.981,999.565l-1.962-.388L196.47-.194l1.962.388Z" transform="translate(616.143 254.929)" fill="rgba(81,94,129,0.15)"/><path d="M.981,999.565l-1.962-.388L196.47-.194l1.962.388Z" transform="translate(640.428 250.131)" fill="rgba(81,94,129,0.15)"/><path d="M.981,999.565l-1.962-.388L196.47-.194l1.962.388Z" transform="translate(649.376 248.363)" fill="rgba(81,94,129,0.15)"/><path d="M.981,999.565l-1.962-.388L196.47-.194l1.962.388Z" transform="translate(665.992 245.08)" fill="rgba(81,94,129,0.15)"/><path d="M.981,999.565l-1.962-.388L196.47-.194l1.962.388Z" transform="translate(682.608 241.797)" fill="rgba(81,94,129,0.15)"/><path d="M.981,999.565l-1.962-.388L196.47-.194l1.962.388Z" transform="translate(708.172 236.746)" fill="rgba(81,94,129,0.15)"/><path d="M.981,999.565l-1.962-.388L196.47-.194l1.962.388Z" transform="translate(724.788 233.463)" fill="rgba(81,94,129,0.15)"/><path d="M.981,999.565l-1.962-.388L196.47-.194l1.962.388Z" transform="translate(732.457 231.948)" fill="rgba(81,94,129,0.15)"/><path d="M.981,999.565l-1.962-.388L196.47-.194l1.962.388Z" transform="translate(749.073 228.665)" fill="rgba(81,94,129,0.15)"/><path d="M.981,999.565l-1.962-.388L196.47-.194l1.962.388Z" transform="translate(765.69 225.382)" fill="rgba(81,94,129,0.15)"/><path d="M.981,999.565l-1.962-.388L196.47-.194l1.962.388Z" transform="translate(791.253 220.332)" fill="rgba(81,94,129,0.15)"/><path d="M.981,999.565l-1.962-.388L196.47-.194l1.962.388Z" transform="translate(798.922 218.816)" fill="rgba(81,94,129,0.15)"/><path d="M.981,999.565l-1.962-.388L196.47-.194l1.962.388Z" transform="translate(815.539 215.533)" fill="rgba(81,94,129,0.15)"/><path d="M.981,999.565l-1.962-.388L196.47-.194l1.962.388Z" transform="translate(832.155 212.25)" fill="rgba(81,94,129,0.15)"/><path d="M.981,999.565l-1.962-.388L196.47-.194l1.962.388Z" transform="translate(857.718 207.2)" fill="rgba(81,94,129,0.15)"/><path d="M.981,999.565l-1.962-.388L196.47-.194l1.962.388Z" transform="translate(865.387 205.684)" fill="rgba(81,94,129,0.15)"/><path d="M.981,999.565l-1.962-.388L196.47-.194l1.962.388Z" transform="translate(882.004 202.401)" fill="rgba(81,94,129,0.15)"/><path d="M.981,999.565l-1.962-.388L196.47-.194l1.962.388Z" transform="translate(899.898 198.866)" fill="rgba(81,94,129,0.15)"/><path d="M.981,999.565l-1.962-.388L196.47-.194l1.962.388Z" transform="translate(916.514 195.583)" fill="rgba(81,94,129,0.15)"/><path d="M.981,999.565l-1.962-.388L196.47-.194l1.962.388Z" transform="translate(924.183 194.068)" fill="rgba(81,94,129,0.15)"/><path d="M.981,999.565l-1.962-.388L196.47-.194l1.962.388Z" transform="translate(933.131 192.3)" fill="rgba(81,94,129,0.15)"/><path d="M.981,999.565l-1.962-.388L196.47-.194l1.962.388Z" transform="translate(940.8 190.785)" fill="rgba(81,94,129,0.15)"/><path d="M.981,999.565l-1.962-.388L196.47-.194l1.962.388Z" transform="translate(949.747 189.017)" fill="rgba(81,94,129,0.15)"/><path d="M.981,999.565l-1.962-.388L196.47-.194l1.962.388Z" transform="translate(499.829 277.91)" fill="rgba(81,94,129,0.15)"/><path d="M.981,999.565l-1.962-.388L196.47-.194l1.962.388Z" transform="translate(957.416 187.502)" fill="rgba(81,94,129,0.15)"/><path d="M.981,999.565l-1.962-.388L196.47-.194l1.962.388Z" transform="translate(524.114 273.111)" fill="rgba(81,94,129,0.15)"/><path d="M.981,999.565l-1.962-.388L196.47-.194l1.962.388Z" transform="translate(966.363 185.734)" fill="rgba(81,94,129,0.15)"/><path d="M.981,999.565l-1.962-.388L196.47-.194l1.962.388Z" transform="translate(540.731 269.829)" fill="rgba(81,94,129,0.15)"/><path d="M.981,999.565l-1.962-.388L196.47-.194l1.962.388Z" transform="translate(974.032 184.219)" fill="rgba(81,94,129,0.15)"/><path d="M.981,999.565l-1.962-.388L196.47-.194l1.962.388Z" transform="translate(557.347 266.546)" fill="rgba(81,94,129,0.15)"/><path d="M.981,999.565l-1.962-.388L196.47-.194l1.962.388Z" transform="translate(982.98 182.451)" fill="rgba(81,94,129,0.15)"/><path d="M.981,999.565l-1.962-.388L196.47-.194l1.962.388Z" transform="translate(566.294 264.778)" fill="rgba(81,94,129,0.15)"/><path d="M.981,999.565l-1.962-.388L196.47-.194l1.962.388Z" transform="translate(990.649 180.936)" fill="rgba(81,94,129,0.15)"/><path d="M.981,999.565l-1.962-.388L196.47-.194l1.962.388Z" transform="translate(590.579 259.98)" fill="rgba(81,94,129,0.15)"/><path d="M.981,999.565l-1.962-.388L196.47-.194l1.962.388Z" transform="translate(999.596 179.168)" fill="rgba(81,94,129,0.15)"/><path d="M.981,999.565l-1.962-.388L196.47-.194l1.962.388Z" transform="translate(607.196 256.697)" fill="rgba(81,94,129,0.15)"/><path d="M.981,999.565l-1.962-.388L196.47-.194l1.962.388Z" transform="translate(1007.265 177.653)" fill="rgba(81,94,129,0.15)"/><path d="M.981,999.565l-1.962-.388L196.47-.194l1.962.388Z" transform="translate(623.812 253.414)" fill="rgba(81,94,129,0.15)"/><path d="M.981,999.565l-1.962-.388L196.47-.194l1.962.388Z" transform="translate(1016.212 175.885)" fill="rgba(81,94,129,0.15)"/><path d="M.981,999.565l-1.962-.388L196.47-.194l1.962.388Z" transform="translate(632.759 251.646)" fill="rgba(81,94,129,0.15)"/><path d="M.981,999.565l-1.962-.388L196.47-.194l1.962.388Z" transform="translate(1023.881 174.37)" fill="rgba(81,94,129,0.15)"/><path d="M.981,999.565l-1.962-.388L196.47-.194l1.962.388Z" transform="translate(658.323 246.595)" fill="rgba(81,94,129,0.15)"/><path d="M.981,999.565l-1.962-.388L196.47-.194l1.962.388Z" transform="translate(1032.829 172.602)" fill="rgba(81,94,129,0.15)"/><path d="M.981,999.565l-1.962-.388L196.47-.194l1.962.388Z" transform="translate(674.939 243.312)" fill="rgba(81,94,129,0.15)"/><path d="M.981,999.565l-1.962-.388L196.47-.194l1.962.388Z" transform="translate(1040.498 171.087)" fill="rgba(81,94,129,0.15)"/><path d="M.981,999.565l-1.962-.388L196.47-.194l1.962.388Z" transform="translate(691.555 240.029)" fill="rgba(81,94,129,0.15)"/><path d="M.981,999.565l-1.962-.388L196.47-.194l1.962.388Z" transform="translate(1049.445 169.319)" fill="rgba(81,94,129,0.15)"/><path d="M.981,999.565l-1.962-.388L196.47-.194l1.962.388Z" transform="translate(699.224 238.514)" fill="rgba(81,94,129,0.15)"/><path d="M.981,999.565l-1.962-.388L196.47-.194l1.962.388Z" transform="translate(1057.114 167.804)" fill="rgba(81,94,129,0.15)"/><path d="M.981,999.565l-1.962-.388L196.47-.194l1.962.388Z" transform="translate(715.841 235.231)" fill="rgba(81,94,129,0.15)"/><path d="M.981,999.565l-1.962-.388L196.47-.194l1.962.388Z" transform="translate(1066.061 166.036)" fill="rgba(81,94,129,0.15)"/><path d="M.981,999.565l-1.962-.388L196.47-.194l1.962.388Z" transform="translate(741.404 230.18)" fill="rgba(81,94,129,0.15)"/><path d="M.981,999.565l-1.962-.388L196.47-.194l1.962.388Z" transform="translate(1073.73 164.521)" fill="rgba(81,94,129,0.15)"/><path d="M.981,999.565l-1.962-.388L196.47-.194l1.962.388Z" transform="translate(758.021 226.897)" fill="rgba(81,94,129,0.15)"/><path d="M.981,999.565l-1.962-.388L196.47-.194l1.962.388Z" transform="translate(1082.677 162.753)" fill="rgba(81,94,129,0.15)"/><path d="M.981,999.565l-1.962-.388L196.47-.194l1.962.388Z" transform="translate(774.637 223.614)" fill="rgba(81,94,129,0.15)"/><path d="M.981,999.565l-1.962-.388L196.47-.194l1.962.388Z" transform="translate(1090.347 161.238)" fill="rgba(81,94,129,0.15)"/><path d="M.981,999.565l-1.962-.388L196.47-.194l1.962.388Z" transform="translate(782.306 222.099)" fill="rgba(81,94,129,0.15)"/><path d="M.981,999.565l-1.962-.388L196.47-.194l1.962.388Z" transform="translate(1099.294 159.47)" fill="rgba(81,94,129,0.15)"/><path d="M.981,999.565l-1.962-.388L196.47-.194l1.962.388Z" transform="translate(807.869 217.049)" fill="rgba(81,94,129,0.15)"/><path d="M.981,999.565l-1.962-.388L196.47-.194l1.962.388Z" transform="translate(1106.963 157.955)" fill="rgba(81,94,129,0.15)"/><path d="M.981,999.565l-1.962-.388L196.47-.194l1.962.388Z" transform="translate(824.486 213.766)" fill="rgba(81,94,129,0.15)"/><path d="M.981,999.565l-1.962-.388L196.47-.194l1.962.388Z" transform="translate(1115.91 156.187)" fill="rgba(81,94,129,0.15)"/><path d="M.981,999.565l-1.962-.388L196.47-.194l1.962.388Z" transform="translate(841.102 210.483)" fill="rgba(81,94,129,0.15)"/><path d="M.981,999.565l-1.962-.388L196.47-.194l1.962.388Z" transform="translate(1123.579 154.672)" fill="rgba(81,94,129,0.15)"/><path d="M.981,999.565l-1.962-.388L196.47-.194l1.962.388Z" transform="translate(848.771 208.967)" fill="rgba(81,94,129,0.15)"/><path d="M.981,999.565l-1.962-.388L196.47-.194l1.962.388Z" transform="translate(1132.526 152.904)" fill="rgba(81,94,129,0.15)"/><path d="M.981,999.565l-1.962-.388L196.47-.194l1.962.388Z" transform="translate(874.335 203.917)" fill="rgba(81,94,129,0.15)"/><path d="M.981,999.565l-1.962-.388L196.47-.194l1.962.388Z" transform="translate(1140.195 151.389)" fill="rgba(81,94,129,0.15)"/><path d="M.981,999.565l-1.962-.388L196.47-.194l1.962.388Z" transform="translate(890.951 200.634)" fill="rgba(81,94,129,0.15)"/><path d="M.981,999.565l-1.962-.388L196.47-.194l1.962.388Z" transform="translate(1149.143 149.621)" fill="rgba(81,94,129,0.15)"/><path d="M.981,999.565l-1.962-.388L196.47-.194l1.962.388Z" transform="translate(907.567 197.351)" fill="rgba(81,94,129,0.15)"/></g></g><rect width="480" height="623" transform="translate(-11836 -6368)" fill="#515e81" opacity="0.061"/></g></svg>