<svg xmlns="http://www.w3.org/2000/svg" width="24" height="24" viewBox="0 0 24 24">
  <g id="Groupe_1742" data-name="Groupe 1742" transform="translate(-1211 -705)">
    <rect id="Rectangle_982" data-name="Rectangle 982" width="24" height="24" transform="translate(1211 705)" fill="none"/>
    <g id="eye-password-hide-svgrepo-com" transform="translate(1235 729) rotate(180)">
      <path id="Tracé_2556" data-name="Tracé 2556" d="M2,2,22,22" fill="none" stroke="#d1dbf7" stroke-linecap="round" stroke-linejoin="round" stroke-width="2"/>
      <path id="Tracé_2557" data-name="Tracé 2557" d="M6.713,6.723A16.227,16.227,0,0,0,2,12s3.636,7,10,7a9.331,9.331,0,0,0,5.271-1.712M11,5.058A8.6,8.6,0,0,1,12,5c6.364,0,10,7,10,7a16.2,16.2,0,0,1-2,2.833" fill="none" stroke="#d1dbf7" stroke-linecap="round" stroke-linejoin="round" stroke-width="2"/>
      <path id="Tracé_2558" data-name="Tracé 2558" d="M14,14.236A3,3,0,0,1,9.869,9.888" fill="none" stroke="#d1dbf7" stroke-linecap="round" stroke-linejoin="round" stroke-width="2"/>
    </g>
  </g>
</svg>
