<svg width="100" height="100" viewBox="0 0 100 100" fill="none" xmlns="http://www.w3.org/2000/svg">
<path d="M85.0299 42.5693L69.4759 27.0142C68.5204 26.0585 67.386 25.3004 66.1375 24.7832C64.8889 24.266 63.5508 24 62.1994 24C60.848 24 59.5099 24.266 58.2614 24.7832C57.0128 25.3004 55.8784 26.0585 54.9229 27.0142L49.5229 32.4141L44.1229 27.0142C42.1928 25.0841 39.575 24 36.8454 24C34.1158 24 31.498 25.0841 29.5679 27.0142L14.0139 42.5693C12.0841 44.4994 11 47.1168 11 49.8462C11 52.5755 12.0841 55.193 14.0139 57.123L29.5679 72.6782C30.5235 73.634 31.6581 74.3924 32.9068 74.9097C34.1555 75.427 35.4938 75.6929 36.8454 75.6929C38.197 75.6929 39.5353 75.427 40.784 74.9097C42.0327 74.3924 43.1673 73.634 44.1229 72.6782L49.5229 67.2783L54.9229 72.6782C55.8784 73.634 57.0127 74.3919 58.2613 74.9092C59.5098 75.4264 60.848 75.6929 62.1994 75.6929C63.5508 75.6929 64.889 75.4264 66.1375 74.9092C67.3861 74.3919 68.5205 73.634 69.4759 72.6782L85.0299 57.123C86.9597 55.193 88.0438 52.5755 88.0438 49.8462C88.0438 47.1168 86.9597 44.4994 85.0299 42.5693ZM38.8529 67.415C38.5885 67.6797 38.2746 67.89 37.929 68.0332C37.5834 68.1764 37.213 68.25 36.8389 68.25C36.4648 68.25 36.0944 68.1764 35.7488 68.0332C35.4033 67.89 35.0893 67.6797 34.8249 67.415L19.2709 51.8604C19.0063 51.596 18.7964 51.282 18.6532 50.9365C18.51 50.591 18.4362 50.2207 18.4362 49.8467C18.4362 49.4727 18.51 49.1023 18.6532 48.7568C18.7964 48.4113 19.0063 48.0973 19.2709 47.833L34.8249 32.2783C35.0893 32.0136 35.4032 31.8035 35.7487 31.6602C36.0943 31.5169 36.4648 31.4429 36.8389 31.4429C37.213 31.4429 37.5835 31.5169 37.929 31.6602C38.2746 31.8035 38.5886 32.0136 38.8529 32.2783L44.2529 37.6782L39.3639 42.5674C37.4361 44.4985 36.3533 47.1155 36.3533 49.8442C36.3533 52.5729 37.4361 55.19 39.3639 57.1211L44.2529 62.0103L38.8529 67.415ZM54.4069 47.832C54.6715 48.0963 54.8814 48.4104 55.0246 48.7559C55.1678 49.1014 55.2415 49.4717 55.2415 49.8457C55.2415 50.2197 55.1678 50.5901 55.0246 50.9355C54.8814 51.281 54.6715 51.5951 54.4069 51.8594L49.5179 56.748L44.6289 51.8594C44.0955 51.325 43.7959 50.6007 43.7959 49.8457C43.7959 49.0907 44.0955 48.3664 44.6289 47.832L49.5179 42.9414L54.4069 47.832ZM59.6269 42.5264L54.7789 37.6792L60.1789 32.2793C60.4434 32.0145 60.7575 31.8045 61.1033 31.6611C61.449 31.5178 61.8196 31.4438 62.1939 31.4438C62.5682 31.4438 62.9388 31.5178 63.2845 31.6611C63.6303 31.8045 63.9444 32.0145 64.2089 32.2793L79.7629 47.834C80.0275 48.0983 80.2374 48.4123 80.3806 48.7578C80.5238 49.1033 80.5976 49.4737 80.5976 49.8477C80.5976 50.2217 80.5238 50.592 80.3806 50.9375C80.2374 51.283 80.0275 51.597 79.7629 51.8613L64.2089 67.416C63.9443 67.6807 63.6302 67.8909 63.2845 68.0342C62.9387 68.1774 62.5682 68.251 62.1939 68.251C61.8197 68.251 61.4491 68.1774 61.1033 68.0342C60.7576 67.8909 60.4435 67.6807 60.1789 67.416L54.7789 62.0161L59.6699 57.1274C61.5843 55.2129 62.6671 52.6205 62.6836 49.9131C62.7001 47.2056 61.6489 44.6008 59.7579 42.6631" fill="#8353F2"/>
<path d="M54.7679 37.6781L49.5129 42.932H60.0029L54.7679 37.6781Z" fill="#5E3ABE"/>
<path d="M49.5169 67.2632H60.0069L54.7719 62.0083L49.5169 67.2632Z" fill="#5E3ABE"/>
</svg>
