<svg xmlns="http://www.w3.org/2000/svg" width="35" height="35" viewBox="0 0 35 35">
  <g id="Groupe_1742" data-name="Groupe 1742" transform="translate(-15082 3730)">
    <rect id="Rectangle_982" data-name="Rectangle 982" width="35" height="35" transform="translate(15082 -3730)" fill="none"/>
    <path id="Tracé_2556" data-name="Tracé 2556" d="M4.156,2.426a1.28,1.28,0,0,0-1.581,1.6L6.726,17.523H21.262a1.28,1.28,0,0,1,0,2.56H6.726L2.575,33.576a1.28,1.28,0,0,0,1.581,1.6A103.3,103.3,0,0,0,35.638,19.843a1.28,1.28,0,0,0,0-2.079A103.293,103.293,0,0,0,4.156,2.426Z" transform="translate(15080.48 -3731.375)" fill="#fff"/>
  </g>
</svg>
