<svg xmlns="http://www.w3.org/2000/svg" width="52" height="52" viewBox="0 0 52 52"><g transform="translate(16532 8430)"><rect width="52" height="52" transform="translate(-16532 -8430)" fill="none"/><path d="M-16506.2-8385.2h-.4c-.5-.1-.9-.3-1.4-.4a23.35,23.35,0,0,1-14.9-29.4,1.5,1.5,0,0,1,1.4-1h0a20.279,20.279,0,0,0,14.2-5.5,1.657,1.657,0,0,1,2.1,0,20.01,20.01,0,0,0,13.9,5.5h.3a1.507,1.507,0,0,1,1.4,1,7.4,7.4,0,0,1,.4,1.4,23.375,23.375,0,0,1-16.7,28.4Zm-14.1-27.9a20.382,20.382,0,0,0,13.3,24.6l.9.3a20.38,20.38,0,0,0,14.2-24.6c0-.1,0-.1-.1-.2a23.481,23.481,0,0,1-14.1-5.4A23.271,23.271,0,0,1-16520.3-8413.1Zm12.8,16.4a2.089,2.089,0,0,1-1.1-.4l-4.1-4.1a1.45,1.45,0,0,1,0-2.1,1.45,1.45,0,0,1,2.1,0l2.8,2.8,5.8-8.1a1.461,1.461,0,0,1,2.1-.3,1.462,1.462,0,0,1,.3,2.1l-6.8,9.5a1.38,1.38,0,0,1-1.1.6Z" fill="#8353f2"/></g></svg>