<svg xmlns="http://www.w3.org/2000/svg" xmlns:xlink="http://www.w3.org/1999/xlink" width="1195.84" height="464.953" viewBox="0 0 1195.84 464.953"><defs><clipPath id="a"><rect width="108.859" height="252.739" transform="translate(669.456 78.048)" fill="none"/></clipPath><clipPath id="b"><rect width="252.991" height="108.864" transform="translate(77.532 274.466)" fill="none"/></clipPath><clipPath id="c"><rect width="253.989" height="109.623" transform="translate(472.531 25.001)" fill="none"/></clipPath><clipPath id="d"><rect width="252.988" height="109.108" transform="translate(473.038 274.216)" fill="none"/></clipPath><clipPath id="e"><rect width="109.111" height="253.243" transform="translate(24.991 77.794)" fill="none"/></clipPath><clipPath id="f"><rect width="253.994" height="109.367" transform="translate(77.035 25.001)" fill="none"/></clipPath><clipPath id="g"><rect width="255.154" height="253.991" transform="translate(274.46 77.539)" fill="none"/></clipPath><clipPath id="h"><rect width="255.152" height="253.992" transform="translate(273.95 77.291)" fill="none"/></clipPath></defs><g transform="translate(-339.584 -1479.936)"><g transform="translate(5351 12613.165)"><path d="M8.64-8.256c0-2.528-1.84-3.584-4.176-3.584H1.04V0H2.768V-4.672h1.7C6.8-4.672,8.64-5.728,8.64-8.256Zm-1.728,0c0,1.456-1.136,2-2.448,2h-1.7v-4h1.7C5.776-10.256,6.912-9.712,6.912-8.256ZM17.9-4.544A4.538,4.538,0,0,0,13.392-9.1,4.556,4.556,0,0,0,8.848-4.448,4.635,4.635,0,0,0,13.36.224a4.518,4.518,0,0,0,4.256-3.008H15.952A2.85,2.85,0,0,1,13.424-1.3a3.023,3.023,0,0,1-2.912-2.416h7.344A7.252,7.252,0,0,0,17.9-4.544ZM16.24-4.992H10.512a2.882,2.882,0,0,1,2.864-2.592A2.882,2.882,0,0,1,16.24-4.992ZM27.024,0V-5.248a4.174,4.174,0,0,0-.56-2.272A3.574,3.574,0,0,0,23.328-9.1,3.082,3.082,0,0,0,20.736-7.92H20.7v-.944H19.152V0h1.664V-4.832c0-1.488.7-2.752,2.336-2.752,1.76,0,2.208,1.264,2.208,2.768V0Zm10.96-10.256V-11.84H31.712v1.584h2.272V0h1.728V-10.256Zm8.624,5.712A4.538,4.538,0,0,0,42.1-9.1a4.556,4.556,0,0,0-4.544,4.656A4.635,4.635,0,0,0,42.064.224,4.518,4.518,0,0,0,46.32-2.784H44.656A2.85,2.85,0,0,1,42.128-1.3a3.023,3.023,0,0,1-2.912-2.416H46.56A7.252,7.252,0,0,0,46.608-4.544Zm-1.664-.448H39.216A2.882,2.882,0,0,1,42.08-7.584,2.882,2.882,0,0,1,44.944-4.992Zm8.288,2.384c0-1.712-1.216-2.432-2.672-2.88-.608-.192-1.376-.368-1.376-1.152a.96.96,0,0,1,1.04-.944A1.1,1.1,0,0,1,51.36-6.512h1.664A2.6,2.6,0,0,0,50.3-9.1a2.66,2.66,0,0,0-2.784,2.56c0,3.136,4.048,2.176,4.048,4.032A1.176,1.176,0,0,1,50.288-1.3c-.992,0-1.44-.7-1.5-1.616H47.12a2.91,2.91,0,0,0,2,2.928,3.476,3.476,0,0,0,1.136.208A2.769,2.769,0,0,0,53.232-2.608Zm4.576-4.736v-1.52H56.352V-11.84H54.688v2.976h-1.2v1.52h1.2V0h1.664V-7.344Z" transform="translate(-4911 -10763.5)" fill="#515e81"/><path d="M6.384-10.256V-11.84H.112v1.584H2.384V0H4.112V-10.256ZM15.04,0V-5.248a4.174,4.174,0,0,0-.56-2.272A3.574,3.574,0,0,0,11.344-9.1,2.805,2.805,0,0,0,8.864-7.92H8.832v-3.92H7.168V0H8.832V-4.832c0-1.488.7-2.752,2.336-2.752,1.76,0,2.208,1.264,2.208,2.768V0Zm5.536-7.392V-9.1a2.675,2.675,0,0,0-2.256,1.04h-.032v-.8H16.736V0H18.4V-4.848a2.4,2.4,0,0,1,.976-2.224A2.853,2.853,0,0,1,20.576-7.392Zm9.36,2.848A4.538,4.538,0,0,0,25.424-9.1,4.556,4.556,0,0,0,20.88-4.448,4.635,4.635,0,0,0,25.392.224a4.518,4.518,0,0,0,4.256-3.008H27.984A2.85,2.85,0,0,1,25.456-1.3a3.023,3.023,0,0,1-2.912-2.416h7.344A7.253,7.253,0,0,0,29.936-4.544Zm-1.664-.448H22.544a2.882,2.882,0,0,1,2.864-2.592A2.882,2.882,0,0,1,28.272-4.992ZM40.144,0V-8.864H38.48v1.248h-.032A3.513,3.513,0,0,0,35.44-9.1a4.593,4.593,0,0,0-4.7,4.7A4.556,4.556,0,0,0,35.44.224a3.39,3.39,0,0,0,3.008-1.6h.032V0ZM38.512-4.416A3.1,3.1,0,0,1,35.424-1.3,3.094,3.094,0,0,1,32.4-4.416a3.068,3.068,0,0,1,3.04-3.168A3.036,3.036,0,0,1,38.512-4.416ZM45.28-7.344v-1.52H43.824V-11.84H42.16v2.976h-1.2v1.52h1.2V0h1.664V-7.344ZM63.008,0V-11.84h-2.72L56.72-2.768,53.168-11.84h-2.72V0h1.728V-10h.032l4,10h1.04l3.984-10h.048V0Zm10.96-4.464A4.706,4.706,0,0,0,69.184-9.1,4.71,4.71,0,0,0,64.4-4.5,4.763,4.763,0,0,0,69.184.224,4.747,4.747,0,0,0,73.968-4.464Zm-1.664,0A3.145,3.145,0,0,1,69.184-1.3a3.141,3.141,0,0,1-3.12-3.152,3.127,3.127,0,0,1,3.12-3.136A3.114,3.114,0,0,1,72.3-4.464ZM84.112,0V-11.84H82.448v4.064h-.032A3.834,3.834,0,0,0,79.408-9.1,4.533,4.533,0,0,0,74.8-4.4,4.5,4.5,0,0,0,79.408.224a3.743,3.743,0,0,0,3.136-1.488h.032V0ZM82.576-4.416A3.1,3.1,0,0,1,79.488-1.3a3.094,3.094,0,0,1-3.024-3.12A3.068,3.068,0,0,1,79.5-7.584,3.036,3.036,0,0,1,82.576-4.416Zm11.888-.128A4.538,4.538,0,0,0,89.952-9.1a4.556,4.556,0,0,0-4.544,4.656A4.635,4.635,0,0,0,89.92.224a4.518,4.518,0,0,0,4.256-3.008H92.512A2.85,2.85,0,0,1,89.984-1.3a3.023,3.023,0,0,1-2.912-2.416h7.344A7.253,7.253,0,0,0,94.464-4.544ZM92.8-4.992H87.072a2.882,2.882,0,0,1,2.864-2.592A2.882,2.882,0,0,1,92.8-4.992ZM97.392,0V-11.84H95.728V0Zm13.632-8.256c0-2.528-1.84-3.584-4.176-3.584h-3.424V0h1.728V-4.672h1.7C109.184-4.672,111.024-5.728,111.024-8.256Zm-1.728,0c0,1.456-1.136,2-2.448,2h-1.7v-4h1.7C108.16-10.256,109.3-9.712,109.3-8.256Zm11.488,3.792A4.706,4.706,0,0,0,116-9.1,4.71,4.71,0,0,0,111.216-4.5,4.763,4.763,0,0,0,116,.224,4.747,4.747,0,0,0,120.784-4.464Zm-1.664,0A3.145,3.145,0,0,1,116-1.3a3.141,3.141,0,0,1-3.12-3.152A3.127,3.127,0,0,1,116-7.584,3.114,3.114,0,0,1,119.12-4.464ZM123.744,0V-11.84H122.08V0Zm3.408-9.888V-11.84h-1.664v1.952Zm0,9.888V-8.864h-1.664V0Zm10.192-2.928h-1.856A2.672,2.672,0,0,1,132.976-1.3a2.944,2.944,0,0,1-2.88-3.152,2.892,2.892,0,0,1,2.912-3.136,2.639,2.639,0,0,1,2.5,1.664h1.84A4.537,4.537,0,0,0,132.992-9.1a4.53,4.53,0,0,0-4.56,4.656A4.521,4.521,0,0,0,132.976.224,4.557,4.557,0,0,0,137.344-2.928Zm2.848-6.96V-11.84h-1.664v1.952Zm0,9.888V-8.864h-1.664V0Zm10.352-4.544a4.538,4.538,0,0,0-4.512-4.56,4.556,4.556,0,0,0-4.544,4.656A4.635,4.635,0,0,0,146,.224a4.518,4.518,0,0,0,4.256-3.008h-1.664A2.85,2.85,0,0,1,146.064-1.3a3.023,3.023,0,0,1-2.912-2.416H150.5A7.253,7.253,0,0,0,150.544-4.544Zm-1.664-.448h-5.728a2.882,2.882,0,0,1,2.864-2.592A2.882,2.882,0,0,1,148.88-4.992Zm8.288,2.384c0-1.712-1.216-2.432-2.672-2.88-.608-.192-1.376-.368-1.376-1.152a.96.96,0,0,1,1.04-.944A1.1,1.1,0,0,1,155.3-6.512h1.664A2.6,2.6,0,0,0,154.24-9.1a2.66,2.66,0,0,0-2.784,2.56c0,3.136,4.048,2.176,4.048,4.032a1.176,1.176,0,0,1-1.28,1.216c-.992,0-1.44-.7-1.5-1.616h-1.664a2.91,2.91,0,0,0,2,2.928,3.476,3.476,0,0,0,1.136.208A2.769,2.769,0,0,0,157.168-2.608Z" transform="translate(-4413 -10668.5)" fill="#515e81"/><path d="M12.144-8.816a5.9,5.9,0,0,0-1.824-2.1A6.347,6.347,0,0,0,6.7-12.064a6.074,6.074,0,0,0-6.1,6.1A6.174,6.174,0,0,0,6.688.224a6.1,6.1,0,0,0,5.376-3.152H9.936A4.313,4.313,0,0,1,6.7-1.36,4.538,4.538,0,0,1,2.336-5.952a4.446,4.446,0,0,1,4.4-4.528,4.246,4.246,0,0,1,3.328,1.664Zm9.9,4.352A4.706,4.706,0,0,0,17.264-9.1,4.71,4.71,0,0,0,12.48-4.5,4.763,4.763,0,0,0,17.264.224,4.747,4.747,0,0,0,22.048-4.464Zm-1.664,0A3.145,3.145,0,0,1,17.264-1.3a3.141,3.141,0,0,1-3.12-3.152,3.127,3.127,0,0,1,3.12-3.136A3.114,3.114,0,0,1,20.384-4.464ZM36.752,0V-5.344c0-2.288-1.264-3.76-3.616-3.76a3.12,3.12,0,0,0-2.928,1.488A3.06,3.06,0,0,0,27.456-9.1a2.912,2.912,0,0,0-2.544,1.2H24.88v-.96H23.344V0h1.664V-4.944c0-1.488.48-2.64,2.192-2.64a1.832,1.832,0,0,1,1.648.832,3.136,3.136,0,0,1,.368,1.824V0H30.88V-4.944c0-1.456.384-2.64,2.112-2.64,1.632,0,2.1,1.264,2.1,2.656V0ZM47.776-4.32A4.55,4.55,0,0,0,43.184-9.1a3.749,3.749,0,0,0-3.152,1.6H40v-1.36H38.48V2.96h1.664V-1.28h.032A3.59,3.59,0,0,0,43.3.224,4.467,4.467,0,0,0,47.776-4.32Zm-1.664-.1A3.017,3.017,0,0,1,43.12-1.3a3.038,3.038,0,0,1-3.008-3.152,3.044,3.044,0,0,1,2.96-3.136A3.129,3.129,0,0,1,46.112-4.416ZM50.72,0V-11.84H49.056V0Zm3.408-9.888V-11.84H52.464v1.952Zm0,9.888V-8.864H52.464V0ZM64.816,0V-8.864H63.152v1.248H63.12A3.513,3.513,0,0,0,60.112-9.1a4.593,4.593,0,0,0-4.7,4.7,4.556,4.556,0,0,0,4.7,4.624,3.39,3.39,0,0,0,3.008-1.6h.032V0ZM63.184-4.416A3.1,3.1,0,0,1,60.1-1.3a3.094,3.094,0,0,1-3.024-3.12,3.068,3.068,0,0,1,3.04-3.168A3.036,3.036,0,0,1,63.184-4.416ZM74.416,0V-5.248a4.174,4.174,0,0,0-.56-2.272A3.574,3.574,0,0,0,70.72-9.1,3.082,3.082,0,0,0,68.128-7.92H68.1v-.944H66.544V0h1.664V-4.832c0-1.488.7-2.752,2.336-2.752,1.76,0,2.208,1.264,2.208,2.768V0ZM84.592-2.928H82.736A2.672,2.672,0,0,1,80.224-1.3a2.944,2.944,0,0,1-2.88-3.152,2.892,2.892,0,0,1,2.912-3.136,2.639,2.639,0,0,1,2.5,1.664h1.84A4.537,4.537,0,0,0,80.24-9.1a4.53,4.53,0,0,0-4.56,4.656A4.521,4.521,0,0,0,80.224.224,4.557,4.557,0,0,0,84.592-2.928Zm9.792-1.616A4.538,4.538,0,0,0,89.872-9.1a4.556,4.556,0,0,0-4.544,4.656A4.635,4.635,0,0,0,89.84.224,4.518,4.518,0,0,0,94.1-2.784H92.432A2.85,2.85,0,0,1,89.9-1.3a3.023,3.023,0,0,1-2.912-2.416h7.344A7.251,7.251,0,0,0,94.384-4.544ZM92.72-4.992H86.992a2.882,2.882,0,0,1,2.864-2.592A2.882,2.882,0,0,1,92.72-4.992Zm15.648-6.848h-1.824L103.1-2.96l-3.44-8.88H97.808L102.576,0h1.04ZM116.56,0V-8.864H114.9v1.248h-.032A3.513,3.513,0,0,0,111.856-9.1a4.593,4.593,0,0,0-4.7,4.7,4.556,4.556,0,0,0,4.7,4.624,3.39,3.39,0,0,0,3.008-1.6h.032V0Zm-1.632-4.416A3.1,3.1,0,0,1,111.84-1.3a3.094,3.094,0,0,1-3.024-3.12,3.068,3.068,0,0,1,3.04-3.168A3.036,3.036,0,0,1,114.928-4.416ZM120.048,0V-11.84h-1.664V0Zm3.408-9.888V-11.84h-1.664v1.952Zm0,9.888V-8.864h-1.664V0Zm10.592,0V-11.84h-1.664v4.064h-.032A3.834,3.834,0,0,0,129.344-9.1a4.533,4.533,0,0,0-4.608,4.7A4.5,4.5,0,0,0,129.344.224a3.743,3.743,0,0,0,3.136-1.488h.032V0Zm-1.536-4.416a3.1,3.1,0,0,1-3.088,3.12,3.094,3.094,0,0,1-3.024-3.12,3.068,3.068,0,0,1,3.04-3.168A3.036,3.036,0,0,1,132.512-4.416ZM144.736,0V-8.864h-1.664v1.248h-.032A3.513,3.513,0,0,0,140.032-9.1a4.593,4.593,0,0,0-4.7,4.7,4.556,4.556,0,0,0,4.7,4.624,3.39,3.39,0,0,0,3.008-1.6h.032V0ZM143.1-4.416a3.1,3.1,0,0,1-3.088,3.12,3.094,3.094,0,0,1-3.024-3.12,3.068,3.068,0,0,1,3.04-3.168A3.036,3.036,0,0,1,143.1-4.416Zm6.768-2.928v-1.52h-1.456V-11.84h-1.664v2.976h-1.2v1.52h1.2V0h1.664V-7.344Zm2.384-2.544V-11.84h-1.664v1.952Zm0,9.888V-8.864h-1.664V0ZM163.1-4.464A4.706,4.706,0,0,0,158.32-9.1,4.71,4.71,0,0,0,153.536-4.5,4.763,4.763,0,0,0,158.32.224,4.747,4.747,0,0,0,163.1-4.464Zm-1.664,0A3.145,3.145,0,0,1,158.32-1.3a3.141,3.141,0,0,1-3.12-3.152,3.127,3.127,0,0,1,3.12-3.136A3.114,3.114,0,0,1,161.44-4.464ZM172.256,0V-5.248a4.174,4.174,0,0,0-.56-2.272A3.574,3.574,0,0,0,168.56-9.1a3.082,3.082,0,0,0-2.592,1.184h-.032v-.944h-1.552V0h1.664V-4.832c0-1.488.7-2.752,2.336-2.752,1.76,0,2.208,1.264,2.208,2.768V0Z" transform="translate(-4494.5 -11121.165)" fill="#515e81"/><path d="M-56.256-3.36c0-4.5-5.216-2.992-5.216-5.5a1.626,1.626,0,0,1,1.584-1.616,1.584,1.584,0,0,1,1.664,1.712H-56.5a3.184,3.184,0,0,0-3.392-3.3A3.238,3.238,0,0,0-63.2-8.848c0,2.3,1.472,2.848,3.312,3.552.992.384,1.9.672,1.9,1.936a1.848,1.848,0,0,1-1.9,2A1.944,1.944,0,0,1-61.808-3.5h-1.728A3.55,3.55,0,0,0-59.888.224,3.457,3.457,0,0,0-56.256-3.36Zm10.672-1.1A4.706,4.706,0,0,0-50.368-9.1,4.71,4.71,0,0,0-55.152-4.5,4.763,4.763,0,0,0-50.368.224,4.747,4.747,0,0,0-45.584-4.464Zm-1.664,0A3.145,3.145,0,0,1-50.368-1.3a3.141,3.141,0,0,1-3.12-3.152,3.127,3.127,0,0,1,3.12-3.136A3.114,3.114,0,0,1-47.248-4.464ZM-37.2-7.344v-1.52h-1.456V-11.84H-40.32v2.976h-2.256V-9.3c0-.768.7-1.024,1.5-1.024h.048v-1.52h-.416A2.517,2.517,0,0,0-44.24-9.3v.432h-.784v1.52h.784V0h1.664V-7.344h2.256V0h1.664V-7.344Zm12.16-1.52h-1.776L-28.768-3.1H-28.8l-1.84-5.76h-1.088l-1.84,5.76H-33.6l-1.968-5.76h-1.776L-34.032,0h.912l1.92-5.968h.032L-29.248,0h.928ZM-15.536,0V-8.864H-17.2v1.248h-.032A3.513,3.513,0,0,0-20.24-9.1a4.593,4.593,0,0,0-4.7,4.7A4.556,4.556,0,0,0-20.24.224a3.39,3.39,0,0,0,3.008-1.6h.032V0Zm-1.632-4.416A3.1,3.1,0,0,1-20.256-1.3a3.094,3.094,0,0,1-3.024-3.12,3.068,3.068,0,0,1,3.04-3.168A3.036,3.036,0,0,1-17.168-4.416Zm7.216-2.976V-9.1a2.675,2.675,0,0,0-2.256,1.04h-.032v-.8h-1.552V0h1.664V-4.848a2.4,2.4,0,0,1,.976-2.224A2.853,2.853,0,0,1-9.952-7.392Zm9.36,2.848A4.538,4.538,0,0,0-5.1-9.1,4.556,4.556,0,0,0-9.648-4.448,4.635,4.635,0,0,0-5.136.224,4.518,4.518,0,0,0-.88-2.784H-2.544A2.85,2.85,0,0,1-5.072-1.3,3.023,3.023,0,0,1-7.984-3.712H-.64A7.253,7.253,0,0,0-.592-4.544Zm-1.664-.448H-7.984A2.882,2.882,0,0,1-5.12-7.584,2.882,2.882,0,0,1-2.256-4.992ZM-146.88,11.184a5.9,5.9,0,0,0-1.824-2.1,6.347,6.347,0,0,0-3.616-1.152,6.074,6.074,0,0,0-6.1,6.1,6.174,6.174,0,0,0,6.08,6.192,6.1,6.1,0,0,0,5.376-3.152h-2.128a4.313,4.313,0,0,1-3.232,1.568,4.538,4.538,0,0,1-4.368-4.592,4.446,4.446,0,0,1,4.4-4.528,4.246,4.246,0,0,1,3.328,1.664Zm9.9,4.352a4.706,4.706,0,0,0-4.784-4.64,4.71,4.71,0,0,0-4.784,4.608,4.763,4.763,0,0,0,4.784,4.72A4.747,4.747,0,0,0-136.976,15.536Zm-1.664,0a3.145,3.145,0,0,1-3.12,3.168,3.141,3.141,0,0,1-3.12-3.152,3.127,3.127,0,0,1,3.12-3.136A3.114,3.114,0,0,1-138.64,15.536ZM-122.272,20V14.656c0-2.288-1.264-3.76-3.616-3.76a3.12,3.12,0,0,0-2.928,1.488,3.06,3.06,0,0,0-2.752-1.488,2.912,2.912,0,0,0-2.544,1.2h-.032v-.96h-1.536V20h1.664V15.056c0-1.488.48-2.64,2.192-2.64a1.832,1.832,0,0,1,1.648.832,3.136,3.136,0,0,1,.368,1.824V20h1.664V15.056c0-1.456.384-2.64,2.112-2.64,1.632,0,2.1,1.264,2.1,2.656V20Zm11.024-4.32A4.55,4.55,0,0,0-115.84,10.9a3.749,3.749,0,0,0-3.152,1.6h-.032v-1.36h-1.52V22.96h1.664V18.72h.032a3.59,3.59,0,0,0,3.12,1.5A4.467,4.467,0,0,0-111.248,15.68Zm-1.664-.1A3.017,3.017,0,0,1-115.9,18.7a3.038,3.038,0,0,1-3.008-3.152,3.044,3.044,0,0,1,2.96-3.136A3.129,3.129,0,0,1-112.912,15.584Zm12.048-.048a4.706,4.706,0,0,0-4.784-4.64,4.71,4.71,0,0,0-4.784,4.608,4.763,4.763,0,0,0,4.784,4.72A4.747,4.747,0,0,0-100.864,15.536Zm-1.664,0a3.145,3.145,0,0,1-3.12,3.168,3.141,3.141,0,0,1-3.12-3.152,3.127,3.127,0,0,1,3.12-3.136A3.114,3.114,0,0,1-102.528,15.536Zm8.32,1.856c0-1.712-1.216-2.432-2.672-2.88-.608-.192-1.376-.368-1.376-1.152a.96.96,0,0,1,1.04-.944,1.1,1.1,0,0,1,1.136,1.072h1.664a2.6,2.6,0,0,0-2.72-2.592,2.66,2.66,0,0,0-2.784,2.56c0,3.136,4.048,2.176,4.048,4.032a1.176,1.176,0,0,1-1.28,1.216c-.992,0-1.44-.7-1.5-1.616h-1.664a2.91,2.91,0,0,0,2,2.928,3.476,3.476,0,0,0,1.136.208A2.769,2.769,0,0,0-94.208,17.392Zm2.688-7.28V8.16h-1.664v1.952Zm0,9.888V11.136h-1.664V20Zm5.136-7.344v-1.52H-87.84V8.16H-89.5v2.976h-1.2v1.52h1.2V20h1.664V12.656ZM-84,10.112V8.16h-1.664v1.952ZM-84,20V11.136h-1.664V20Zm10.848-4.464a4.706,4.706,0,0,0-4.784-4.64A4.71,4.71,0,0,0-82.72,15.5a4.763,4.763,0,0,0,4.784,4.72A4.747,4.747,0,0,0-73.152,15.536Zm-1.664,0a3.145,3.145,0,0,1-3.12,3.168,3.141,3.141,0,0,1-3.12-3.152,3.127,3.127,0,0,1,3.12-3.136A3.114,3.114,0,0,1-74.816,15.536ZM-64,20V14.752a4.174,4.174,0,0,0-.56-2.272A3.574,3.574,0,0,0-67.7,10.9a3.082,3.082,0,0,0-2.592,1.184h-.032v-.944h-1.552V20h1.664V15.168c0-1.488.7-2.752,2.336-2.752,1.76,0,2.208,1.264,2.208,2.768V20Zm15.408,0-4.5-11.84H-54.64L-59.136,20h1.824L-56,16.512h4.256L-50.432,20Zm-3.744-5.072h-3.056l1.52-4.528h.032ZM-39.872,20V14.752a4.174,4.174,0,0,0-.56-2.272A3.574,3.574,0,0,0-43.568,10.9,3.082,3.082,0,0,0-46.16,12.08h-.032v-.944h-1.552V20h1.664V15.168c0-1.488.7-2.752,2.336-2.752,1.76,0,2.208,1.264,2.208,2.768V20ZM-29.2,20V11.136h-1.664v1.248H-30.9A3.513,3.513,0,0,0-33.9,10.9a4.593,4.593,0,0,0-4.7,4.7,4.556,4.556,0,0,0,4.7,4.624,3.39,3.39,0,0,0,3.008-1.6h.032V20Zm-1.632-4.416A3.1,3.1,0,0,1-33.92,18.7a3.094,3.094,0,0,1-3.024-3.12,3.068,3.068,0,0,1,3.04-3.168A3.036,3.036,0,0,1-30.832,15.584ZM-25.712,20V8.16h-1.664V20Zm9.376-8.864h-1.792l-2.672,6.88-2.608-6.88H-25.2l3.536,8.688-1.3,3.136h1.728Zm6.192,6.256c0-1.712-1.216-2.432-2.672-2.88-.608-.192-1.376-.368-1.376-1.152a.96.96,0,0,1,1.04-.944,1.1,1.1,0,0,1,1.136,1.072h1.664a2.6,2.6,0,0,0-2.72-2.592,2.66,2.66,0,0,0-2.784,2.56c0,3.136,4.048,2.176,4.048,4.032a1.176,1.176,0,0,1-1.28,1.216c-.992,0-1.44-.7-1.5-1.616h-1.664a2.91,2.91,0,0,0,2,2.928,3.476,3.476,0,0,0,1.136.208A2.769,2.769,0,0,0-10.144,17.392Zm2.688-7.28V8.16H-9.12v1.952Zm0,9.888V11.136H-9.12V20Zm7.1-2.608c0-1.712-1.216-2.432-2.672-2.88C-3.632,14.32-4.4,14.144-4.4,13.36a.96.96,0,0,1,1.04-.944,1.1,1.1,0,0,1,1.136,1.072H-.56A2.6,2.6,0,0,0-3.28,10.9a2.66,2.66,0,0,0-2.784,2.56c0,3.136,4.048,2.176,4.048,4.032A1.176,1.176,0,0,1-3.3,18.7c-.992,0-1.44-.7-1.5-1.616H-6.464a2.91,2.91,0,0,0,2,2.928,3.476,3.476,0,0,0,1.136.208A2.769,2.769,0,0,0-.352,17.392Z" transform="translate(-4853 -10925)" fill="#515e81"/><path d="M8.64-8.256c0-2.528-1.84-3.584-4.176-3.584H1.04V0H2.768V-4.672h1.7C6.8-4.672,8.64-5.728,8.64-8.256Zm-1.728,0c0,1.456-1.136,2-2.448,2h-1.7v-4h1.7C5.776-10.256,6.912-9.712,6.912-8.256ZM18.24,0V-8.864H16.576v1.248h-.032A3.513,3.513,0,0,0,13.536-9.1a4.593,4.593,0,0,0-4.7,4.7,4.556,4.556,0,0,0,4.7,4.624,3.39,3.39,0,0,0,3.008-1.6h.032V0ZM16.608-4.416A3.1,3.1,0,0,1,13.52-1.3,3.094,3.094,0,0,1,10.5-4.416a3.068,3.068,0,0,1,3.04-3.168A3.036,3.036,0,0,1,16.608-4.416Zm5.04-5.472V-11.84H19.984v1.952Zm0,9.888V-8.864H19.984V0ZM31.84-2.928H29.984A2.672,2.672,0,0,1,27.472-1.3a2.944,2.944,0,0,1-2.88-3.152A2.892,2.892,0,0,1,27.5-7.584,2.639,2.639,0,0,1,30-5.92h1.84A4.537,4.537,0,0,0,27.488-9.1a4.53,4.53,0,0,0-4.56,4.656A4.521,4.521,0,0,0,27.472.224,4.557,4.557,0,0,0,31.84-2.928ZM40.64,0V-5.248a4.174,4.174,0,0,0-.56-2.272A3.574,3.574,0,0,0,36.944-9.1a2.805,2.805,0,0,0-2.48,1.184h-.032v-3.92H32.768V0h1.664V-4.832c0-1.488.7-2.752,2.336-2.752,1.76,0,2.208,1.264,2.208,2.768V0Z" transform="translate(-3959 -10925)" fill="#515e81"/><path d="M7.568-3.36c0-4.5-5.216-2.992-5.216-5.5A1.626,1.626,0,0,1,3.936-10.48,1.584,1.584,0,0,1,5.6-8.768H7.328a3.184,3.184,0,0,0-3.392-3.3A3.238,3.238,0,0,0,.624-8.848C.624-6.544,2.1-6,3.936-5.3c.992.384,1.9.672,1.9,1.936a1.848,1.848,0,0,1-1.9,2A1.944,1.944,0,0,1,2.016-3.5H.288A3.55,3.55,0,0,0,3.936.224,3.457,3.457,0,0,0,7.568-3.36ZM17.744-4.544A4.538,4.538,0,0,0,13.232-9.1,4.556,4.556,0,0,0,8.688-4.448,4.635,4.635,0,0,0,13.2.224a4.518,4.518,0,0,0,4.256-3.008H15.792A2.85,2.85,0,0,1,13.264-1.3a3.023,3.023,0,0,1-2.912-2.416H17.7A7.252,7.252,0,0,0,17.744-4.544ZM16.08-4.992H10.352a2.882,2.882,0,0,1,2.864-2.592A2.882,2.882,0,0,1,16.08-4.992ZM27.456-2.928H25.6A2.672,2.672,0,0,1,23.088-1.3a2.944,2.944,0,0,1-2.88-3.152A2.892,2.892,0,0,1,23.12-7.584a2.639,2.639,0,0,1,2.5,1.664h1.84A4.537,4.537,0,0,0,23.1-9.1a4.53,4.53,0,0,0-4.56,4.656A4.521,4.521,0,0,0,23.088.224,4.557,4.557,0,0,0,27.456-2.928ZM36.48,0V-8.864H34.816v4.752c0,1.536-.624,2.816-2.32,2.816-1.744,0-2.208-1.2-2.208-2.768v-4.8H28.624v4.8A4.345,4.345,0,0,0,29.792-.656a3.808,3.808,0,0,0,2.528.88A3.014,3.014,0,0,0,34.928-.96h.032V0Zm5.584-7.392V-9.1a2.675,2.675,0,0,0-2.256,1.04h-.032v-.8H38.224V0h1.664V-4.848a2.4,2.4,0,0,1,.976-2.224A2.853,2.853,0,0,1,42.064-7.392Zm2.88-2.5V-11.84H43.28v1.952Zm0,9.888V-8.864H43.28V0ZM50.08-7.344v-1.52H48.624V-11.84H46.96v2.976h-1.2v1.52h1.2V0h1.664V-7.344Zm8.672-1.52H56.96l-2.672,6.88L51.68-8.864H49.888L53.424-.176l-1.3,3.136h1.728ZM76.592,0V-11.84h-2.72L70.3-2.768,66.752-11.84h-2.72V0H65.76V-10h.032l4,10h1.04l3.984-10h.048V0Zm10.96-4.464A4.706,4.706,0,0,0,82.768-9.1,4.71,4.71,0,0,0,77.984-4.5,4.763,4.763,0,0,0,82.768.224,4.747,4.747,0,0,0,87.552-4.464Zm-1.664,0A3.145,3.145,0,0,1,82.768-1.3a3.141,3.141,0,0,1-3.12-3.152,3.127,3.127,0,0,1,3.12-3.136A3.114,3.114,0,0,1,85.888-4.464ZM96.7,0V-5.248a4.174,4.174,0,0,0-.56-2.272A3.574,3.574,0,0,0,93.008-9.1,3.082,3.082,0,0,0,90.416-7.92h-.032v-.944H88.832V0H90.5V-4.832c0-1.488.7-2.752,2.336-2.752,1.76,0,2.208,1.264,2.208,2.768V0ZM100.1-9.888V-11.84H98.432v1.952ZM100.1,0V-8.864H98.432V0Zm5.136-7.344v-1.52h-1.456V-11.84h-1.664v2.976h-1.2v1.52h1.2V0h1.664V-7.344Zm9.824,2.88a4.706,4.706,0,0,0-4.784-4.64A4.71,4.71,0,0,0,105.488-4.5a4.763,4.763,0,0,0,4.784,4.72A4.747,4.747,0,0,0,115.056-4.464Zm-1.664,0a3.145,3.145,0,0,1-3.12,3.168,3.141,3.141,0,0,1-3.12-3.152,3.127,3.127,0,0,1,3.12-3.136A3.114,3.114,0,0,1,113.392-4.464Zm6.8-2.928V-9.1a2.675,2.675,0,0,0-2.256,1.04H117.9v-.8h-1.552V0h1.664V-4.848a2.4,2.4,0,0,1,.976-2.224A2.853,2.853,0,0,1,120.192-7.392Zm2.88-2.5V-11.84h-1.664v1.952Zm0,9.888V-8.864h-1.664V0Zm9.6,0V-5.248a4.174,4.174,0,0,0-.56-2.272A3.574,3.574,0,0,0,128.976-9.1a3.082,3.082,0,0,0-2.592,1.184h-.032v-.944H124.8V0h1.664V-4.832c0-1.488.7-2.752,2.336-2.752,1.76,0,2.208,1.264,2.208,2.768V0Zm10.752-1.2V-8.864H141.76V-7.84A4.2,4.2,0,0,0,138.7-9.1a4.6,4.6,0,0,0-4.288,2.656,4.478,4.478,0,0,0-.48,1.984A4.778,4.778,0,0,0,138.672.224a3.681,3.681,0,0,0,3.056-1.392h.032a2.816,2.816,0,0,1-3.12,3.136,2.914,2.914,0,0,1-2.528-1.28h-1.856a4.612,4.612,0,0,0,4.368,2.8C141.568,3.488,143.424,1.792,143.424-1.2ZM141.76-4.416a3.02,3.02,0,0,1-.288,1.232A2.987,2.987,0,0,1,138.656-1.3,3.125,3.125,0,0,1,135.6-4.432a3.111,3.111,0,0,1,3.072-3.152,3.241,3.241,0,0,1,1.168.24A2.936,2.936,0,0,1,141.76-4.416Z" transform="translate(-3959 -10771.5)" fill="#515e81"/><path d="M6.384-10.256V-11.84H.112v1.584H2.384V0H4.112V-10.256ZM15.04,0V-5.248a4.174,4.174,0,0,0-.56-2.272A3.574,3.574,0,0,0,11.344-9.1,2.805,2.805,0,0,0,8.864-7.92H8.832v-3.92H7.168V0H8.832V-4.832c0-1.488.7-2.752,2.336-2.752,1.76,0,2.208,1.264,2.208,2.768V0Zm5.536-7.392V-9.1a2.675,2.675,0,0,0-2.256,1.04h-.032v-.8H16.736V0H18.4V-4.848a2.4,2.4,0,0,1,.976-2.224A2.853,2.853,0,0,1,20.576-7.392Zm9.36,2.848A4.538,4.538,0,0,0,25.424-9.1,4.556,4.556,0,0,0,20.88-4.448,4.635,4.635,0,0,0,25.392.224a4.518,4.518,0,0,0,4.256-3.008H27.984A2.85,2.85,0,0,1,25.456-1.3a3.023,3.023,0,0,1-2.912-2.416h7.344A7.253,7.253,0,0,0,29.936-4.544Zm-1.664-.448H22.544a2.882,2.882,0,0,1,2.864-2.592A2.882,2.882,0,0,1,28.272-4.992ZM40.144,0V-8.864H38.48v1.248h-.032A3.513,3.513,0,0,0,35.44-9.1a4.593,4.593,0,0,0-4.7,4.7A4.556,4.556,0,0,0,35.44.224a3.39,3.39,0,0,0,3.008-1.6h.032V0ZM38.512-4.416A3.1,3.1,0,0,1,35.424-1.3,3.094,3.094,0,0,1,32.4-4.416a3.068,3.068,0,0,1,3.04-3.168A3.036,3.036,0,0,1,38.512-4.416ZM45.28-7.344v-1.52H43.824V-11.84H42.16v2.976h-1.2v1.52h1.2V0h1.664V-7.344ZM52.176,0V-11.84H50.448V0Zm9.712,0V-5.248a4.174,4.174,0,0,0-.56-2.272A3.574,3.574,0,0,0,58.192-9.1,3.082,3.082,0,0,0,55.6-7.92h-.032v-.944H54.016V0H55.68V-4.832c0-1.488.7-2.752,2.336-2.752,1.76,0,2.208,1.264,2.208,2.768V0Zm5.04-7.344v-1.52H65.472V-11.84H63.808v2.976h-1.2v1.52h1.2V0h1.664V-7.344Zm9.328,2.8A4.538,4.538,0,0,0,71.744-9.1,4.556,4.556,0,0,0,67.2-4.448,4.635,4.635,0,0,0,71.712.224a4.518,4.518,0,0,0,4.256-3.008H74.3A2.85,2.85,0,0,1,71.776-1.3a3.023,3.023,0,0,1-2.912-2.416h7.344A7.251,7.251,0,0,0,76.256-4.544Zm-1.664-.448H68.864a2.882,2.882,0,0,1,2.864-2.592A2.882,2.882,0,0,1,74.592-4.992ZM79.184,0V-11.84H77.52V0Zm3.408,0V-11.84H80.928V0ZM86-9.888V-11.84H84.336v1.952ZM86,0V-8.864H84.336V0ZM96.768-1.2V-8.864H95.1V-7.84A4.2,4.2,0,0,0,92.048-9.1,4.6,4.6,0,0,0,87.76-6.448a4.478,4.478,0,0,0-.48,1.984A4.778,4.778,0,0,0,92.016.224a3.681,3.681,0,0,0,3.056-1.392H95.1a2.816,2.816,0,0,1-3.12,3.136A2.914,2.914,0,0,1,89.456.688H87.6a4.611,4.611,0,0,0,4.368,2.8C94.912,3.488,96.768,1.792,96.768-1.2ZM95.1-4.416a3.02,3.02,0,0,1-.288,1.232A2.987,2.987,0,0,1,92-1.3a3.125,3.125,0,0,1-3.056-3.136,3.111,3.111,0,0,1,3.072-3.152,3.241,3.241,0,0,1,1.168.24A2.936,2.936,0,0,1,95.1-4.416Zm11.76-.128a4.538,4.538,0,0,0-4.512-4.56,4.556,4.556,0,0,0-4.544,4.656A4.635,4.635,0,0,0,102.32.224a4.518,4.518,0,0,0,4.256-3.008h-1.664A2.85,2.85,0,0,1,102.384-1.3a3.023,3.023,0,0,1-2.912-2.416h7.344A7.251,7.251,0,0,0,106.864-4.544ZM105.2-4.992H99.472a2.882,2.882,0,0,1,2.864-2.592A2.882,2.882,0,0,1,105.2-4.992ZM115.984,0V-5.248a4.174,4.174,0,0,0-.56-2.272A3.574,3.574,0,0,0,112.288-9.1,3.082,3.082,0,0,0,109.7-7.92h-.032v-.944h-1.552V0h1.664V-4.832c0-1.488.7-2.752,2.336-2.752,1.76,0,2.208,1.264,2.208,2.768V0ZM126.16-2.928H124.3A2.672,2.672,0,0,1,121.792-1.3a2.944,2.944,0,0,1-2.88-3.152,2.892,2.892,0,0,1,2.912-3.136,2.639,2.639,0,0,1,2.5,1.664h1.84A4.537,4.537,0,0,0,121.808-9.1a4.53,4.53,0,0,0-4.56,4.656A4.521,4.521,0,0,0,121.792.224,4.557,4.557,0,0,0,126.16-2.928Zm9.792-1.616A4.538,4.538,0,0,0,131.44-9.1,4.556,4.556,0,0,0,126.9-4.448,4.635,4.635,0,0,0,131.408.224a4.518,4.518,0,0,0,4.256-3.008H134A2.85,2.85,0,0,1,131.472-1.3a3.023,3.023,0,0,1-2.912-2.416H135.9A7.253,7.253,0,0,0,135.952-4.544Zm-1.664-.448H128.56a2.882,2.882,0,0,1,2.864-2.592A2.882,2.882,0,0,1,134.288-4.992Z" transform="translate(-3959 -11057.5)" fill="#515e81"/><path d="M7.1,0V-1.584H2.992V-11.84H1.264V0ZM16.88-4.464A4.706,4.706,0,0,0,12.1-9.1,4.71,4.71,0,0,0,7.312-4.5,4.763,4.763,0,0,0,12.1.224,4.747,4.747,0,0,0,16.88-4.464Zm-1.664,0A3.145,3.145,0,0,1,12.1-1.3a3.141,3.141,0,0,1-3.12-3.152A3.127,3.127,0,0,1,12.1-7.584,3.114,3.114,0,0,1,15.216-4.464ZM27.2-1.2V-8.864H25.536V-7.84A4.2,4.2,0,0,0,22.48-9.1a4.6,4.6,0,0,0-4.288,2.656,4.478,4.478,0,0,0-.48,1.984A4.778,4.778,0,0,0,22.448.224,3.681,3.681,0,0,0,25.5-1.168h.032a2.816,2.816,0,0,1-3.12,3.136A2.914,2.914,0,0,1,19.888.688H18.032a4.612,4.612,0,0,0,4.368,2.8C25.344,3.488,27.2,1.792,27.2-1.2ZM25.536-4.416a3.02,3.02,0,0,1-.288,1.232A2.987,2.987,0,0,1,22.432-1.3a3.125,3.125,0,0,1-3.056-3.136,3.111,3.111,0,0,1,3.072-3.152,3.241,3.241,0,0,1,1.168.24A2.936,2.936,0,0,1,25.536-4.416ZM42.192,0V-8.864H40.528v1.248H40.5A3.513,3.513,0,0,0,37.488-9.1a4.593,4.593,0,0,0-4.7,4.7,4.556,4.556,0,0,0,4.7,4.624,3.39,3.39,0,0,0,3.008-1.6h.032V0ZM40.56-4.416A3.1,3.1,0,0,1,37.472-1.3a3.094,3.094,0,0,1-3.024-3.12,3.068,3.068,0,0,1,3.04-3.168A3.036,3.036,0,0,1,40.56-4.416ZM51.792,0V-5.248a4.174,4.174,0,0,0-.56-2.272A3.574,3.574,0,0,0,48.1-9.1,3.082,3.082,0,0,0,45.5-7.92h-.032v-.944H43.92V0h1.664V-4.832c0-1.488.7-2.752,2.336-2.752,1.76,0,2.208,1.264,2.208,2.768V0ZM62.368,0V-11.84H60.7v4.064h-.032A3.834,3.834,0,0,0,57.664-9.1a4.533,4.533,0,0,0-4.608,4.7A4.5,4.5,0,0,0,57.664.224,3.743,3.743,0,0,0,60.8-1.264h.032V0ZM60.832-4.416A3.1,3.1,0,0,1,57.744-1.3a3.094,3.094,0,0,1-3.024-3.12,3.068,3.068,0,0,1,3.04-3.168A3.036,3.036,0,0,1,60.832-4.416ZM77.792,0,73.3-11.84H71.744L67.248,0h1.824l1.312-3.488H74.64L75.952,0ZM74.048-5.072H70.992L72.512-9.6h.032ZM86.176,0V-8.864H84.512v4.752c0,1.536-.624,2.816-2.32,2.816-1.744,0-2.208-1.2-2.208-2.768v-4.8H78.32v4.8A4.345,4.345,0,0,0,79.488-.656a3.808,3.808,0,0,0,2.528.88A3.014,3.014,0,0,0,84.624-.96h.032V0ZM96.768,0V-11.84H95.1v4.064h-.032A3.834,3.834,0,0,0,92.064-9.1a4.533,4.533,0,0,0-4.608,4.7A4.5,4.5,0,0,0,92.064.224,3.743,3.743,0,0,0,95.2-1.264h.032V0ZM95.232-4.416A3.1,3.1,0,0,1,92.144-1.3a3.094,3.094,0,0,1-3.024-3.12,3.068,3.068,0,0,1,3.04-3.168A3.036,3.036,0,0,1,95.232-4.416Zm4.944-5.472V-11.84H98.512v1.952Zm0,9.888V-8.864H98.512V0Zm5.136-7.344v-1.52h-1.456V-11.84h-1.664v2.976h-1.2v1.52h1.2V0h1.664V-7.344Z" transform="translate(-3959 -11098)" fill="#515e81"/><path d="M-87.44-8.816a5.9,5.9,0,0,0-1.824-2.1,6.347,6.347,0,0,0-3.616-1.152,6.074,6.074,0,0,0-6.1,6.1A6.174,6.174,0,0,0-92.9.224,6.1,6.1,0,0,0-87.52-2.928h-2.128A4.313,4.313,0,0,1-92.88-1.36a4.538,4.538,0,0,1-4.368-4.592,4.446,4.446,0,0,1,4.4-4.528A4.246,4.246,0,0,1-89.52-8.816Zm9.9,4.352A4.706,4.706,0,0,0-82.32-9.1,4.71,4.71,0,0,0-87.1-4.5,4.763,4.763,0,0,0-82.32.224,4.747,4.747,0,0,0-77.536-4.464Zm-1.664,0A3.145,3.145,0,0,1-82.32-1.3a3.141,3.141,0,0,1-3.12-3.152,3.127,3.127,0,0,1,3.12-3.136A3.114,3.114,0,0,1-79.2-4.464ZM-67.392,0V-11.84h-1.664v4.064h-.032A3.834,3.834,0,0,0-72.1-9.1,4.533,4.533,0,0,0-76.7-4.4,4.5,4.5,0,0,0-72.1.224,3.743,3.743,0,0,0-68.96-1.264h.032V0Zm-1.536-4.416A3.1,3.1,0,0,1-72.016-1.3a3.094,3.094,0,0,1-3.024-3.12A3.068,3.068,0,0,1-72-7.584,3.036,3.036,0,0,1-68.928-4.416Zm11.888-.128A4.538,4.538,0,0,0-61.552-9.1,4.556,4.556,0,0,0-66.1-4.448,4.635,4.635,0,0,0-61.584.224a4.518,4.518,0,0,0,4.256-3.008h-1.664A2.85,2.85,0,0,1-61.52-1.3a3.023,3.023,0,0,1-2.912-2.416h7.344A7.252,7.252,0,0,0-57.04-4.544ZM-58.7-4.992h-5.728a2.882,2.882,0,0,1,2.864-2.592A2.882,2.882,0,0,1-58.7-4.992Zm15.12-3.056a3.861,3.861,0,0,0-1.088-2.8,4.371,4.371,0,0,0-3.152-.992h-3.664V0h1.728V-5.488h.032L-45.824,0h2.16l-3.312-4.416a3.509,3.509,0,0,0,1.152-.224A3.324,3.324,0,0,0-43.584-8.048Zm-1.728,0c0,1.888-1.728,2.32-3.264,2.32H-49.76v-4.528h1.824C-46.56-10.256-45.312-9.552-45.312-8.048Zm11.568,3.5A4.538,4.538,0,0,0-38.256-9.1,4.556,4.556,0,0,0-42.8-4.448,4.635,4.635,0,0,0-38.288.224a4.518,4.518,0,0,0,4.256-3.008H-35.7A2.85,2.85,0,0,1-38.224-1.3a3.023,3.023,0,0,1-2.912-2.416h7.344A7.253,7.253,0,0,0-33.744-4.544Zm-1.664-.448h-5.728a2.882,2.882,0,0,1,2.864-2.592A2.882,2.882,0,0,1-35.408-4.992Zm9.92-3.872h-1.776l-2.272,6.336h-.032l-2.32-6.336h-1.776L-30.144,0h1.168Zm2.544-1.024V-11.84h-1.664v1.952Zm0,9.888V-8.864h-1.664V0Zm10.352-4.544A4.538,4.538,0,0,0-17.1-9.1a4.556,4.556,0,0,0-4.544,4.656A4.635,4.635,0,0,0-17.136.224,4.518,4.518,0,0,0-12.88-2.784h-1.664A2.85,2.85,0,0,1-17.072-1.3a3.023,3.023,0,0,1-2.912-2.416h7.344A7.253,7.253,0,0,0-12.592-4.544Zm-1.664-.448h-5.728A2.882,2.882,0,0,1-17.12-7.584,2.882,2.882,0,0,1-14.256-4.992ZM-.208-8.864H-1.984L-3.936-3.1h-.032l-1.84-5.76H-6.9L-8.736-3.1h-.032l-1.968-5.76h-1.776L-9.2,0h.912l1.92-5.968h.032L-4.416,0h.928Z" transform="translate(-4853 -11088)" fill="#515e81"/><path d="M-24.656-3.36c0-4.5-5.216-2.992-5.216-5.5a1.626,1.626,0,0,1,1.584-1.616,1.584,1.584,0,0,1,1.664,1.712H-24.9a3.184,3.184,0,0,0-3.392-3.3A3.238,3.238,0,0,0-31.6-8.848c0,2.3,1.472,2.848,3.312,3.552.992.384,1.9.672,1.9,1.936a1.848,1.848,0,0,1-1.9,2A1.944,1.944,0,0,1-30.208-3.5h-1.728A3.55,3.55,0,0,0-28.288.224,3.457,3.457,0,0,0-24.656-3.36ZM-13.888,0l-4.5-11.84h-1.552L-24.432,0h1.824L-21.3-3.488h4.256L-15.728,0Zm-3.744-5.072h-3.056l1.52-4.528h.032Zm11.1,1.712c0-4.5-5.216-2.992-5.216-5.5A1.626,1.626,0,0,1-10.16-10.48,1.584,1.584,0,0,1-8.5-8.768h1.728a3.184,3.184,0,0,0-3.392-3.3,3.238,3.238,0,0,0-3.312,3.216C-13.472-6.544-12-6-10.16-5.3c.992.384,1.9.672,1.9,1.936a1.848,1.848,0,0,1-1.9,2A1.944,1.944,0,0,1-12.08-3.5h-1.728A3.55,3.55,0,0,0-10.16.224,3.457,3.457,0,0,0-6.528-3.36Zm6.4-6.9V-11.84H-6.4v1.584h2.272V0H-2.4V-10.256Z" transform="translate(-4853 -11002)" fill="#515e81"/><path d="M10.928-5.888A6.632,6.632,0,0,0,9.712-9.664,5.609,5.609,0,0,0,4.88-11.84H1.04V0H4.816A6.185,6.185,0,0,0,9.44-1.712,6.36,6.36,0,0,0,10.928-5.888Zm-1.728,0c0,2.736-1.68,4.3-4.368,4.3H2.768v-8.672h2.1A4.038,4.038,0,0,1,8.848-7.7,5.047,5.047,0,0,1,9.2-5.888ZM21.264,0l-4.5-11.84H15.216L10.72,0h1.824l1.312-3.488h4.256L19.424,0ZM17.52-5.072H14.464L15.984-9.6h.032Zm11.1,1.712c0-4.5-5.216-2.992-5.216-5.5a1.626,1.626,0,0,1,1.584-1.616,1.584,1.584,0,0,1,1.664,1.712h1.728a3.184,3.184,0,0,0-3.392-3.3A3.238,3.238,0,0,0,21.68-8.848c0,2.3,1.472,2.848,3.312,3.552.992.384,1.9.672,1.9,1.936a1.848,1.848,0,0,1-1.9,2A1.944,1.944,0,0,1,23.072-3.5H21.344A3.55,3.55,0,0,0,24.992.224,3.457,3.457,0,0,0,28.624-3.36Zm6.4-6.9V-11.84H28.752v1.584h2.272V0h1.728V-10.256Z" transform="translate(-4888 -10798.5)" fill="#515e81"/><g transform="translate(0 53.335)"><path d="M204.154,408.33A202.873,202.873,0,0,1,59.728,348.591c-79.637-79.637-79.637-209.216,0-288.854a204.463,204.463,0,0,1,288.829-.025l53.1,52.792L454.8,59.664a204.46,204.46,0,0,1,288.781.073c79.635,79.638,79.635,209.216,0,288.854a204.458,204.458,0,0,1-288.828.024l-53.1-52.791-53.146,52.84A202.816,202.816,0,0,1,204.154,408.33M546.6,256.616a74.2,74.2,0,1,0,.051-104.955l-52.807,52.5ZM204.154,129.961a74.2,74.2,0,1,0,52.5,126.706l52.806-52.5-52.756-52.452a73.814,73.814,0,0,0-52.554-21.751" transform="translate(-4805.128 -11186.5)" fill="#ebeeef"/><g transform="translate(-4805.128 -11186.5)" style="isolation:isolate"><g clip-path="url(#a)"><path d="M669.456,274.216l56.57,56.57c69.555-69.69,69.715-182.838.494-252.739l-56.577,56.578a99.349,99.349,0,0,1-.487,139.591" fill="#98e2c5"/></g></g><g transform="translate(-4805.128 -11186.5)" style="isolation:isolate"><g clip-path="url(#b)"><path d="M134.1,274.466l-56.57,56.57a179.441,179.441,0,0,0,252.992.247L273.951,274.71a99.357,99.357,0,0,1-139.849-.244" fill="#8353f2"/></g></g><g transform="translate(-4805.128 -11186.5)" style="isolation:isolate"><g clip-path="url(#c)"><path d="M669.335,133.983c.21.21.4.43.609.641L726.52,78.048c-.207-.21-.408-.424-.617-.633C656.056,7.569,542.432,7.53,472.532,77.291l56.57,56.57a99.364,99.364,0,0,1,140.233.122" fill="#50e2aa"/></g></g><g transform="translate(-4805.128 -11186.5)" style="isolation:isolate"><g clip-path="url(#d)"><path d="M669.456,274.216c-.042.042-.08.087-.122.128a99.353,99.353,0,0,1-139.72.61L473.037,331.53c69.942,69.26,183.187,69.061,252.866-.617.041-.042.081-.085.123-.127Z" fill="#c8e5da"/></g></g><g transform="translate(-4805.128 -11186.5)" style="isolation:isolate"><g clip-path="url(#e)"><path d="M133.974,274.345a99.357,99.357,0,0,1-.366-139.977L77.035,77.795C7.521,147.716,7.641,261.149,77.4,330.913l.127.124,56.57-56.57c-.042-.042-.086-.08-.128-.122" fill="#a27df7"/></g></g><g transform="translate(-4805.128 -11186.5)" style="isolation:isolate"><g clip-path="url(#f)"><path d="M133.973,133.983a99.367,99.367,0,0,1,140.362,0l.125.124,56.569-56.568-.147-.146C260.99,7.531,147.287,7.535,77.4,77.415c-.126.125-.246.254-.37.379l56.573,56.573c.125-.126.239-.258.365-.384" fill="#b99ef7"/></g></g><g transform="translate(-4805.128 -11186.5)" style="isolation:isolate"><g clip-path="url(#g)"><path d="M274.46,134.108,331.028,77.54,528.973,274.345c.21.209.43.4.641.609L473.038,331.53c-.2-.2-.41-.394-.612-.6Z" fill="#c1cdef"/></g></g><path d="M174.152,340.931a139.974,139.974,0,0,1-103.23-93.667l1.428-.461a138.389,138.389,0,0,0,102.122,92.663Z" transform="translate(-4805.128 -11186.5)" fill="#fff"/><path d="M168.041,344.935l-.734-1.309,6.454-3.611-4.073-6.174,1.254-.826,4.959,7.521Z" transform="translate(-4805.128 -11186.5)" fill="#fff"/><path d="M72.854,159.993l-1.422-.477a139.268,139.268,0,0,1,13.431-28.69,141.22,141.22,0,0,1,43.325-44.294,139.255,139.255,0,0,1,25.6-13.033l.539,1.4A137.751,137.751,0,0,0,129,87.791a139.721,139.721,0,0,0-42.863,43.821A137.765,137.765,0,0,0,72.854,159.993Z" transform="translate(-4805.128 -11186.5)" fill="#fff"/><path d="M68.06,153.029l1.378-.6,2.933,6.79,6.558-3.422.693,1.332L71.634,161.3Z" transform="translate(-4805.128 -11186.5)" fill="#fff"/><path d="M316.433,120.493l-14.343-14.26a137.863,137.863,0,0,0-59.981-35.291l.41-1.443a139.363,139.363,0,0,1,60.631,35.672l14.341,14.258Z" transform="translate(-4805.128 -11186.5)" fill="#fff"/><path d="M248.85,65.847l.657,1.35-6.653,3.231,3.709,6.4-1.3.751-4.515-7.8Z" transform="translate(-4805.128 -11186.5)" fill="#fff"/><path d="M564.29,339.777a139.347,139.347,0,0,1-64.13-36.617l-141-140.183,1.058-1.064,141,140.185a137.847,137.847,0,0,0,63.443,36.226Z" transform="translate(-4805.128 -11186.5)" fill="#fff"/><path d="M367.541,161.6l-.049,1.5-7.392-.249.291,7.391-1.5.058-.353-9Z" transform="translate(-4805.128 -11186.5)" fill="#fff"/><g transform="translate(-4805.128 -11186.5)" style="isolation:isolate"><g clip-path="url(#h)"><path d="M274.416,274.263l-.081.082c-.126.126-.258.241-.385.366l56.573,56.573c.119-.118.24-.231.358-.349l198.01-196.869.082-.082c.042-.042.086-.08.128-.122l-56.57-56.57-.105.1Z" fill="#48d19d"/></g></g><path d="M240.943,339.269l-.393-1.448A137.864,137.864,0,0,0,302.088,302.1l54.768-54.452,1.058,1.064-54.766,54.45a139.364,139.364,0,0,1-62.2,36.108Z" transform="translate(-4805.128 -11186.5)" fill="#fff"/><path d="M358.185,256.034l-1.5-.058.292-7.39-7.393.249-.049-1.5,9-.3Z" transform="translate(-4805.128 -11186.5)" fill="#fff"/><path d="M663.187,328.706l-.686-1.334a139.286,139.286,0,0,0,60.718-61.556l1.343.668a140.786,140.786,0,0,1-61.374,62.222Z" transform="translate(-4805.128 -11186.5)" fill="#fff"/><path d="M664.384,320.276l1.417.5-2.459,6.975,7.138,1.942-.4,1.448-8.692-2.367Z" transform="translate(-4805.128 -11186.5)" fill="#fff"/><path d="M725.179,146.628a138.59,138.59,0,0,0-79.332-72.89l.5-1.413A139.263,139.263,0,0,1,673.664,85.6a140.844,140.844,0,0,1,52.88,60.4Z" transform="translate(-4805.128 -11186.5)" fill="#fff"/><path d="M718.17,144.437l.559-1.393,6.861,2.763,2.255-7.044,1.429.459-2.748,8.579Z" transform="translate(-4805.128 -11186.5)" fill="#fff"/><path d="M439.229,167.864l-1.058-1.064,61.989-61.632a141.009,141.009,0,0,1,22.333-18.182,139.3,139.3,0,0,1,24.788-12.895l.555,1.394A137.8,137.8,0,0,0,523.316,88.24a139.512,139.512,0,0,0-22.1,17.99Z" transform="translate(-4805.128 -11186.5)" fill="#fff"/><path d="M545.327,82.388l-1.366-.623,3.077-6.725-6.933-2.579.525-1.406,8.443,3.141Z" transform="translate(-4805.128 -11186.5)" fill="#fff"/><rect width="803.308" height="408.33" transform="translate(-4805.128 -11186.5)" fill="none"/></g><path d="M13.66-7.36a8.29,8.29,0,0,0-1.52-4.72A7.011,7.011,0,0,0,6.1-14.8H1.3V0H6.02A7.731,7.731,0,0,0,11.8-2.14,7.95,7.95,0,0,0,13.66-7.36Zm-2.16,0c0,3.42-2.1,5.38-5.46,5.38H3.46V-12.82H6.08a5.047,5.047,0,0,1,4.98,3.2A6.308,6.308,0,0,1,11.5-7.36ZM26.24-5.68a5.672,5.672,0,0,0-5.64-5.7,5.7,5.7,0,0,0-5.68,5.82A5.794,5.794,0,0,0,20.56.28a5.647,5.647,0,0,0,5.32-3.76H23.8a3.562,3.562,0,0,1-3.16,1.86A3.778,3.778,0,0,1,17-4.64h9.18A9.066,9.066,0,0,0,26.24-5.68Zm-2.08-.56H17a3.6,3.6,0,0,1,3.58-3.24A3.6,3.6,0,0,1,24.16-6.24Zm15.28.84a5.687,5.687,0,0,0-5.74-5.98,4.686,4.686,0,0,0-3.94,2h-.04v-1.7h-1.9V3.7H29.9V-1.6h.04A4.488,4.488,0,0,0,33.84.28,5.583,5.583,0,0,0,39.44-5.4Zm-2.08-.12a3.771,3.771,0,0,1-3.74,3.9,3.8,3.8,0,0,1-3.76-3.94,3.805,3.805,0,0,1,3.7-3.92A3.911,3.911,0,0,1,37.36-5.52ZM43.12,0V-14.8H41.04V0ZM56.68-5.58a5.882,5.882,0,0,0-5.98-5.8,5.887,5.887,0,0,0-5.98,5.76A5.954,5.954,0,0,0,50.7.28,5.933,5.933,0,0,0,56.68-5.58Zm-2.08,0a3.931,3.931,0,0,1-3.9,3.96,3.926,3.926,0,0,1-3.9-3.94,3.909,3.909,0,0,1,3.9-3.92A3.892,3.892,0,0,1,54.6-5.58Zm13.24-5.5H65.6l-3.34,8.6L59-11.08H56.76L61.18-.22,59.56,3.7h2.16Z" transform="translate(-4241 -11054.665)" fill="#192442"/><path d="M17.2,0V-14.8H13.8L9.34-3.46,4.9-14.8H1.5V0H3.66V-12.5H3.7L8.7,0H10l4.98-12.5h.06V0ZM30.9-5.58a5.882,5.882,0,0,0-5.98-5.8,5.887,5.887,0,0,0-5.98,5.76A5.954,5.954,0,0,0,24.92.28,5.933,5.933,0,0,0,30.9-5.58Zm-2.08,0a3.931,3.931,0,0,1-3.9,3.96,3.926,3.926,0,0,1-3.9-3.94,3.909,3.909,0,0,1,3.9-3.92A3.892,3.892,0,0,1,28.82-5.58ZM42.34,0V-6.56a5.217,5.217,0,0,0-.7-2.84,4.467,4.467,0,0,0-3.92-1.98A3.853,3.853,0,0,0,34.48-9.9h-.04v-1.18H32.5V0h2.08V-6.04c0-1.86.88-3.44,2.92-3.44,2.2,0,2.76,1.58,2.76,3.46V0Zm4.24-12.36V-14.8H44.5v2.44ZM46.58,0V-11.08H44.5V0ZM53-9.18v-1.9H51.18V-14.8H49.1v3.72H47.6v1.9h1.5V0h2.08V-9.18Zm12.28,3.6a5.882,5.882,0,0,0-5.98-5.8,5.887,5.887,0,0,0-5.98,5.76A5.954,5.954,0,0,0,59.3.28,5.933,5.933,0,0,0,65.28-5.58Zm-2.08,0a3.931,3.931,0,0,1-3.9,3.96,3.926,3.926,0,0,1-3.9-3.94,3.909,3.909,0,0,1,3.9-3.92A3.892,3.892,0,0,1,63.2-5.58Zm8.5-3.66v-2.14a3.343,3.343,0,0,0-2.82,1.3h-.04v-1H66.9V0h2.08V-6.06A3,3,0,0,1,70.2-8.84,3.566,3.566,0,0,1,71.7-9.24Z" transform="translate(-4229 -10789.665)" fill="#192442"/><path d="M7.98-12.82V-14.8H.14v1.98H2.98V0H5.14V-12.82ZM18.76-5.68a5.672,5.672,0,0,0-5.64-5.7A5.7,5.7,0,0,0,7.44-5.56,5.794,5.794,0,0,0,13.08.28,5.647,5.647,0,0,0,18.4-3.48H16.32a3.562,3.562,0,0,1-3.16,1.86A3.778,3.778,0,0,1,9.52-4.64H18.7A9.066,9.066,0,0,0,18.76-5.68Zm-2.08-.56H9.52A3.6,3.6,0,0,1,13.1-9.48,3.6,3.6,0,0,1,16.68-6.24ZM27.04-3.26c0-2.14-1.52-3.04-3.34-3.6-.76-.24-1.72-.46-1.72-1.44a1.2,1.2,0,0,1,1.3-1.18A1.37,1.37,0,0,1,24.7-8.14h2.08a3.252,3.252,0,0,0-3.4-3.24,3.325,3.325,0,0,0-3.48,3.2c0,3.92,5.06,2.72,5.06,5.04a1.47,1.47,0,0,1-1.6,1.52c-1.24,0-1.8-.88-1.88-2.02H19.4A3.637,3.637,0,0,0,21.9.02a4.345,4.345,0,0,0,1.42.26A3.461,3.461,0,0,0,27.04-3.26Zm5.72-5.92v-1.9H30.94V-14.8H28.86v3.72h-1.5v1.9h1.5V0h2.08V-9.18Z" transform="translate(-4613 -10786.665)" fill="#192442"/><path d="M15.18-11.02a7.373,7.373,0,0,0-2.28-2.62,7.933,7.933,0,0,0-4.52-1.44A7.593,7.593,0,0,0,.76-7.46,7.717,7.717,0,0,0,8.36.28a7.631,7.631,0,0,0,6.72-3.94H12.42A5.391,5.391,0,0,1,8.38-1.7,5.672,5.672,0,0,1,2.92-7.44a5.558,5.558,0,0,1,5.5-5.66,5.307,5.307,0,0,1,4.16,2.08ZM27.56-5.58a5.882,5.882,0,0,0-5.98-5.8A5.887,5.887,0,0,0,15.6-5.62,5.954,5.954,0,0,0,21.58.28,5.933,5.933,0,0,0,27.56-5.58Zm-2.08,0a3.931,3.931,0,0,1-3.9,3.96,3.926,3.926,0,0,1-3.9-3.94,3.909,3.909,0,0,1,3.9-3.92A3.892,3.892,0,0,1,25.48-5.58ZM40.24,0V-14.8H38.16v5.08h-.04a4.792,4.792,0,0,0-3.76-1.66A5.667,5.667,0,0,0,28.6-5.5,5.619,5.619,0,0,0,34.36.28a4.679,4.679,0,0,0,3.92-1.86h.04V0ZM38.32-5.52a3.871,3.871,0,0,1-3.86,3.9,3.868,3.868,0,0,1-3.78-3.9,3.835,3.835,0,0,1,3.8-3.96A3.8,3.8,0,0,1,38.32-5.52Zm14.86-.16a5.672,5.672,0,0,0-5.64-5.7,5.7,5.7,0,0,0-5.68,5.82A5.794,5.794,0,0,0,47.5.28a5.647,5.647,0,0,0,5.32-3.76H50.74a3.562,3.562,0,0,1-3.16,1.86,3.778,3.778,0,0,1-3.64-3.02h9.18A9.066,9.066,0,0,0,53.18-5.68ZM51.1-6.24H43.94a3.6,3.6,0,0,1,3.58-3.24A3.6,3.6,0,0,1,51.1-6.24Z" transform="translate(-4636 -11054.665)" fill="#192442"/><path d="M10.8-10.32c0-3.16-2.3-4.48-5.22-4.48H1.3V0H3.46V-5.84H5.58C8.5-5.84,10.8-7.16,10.8-10.32Zm-2.16,0c0,1.82-1.42,2.5-3.06,2.5H3.46v-5H5.58C7.22-12.82,8.64-12.14,8.64-10.32ZM14.1,0V-14.8H12.02V0ZM27.46,0V-11.08H25.38v1.56h-.04a4.391,4.391,0,0,0-3.76-1.86A5.742,5.742,0,0,0,15.7-5.5,5.7,5.7,0,0,0,21.58.28a4.237,4.237,0,0,0,3.76-2h.04V0ZM25.42-5.52a3.871,3.871,0,0,1-3.86,3.9,3.868,3.868,0,0,1-3.78-3.9,3.835,3.835,0,0,1,3.8-3.96A3.8,3.8,0,0,1,25.42-5.52ZM39.46,0V-6.56a5.217,5.217,0,0,0-.7-2.84,4.467,4.467,0,0,0-3.92-1.98A3.853,3.853,0,0,0,31.6-9.9h-.04v-1.18H29.62V0H31.7V-6.04c0-1.86.88-3.44,2.92-3.44,2.2,0,2.76,1.58,2.76,3.46V0Z" transform="translate(-4484.006 -11001.698) rotate(45)" fill="#192442"/><path d="M10.84-4.3a3.919,3.919,0,0,0-2.2-3.6,3.377,3.377,0,0,0,1.32-2.8,4.555,4.555,0,0,0-.3-1.62c-.72-1.84-2.44-2.48-4.32-2.48H1.5V0H5.92c1.92,0,3.74-.64,4.56-2.52A4.5,4.5,0,0,0,10.84-4.3ZM7.8-10.72c0,1.48-.98,2.08-2.38,2.08H3.66v-4.18H5.3C6.68-12.82,7.8-12.3,7.8-10.72ZM8.68-4.3A2.415,2.415,0,0,1,6-1.98H3.66V-6.66H5.74a2.671,2.671,0,0,1,2.42.9A2.407,2.407,0,0,1,8.68-4.3ZM22.24,0V-11.08H20.16v5.94c0,1.92-.78,3.52-2.9,3.52-2.18,0-2.76-1.5-2.76-3.46v-6H12.42v6A5.431,5.431,0,0,0,13.88-.82,4.76,4.76,0,0,0,17.04.28,3.767,3.767,0,0,0,20.3-1.2h.04V0ZM26.5-12.36V-14.8H24.42v2.44ZM26.5,0V-11.08H24.42V0Zm4.36,0V-14.8H28.78V0ZM44.1,0V-14.8H42.02v5.08h-.04a4.792,4.792,0,0,0-3.76-1.66A5.667,5.667,0,0,0,32.46-5.5,5.619,5.619,0,0,0,38.22.28a4.679,4.679,0,0,0,3.92-1.86h.04V0ZM42.18-5.52a3.871,3.871,0,0,1-3.86,3.9,3.868,3.868,0,0,1-3.78-3.9,3.835,3.835,0,0,1,3.8-3.96A3.8,3.8,0,0,1,42.18-5.52Z" transform="translate(-4729.5 -10908.5) rotate(-90)" fill="#192442"/><path d="M16.16,7.64A7.645,7.645,0,0,0,8.46-.08a7.68,7.68,0,1,0,7.7,7.72ZM14,7.66a5.532,5.532,0,0,1-.38,1.98A5.337,5.337,0,0,1,8.46,13.3,5.307,5.307,0,0,1,3.44,10a6.237,6.237,0,0,1-.52-2.4,5.966,5.966,0,0,1,.52-2.36A5.275,5.275,0,0,1,8.46,1.9,5.577,5.577,0,0,1,14,7.66ZM29.38,9.6a5.687,5.687,0,0,0-5.74-5.98,4.686,4.686,0,0,0-3.94,2h-.04V3.92h-1.9V18.7h2.08V13.4h.04a4.488,4.488,0,0,0,3.9,1.88A5.583,5.583,0,0,0,29.38,9.6ZM27.3,9.48a3.754,3.754,0,1,1-7.5-.04,3.805,3.805,0,0,1,3.7-3.92A3.911,3.911,0,0,1,27.3,9.48Zm14.44-.16a5.661,5.661,0,1,0-11.32.12,5.794,5.794,0,0,0,5.64,5.84,5.647,5.647,0,0,0,5.32-3.76H39.3a3.562,3.562,0,0,1-3.16,1.86,3.778,3.778,0,0,1-3.64-3.02h9.18A9.066,9.066,0,0,0,41.74,9.32Zm-2.08-.56H32.5a3.6,3.6,0,0,1,7.16,0Zm8.46-3V3.62a3.343,3.343,0,0,0-2.82,1.3h-.04v-1H43.32V15H45.4V8.94a3,3,0,0,1,1.22-2.78A3.566,3.566,0,0,1,48.12,5.76ZM60.24,15V3.92H58.16V5.48h-.04a4.391,4.391,0,0,0-3.76-1.86A5.742,5.742,0,0,0,48.48,9.5a5.7,5.7,0,0,0,5.88,5.78,4.237,4.237,0,0,0,3.76-2h.04V15ZM58.2,9.48a3.821,3.821,0,1,1-7.64,0,3.835,3.835,0,0,1,3.8-3.96A3.8,3.8,0,0,1,58.2,9.48Zm8.46-3.66V3.92H64.84V.2H62.76V3.92h-1.5v1.9h1.5V15h2.08V5.82Zm2.98-3.18V.2H67.56V2.64Zm0,12.36V3.92H67.56V15ZM83.2,9.42a5.983,5.983,0,0,0-11.96-.04,5.981,5.981,0,0,0,11.96.04Zm-2.08,0a3.9,3.9,0,1,1-3.9-3.9A3.931,3.931,0,0,1,81.12,9.42Z" transform="translate(-4069.5 -10972) rotate(90)" fill="#192442"/><path d="M11.18-10.06a4.826,4.826,0,0,0-1.36-3.5A5.463,5.463,0,0,0,5.88-14.8H1.3V0H3.46V-6.86H3.5L8.38,0h2.7L6.94-5.52A4.386,4.386,0,0,0,8.38-5.8,4.155,4.155,0,0,0,11.18-10.06Zm-2.16,0c0,2.36-2.16,2.9-4.08,2.9H3.46v-5.66H5.74C7.46-12.82,9.02-11.94,9.02-10.06ZM23.48-5.68a5.672,5.672,0,0,0-5.64-5.7,5.7,5.7,0,0,0-5.68,5.82A5.794,5.794,0,0,0,17.8.28a5.647,5.647,0,0,0,5.32-3.76H21.04a3.562,3.562,0,0,1-3.16,1.86,3.778,3.778,0,0,1-3.64-3.02h9.18A9.066,9.066,0,0,0,23.48-5.68ZM21.4-6.24H14.24a3.6,3.6,0,0,1,3.58-3.24A3.6,3.6,0,0,1,21.4-6.24ZM27.14,0V-14.8H25.06V0ZM40.08-5.68a5.672,5.672,0,0,0-5.64-5.7,5.7,5.7,0,0,0-5.68,5.82A5.794,5.794,0,0,0,34.4.28a5.647,5.647,0,0,0,5.32-3.76H37.64a3.562,3.562,0,0,1-3.16,1.86,3.778,3.778,0,0,1-3.64-3.02h9.18A9.066,9.066,0,0,0,40.08-5.68ZM38-6.24H30.84a3.6,3.6,0,0,1,3.58-3.24A3.6,3.6,0,0,1,38-6.24ZM52.84,0V-11.08H50.76v1.56h-.04a4.391,4.391,0,0,0-3.76-1.86A5.742,5.742,0,0,0,41.08-5.5,5.7,5.7,0,0,0,46.96.28a4.237,4.237,0,0,0,3.76-2h.04V0ZM50.8-5.52a3.871,3.871,0,0,1-3.86,3.9,3.868,3.868,0,0,1-3.78-3.9,3.835,3.835,0,0,1,3.8-3.96A3.8,3.8,0,0,1,50.8-5.52ZM61.72-3.26c0-2.14-1.52-3.04-3.34-3.6-.76-.24-1.72-.46-1.72-1.44a1.2,1.2,0,0,1,1.3-1.18,1.37,1.37,0,0,1,1.42,1.34h2.08a3.252,3.252,0,0,0-3.4-3.24,3.325,3.325,0,0,0-3.48,3.2c0,3.92,5.06,2.72,5.06,5.04a1.47,1.47,0,0,1-1.6,1.52c-1.24,0-1.8-.88-1.88-2.02H54.08A3.637,3.637,0,0,0,56.58.02,4.345,4.345,0,0,0,58,.28,3.461,3.461,0,0,0,61.72-3.26ZM73.76-5.68a5.672,5.672,0,0,0-5.64-5.7,5.7,5.7,0,0,0-5.68,5.82A5.794,5.794,0,0,0,68.08.28,5.647,5.647,0,0,0,73.4-3.48H71.32a3.562,3.562,0,0,1-3.16,1.86,3.778,3.778,0,0,1-3.64-3.02H73.7A9.066,9.066,0,0,0,73.76-5.68Zm-2.08-.56H64.52A3.6,3.6,0,0,1,68.1-9.48,3.6,3.6,0,0,1,71.68-6.24Z" transform="translate(-4430.772 -10893.923) rotate(-45)" fill="#192442"/><path d="M195,.75H0V-.75H195Z" transform="translate(-4846.5 -10767.5)" fill="#8353f2"/><path d="M195,.75H0V-.75H195Z" transform="translate(-4846.5 -10802.5)" fill="#8353f2"/><path d="M73,.75H0V-.75H73Z" transform="translate(-4846.5 -10929)" fill="#a27df7"/><path d="M73,.75H0V-.75H73Z" transform="translate(-4038.32 -10929)" fill="#98e2c5"/><path d="M176.18.75H0V-.75H176.18Z" transform="translate(-4141.5 -10775.5)" fill="#c8e5da"/><path d="M176.18.75H0V-.75H176.18Z" transform="translate(-4141.5 -11061.5)" fill="#50e2aa"/><path d="M219.18.75H0V-.75H219.18Z" transform="translate(-4184.5 -11102)" fill="#50e2aa"/><path d="M123,.75H0V-.75H123Z" transform="translate(-4846.5 -11008)" fill="#a27df7"/><path d="M195,.75H0V-.75H195Z" transform="translate(-4846.5 -11094)" fill="#b99ef7"/><path d="M.75,136H-.75V0H.75Z" transform="translate(-4358.5 -10848.5)" fill="#c1cdef"/><path d="M.75,135.5H-.75V0H.75Z" transform="translate(-4403.474 -11101.5)" fill="#48d19d"/></g></g></svg>