<svg xmlns="http://www.w3.org/2000/svg" width="584.698" height="483.421" viewBox="0 0 584.698 483.421"><g transform="translate(-689.2 -1787)"><g transform="translate(689.2 1787)"><g transform="translate(31.146 443.354)"><g transform="translate(428.97 14.013)"><ellipse cx="62.291" cy="11.838" rx="62.291" ry="11.838" fill="#8353f2"/></g><ellipse cx="211.376" cy="19.578" rx="211.376" ry="19.578" fill="#8353f2"/></g><g transform="translate(90.207 159.252)"><g transform="translate(419.035 24.434)"><path d="M1547.983,2159.358l-8.716-1.568-1.95-7.234a.721.721,0,0,0-1.341,0l-2.011,7.234-8.716,1.72a.556.556,0,0,0,0,1.113l8.716,1.569,1.95,7.234a.721.721,0,0,0,1.341,0l2.011-7.234,8.716-1.72a.633.633,0,0,0,.548-.557A.776.776,0,0,0,1547.983,2159.358Z" transform="translate(-1524.7 -2150.1)" fill="#8353f2"/></g><g transform="translate(0 8.802)"><path d="M860.483,2128.458l-8.716-1.568-1.95-7.234a.721.721,0,0,0-1.341,0l-2.011,7.234-8.716,1.72a.557.557,0,0,0,0,1.113l8.716,1.568,1.95,7.234a.721.721,0,0,0,1.341,0l2.011-7.234,8.716-1.72a.557.557,0,0,0,0-1.113Z" transform="translate(-837.2 -2119.2)" fill="#8353f2"/></g><g transform="translate(386.183)"><path d="M1482.868,2106.555l-4.51-.809-1.036-3.744a.339.339,0,0,0-.366-.2.419.419,0,0,0-.366.2l-1.036,3.744-4.51.911a.283.283,0,0,0-.244.3c0,.152.122.253.3.3l4.51.809,1.036,3.743a.339.339,0,0,0,.366.2.419.419,0,0,0,.366-.2l1.036-3.743,4.51-.91a.283.283,0,0,0,.244-.3C1483.173,2106.707,1483.051,2106.606,1482.868,2106.555Z" transform="translate(-1470.8 -2101.8)" fill="#8353f2"/></g></g><g transform="translate(167.98 292.754)"><g transform="translate(32.669 0.253)"><path d="M1018.4,2388.358l7.131-22.158,83.685,19.223,23.1,37.688,89.9,11.787,12.434,64.3Z" transform="translate(-1018.4 -2366.2)" fill="#8353f2"/></g><g transform="translate(2.377 3.035)"><path d="M1215.245,2501.914c-31.146,35.462-59.61,55.394-114.831,55.394-72.775,0-131.714-48.919-131.714-109.321,0-29.7,14.262-56.557,37.363-76.287l32.06,31.972,76.554,11.837,23.161,38.4,40.959-5.919Z" transform="translate(-968.7 -2371.7)" fill="#50e2aa"/></g><path d="M1098.952,2556.367c-73.994,0-134.152-49.981-134.152-111.345,0-29.189,13.531-56.811,38.094-77.7l1.89-1.619L1038,2398.835l76.859,11.888,22.856,37.941,40.837-5.919,38.094,56.305-.914,1.062C1184.466,2535.777,1155.332,2556.367,1098.952,2556.367Zm-94.473-184.546c-22.43,19.932-34.8,45.833-34.8,73.2,0,59.138,57.964,107.3,129.276,107.3,53.7,0,81.857-19.577,111.905-53.522l-34.864-51.5-41.02,5.919-23.405-38.852-76.188-11.787Z" transform="translate(-964.8 -2365.7)" fill="#8353f2"/></g><g transform="translate(173.1)"><g transform="translate(0 186.67)"><path d="M1024.825,2157.467,973.2,2221.714l49.8,5.211,59.671-31.061,14.2,11.838,44.494-9.612,59.671,25.85,34.681-2.226L1176.1,2156Z" transform="translate(-973.2 -2156)" fill="#8353f2"/></g><g transform="translate(0.244 70.469)"><g transform="translate(3.23 2.074)"><path d="M1179.183,2000.566c-14.262-22.056-19.138-46.642-21.576-59.947-1.1-5.868-7.192-10.219-14.385-10.219h-72.714c-7.192,0-13.287,4.351-14.384,10.219-2.438,13.3-7.314,37.89-21.577,59.947-16.213,24.991-51.2,72.038-55.648,103.757l56.928-48.008,49.858,32.477,11.581-5.919,42.726,21.4,38.277-46.541,56.5,46.541C1230.382,2072.6,1195.4,2025.557,1179.183,2000.566Z" transform="translate(-978.9 -1930.4)" fill="#50e2aa"/></g><path d="M973.6,2108.013l.853-5.919c3.779-27.014,28.647-63.893,46.749-90.806,3.352-4.958,6.522-9.662,9.143-13.709,14.567-22.461,19.321-48.261,21.333-59.289,1.28-6.93,8.35-11.99,16.822-11.99h72.653c8.472,0,15.542,5.008,16.822,11.99,2.011,11.028,6.766,36.828,21.333,59.289h0c2.621,4.047,5.79,8.752,9.142,13.709,18.163,26.913,42.97,63.792,46.749,90.806l.792,5.767-59.427-48.919-37.911,46.085-43.4-21.752-11.764,6.02-49.431-32.275Zm121.657-29.493,41.995,21.045,38.643-46.946,53.271,43.86c-6.156-25.547-28.4-58.581-44.981-83.217-3.352-5.008-6.522-9.713-9.143-13.76h0c-14.994-23.068-19.809-49.374-21.881-60.6-.914-4.907-5.912-8.5-11.946-8.5h-72.653c-6.034,0-11.032,3.592-11.946,8.5-2.072,11.231-6.888,37.537-21.881,60.6-2.621,4.047-5.79,8.752-9.143,13.76-16.578,24.586-38.765,57.519-44.981,83.066l53.088-44.771,50.223,32.731Z" transform="translate(-973.6 -1926.3)" fill="#8353f2"/></g><g transform="translate(127.813 63.134)"><path d="M1183.57,2143.7l-.67-4.047c12.739-1.416,20.357-7.082,22.613-9-1.219-.354-2.438-.708-3.657-1.163-4.51-1.568-13.348-6.122-14.08-12.344-.488-4.047,2.316-7.791,8.35-11.18,4.328-2.428,12.434-2.529,17.249,1.214,3.9,3.035,6.7,9.055-.3,20.943,9.264,1.568,15.847-.05,19.992-1.973,6.888-3.187,10.179-8.347,10.971-12.141.122-.557.183-1.063.3-1.569a3.95,3.95,0,0,0-.731.2c-4.693,1.163-18.041.91-22.552-4.7-2.926-3.693-1.646-8.4,3.9-14.064,3.108-3.136,9.874-5.059,15.786-2.782,3.6,1.366,8.777,5.008,9.021,14.823a17.84,17.84,0,0,0,7.741-7.538c6.461-12.546-4.693-30.96-5.242-31.82-1.524-2.226-29.378-43.051-37.424-57.721-11.52-20.944-16.883-93.689-17.127-96.775l4.937-.253c.061.759,5.547,75.022,16.7,95.308,8.045,14.62,37,57.013,37.3,57.468l.061.051c.549.86,12.861,20.792,5.425,35.31-2.438,4.705-6.644,8.3-12.495,10.725a35.254,35.254,0,0,1-.671,4c-.975,4.755-5,11.18-13.409,15.025-5.181,2.378-13.348,4.35-24.807,2.125a4.4,4.4,0,0,0-.366.506l-.244.253C1209.657,2133.022,1200.759,2141.774,1183.57,2143.7Zm20.114-35.31a10.8,10.8,0,0,0-4.876,1.011c-4.388,2.479-6.461,4.958-6.156,7.386.488,3.744,6.766,7.538,11.093,9,1.524.506,2.987.961,4.388,1.315,4.815-7.942,5.546-14.013,1.828-16.9A10.438,10.438,0,0,0,1203.684,2108.386Zm31.511-14.215a9.52,9.52,0,0,0-6.461,2.276c-2.743,2.833-5.669,6.677-3.6,9.207,2.743,3.44,12.983,4.047,17.066,3.035.914-.2,1.768-.455,2.621-.708.3-6.88-1.768-11.585-6.1-13.2A10.555,10.555,0,0,0,1235.2,2094.171Z" transform="translate(-1182.9 -1911.8)" fill="#192442"/></g><g transform="translate(50.211 63.134)"><path d="M1073.512,2139.345c-7.984,0-13.409-2.074-16.152-6.121-4.266-6.374.122-15.278,2.926-18.566a34.549,34.549,0,0,1,8.533-7.386c-.427-.4-.792-.759-1.219-1.164l-.061-.1c-.671-.708-16.03-17.1-6.522-33.186,4.754-8.094,13.348-19.274,21.576-30.1,10.91-14.266,22.186-29.038,23.588-35.108,5.364-23.372,13.226-95.106,13.287-95.814l4.876.354c-.061.708-7.985,72.645-13.409,96.219-1.585,6.88-12.617,21.3-24.258,36.575-8.167,10.725-16.7,21.8-21.333,29.7-7.984,13.456,5.12,27.975,5.912,28.835.609.607,1.219,1.164,1.828,1.771a26.906,26.906,0,0,1,8.289-1.669c15.481-.607,28.464,11.888,29.012,12.445l-3.718,2.631c-.122-.1-11.946-11.483-25.051-10.977a19.684,19.684,0,0,0-5.181.86c10.727,11.079,14.567,19.224,11.764,24.839-1.768,3.592-6.217,5.717-12.495,5.969Zm-1.463-28.886a28.621,28.621,0,0,0-7.68,6.576c-2.316,2.732-5.547,9.916-2.682,14.216,1.95,2.934,6.644,4.3,13.9,3.946,2.438-.1,6.826-.708,8.167-3.49C1084.91,2129.329,1084.788,2123.461,1072.049,2110.459Z" transform="translate(-1055.58 -1911.8)" fill="#192442"/></g><g transform="translate(104.286)"><path d="M1196.6,1809.461v-.759c0-11.99-11.7-21.7-26.148-21.7h0c-14.445,0-26.148,9.713-26.148,21.7v.759Z" transform="translate(-1144.3 -1787)" fill="#8353f2"/></g><g transform="translate(78.443 16.745)"><rect width="103.921" height="52.915" fill="#4f3cc9"/></g><g transform="translate(69.179 55.647)"><g transform="translate(2.377 2.024)"><path d="M1209.027,1909.55h0c0,4.7-4.571,8.549-10.3,8.549H1100.9c-5.668,0-10.3-3.794-10.3-8.549h0c0-4.7,4.571-8.549,10.3-8.549h97.826C1204.456,1901.051,1209.027,1904.845,1209.027,1909.55Z" transform="translate(-1090.6 -1901)" fill="#fff"/></g><path d="M1197.264,1918.146h-97.826c-7.009,0-12.739-4.755-12.739-10.573s5.729-10.573,12.739-10.573h97.826c7.009,0,12.739,4.755,12.739,10.573C1209.942,1913.391,1204.274,1918.146,1197.264,1918.146Zm-97.826-17.048c-4.328,0-7.8,2.934-7.8,6.475,0,3.592,3.535,6.475,7.8,6.475h97.826c4.328,0,7.8-2.934,7.8-6.475h0c0-3.592-3.535-6.475-7.8-6.475Z" transform="translate(-1086.7 -1897)" fill="#8353f2"/></g><g transform="translate(69.179 33.59)"><g transform="translate(2.377 2.074)"><path d="M1209.027,1866.05h0c0,4.7-4.571,8.549-10.3,8.549H1100.9c-5.668,0-10.3-3.794-10.3-8.549h0c0-4.7,4.571-8.549,10.3-8.549h97.826C1204.456,1857.5,1209.027,1861.294,1209.027,1866.05Z" transform="translate(-1090.6 -1857.5)" fill="#fff"/></g><path d="M1197.264,1874.546h-97.826c-7.009,0-12.739-4.755-12.739-10.573s5.729-10.573,12.739-10.573h97.826c7.009,0,12.739,4.755,12.739,10.573C1209.942,1869.841,1204.274,1874.546,1197.264,1874.546Zm-97.826-17.048c-4.328,0-7.8,2.934-7.8,6.475,0,3.592,3.535,6.475,7.8,6.475h97.826c4.328,0,7.8-2.934,7.8-6.475,0-3.592-3.535-6.475-7.8-6.475Z" transform="translate(-1086.7 -1853.4)" fill="#8353f2"/></g><g transform="translate(69.179 11.585)"><g transform="translate(2.377 2.024)"><path d="M1209.027,1822.45h0c0,4.7-4.571,8.55-10.3,8.55H1100.9c-5.668,0-10.3-3.794-10.3-8.55h0c0-4.7,4.571-8.55,10.3-8.55h97.826C1204.456,1813.9,1209.027,1817.745,1209.027,1822.45Z" transform="translate(-1090.6 -1813.9)" fill="#fff"/></g><path d="M1197.264,1831.046h-97.826c-7.009,0-12.739-4.755-12.739-10.573s5.729-10.573,12.739-10.573h97.826c7.009,0,12.739,4.755,12.739,10.573S1204.274,1831.046,1197.264,1831.046ZM1099.439,1814c-4.328,0-7.8,2.934-7.8,6.475,0,3.592,3.535,6.475,7.8,6.475h97.826c4.328,0,7.8-2.934,7.8-6.475,0-3.592-3.535-6.475-7.8-6.475Z" transform="translate(-1086.7 -1809.9)" fill="#8353f2"/></g></g><g transform="translate(0 262.715)"><g transform="translate(2.499 2.036)"><path d="M834.949,2334.454a14.229,14.229,0,0,1,9.264-2.277,64.566,64.566,0,0,1,14.384,2.681c5.729,1.619,10.057,3.389,13.1,5.362s4.815,4.2,5.364,6.83a14.85,14.85,0,0,1,.122,6.728,67.941,67.941,0,0,1-2.8,7.993l-51.442,125.357c-2.377,5.868-5.059,9.966-7.924,12.242a15.093,15.093,0,0,1-10.118,3.289,57.666,57.666,0,0,1-13.714-2.378,52.188,52.188,0,0,1-12.007-4.654,21.214,21.214,0,0,1-5.973-4.7,8.1,8.1,0,0,1-1.707-5.515c-.061-2.883,1.036-6.931,3.169-12.192l11.276-27.52-73.628-20.842q-19.017-5.388-19.017-14.924c.061-2.681.975-6.02,2.621-10.067a42.856,42.856,0,0,1,4.51-8.8l53.576-69.154a86.53,86.53,0,0,1,6.1-7.083,16.888,16.888,0,0,1,7.009-3.794,18.112,18.112,0,0,1,10.362.152,53.266,53.266,0,0,1,11.824,5.109c11.52,6.424,15.847,13.051,13.1,19.831a39.092,39.092,0,0,1-5.79,8.954,1.9,1.9,0,0,0-.549.607l-39.13,50.335,44.311,12.545L826.538,2347a63.52,63.52,0,0,1,3.535-7.538A17.58,17.58,0,0,1,834.949,2334.454Z" transform="translate(-693.3 -2310.347)" fill="#fff"/></g><path d="M803.787,2502.695h-.549a61.066,61.066,0,0,1-14.445-2.479,57.054,57.054,0,0,1-12.678-4.907,22.931,22.931,0,0,1-6.583-5.261,9.722,9.722,0,0,1-2.072-6.627c-.061-3.136,1.036-7.335,3.291-12.8l10.484-25.6-71.312-20.185c-13.714-3.9-20.662-9.561-20.723-16.9.061-2.934.975-6.425,2.743-10.725a45.275,45.275,0,0,1,4.754-9.207l53.576-69.2a94.943,94.943,0,0,1,6.278-7.284,19,19,0,0,1,8.046-4.4,21.343,21.343,0,0,1,12.068.152,56.312,56.312,0,0,1,12.434,5.363c12.495,6.981,17.188,14.417,14.019,22.157a39.13,39.13,0,0,1-6.1,9.41l-.122.152-.183.152-.061.05h0l-37.606,48.362L798,2403.947l24.5-59.643a63.872,63.872,0,0,1,3.657-7.79,19.277,19.277,0,0,1,5.486-5.515c2.8-2.074,6.522-2.984,11.032-2.782A69.838,69.838,0,0,1,857.728,2331a53.123,53.123,0,0,1,13.836,5.666c3.535,2.276,5.668,4.958,6.339,8.043a16.433,16.433,0,0,1,.122,7.487,63.2,63.2,0,0,1-2.926,8.246L823.657,2485.8c-2.56,6.222-5.364,10.522-8.533,13.052A17.78,17.78,0,0,1,803.787,2502.695ZM770.2,2310.358a12.942,12.942,0,0,0-3.779.557,14.408,14.408,0,0,0-5.973,3.187c-1.463,1.518-3.474,3.845-5.912,6.931l-53.515,69.154a40.1,40.1,0,0,0-4.267,8.347,28.407,28.407,0,0,0-2.5,9.46c0,5.312,5.851,9.713,17.371,12.951l75.944,21.5-12.068,29.442c-2.072,5.009-3.108,8.9-3.048,11.484v.1a6.329,6.329,0,0,0,1.28,4.3,19.1,19.1,0,0,0,5.3,4.148,50.378,50.378,0,0,0,11.4,4.4,54.682,54.682,0,0,0,12.982,2.276,12.419,12.419,0,0,0,8.35-2.731c2.56-2.074,5-5.919,7.253-11.433l51.442-125.358a55.374,55.374,0,0,0,2.743-7.739,13.051,13.051,0,0,0-.122-5.919c-.427-2.074-1.89-3.9-4.449-5.565-2.8-1.821-7.009-3.49-12.434-5.008a63.364,63.364,0,0,0-13.714-2.58c-3.23-.152-5.668.455-7.5,1.771h0a15.523,15.523,0,0,0-4.328,4.3,51.35,51.35,0,0,0-3.413,7.284l-26.087,63.489-49.614-14.013,40.776-52.409a3.533,3.533,0,0,1,.792-.911,35.37,35.37,0,0,0,5.364-8.3c2.377-5.818-1.585-11.535-12.129-17.453a50.6,50.6,0,0,0-11.276-4.856A15.756,15.756,0,0,0,770.2,2310.358Z" transform="translate(-689.2 -2306.323)" fill="#192442"/><g transform="translate(404.203 29.17)"><g transform="translate(2.537 1.936)"><path d="M1448,2376.457c1.219-2.378,3.6-4.148,7.131-5.413a63.969,63.969,0,0,1,14.323-2.782,55.615,55.615,0,0,1,14.628.051c3.779.658,6.583,2.074,8.411,4.2a18.545,18.545,0,0,1,3.657,5.969,66.455,66.455,0,0,1,1.646,8.246l19.443,131.479c.914,6.172.67,10.775-.67,13.861a12.451,12.451,0,0,1-7.375,6.627,56.026,56.026,0,0,1-13.592,2.833,58.92,58.92,0,0,1-13.287.152,25.865,25.865,0,0,1-7.8-2.074,9.647,9.647,0,0,1-4.388-4.351c-1.524-2.58-2.682-6.576-3.535-12.141l-4.267-28.835-77.224,7.841c-13.287,1.366-21.637-.809-24.99-6.576a29.792,29.792,0,0,1-2.926-10.016,40.8,40.8,0,0,1-.549-9.561l11.946-81.6a87.791,87.791,0,0,1,1.768-8.6c.549-1.973,2.011-3.946,4.327-5.969a16.906,16.906,0,0,1,9.447-3.592,60.049,60.049,0,0,1,13.348.3c13.714,1.619,21.15,6.02,22.186,13.1a33.687,33.687,0,0,1-.549,10.117,2.743,2.743,0,0,0-.183.759l-8.838,59.441,46.444-4.755-9.569-64.551a48.7,48.7,0,0,1-.731-8.094A13.09,13.09,0,0,1,1448,2376.457Z" transform="translate(-1356.528 -2367.813)" fill="#fff"/></g><path d="M1485.807,2542.164a36.764,36.764,0,0,1-5.547-.354,29.5,29.5,0,0,1-8.716-2.327,12,12,0,0,1-5.364-5.21c-1.646-2.783-2.865-6.981-3.718-12.749l-3.962-26.812-74.786,7.639c-14.384,1.467-23.649-1.113-27.489-7.689a32.241,32.241,0,0,1-3.169-10.674,38.321,38.321,0,0,1-.549-10.016l11.946-81.649a71.177,71.177,0,0,1,1.828-8.8,14.728,14.728,0,0,1,4.937-6.88c2.682-2.327,6.4-3.743,10.91-4.2a66.109,66.109,0,0,1,14.019.3c14.872,1.771,23.039,6.779,24.258,14.873a33.415,33.415,0,0,1-.549,10.674l-.061.2-.061.2v.05h0l-8.472,57.114,40.837-4.148-9.265-62.527a61.677,61.677,0,0,1-.792-8.347,16.227,16.227,0,0,1,2.011-6.931h0c1.463-2.884,4.266-5.059,8.472-6.526a70.007,70.007,0,0,1,14.994-2.934,57.054,57.054,0,0,1,15.421.1c4.388.759,7.68,2.428,9.935,4.958a18.979,18.979,0,0,1,4.023,6.678,60.039,60.039,0,0,1,1.707,8.5l19.443,131.479c.975,6.526.671,11.383-.853,14.823a14.434,14.434,0,0,1-8.716,7.791,57.331,57.331,0,0,1-14.323,2.985C1491.049,2542.012,1488.245,2542.164,1485.807,2542.164Zm-23.1-52,4.571,30.859c.792,5.261,1.89,9.106,3.291,11.484l.061.1a7.483,7.483,0,0,0,3.413,3.44,22.782,22.782,0,0,0,6.948,1.821,58.594,58.594,0,0,0,12.556-.152,53.6,53.6,0,0,0,12.922-2.681,10.078,10.078,0,0,0,6.1-5.464c1.219-2.783,1.4-7.133.549-12.9l-19.443-131.479a62.7,62.7,0,0,0-1.585-7.993,15.484,15.484,0,0,0-3.23-5.312c-1.524-1.72-3.779-2.833-6.948-3.389a53.453,53.453,0,0,0-13.775-.051,65.411,65.411,0,0,0-13.714,2.631c-2.987,1.062-4.876,2.428-5.851,4.3h0a13.29,13.29,0,0,0-1.646,5.413,62.744,62.744,0,0,0,.731,7.791l9.874,66.574-51.991,5.312,9.2-61.92a2.6,2.6,0,0,1,.244-1.113,30.8,30.8,0,0,0,.488-9.409c-.914-6.121-7.5-9.814-20.114-11.332a54.249,54.249,0,0,0-12.678-.3,14.127,14.127,0,0,0-7.984,2.985,11.486,11.486,0,0,0-3.718,5.008,65.908,65.908,0,0,0-1.707,8.4l-11.946,81.6a36.952,36.952,0,0,0,.549,9.055,28.645,28.645,0,0,0,2.743,9.409c2.8,4.806,10.362,6.627,22.43,5.413Zm-43.031-91.413Z" transform="translate(-1352.366 -2363.985)" fill="#192442"/></g></g></g></g></svg>