<svg xmlns="http://www.w3.org/2000/svg" width="40" height="40" viewBox="0 0 40 40"><g transform="translate(19597 4528)"><rect width="40" height="40" transform="translate(-19597 -4528)" fill="none"/><path d="M33.45,8.1V24.9a3.6,3.6,0,0,1-3.6,3.6h-24a3.6,3.6,0,0,1-3.6-3.6V8.1m31.2,0a3.6,3.6,0,0,0-3.6-3.6h-24a3.6,3.6,0,0,0-3.6,3.6m31.2,0v.389a3.6,3.6,0,0,1-1.712,3.066l-12,7.384a3.6,3.6,0,0,1-3.776,0l-12-7.382A3.6,3.6,0,0,1,2.25,8.49V8.1" transform="translate(-19594.75 -4524)" fill="none" stroke="#8353f2" stroke-linecap="round" stroke-linejoin="round" stroke-width="3"/></g></svg>