<svg xmlns="http://www.w3.org/2000/svg" width="129.011" height="23.742" viewBox="0 0 129.011 23.742"><g transform="translate(-115.611 -7681.129)"><g transform="translate(-415.793 3763.365)"><path d="M565.41,3926.293l-7.144-7.144a4.726,4.726,0,0,0-6.685,0l-2.482,2.481-2.482-2.481a4.725,4.725,0,0,0-6.684,0l-7.145,7.144a4.728,4.728,0,0,0,0,6.685l7.145,7.144a4.727,4.727,0,0,0,6.684,0l2.482-2.482,2.482,2.482a4.728,4.728,0,0,0,6.685,0l7.144-7.144a4.728,4.728,0,0,0,0-6.685Zm-21.21,11.412a1.31,1.31,0,0,1-1.851,0l-7.144-7.144a1.31,1.31,0,0,1,0-1.851l7.144-7.144a1.307,1.307,0,0,1,1.851,0l2.482,2.481-2.245,2.246a4.733,4.733,0,0,0,0,6.685l2.245,2.245Zm7.145-9a1.31,1.31,0,0,1,0,1.851l-2.246,2.245-2.245-2.245a1.31,1.31,0,0,1,0-1.851l2.246-2.246Zm2.4-2.436-2.226-2.227,2.482-2.481a1.307,1.307,0,0,1,1.851,0l7.144,7.144a1.31,1.31,0,0,1,0,1.851l-7.144,7.144a1.31,1.31,0,0,1-1.851,0l-2.482-2.482,2.245-2.245a4.726,4.726,0,0,0,.041-6.644" fill="#fff"/><path d="M551.512,3924.046l-2.414,2.414h4.818Z" fill="#ad9cdf"/><path d="M549.1,3937.635h4.818l-2.4-2.414Z" fill="#ad9cdf"/></g><g transform="translate(-373 3514.516)"><rect width="3.001" height="2.753" transform="translate(577.443 4167.614)" fill="#fff"/><g transform="translate(528.28 4167.613)"><path d="M542,4170.894a4.567,4.567,0,0,0-4.039,1.963c-.072-.112-.148-.218-.228-.321a5.382,5.382,0,0,0-3.957-1.642c-.049,0-.1,0-.15.006-.084,0-.169-.006-.255-.006a4.985,4.985,0,0,0-4.129,1.94,6.448,6.448,0,0,0-.947,3.7v.177l-.015.016v7.117H531.3v-7c.063-1.421.386-2.945,1.955-3.173l.031,0a2.947,2.947,0,0,1,.387-.025,2.439,2.439,0,0,1,2.018,1.095,4.3,4.3,0,0,1,.491,2.153v6.949h3v-6.476a5.179,5.179,0,0,1,.452-2.549,2.442,2.442,0,0,1,2.075-1.172c1.941,0,2.369,1.646,2.369,3.248v6.949h3v-7.31a6.44,6.44,0,0,0-.948-3.7A4.982,4.982,0,0,0,542,4170.894Z" transform="translate(-528.28 -4167.148)" fill="#fff"/><path d="M552.566,4170.894a6.679,6.679,0,0,0,0,13.357,6.534,6.534,0,0,0,6.633-6.7A6.62,6.62,0,0,0,552.566,4170.894Zm0,10.6a3.745,3.745,0,0,1-3.678-3.9,3.667,3.667,0,1,1,7.31.021A3.745,3.745,0,0,1,552.566,4181.5Z" transform="translate(-525.783 -4167.148)" fill="#fff"/><path d="M565.233,4171.314a6.619,6.619,0,0,0-3.662,1.1v-4.8h-2.995v9.968c-.009.144-.022.288-.022.434a6.7,6.7,0,0,0,6.679,6.656,6.534,6.534,0,0,0,6.633-6.7A6.62,6.62,0,0,0,565.233,4171.314Zm0,10.6a3.744,3.744,0,0,1-3.678-3.9,3.667,3.667,0,1,1,7.31.023A3.744,3.744,0,0,1,565.233,4181.919Z" transform="translate(-523.986 -4167.614)" fill="#fff"/><path d="M608.178,4177.549a6.62,6.62,0,0,0-6.634-6.656,6.679,6.679,0,0,0,0,13.357,6.606,6.606,0,0,0,3.894-1.506v1.136h2.735v-6.237C608.172,4177.612,608.178,4177.582,608.178,4177.549Zm-10.311.046a3.667,3.667,0,1,1,7.31.021,3.662,3.662,0,1,1-7.31-.021Z" transform="translate(-518.835 -4167.148)" fill="#fff"/><rect width="3.001" height="12.522" transform="translate(49.165 4.174)" fill="#fff"/><path d="M581.838,4170.894a6.542,6.542,0,0,0-6.588,6.723c0,3.714,2.851,6.264,6.582,6.279v-.006h3.823v-2.747h-3.833a3.33,3.33,0,0,1-3.006-1.312,2.557,2.557,0,0,1-.406-.9h9.725a6.919,6.919,0,0,0,.18-1.512A6.429,6.429,0,0,0,581.838,4170.894Zm-3.52,5.618a3.479,3.479,0,0,1,3.543-2.865,3.211,3.211,0,0,1,3.384,2.865Z" transform="translate(-521.618 -4167.148)" fill="#fff"/><path d="M587.635,4175.643v8.162h3.089v-8.162a1.308,1.308,0,0,1,1.306-1.308h3.534v-3.087H592.03A4.4,4.4,0,0,0,587.635,4175.643Z" transform="translate(-519.861 -4167.099)" fill="#fff"/></g></g></g></svg>