<svg xmlns="http://www.w3.org/2000/svg" width="251.713" height="51.692" viewBox="0 0 251.713 51.692"><g transform="translate(-288.851 -4163.655)"><g transform="translate(373.089 4172.129)"><rect width="5.625" height="5.16" transform="translate(92.161)" fill="#8353f2"/><path d="M353.922,4170.894a8.558,8.558,0,0,0-7.571,3.679c-.135-.209-.28-.409-.428-.6-1.535-1.986-4.872-3.078-7.417-3.078-.092,0-.188.006-.283.01-.156-.005-.315-.01-.475-.01a9.342,9.342,0,0,0-7.74,3.636,12.094,12.094,0,0,0-1.777,6.938v.331l-.026.03v13.342h5.651v-13.027l0-.086c.116-2.664.721-5.521,3.664-5.948l.058-.008a5.569,5.569,0,0,1,.726-.047,4.577,4.577,0,0,1,3.782,2.053,8.081,8.081,0,0,1,.92,4.036v13.027h5.625v-12.138c0-1.481.043-3.468.845-4.779a4.583,4.583,0,0,1,3.891-2.2c3.637,0,4.441,3.086,4.441,6.089v13.027h5.625v-13.7a12.094,12.094,0,0,0-1.777-6.938A9.343,9.343,0,0,0,353.922,4170.894Z" transform="translate(-328.207 -4163.873)" fill="#192442"/><path d="M358.332,4170.894a12.519,12.519,0,1,0,0,25.039,12.248,12.248,0,0,0,12.436-12.562A12.41,12.41,0,0,0,358.332,4170.894Zm0,19.879a7.02,7.02,0,0,1-6.894-7.315c0-3.809,2.92-7.4,6.894-7.4s6.811,3.679,6.811,7.442A7.021,7.021,0,0,1,358.332,4190.773Z" transform="translate(-308.129 -4163.873)" fill="#192442"/><path d="M371,4174.552a12.417,12.417,0,0,0-6.864,2.066v-9h-5.614V4186.3c-.017.27-.041.54-.041.813A12.564,12.564,0,0,0,371,4199.59a12.248,12.248,0,0,0,12.436-12.562A12.409,12.409,0,0,0,371,4174.552Zm0,19.877a7.018,7.018,0,0,1-6.894-7.315c0-3.807,2.919-7.4,6.894-7.4s6.811,3.679,6.811,7.445A7.018,7.018,0,0,1,371,4194.429Z" transform="translate(-293.683 -4167.614)" fill="#192442"/><path d="M419.747,4183.371a12.41,12.41,0,0,0-12.436-12.477,12.519,12.519,0,1,0,0,25.039,12.4,12.4,0,0,0,7.3-2.822v2.129h5.124v-11.691C419.736,4183.488,419.747,4183.431,419.747,4183.371Zm-19.33.086c0-3.809,2.919-7.4,6.894-7.4s6.809,3.679,6.809,7.442a6.865,6.865,0,1,1-13.7-.04Z" transform="translate(-252.272 -4163.873)" fill="#192442"/><rect width="5.625" height="23.474" transform="translate(92.161 7.825)" fill="#192442"/><path d="M387.527,4170.894a12.263,12.263,0,0,0-12.35,12.6c0,6.96,5.343,11.74,12.337,11.77v-.013h7.166V4190.1h-7.188c-2.3-.022-4.379-.538-5.634-2.461a4.737,4.737,0,0,1-.762-1.69h18.23a12.974,12.974,0,0,0,.338-2.835A12.05,12.05,0,0,0,387.527,4170.894Zm-6.6,10.531a6.521,6.521,0,0,1,6.64-5.37,6.016,6.016,0,0,1,6.344,5.37Z" transform="translate(-274.641 -4163.873)" fill="#192442"/><path d="M387.562,4179.486v15.3h5.788v-15.3a2.454,2.454,0,0,1,2.451-2.451h6.622v-5.788H395.8A8.246,8.246,0,0,0,387.562,4179.486Z" transform="translate(-260.517 -4163.469)" fill="#192442"/></g><g transform="translate(288.851 4163.655)"><path d="M362.888,4182.224l-15.554-15.555a10.29,10.29,0,0,0-14.553,0l-5.4,5.4-5.4-5.4a10.292,10.292,0,0,0-14.555,0l-15.554,15.555a10.292,10.292,0,0,0,0,14.554l15.554,15.555a10.291,10.291,0,0,0,14.555,0l5.4-5.4,5.4,5.4a10.289,10.289,0,0,0,14.553,0l15.554-15.555a10.292,10.292,0,0,0,0-14.554Zm-46.177,24.846a2.847,2.847,0,0,1-4.028,0l-15.554-15.555a2.846,2.846,0,0,1,0-4.027l15.554-15.555a2.846,2.846,0,0,1,4.028,0l5.4,5.4-4.889,4.889a10.3,10.3,0,0,0,0,14.554l4.889,4.889Zm15.554-19.583a2.846,2.846,0,0,1,0,4.027l-4.889,4.889-4.889-4.889a2.85,2.85,0,0,1,0-4.027l4.889-4.891Zm5.22-5.306-4.848-4.847,5.4-5.4a2.848,2.848,0,0,1,4.03,0l15.554,15.555a2.846,2.846,0,0,1,0,4.027l-15.554,15.555a2.849,2.849,0,0,1-4.03,0l-5.4-5.4,4.891-4.889a10.291,10.291,0,0,0,.088-14.464" transform="translate(-288.851 -4163.655)" fill="#8353f2"/><g transform="translate(38.524 13.678)"><path d="M312.1,4170.045l-5.255,5.254h10.49Z" transform="translate(-306.849 -4170.045)" fill="#5e3abe"/><path d="M306.849,4186.667h10.49l-5.235-5.255Z" transform="translate(-306.849 -4157.082)" fill="#5e3abe"/></g></g></g></svg>