<svg width="100" height="100" viewBox="0 0 100 100" fill="none" xmlns="http://www.w3.org/2000/svg">
<rect width="100" height="100" fill="white"/>
<path d="M86.0299 42.5693L70.4759 27.0142C69.5204 26.0585 68.386 25.3004 67.1375 24.7832C65.8889 24.266 64.5508 24 63.1994 24C61.848 24 60.5099 24.266 59.2614 24.7832C58.0128 25.3004 56.8784 26.0585 55.9229 27.0142L50.5229 32.4141L45.1229 27.0142C43.1928 25.0841 40.575 24 37.8454 24C35.1158 24 32.498 25.0841 30.5679 27.0142L15.0139 42.5693C13.0841 44.4994 12 47.1168 12 49.8462C12 52.5755 13.0841 55.193 15.0139 57.123L30.5679 72.6782C31.5235 73.634 32.6581 74.3924 33.9068 74.9097C35.1555 75.427 36.4938 75.6929 37.8454 75.6929C39.197 75.6929 40.5353 75.427 41.784 74.9097C43.0327 74.3924 44.1673 73.634 45.1229 72.6782L50.5229 67.2783L55.9229 72.6782C56.8784 73.634 58.0127 74.3919 59.2613 74.9092C60.5098 75.4264 61.848 75.6929 63.1994 75.6929C64.5508 75.6929 65.889 75.4264 67.1375 74.9092C68.3861 74.3919 69.5205 73.634 70.4759 72.6782L86.0299 57.123C87.9597 55.193 89.0438 52.5755 89.0438 49.8462C89.0438 47.1168 87.9597 44.4994 86.0299 42.5693ZM39.8529 67.415C39.5885 67.6797 39.2746 67.89 38.929 68.0332C38.5834 68.1764 38.213 68.25 37.8389 68.25C37.4648 68.25 37.0944 68.1764 36.7488 68.0332C36.4033 67.89 36.0893 67.6797 35.8249 67.415L20.2709 51.8604C20.0063 51.596 19.7964 51.282 19.6532 50.9365C19.51 50.591 19.4362 50.2207 19.4362 49.8467C19.4362 49.4727 19.51 49.1023 19.6532 48.7568C19.7964 48.4113 20.0063 48.0973 20.2709 47.833L35.8249 32.2783C36.0893 32.0136 36.4032 31.8035 36.7487 31.6602C37.0943 31.5169 37.4648 31.4429 37.8389 31.4429C38.213 31.4429 38.5835 31.5169 38.929 31.6602C39.2746 31.8035 39.5886 32.0136 39.8529 32.2783L45.2529 37.6782L40.3639 42.5674C38.4361 44.4985 37.3533 47.1155 37.3533 49.8442C37.3533 52.5729 38.4361 55.19 40.3639 57.1211L45.2529 62.0103L39.8529 67.415ZM55.4069 47.832C55.6715 48.0963 55.8814 48.4104 56.0246 48.7559C56.1678 49.1014 56.2415 49.4717 56.2415 49.8457C56.2415 50.2197 56.1678 50.5901 56.0246 50.9355C55.8814 51.281 55.6715 51.5951 55.4069 51.8594L50.5179 56.748L45.6289 51.8594C45.0955 51.325 44.7959 50.6007 44.7959 49.8457C44.7959 49.0907 45.0955 48.3664 45.6289 47.832L50.5179 42.9414L55.4069 47.832ZM60.6269 42.5264L55.7789 37.6792L61.1789 32.2793C61.4434 32.0145 61.7575 31.8045 62.1033 31.6611C62.449 31.5178 62.8196 31.4438 63.1939 31.4438C63.5682 31.4438 63.9388 31.5178 64.2845 31.6611C64.6303 31.8045 64.9444 32.0145 65.2089 32.2793L80.7629 47.834C81.0275 48.0983 81.2374 48.4123 81.3806 48.7578C81.5238 49.1033 81.5976 49.4737 81.5976 49.8477C81.5976 50.2217 81.5238 50.592 81.3806 50.9375C81.2374 51.283 81.0275 51.597 80.7629 51.8613L65.2089 67.416C64.9443 67.6807 64.6302 67.8909 64.2845 68.0342C63.9387 68.1774 63.5682 68.251 63.1939 68.251C62.8197 68.251 62.4491 68.1774 62.1033 68.0342C61.7576 67.8909 61.4435 67.6807 61.1789 67.416L55.7789 62.0161L60.6699 57.1274C62.5843 55.2129 63.6671 52.6205 63.6836 49.9131C63.7001 47.2056 62.6489 44.6008 60.7579 42.6631" fill="#8353F2"/>
<path d="M55.7667 37.6777L50.5117 42.9316H61.0017L55.7667 37.6777Z" fill="#5E3ABE"/>
<path d="M50.5156 67.2627H61.0056L55.7706 62.0078L50.5156 67.2627Z" fill="#5E3ABE"/>
</svg>
