<svg width="78" height="52" viewBox="0 0 78 52" fill="none" xmlns="http://www.w3.org/2000/svg">
<path d="M74.0299 18.5693L58.4759 3.01416C57.5204 2.05853 56.386 1.30039 55.1375 0.783203C53.8889 0.266017 52.5508 0 51.1994 0C49.848 0 48.5099 0.266017 47.2614 0.783203C46.0128 1.30039 44.8784 2.05853 43.9229 3.01416L38.5229 8.41406L33.1229 3.01416C31.1928 1.08406 28.575 0 25.8454 0C23.1158 0 20.498 1.08406 18.5679 3.01416L3.01392 18.5693C1.08412 20.4994 0 23.1168 0 25.8462C0 28.5755 1.08412 31.193 3.01392 33.123L18.5679 48.6782C19.5235 49.634 20.6581 50.3924 21.9068 50.9097C23.1555 51.427 24.4938 51.6929 25.8454 51.6929C27.197 51.6929 28.5353 51.427 29.784 50.9097C31.0327 50.3924 32.1673 49.634 33.1229 48.6782L38.5229 43.2783L43.9229 48.6782C44.8784 49.634 46.0127 50.3919 47.2613 50.9092C48.5098 51.4264 49.848 51.6929 51.1994 51.6929C52.5508 51.6929 53.889 51.4264 55.1375 50.9092C56.3861 50.3919 57.5205 49.634 58.4759 48.6782L74.0299 33.123C75.9597 31.193 77.0438 28.5755 77.0438 25.8462C77.0438 23.1168 75.9597 20.4994 74.0299 18.5693ZM27.8529 43.415C27.5885 43.6797 27.2746 43.89 26.929 44.0332C26.5834 44.1764 26.213 44.25 25.8389 44.25C25.4648 44.25 25.0944 44.1764 24.7488 44.0332C24.4033 43.89 24.0893 43.6797 23.8249 43.415L8.2709 27.8604C8.00631 27.596 7.79641 27.282 7.6532 26.9365C7.50998 26.591 7.43625 26.2207 7.43625 25.8467C7.43625 25.4727 7.50998 25.1023 7.6532 24.7568C7.79641 24.4113 8.00631 24.0973 8.2709 23.833L23.8249 8.27832C24.0893 8.01357 24.4032 7.80346 24.7487 7.66016C25.0943 7.51685 25.4648 7.44287 25.8389 7.44287C26.213 7.44287 26.5835 7.51685 26.929 7.66016C27.2746 7.80346 27.5886 8.01357 27.8529 8.27832L33.2529 13.6782L28.3639 18.5674C26.4361 20.4985 25.3533 23.1155 25.3533 25.8442C25.3533 28.5729 26.4361 31.19 28.3639 33.1211L33.2529 38.0103L27.8529 43.415ZM43.4069 23.832C43.6715 24.0963 43.8814 24.4104 44.0246 24.7559C44.1678 25.1014 44.2415 25.4717 44.2415 25.8457C44.2415 26.2197 44.1678 26.5901 44.0246 26.9355C43.8814 27.281 43.6715 27.5951 43.4069 27.8594L38.5179 32.748L33.6289 27.8594C33.0955 27.325 32.7959 26.6007 32.7959 25.8457C32.7959 25.0907 33.0955 24.3664 33.6289 23.832L38.5179 18.9414L43.4069 23.832ZM48.6269 18.5264L43.7789 13.6792L49.1789 8.2793C49.4434 8.01449 49.7575 7.80446 50.1033 7.66113C50.449 7.5178 50.8196 7.44385 51.1939 7.44385C51.5682 7.44385 51.9388 7.5178 52.2845 7.66113C52.6303 7.80446 52.9444 8.01449 53.2089 8.2793L68.7629 23.834C69.0275 24.0983 69.2374 24.4123 69.3806 24.7578C69.5238 25.1033 69.5976 25.4737 69.5976 25.8477C69.5976 26.2217 69.5238 26.592 69.3806 26.9375C69.2374 27.283 69.0275 27.597 68.7629 27.8613L53.2089 43.416C52.9443 43.6807 52.6302 43.8909 52.2845 44.0342C51.9387 44.1774 51.5682 44.251 51.1939 44.251C50.8197 44.251 50.4491 44.1774 50.1033 44.0342C49.7576 43.8909 49.4435 43.6807 49.1789 43.416L43.7789 38.0161L48.6699 33.1274C50.5843 31.2129 51.6671 28.6205 51.6836 25.9131C51.7001 23.2056 50.6489 20.6008 48.7579 18.6631" fill="#8353F2"/>
<path d="M43.7667 13.6777L38.5117 18.9316H49.0017L43.7667 13.6777Z" fill="#5E3ABE"/>
<path d="M38.5156 43.2627H49.0056L43.7706 38.0078L38.5156 43.2627Z" fill="#5E3ABE"/>
</svg>
