<svg xmlns="http://www.w3.org/2000/svg" width="280" height="57.502" viewBox="0 0 280 57.502"><g transform="translate(-109.864 -7242.093)"><g transform="translate(109.864 7242.093)"><rect width="6.257" height="5.74" transform="translate(196.223 9.426)" fill="#8353f2"/><g transform="translate(93.705 9.426)"><path d="M713.825,4170.9c-3.481,0-6.35,1.129-8.421,4.092-.15-.232-.312-.454-.476-.669-1.707-2.209-5.419-3.423-8.25-3.423-.1,0-.21.007-.314.011-.174-.006-.35-.011-.529-.011a10.392,10.392,0,0,0-8.609,4.045c-1.552,2.164-1.976,5.129-1.976,7.716v.369l-.029.034V4197.9h6.286v-14.492l0-.095c.128-2.963.8-6.141,4.076-6.615l.064-.01a6.015,6.015,0,0,1,.807-.053,5.093,5.093,0,0,1,4.207,2.283,8.968,8.968,0,0,1,1.024,4.489V4197.9h6.257v-13.5c0-1.647.048-3.858.94-5.316a5.1,5.1,0,0,1,4.329-2.445c4.048,0,4.94,3.434,4.94,6.772V4197.9h6.257v-15.244c0-2.587-.424-5.552-1.976-7.716A10.389,10.389,0,0,0,713.825,4170.9Z" transform="translate(-685.22 -4163.085)" fill="#fff"/><path d="M716.752,4170.9a13.926,13.926,0,1,0,0,27.852,13.624,13.624,0,0,0,13.833-13.973A13.8,13.8,0,0,0,716.752,4170.9Zm0,22.111c-4.517,0-7.669-3.764-7.669-8.138,0-4.237,3.248-8.233,7.669-8.233s7.576,4.093,7.576,8.278C724.329,4189.2,721.176,4193.007,716.752,4193.007Z" transform="translate(-660.907 -4163.085)" fill="#fff"/><path d="M729.419,4175.331a13.8,13.8,0,0,0-7.633,2.3v-10.017h-6.245V4188.4c-.021.3-.048.6-.048.9a13.977,13.977,0,0,0,13.926,13.879,13.625,13.625,0,0,0,13.833-13.975A13.8,13.8,0,0,0,729.419,4175.331Zm0,22.112c-4.517,0-7.669-3.762-7.669-8.137,0-4.235,3.248-8.234,7.669-8.234s7.576,4.092,7.576,8.281C737,4193.633,733.843,4197.443,729.419,4197.443Z" transform="translate(-643.414 -4167.613)" fill="#fff"/><path d="M779.565,4184.774a13.8,13.8,0,0,0-13.833-13.879,13.926,13.926,0,1,0,0,27.852,13.78,13.78,0,0,0,8.119-3.14v2.369h5.7v-13C779.553,4184.9,779.565,4184.84,779.565,4184.774Zm-21.5.095c0-4.237,3.248-8.233,7.669-8.233s7.576,4.093,7.576,8.278c0,4.282-3.152,8.093-7.576,8.093C761.215,4193.007,758.062,4189.243,758.062,4184.869Z" transform="translate(-593.269 -4163.085)" fill="#fff"/><rect width="6.257" height="26.111" transform="translate(102.518 8.704)" fill="#fff"/><path d="M745.928,4170.9a13.64,13.64,0,0,0-13.738,14.019c0,7.743,5.943,13.06,13.724,13.093v-.014h7.972v-5.729h-8c-2.552-.025-4.871-.6-6.267-2.738a5.31,5.31,0,0,1-.848-1.881h20.279a14.419,14.419,0,0,0,.376-3.153A13.4,13.4,0,0,0,745.928,4170.9Zm-7.341,11.714a7.255,7.255,0,0,1,7.388-5.974,6.7,6.7,0,0,1,7.057,5.974Z" transform="translate(-620.356 -4163.085)" fill="#fff"/><path d="M744.575,4180.412v17.019h6.438v-17.019a2.73,2.73,0,0,1,2.726-2.726h7.369v-6.438H753.74A9.173,9.173,0,0,0,744.575,4180.412Z" transform="translate(-603.254 -4162.595)" fill="#fff"/></g><g transform="translate(0 0)"><path d="M728.221,4184.31l-17.3-17.3a11.445,11.445,0,0,0-16.188,0l-6.012,6.012-6.009-6.012a11.447,11.447,0,0,0-16.19,0l-17.3,17.3a11.445,11.445,0,0,0,0,16.19l17.3,17.3a11.447,11.447,0,0,0,16.19,0l6.009-6.012,6.012,6.012a11.445,11.445,0,0,0,16.188,0l17.3-17.3a11.45,11.45,0,0,0,0-16.19Zm-51.364,27.638a3.167,3.167,0,0,1-4.483,0l-17.3-17.3a3.167,3.167,0,0,1,0-4.48l17.3-17.3a3.17,3.17,0,0,1,4.483,0l6.01,6.01-5.438,5.438a11.46,11.46,0,0,0,0,16.19l5.438,5.438Zm17.3-21.782a3.167,3.167,0,0,1,0,4.48l-5.438,5.438-5.438-5.437a3.171,3.171,0,0,1,0-4.48l5.438-5.441Zm5.807-5.9-5.39-5.391,6.009-6.01a3.17,3.17,0,0,1,4.483,0l17.3,17.3a3.167,3.167,0,0,1,0,4.48l-17.3,17.3a3.167,3.167,0,0,1-4.483,0l-6.009-6.009,5.438-5.438a11.448,11.448,0,0,0,.1-16.09" transform="translate(-645.864 -4163.654)" fill="#8353f2"/><g transform="translate(42.853 15.215)"><path d="M669.707,4170.046l-5.845,5.845h11.668Z" transform="translate(-663.862 -4170.046)" fill="#5e3abe"/><path d="M663.862,4187.258h11.668l-5.823-5.846Z" transform="translate(-663.862 -4154.347)" fill="#5e3abe"/></g></g></g></g></svg>