<svg xmlns="http://www.w3.org/2000/svg" width="137.717" height="26.363" viewBox="0 0 137.717 26.363"><g transform="translate(-377.251 -4172.547)"><g transform="translate(377.251 4172.547)"><rect width="4.626" height="4.243" transform="translate(75.785)" fill="#8353f2"/><path d="M349.353,4170.894a7.038,7.038,0,0,0-6.226,3.025c-.111-.171-.23-.335-.352-.494-1.262-1.634-4.006-2.531-6.1-2.531-.076,0-.155,0-.232.008-.129,0-.259-.008-.391-.008a7.683,7.683,0,0,0-6.365,2.989,9.946,9.946,0,0,0-1.461,5.706v.272l-.021.025v10.971h4.647v-10.713l0-.07c.1-2.191.593-4.54,3.013-4.892l.047-.006a4.506,4.506,0,0,1,.6-.039,3.763,3.763,0,0,1,3.11,1.688,6.646,6.646,0,0,1,.757,3.318v10.713h4.626v-9.982a8,8,0,0,1,.7-3.93,3.768,3.768,0,0,1,3.2-1.808c2.99,0,3.652,2.538,3.652,5.007v10.713h4.626v-11.269a9.946,9.946,0,0,0-1.461-5.706A7.683,7.683,0,0,0,349.353,4170.894Z" transform="translate(-328.207 -4165.12)" fill="#fff"/><path d="M356.108,4170.894a10.295,10.295,0,1,0,0,20.589,10.072,10.072,0,0,0,10.226-10.33A10.2,10.2,0,0,0,356.108,4170.894Zm0,16.346a5.773,5.773,0,0,1-5.669-6.016,5.944,5.944,0,0,1,5.669-6.087c3.27,0,5.6,3.025,5.6,6.12A5.773,5.773,0,0,1,356.108,4187.24Z" transform="translate(-314.825 -4165.12)" fill="#fff"/><path d="M368.775,4173.318a10.214,10.214,0,0,0-5.645,1.7v-7.4h-4.617v15.365c-.014.223-.033.444-.033.669a10.332,10.332,0,0,0,10.295,10.26A10.072,10.072,0,0,0,379,4183.579,10.205,10.205,0,0,0,368.775,4173.318Zm0,16.346a5.771,5.771,0,0,1-5.669-6.016,5.944,5.944,0,0,1,5.669-6.086c3.27,0,5.6,3.025,5.6,6.122A5.771,5.771,0,0,1,368.775,4189.665Z" transform="translate(-305.197 -4167.614)" fill="#fff"/><path d="M415.313,4181.154a10.2,10.2,0,0,0-10.226-10.26,10.295,10.295,0,1,0,0,20.589,10.193,10.193,0,0,0,6-2.321v1.751H415.3V4181.3C415.3,4181.25,415.313,4181.2,415.313,4181.154Zm-15.9.071a5.944,5.944,0,0,1,5.669-6.087c3.27,0,5.6,3.025,5.6,6.12a5.645,5.645,0,1,1-11.268-.033Z" transform="translate(-277.596 -4165.12)" fill="#fff"/><rect width="4.626" height="19.303" transform="translate(75.785 6.434)" fill="#fff"/><path d="M385.333,4170.894a10.084,10.084,0,0,0-10.156,10.364c0,5.724,4.393,9.654,10.145,9.678v-.011h5.893v-4.234H385.3c-1.889-.018-3.6-.443-4.633-2.024a3.893,3.893,0,0,1-.627-1.39h14.991a10.671,10.671,0,0,0,.278-2.332A9.909,9.909,0,0,0,385.333,4170.894Zm-5.426,8.66a5.362,5.362,0,0,1,5.46-4.416,4.947,4.947,0,0,1,5.217,4.416Z" transform="translate(-292.505 -4165.12)" fill="#fff"/><path d="M387.562,4178.022V4190.6h4.759v-12.582a2.018,2.018,0,0,1,2.015-2.015h5.446v-4.759h-5.446A6.78,6.78,0,0,0,387.562,4178.022Z" transform="translate(-283.091 -4164.851)" fill="#fff"/></g></g></svg>