<svg xmlns="http://www.w3.org/2000/svg" width="1216" height="421.936" viewBox="0 0 1216 421.936"><g transform="translate(-352 -229.947)"><g transform="translate(982.328 237.135)"><path d="M616.69,420.633c.061,46.451-13.967,93.736-46.649,117.083-32.942,23.5-84.539,23.056-127.67,33.692-42.72,10.747-77.384,32.46-116.657,37.75-39.163,4.878-83.345-6.773-111.259-34.74s-39.152-72.14-49.713-116.352c-10.3-44.362-19.528-88.653-3.245-120.588s58.337-51.663,95.231-65.3c36.783-13.226,68.817-20.238,108.456-37.534,39.528-16.884,86.77-44.461,125.378-38.27,38.758,6.454,68.473,46.568,90.4,89.433S616.779,374.443,616.69,420.633Z" transform="translate(-31.018 -195.489)" fill="#192442"/><ellipse cx="2.689" cy="2.689" rx="2.689" ry="2.689" transform="translate(447.506 58.668)" fill="#8353f2"/><ellipse cx="8.068" cy="8.068" rx="8.068" ry="8.068" transform="translate(497.222 165.598)" fill="#8353f2"/><ellipse cx="1.916" cy="1.916" rx="1.916" ry="1.916" transform="translate(540.912 251.464)" fill="#8353f2"/><ellipse cx="3.116" cy="3.116" rx="3.116" ry="3.116" transform="translate(237.946 115.834)" fill="#8353f2"/><ellipse cx="3.891" cy="3.891" rx="3.891" ry="3.891" transform="translate(210.158 218.565)" fill="#8353f2"/><ellipse cx="3.146" cy="3.146" rx="3.146" ry="3.146" transform="translate(151.818 256.017)" fill="#8353f2"/><ellipse cx="7.093" cy="7.093" rx="7.093" ry="7.093" transform="translate(243.377 349.425)" fill="#8353f2"/><ellipse cx="1.662" cy="1.662" rx="1.662" ry="1.662" transform="translate(416.136 342.815)" fill="#8353f2"/><ellipse cx="29.785" cy="18.783" rx="29.785" ry="18.783" transform="translate(293.342 86.159)" fill="#f4f0ff"/><ellipse cx="2.97" cy="2.97" rx="2.97" ry="2.97" transform="translate(306.072 101.972)" fill="#8d1c9f"/><ellipse cx="2.97" cy="2.97" rx="2.97" ry="2.97" transform="translate(320.157 101.972)" fill="#8d1c9f"/><ellipse cx="2.97" cy="2.97" rx="2.97" ry="2.97" transform="translate(334.242 101.972)" fill="#8d1c9f"/><path d="M379.431,323.286l9.895,7.766-2.313-11.377Z" transform="translate(-45.082 -203.19)" fill="#f4f0ff"/><path d="M156.579,451.415c-.472,0-.947-.01-1.43-.031-15.474-.663-25.868-11.645-35.919-22.265-9.685-10.233-18.832-19.9-31.258-17.983-6.527,1.006-11.413,4.712-16.586,8.635-6.726,5.1-14.349,10.883-26.287,10.447-8.126-.3-16.14-3.335-23.819-9.026a2.852,2.852,0,0,1,3.4-4.583c6.736,4.992,13.678,7.653,20.631,7.908,9.9.362,16.086-4.326,22.631-9.291,5.511-4.18,11.209-8.5,19.164-9.728,15.382-2.37,26,8.849,36.27,19.7,9.27,9.795,18.856,19.923,32.021,20.487,14,.6,23-9.824,33.409-21.893,9.929-11.51,21.184-24.555,38.822-28.829,27.024-6.549,59.988,10.1,97.975,49.473a2.852,2.852,0,1,1-4.105,3.96c-36.481-37.815-67.611-53.928-92.526-47.89-15.859,3.843-26.02,15.621-35.846,27.012C182.529,439.8,172.5,451.413,156.579,451.415Z" transform="translate(-22.978 -207.948)" fill="#50e2aa"/><path d="M461.848,417.732l-6.313-5.259c6.829-9.637,30.629-4.078,37.536-12.006,3.94-6.9-6.466-12.846-11.935-13.6l.976-8.161c10.856,1.008,25.713,13.788,18.041,25.923C494.22,416.424,470.4,410.85,461.848,417.732Z" transform="translate(-49.802 -206.851)" fill="#d6d2e3"/><path d="M470.824,416.378a7.119,7.119,0,0,0-2.2-6.832,5.146,5.146,0,0,0-1.433-.8c-.608.117-1.207.242-1.792.382a4.483,4.483,0,0,1,2.8.959,6.5,6.5,0,0,1,1.905,6.436C470.342,416.469,470.583,416.423,470.824,416.378Z" transform="translate(-50.414 -208.713)" fill="#c3c2cc"/><path d="M499.942,398.351a5.056,5.056,0,0,0-3.677,1.407,6.613,6.613,0,0,1-.75,1.927c-.172.2-.362.38-.553.563l.388.146a4.713,4.713,0,0,1,4.574-3.359,5.578,5.578,0,0,1,4.461,2.6c.072-.309.129-.616.176-.923A6.191,6.191,0,0,0,499.942,398.351Z" transform="translate(-52.247 -208.069)" fill="#c3c2cc"/><path d="M479.5,415.227a6.837,6.837,0,0,0-.514-6.778,5.065,5.065,0,0,0-1.126-1.079l-1.168.122a4.3,4.3,0,0,1,1.748,1.369,6.234,6.234,0,0,1,.271,6.451Z" transform="translate(-51.113 -208.628)" fill="#c3c2cc"/><path d="M458.371,414.31h-.026a5.27,5.27,0,0,0-2.479.628l.579.482a4.569,4.569,0,0,1,1.9-.426h.023a6.6,6.6,0,0,1,5.521,3.673c.2-.1.407-.2.618-.295a7.3,7.3,0,0,0-6.139-4.063Z" transform="translate(-49.822 -209.059)" fill="#c3c2cc"/><path d="M461.09,410.524l.008.011c.043-.027.085-.046.129-.072C461.179,410.482,461.136,410.5,461.09,410.524Z" transform="translate(-50.146 -208.82)" fill="#c3c2cc"/><path d="M493.923,392.829q.326.342.616.7a4.588,4.588,0,0,1,1.688-3.408,5.578,5.578,0,0,1,5.057-1c-.211-.281-.431-.555-.657-.827a6.171,6.171,0,0,0-4.837,1.3A5.253,5.253,0,0,0,493.923,392.829Z" transform="translate(-52.182 -207.44)" fill="#c3c2cc"/><path d="M489.774,413.793a6.608,6.608,0,0,0-.394-6.415,4.977,4.977,0,0,0-1.656-1.493q-.553.135-1.126.254a4.252,4.252,0,0,1,2.222,1.632,6.009,6.009,0,0,1,.114,6.184C489.215,413.9,489.5,413.85,489.774,413.793Z" transform="translate(-51.728 -208.536)" fill="#c3c2cc"/><path d="M499.6,409.7a6.392,6.392,0,0,0-2.016-5.406,4.959,4.959,0,0,0-3.377-1.219,10.43,10.43,0,0,1-1.26.844,4.389,4.389,0,0,1,4.182.892,5.8,5.8,0,0,1,1.678,5.481C499.081,410.1,499.346,409.908,499.6,409.7Z" transform="translate(-52.122 -208.362)" fill="#c3c2cc"/><path d="M488.388,383.845a5.6,5.6,0,0,0-.563,4.644c.3.137.6.281.895.436a4.885,4.885,0,0,1,.25-4.725,5.474,5.474,0,0,1,3.692-2.518q-.449-.248-.9-.469A6.113,6.113,0,0,0,488.388,383.845Z" transform="translate(-51.787 -207.006)" fill="#c3c2cc"/><path d="M482.344,378.71l-.1.844c5.975,1.419,11.438,4.716,14.209,10.258A13.722,13.722,0,0,1,490.29,408.3c-9.762,4.338-21.24,3.527-31.035,7.083l2.823,2.352c8.548-6.882,32.372-1.308,38.306-13.1C508.057,392.5,493.2,379.718,482.344,378.71Z" transform="translate(-50.032 -206.851)" fill="#b6b0c9"/><path d="M470.417,416.905c.236-.048.477-.094.718-.139a8.622,8.622,0,0,0,.115-1.761l-.67.105a8.037,8.037,0,0,1-.163,1.794Z" transform="translate(-50.725 -209.102)" fill="#a2a1b3"/><path d="M500.411,398.363c-.02.227-.031.456-.061.682a5.585,5.585,0,0,1,4.37,2.59c.072-.309.129-.616.176-.923A6.2,6.2,0,0,0,500.411,398.363Z" transform="translate(-52.581 -208.07)" fill="#a2a1b3"/><path d="M478.84,415.7l.789-.086a7.984,7.984,0,0,0,.563-1.982c-.236.041-.469.083-.711.122a7.391,7.391,0,0,1-.641,1.946Z" transform="translate(-51.247 -209.017)" fill="#a2a1b3"/><path d="M464.313,418.8c.2-.1.407-.2.618-.295a8.927,8.927,0,0,0-1.515-1.99c-.256.065-.509.135-.764.2A8.153,8.153,0,0,1,464.313,418.8Z" transform="translate(-50.243 -209.196)" fill="#a2a1b3"/><path d="M461.226,410.463c-.047.019-.094.041-.136.061l.008.011C461.141,410.508,461.183,410.489,461.226,410.463Z" transform="translate(-50.146 -208.82)" fill="#a2a1b3"/><path d="M501.521,389.119c-.211-.281-.431-.555-.657-.827a6.43,6.43,0,0,0-3.084.308c.129.194.265.384.388.585a5.823,5.823,0,0,1,3.352-.066Z" transform="translate(-52.421 -207.441)" fill="#a2a1b3"/><path d="M489.088,414.269c.281-.053.563-.105.844-.162a7.348,7.348,0,0,0,.628-3.162c-.226.087-.452.175-.68.257a6.786,6.786,0,0,1-.792,3.067Z" transform="translate(-51.882 -208.85)" fill="#a2a1b3"/><path d="M498.28,404.79c-.123.2-.243.4-.375.6a5.951,5.951,0,0,1,1.219,5.012c.27-.188.535-.385.787-.592a6.5,6.5,0,0,0-1.631-5.017Z" transform="translate(-52.429 -208.468)" fill="#a2a1b3"/><path d="M491.926,381.209a6.327,6.327,0,0,0-1.6.788q.345.183.683.375a5.721,5.721,0,0,1,1.822-.692C492.53,381.517,492.229,381.361,491.926,381.209Z" transform="translate(-51.959 -207.006)" fill="#a2a1b3"/><path d="M463.35,422.42c0,4.383-52.152,55.011-55.928,55.308s-36.087-29.07-36.1-33.224,48.742-56.882,52.9-57.063S463.35,417.324,463.35,422.42Z" transform="translate(-44.579 -207.392)" fill="#e5e2ee"/><path d="M459.363,416.181a24.24,24.24,0,0,1-4.8,6.764c-15.676,19.595-31.811,39.185-52.519,52.042,3.587,2.8,6.337,4.6,7.284,4.524,3.773-.3,55.928-50.924,55.928-55.308C465.255,422.883,462.908,419.888,459.363,416.181Z" transform="translate(-46.485 -209.175)" fill="#c8c3d9"/><path d="M385.218,370.655a131.586,131.586,0,0,0-25.442.166c4.3,7.463,4.221,15.454.257,23.913,6.835-.265,11.712,2.345,18.148,2.356C392.207,397.115,401.445,372.29,385.218,370.655Z" transform="translate(-43.863 -206.318)" fill="#ece7fd"/><path d="M361.244,394.65c4.516-2.2,5.99-21.674,2.756-24.289-1.313-1.063-9.626-.511-11.781.741-5.054,2.937-1.363,21.633,3.71,23.7a9.729,9.729,0,0,0,5.316-.149Z" transform="translate(-43.245 -206.298)" fill="#fffffd"/><path d="M355.708,394.885c2.638-1.011,1.007-23.59-3.71-23.7a22.95,22.95,0,0,0-5.448.734c-1.313.432,2.212,23.4,3.97,23.58A14.163,14.163,0,0,0,355.708,394.885Z" transform="translate(-43.026 -206.384)" fill="#ece7fd"/><path d="M347.936,395.509c-1.7,1.212-12.1,3.084-12.1,3.084-7.069,7.4-9.016,9.192-11.393,8.758-2.018-.369-5.131-2.638-1.268-9.555-10,2.207-14.914,2.157-17.387-2.449s-1.531-16.277,7.481-19.2,27.963-5.085,30.53-4.83S351.13,393.238,347.936,395.509Z" transform="translate(-40.442 -206.391)" fill="#8353f2"/><path d="M361.831,391.387a34.582,34.582,0,0,1-1.782,4.59c6.835-.265,11.712,2.345,18.148,2.356,5.356.008,10.007-3.61,12.816-8.175C381.628,392.326,371.691,391.245,361.831,391.387Z" transform="translate(-43.88 -207.561)" fill="#d0c4f8"/><path d="M352.7,392.031c.976,2.064,2.148,3.6,3.406,4.11a9.729,9.729,0,0,0,5.316-.149c1.159-.563,2.116-2.273,2.847-4.537a86.854,86.854,0,0,0-11.568.576Z" transform="translate(-43.425 -207.64)" fill="#c7c7c7"/><path d="M350.69,396.769a14.163,14.163,0,0,0,5.187-.616c.7-.268,1.095-2.057,1.219-4.532a58.565,58.565,0,0,0-8.067.984C349.627,395.04,350.221,396.722,350.69,396.769Z" transform="translate(-43.197 -207.651)" fill="#d0c4f8"/><path d="M326.558,408.7c2.1-.068,4.325-2.2,10.642-8.811,0,0,10.395-1.876,12.1-3.084.79-.563,1.092-2.314,1.062-4.633a41.553,41.553,0,0,0-12.922,3.885C332.678,398.912,329.863,403.991,326.558,408.7Z" transform="translate(-41.804 -207.686)" fill="#886de4"/><path d="M306.932,398.244c2.681,3.08,7.443,2.939,15.986,1.081a6.55,6.55,0,0,0,1.905-4.749C320.071,396.688,312.925,398.8,306.932,398.244Z" transform="translate(-40.587 -207.835)" fill="#886de4"/><path d="M379.008,370.236a128.274,128.274,0,0,0-19.229.584,25.441,25.441,0,0,1,1.519,3.108,88.077,88.077,0,0,0,16.548-3.4C378.23,370.408,378.619,370.315,379.008,370.236Z" transform="translate(-43.864 -206.317)" fill="#f4f0ff"/><path d="M364.02,370.363c-1.313-1.063-9.626-.511-11.781.741a5.239,5.239,0,0,0-2.084,3.61,134.1,134.1,0,0,0,15.175-1.432A5.2,5.2,0,0,0,364.02,370.363Z" transform="translate(-43.267 -206.298)" fill="#fffffd"/><path d="M352,371.188a22.95,22.95,0,0,0-5.448.734c-.281.094-.341,1.254-.237,3.013,2.845-.094,5.682-.216,8.517-.419C354.072,372.527,353.124,371.213,352,371.188Z" transform="translate(-43.026 -206.384)" fill="#f4f0ff"/><path d="M343.8,371.322c-2.566-.255-21.517,1.911-30.53,4.83-6.068,1.97-8.474,7.894-8.645,12.967,2.144-7.091,6.552-12.85,15.265-13.337,8.825-.667,17.478-.582,26.076-.919C345.217,372.776,344.442,371.385,343.8,371.322Z" transform="translate(-40.444 -206.391)" fill="#cabaff"/><path d="M326.757,460.74c-2.769,3.091-1.112,13.014-1.112,13.014-12.194,8.8-16.017,16.889-12.921,23.769s15.953,7.731,26.179,2.3,11.4-8.795,12.134-11.443c1.085-3.922.967-6.985,1.734-8.723s5.995-10.874,4.808-12.791C355.41,463.35,331.6,455.337,326.757,460.74Z" transform="translate(-40.882 -211.825)" fill="#8353f2"/><path d="M327.73,460.42c-3.935,12.089,27.686,18.471,30.823,6.117C361.325,455.624,331.957,447.433,327.73,460.42Z" transform="translate(-41.855 -211.505)" fill="#ece7fd"/><path d="M359.67,467.211a10.1,10.1,0,0,0-3.721-2.569c-2.591,6.435-8.487,12.13-10.335,18.137-.957,2.869,1.757,8.41,1.617,13.591,4.56-3.312,5.352-5.672,5.9-7.64,1.085-3.922.967-6.985,1.734-8.723S360.857,469.128,359.67,467.211Z" transform="translate(-42.973 -212.18)" fill="#886de4"/><path d="M357.446,459.973c-.547,4.828-3.564,9.168-6.446,13.393,4.445-.65,8.059-2.672,9.017-6.444C360.661,464.38,359.563,461.986,357.446,459.973Z" transform="translate(-43.319 -211.89)" fill="#bbb1de"/><path d="M343.287,413.471c-6.111,9.643-14.113,29.057-13.448,33.573s26.933,18.164,32.529,11.18a181.545,181.545,0,0,0,13.558-18.8C387.914,419.955,355.252,394.592,343.287,413.471Z" transform="translate(-42.005 -208.594)" fill="#ece7fd"/><path d="M369.086,411.54c.706,17.089-3.465,34.844-13.479,48.669,3.709.584,6.821.232,8.362-1.688a181.533,181.533,0,0,0,13.558-18.8C383.786,429.552,377.87,417.787,369.086,411.54Z" transform="translate(-43.605 -208.887)" fill="#bbb1de"/><path d="M362.2,460.768c-8.137,3.283-30.539-6.948-32.548-12.938-1.832,1.09-3.671,10.093-1.937,12.222,5.6,6.872,22.8,8.845,30.823,6.117C359.621,465.8,362.119,461.778,362.2,460.768Z" transform="translate(-41.832 -211.137)" fill="#fffffd"/><path d="M358.325,462.164a5.321,5.321,0,0,1,.414,4.678c-.131.263-.281.5-.426.75a18.34,18.34,0,0,0,2.157-.574c1.092-.375,3.59-4.387,3.667-5.4a12.815,12.815,0,0,1-5.812.547Z" transform="translate(-43.773 -211.992)" fill="#c7c7c7"/><path d="M338.731,481.079c-4.108-2.054-9.585-2.739-9.585-7.531a71.824,71.824,0,0,1,.329-14.236,5.281,5.281,0,0,0-2.72,1.452c-2.769,3.091-1.112,13.014-1.112,13.014-12.194,8.8-16.017,16.889-12.921,23.769.014.031.031.059.045.089C313.658,485.471,325.359,476.8,338.731,481.079Z" transform="translate(-40.882 -211.849)" fill="#cabaff"/><path d="M330.794,456.346a8.4,8.4,0,0,0-3.064,4.234c-.908,2.791.081,5.277,2.175,7.3a88.58,88.58,0,0,1,.889-11.534Z" transform="translate(-41.855 -211.665)" fill="#f4f0ff"/><path d="M329.839,448.578a4.958,4.958,0,0,0,1.681,2.364c1.04-6.446,2.415-12.891,3.377-19.337C331.753,439.04,329.472,446.086,329.839,448.578Z" transform="translate(-42.005 -210.131)" fill="#f4f0ff"/><path d="M329.643,447.83c-1.832,1.09-3.671,10.093-1.937,12.222a12.293,12.293,0,0,0,2.38,2.183c.281-3.9.839-7.8,1.5-11.708a7.439,7.439,0,0,1-1.944-2.7Z" transform="translate(-41.832 -211.137)" fill="#fffffd"/><path d="M367,494.944c-1.264,4.255,4.878,13.091,4.878,13.091-7.764,14.085-7.764,23.656-1.627,28.9s16.072,2.02,26.364-9.755c8.812-10.078,7-13.717,6.5-16.614-.745-4.288-2.26-7.2-2.315-9.232s.825-13.256-1.2-14.567C395.9,484.366,369.209,487.508,367,494.944Z" transform="translate(-44.239 -213.502)" fill="#8353f2"/><path d="M367.072,494.571c1.723,13.489,35.217,5.2,32.6-8.179C397.363,474.573,365.217,480.08,367.072,494.571Z" transform="translate(-44.311 -213.13)" fill="#ece7fd"/><path d="M385.67,370.212c-22.662,11.377-35.822,23.565-41.612,40.9s2.879,34.4,16.151,45.5c-.136,4.334-.271,15.981,2.439,20.045s32.5,4.6,36.567-4.063,5.282-15.033,10.293-22.482,28.08-22.3,29.344-29.885-5.237-23.295-17.877-34.49S395.829,365.113,385.67,370.212Z" transform="translate(-42.775 -206.236)" fill="#ece7fd"/><path d="M351.405,404c7.855-16.314,22.212-25.841,42.056-35.111a13.694,13.694,0,0,0-7.791,1.32c-22.662,11.377-35.822,23.565-41.612,40.9-4.147,12.418-.874,24.7,6.191,34.745C343.539,431.856,345.331,416.15,351.405,404Z" transform="translate(-42.775 -206.235)" fill="#f4f1fe"/><path d="M400.485,479.462c-6.365,6.9-32.707,7.246-37.393,2.374-1.273,1.892,1.065,11.438,3.715,12.7,8.554,4.086,26.093-1.876,32.6-8.179C400.3,485.5,400.878,480.478,400.485,479.462Z" transform="translate(-44.047 -213.099)" fill="#fffffd"/><path d="M394.474,503.958c3.1,6.191,5.9,14.082,5.474,21.3,6.961-8.635,5.356-11.988,4.887-14.693-.745-4.288-2.26-7.2-2.315-9.232s.825-13.256-1.2-14.567c-.822-.533-2.781-.791-5.347-.791C396.88,491.969,391.477,497.963,394.474,503.958Z" transform="translate(-45.958 -213.502)" fill="#886de4"/><path d="M393.7,497.885c5.029-2.72,8.545-6.781,7.63-11.468-.651-3.328-3.666-5.282-7.622-6.049a28.118,28.118,0,0,1,1.459,2.7C397.64,488.008,394.407,492.946,393.7,497.885Z" transform="translate(-45.967 -213.155)" fill="#bbb1de"/><path d="M395.015,479.481a8.634,8.634,0,0,1,.492,1.21c3.26-1.1,5.76-2.659,6.746-4.761,4.062-8.668,5.282-15.033,10.293-22.482s28.08-22.3,29.344-29.885a10.525,10.525,0,0,0,.116-1.061c-16.079,12.679-25.724,14.989-42.7,27.4C387.661,458.8,390.907,470.58,395.015,479.481Z" transform="translate(-45.815 -209.567)" fill="#bbb1de"/><path d="M395.736,490.379a26.718,26.718,0,0,0,5.7-4.014c.886-.859,1.465-5.883,1.076-6.9-1.477,1.6-4.033,2.844-7.146,3.752A10.516,10.516,0,0,1,395.736,490.379Z" transform="translate(-46.07 -213.099)" fill="#c7c7c7"/><path d="M366.307,408.492a1.706,1.706,0,0,1-1.126-.42c-4.055-3.529-9.22-8.941-10.8-14.68a1.712,1.712,0,0,1,3.3-.909c1.071,3.892,4.441,8.388,9.747,13.006a1.711,1.711,0,0,1-1.126,3Z" transform="translate(-43.525 -207.627)" fill="#a692eb"/><path d="M368.707,405.738a1.705,1.705,0,0,1-1.126-.42c-4.055-3.529-9.22-8.941-10.8-14.68a1.712,1.712,0,0,1,3.3-.909c1.071,3.892,4.441,8.388,9.747,13.006a1.711,1.711,0,0,1-1.126,3Z" transform="translate(-43.674 -207.456)" fill="#fffffd"/><path d="M371.1,402.983a1.7,1.7,0,0,1-1.126-.42c-4.055-3.529-9.22-8.941-10.8-14.68a1.712,1.712,0,1,1,3.3-.909c1.071,3.892,4.442,8.388,9.748,13.006a1.712,1.712,0,0,1-1.126,3Z" transform="translate(-43.822 -207.283)" fill="#a692eb"/><path d="M402.577,417.369c-.144,1.362-13.523,15.316-14.783,15.617s-4.862-.062-5.957-.822c1.97-.616,18.993-18.774,18.993-20.479a12.382,12.382,0,0,1,1.747,5.683Z" transform="translate(-45.232 -208.896)" fill="#a7a0bf"/><path d="M399.659,410.552v.007c0,1.705-17.021,19.863-18.993,20.479-1.095-.766-17.634-16.946-17.72-18.747s15.345-18.363,17.768-18.78S398.913,409.58,399.659,410.552Z" transform="translate(-44.06 -207.768)" fill="#fffffd"/><path d="M391.126,422.1l-11.542-13.222,2.287-9.508-3.484-3.276.5-.532,3.793,3.566-2.3,9.554,11.294,12.938Z" transform="translate(-45.033 -207.912)" fill="#d2d1d9"/><path d="M388.613,413.072l4.963-4.962.77.769a3.509,3.509,0,0,1-4.963,4.963Z" transform="translate(-45.652 -208.674)" fill="#a7a0bf"/><ellipse cx="3.51" cy="3.51" rx="3.51" ry="3.51" transform="translate(341.93 198.411)" fill="#fffffd"/><path d="M420.281,447.512a1.7,1.7,0,0,1-.938-.281,129.735,129.735,0,0,1-25.109-21.457,1.712,1.712,0,1,1,2.54-2.3,126.4,126.4,0,0,0,24.448,20.891,1.712,1.712,0,0,1-.938,3.142Z" transform="translate(-45.973 -209.592)" fill="#a692eb"/><path d="M417.572,449.958a1.711,1.711,0,0,1-.938-.281,129.772,129.772,0,0,1-25.109-21.457,1.712,1.712,0,1,1,2.541-2.294,126.356,126.356,0,0,0,24.447,20.89,1.712,1.712,0,0,1-.938,3.142Z" transform="translate(-45.805 -209.744)" fill="#fffffd"/><path d="M414.864,452.4a1.7,1.7,0,0,1-.938-.281,129.766,129.766,0,0,1-25.109-21.457,1.712,1.712,0,0,1,2.541-2.3,126.3,126.3,0,0,0,24.448,20.89,1.713,1.713,0,0,1-.938,3.143Z" transform="translate(-45.637 -209.896)" fill="#a692eb"/><ellipse cx="8.307" cy="8.307" rx="8.307" ry="8.307" transform="translate(302.49 203.523)" fill="#a692eb"/><ellipse cx="6.952" cy="6.952" rx="6.952" ry="6.952" transform="translate(303.348 204.877)" fill="#a7a0c1"/><path d="M330.616,440.527C312,434,318.8,409.883,352.506,415.85c6.591.921,5.014,11.256-1.562,10.151-14.654-2.251-19.184,1.688-19.615,3.247-.294,1.058.723,2.04,2.4,2.726C332.5,435.084,331.744,437.028,330.616,440.527Z" transform="translate(-41.425 -209.096)" fill="#fffffd"/><path d="M330.862,425.357c-4.569,3.738-2.332,7.973,1.814,11.042.469-1.262.949-2.489,1.545-3.988-1.68-.686-2.7-1.668-2.4-2.726.431-1.56,4.961-5.5,19.615-3.247a4.7,4.7,0,0,0,5.457-3.267C347.653,422.521,338.173,419.874,330.862,425.357Z" transform="translate(-41.914 -209.533)" fill="#c7c7c7"/><path d="M333.479,432.818a5.949,5.949,0,0,1-.819-.483,6.941,6.941,0,0,1-3.4,5.493,5.052,5.052,0,0,1-4.458.345,15.611,15.611,0,0,0,1.571,1.211c.1.006.206.014.309.014a6.029,6.029,0,0,0,3-.824A7.863,7.863,0,0,0,333.479,432.818Z" transform="translate(-41.695 -210.176)" fill="#d2d1d9"/><path d="M322.135,430.562a13.273,13.273,0,0,0,9.167.016,1.3,1.3,0,0,1,.028-.52,1.969,1.969,0,0,1,.3-.583.394.394,0,0,0-.127.045c-1.6,1.144-6.27,1.483-9.027.273a3,3,0,0,1-1.876-1.816,9.876,9.876,0,0,0-.128,1.436A4.792,4.792,0,0,0,322.135,430.562Z" transform="translate(-41.426 -209.906)" fill="#d2d1d9"/><path d="M353.312,416.357a5.361,5.361,0,0,0-.494-.719c-.422-.066-.838-.123-1.25-.178a4.283,4.283,0,0,1,1.078,1.273,7.216,7.216,0,0,1-.183,6.953,4.11,4.11,0,0,1-2.957,1.934c.582.059,1.178.127,1.8.209a5.077,5.077,0,0,0,1.8-1.731,8.037,8.037,0,0,0,.2-7.742Z" transform="translate(-43.227 -209.13)" fill="#d2d1d9"/><path d="M345.09,417.549a8.788,8.788,0,0,0-1.276-2.639c-.349,0-.69.007-1.032.015a7.316,7.316,0,0,1,1.558,2.857c.938,3.007.676,6.615-1.656,7.376a.385.385,0,0,0-.231.208c.488-.025,1-.041,1.528-.045C345.818,423.831,345.988,420.435,345.09,417.549Z" transform="translate(-42.789 -209.096)" fill="#d2d1d9"/><path d="M325.506,420.168a.362.362,0,0,0,.035-.086c-.247.2-.482.395-.709.6.447,1.1,2.092,2.861,4.843,5.65.952.965,1.856,1.883,2.358,2.478a4.377,4.377,0,0,1,.583-.582c-.532-.621-1.395-1.5-2.357-2.472C328.568,424.038,325.419,420.849,325.506,420.168Z" transform="translate(-41.697 -209.416)" fill="#d2d1d9"/><path d="M337.776,425.96c.528-2.684-2.069-7.967-3.593-9.825l-.074-.087c-.294.075-.58.155-.863.237a18.672,18.672,0,0,1,3.3,6.23c.536,1.682.648,2.988.33,3.672C337.161,426.107,337.459,426.03,337.776,425.96Z" transform="translate(-42.218 -209.166)" fill="#d2d1d9"/><path d="M366.307,458.5c5.67.361,17.743-2.083,20.7-1.782s5.177,1.47,5.1,2.644-18.446-.452-20.251-.094.316,2.048,4.65,3.521c1.541.524,6.941,1.264,6.855,2.619s-4.6,1.535-6.4.541-8.216-5.664-9.39-5.778,4.153,8.487,4.153,8.487S366.145,464.462,366.307,458.5Z" transform="translate(-44.268 -211.687)" fill="#bbb1de"/><path d="M443.576,415.7a137.554,137.554,0,0,1,6.847,25.7c-8.712-2.279-16.748.008-24.185,6.337-1.617-6.966-5.6-11.162-7.381-17.651C414.969,415.953,437.451,399.789,443.576,415.7Z" transform="translate(-47.499 -208.737)" fill="#ece7fd"/><path d="M447.152,426.573c-1.126-4-2.37-7.813-3.549-10.873-5.159-13.413-21.954-4.033-24.763,7.715C427.526,416.159,442.9,413.962,447.152,426.573Z" transform="translate(-47.526 -208.736)" fill="#bbb1de"/><path d="M426.29,447.647c.974-5.159,20.2-12.018,23.731-9.478,1.434,1.032,3.17,9.567,2.5,12.085-1.567,5.909-21.438,7.34-24.919,2.794A10.166,10.166,0,0,1,426.29,447.647Z" transform="translate(-47.988 -210.504)" fill="#fffffd"/><path d="M427.7,453.748c.292-2.938,23.51-7.523,24.919-2.794a24.046,24.046,0,0,1,.763,5.695c-.075,1.443-24.21,4.221-24.874,2.5A14.772,14.772,0,0,1,427.7,453.748Z" transform="translate(-48.075 -211.204)" fill="#ece7fd"/><path d="M427.492,459.978c-.75,2.052.907,12.651.907,12.651-5.512,9.168-6.783,11.631-5.689,13.9.929,1.932,4.075,4.446,9.985-1.357.532,10.693,1.935,15.636,7.266,16.858s16.835-2.946,17.293-12.839-2.557-29.64-3.522-32.157S428.9,456.132,427.492,459.978Z" transform="translate(-47.744 -211.633)" fill="#8353f2"/><path d="M448.983,427.58a121.66,121.66,0,0,0,1.9,14.633c.478.1.959.205,1.442.331A124.186,124.186,0,0,0,448.983,427.58Z" transform="translate(-49.395 -209.881)" fill="#bbb1de"/><path d="M451.5,438.173a3.168,3.168,0,0,0-1.407-.478c.735,4.838,1.718,9.683,2.626,14.477a3.977,3.977,0,0,0,1.286-1.914C454.67,447.736,452.934,439.205,451.5,438.173Z" transform="translate(-49.464 -210.509)" fill="#c7c7c7"/><path d="M452.187,449.461c.507,2.636,1.016,5.26,1.472,7.864.768-.229,1.227-.447,1.237-.643a24.06,24.06,0,0,0-.764-5.7A2.651,2.651,0,0,0,452.187,449.461Z" transform="translate(-49.594 -211.238)" fill="#d0c4f8"/><path d="M454.645,457.056c-.161-.422-.976-.725-2.21-.924,2.49,13.689,3.846,26.861-3.573,38.158-2.265,3.45-6.654,4.887-11.776,5.619a7,7,0,0,0,3.789,2.141c5.331,1.219,16.835-2.945,17.293-12.838S455.61,459.573,454.645,457.056Z" transform="translate(-48.658 -211.652)" fill="#886de4"/><path d="M394.032,360.277c-1.157-35.528,49.506-60.249,79.419-29.953,25.822,26.153,10.654,75.334-27.516,73.61,3.691,2.626,1.238,10.663-4.127,10.165-20.155-1.87-57.428-27.705-57.022-48.381C384.87,361.513,389.833,357.569,394.032,360.277Z" transform="translate(-45.414 -203.005)" fill="#ece7fd"/><path d="M476.361,388.918c-10.461,11.156-26.963,15.314-42.436,10.835,1.628,4.818,5.47,7.4,7.7,8.894s2.231,3.9,1.283,4.878c-4.449,4.571-25.871-6.539-40.4-19.728a96.7,96.7,0,0,1-17.391-21.084c3.571,19.945,37.733,42.965,56.716,44.727,5.363.5,7.816-7.538,4.127-10.165,23.236,1.05,37.947-16.766,40.077-36.769a39.664,39.664,0,0,1-9.674,18.413Z" transform="translate(-45.435 -206.342)" fill="#bbb1de"/><ellipse cx="18.008" cy="12.966" rx="18.008" ry="12.966" transform="matrix(0.763, -0.647, 0.647, 0.763, 388.753, 184.555)" fill="#bbb1de"/><path d="M432.5,314.67c35.213,9.3,39.547,57.062,22.934,70.966-12.339,10.327-48.576,2.533-61.216-29.8C394.221,336.158,410.654,316.923,432.5,314.67Z" transform="translate(-45.999 -202.88)" fill="#9d3cb0"/><path d="M417.357,372.994c-5.7-4.885-.814-13.842-5.7-19.541-3.445-4.6-10.937-2.714-16.2-4.916a37.142,37.142,0,0,0-1.238,9.4c11.083,28.339,40.3,37.824,55.65,32.772-2.176-4.173-4.033-8.9-6.458-12.834C439.341,371.366,425.5,380.323,417.357,372.994Z" transform="translate(-45.999 -204.98)" fill="#8d1c9f"/><path d="M462.253,341.192a83.314,83.314,0,0,1,.563,29.34A18.18,18.18,0,0,0,442.23,387.6a41.315,41.315,0,0,1-20.01-1.187c13.581,6.754,28.029,6.665,34.953.87C467.164,378.92,469.57,358.314,462.253,341.192Z" transform="translate(-47.736 -204.524)" fill="#8d1c9f"/><path d="M449.23,323.581A40.391,40.391,0,0,0,432.5,314.67c-21.849,2.251-38.282,21.488-38.282,41.171a56.073,56.073,0,0,0,4.44,8.922c-.976-14.653,3.471-27.525,12.1-35.5-1.231,2.492-1.4,5.092-.2,7.177,2.345,4.055,8.959,4.618,14.782,1.256s8.644-9.373,6.3-13.429a6.779,6.779,0,0,0-4.1-3.042C433.927,320.222,441.207,320.873,449.23,323.581Z" transform="translate(-45.999 -202.88)" fill="#dbb7e2"/><path d="M434.558,315.273c-.674-.214-1.356-.419-2.055-.6-21.849,2.251-38.282,21.488-38.282,41.171.068.174.147.338.217.511C397.092,334.907,408.292,319.021,434.558,315.273Z" transform="translate(-45.999 -202.88)" fill="#fff"/><ellipse cx="15.925" cy="11.466" rx="15.925" ry="11.466" transform="matrix(0.763, -0.647, 0.647, 0.763, 390.972, 183.952)" fill="#a591ea"/><ellipse cx="12.198" cy="8.782" rx="12.198" ry="8.782" transform="matrix(0.763, -0.647, 0.647, 0.763, 397.287, 185.633)" fill="#7f61e3"/></g><g transform="translate(352 229.947)"><path d="M507.931,219.4a233.366,233.366,0,0,0-39.978-20.658C418.378,178.956,355,164.691,306.1,193.311c-24.308,14.228-37.12,41.5-61.251,56.219-23.675,14.445-52.094,20.928-72.837,40.119-46.364,42.894-35.942,141.167,6.547,183.4,26.815,26.652,68.282,37.118,100.055,57.868,38.944,25.431,76.821,52.74,122.714,64.085,41.612,10.288,80.119,1.3,111.592-28.2,24.669-23.125,53.921-50.328,73.325-77.9,38.822-55.154,29.27-137.366-3.932-192.881A235.81,235.81,0,0,0,507.931,219.4Z" transform="translate(-141.67 -177.158)" fill="#192442"/><ellipse cx="9.107" cy="9.107" rx="9.107" ry="9.107" transform="translate(40.102 126.103)" fill="#8353f2"/><ellipse cx="1.883" cy="1.883" rx="1.883" ry="1.883" transform="translate(176.442 105.121)" fill="#a9a3ff"/><ellipse cx="4.236" cy="4.236" rx="4.236" ry="4.236" transform="translate(223.321 21.821)" fill="#8353f2"/><ellipse cx="3.337" cy="3.337" rx="3.337" ry="3.337" transform="translate(323.003 51.48)" fill="#8353f2"/><ellipse cx="2.964" cy="2.964" rx="2.964" ry="2.964" transform="translate(336.18 287.324)" fill="#8353f2"/><ellipse cx="6.893" cy="6.893" rx="6.893" ry="6.893" transform="translate(242.892 363.568)" fill="#8353f2"/><ellipse cx="3.282" cy="3.282" rx="3.282" ry="3.282" transform="translate(442.058 223.518)" fill="#8353f2"/><ellipse cx="4.621" cy="4.621" rx="4.621" ry="4.621" transform="translate(101.523 239.223)" fill="#8353f2"/><ellipse cx="3.789" cy="3.789" rx="3.789" ry="3.789" transform="translate(204.975 196.498)" fill="#a9a3ff"/><ellipse cx="3.426" cy="3.426" rx="3.426" ry="3.426" transform="translate(369.688 149.944)" fill="#8353f2"/><path d="M753.011,406.978c-15.885,0-25.869-8.853-35.527-17.416-7.648-6.781-15.556-13.793-26.6-16.578-14.106-3.558-24.357,2.077-35.209,8.043-10.529,5.788-21.417,11.774-36.513,10.464-29.119-2.527-45.7-27.736-61.738-52.115-13.777-20.944-26.79-40.727-46.47-44.462-11.85-2.25-49.585,2.231-66.952,50.679l-5.984-2.145c16.835-46.964,54.4-58.524,74.122-54.779,22.325,4.238,36.7,26.086,50.6,47.214,15.2,23.114,30.926,47.014,56.977,49.275,13.175,1.144,22.757-4.124,32.9-9.7,11.452-6.3,23.295-12.806,39.827-8.636,12.544,3.164,21.041,10.7,29.259,17.985,9.213,8.169,17.909,15.883,31.472,15.815a39.8,39.8,0,0,0,15.673-3.413l2.569,5.815a46.154,46.154,0,0,1-18.187,3.955Z" transform="translate(-160.233 -184.232)" fill="#50e2aa"/><path d="M395.11,437.305c-2.447,2.307-1.341,13.52,0,16.578,1.944,4.434,53.046,3.752,55.822-.694,1.987-3.184,2.318-14.2,0-17.447S398.481,434.122,395.11,437.305Z" transform="translate(-157.297 -193.084)" fill="#a79fbf"/><path d="M448.9,452.711c-1.705,1.3-5.2,1.595-12.118,2.128-11.819.91-13.062-.179-13.591-.818-1.644-1.986-.151-4.227-1.638-11.382a42.133,42.133,0,0,0-1.146-4.339c.112,4.522.036,8.312-.083,11.217-.07,1.738-.154,3.131-1.146,4.258-1.384,1.573-3.694,1.667-6.713,1.555-8.432-.312-12.649-.469-15.312-2.62a13,13,0,0,1-3.189-3.846,21.666,21.666,0,0,0,1.157,5.286c1.944,4.434,53.046,3.752,55.822-.694.786-1.259,1.313-3.744,1.518-6.488A10.45,10.45,0,0,1,448.9,452.711Z" transform="translate(-157.316 -193.352)" fill="#cac1ea"/><path d="M331.887,463.292a210.213,210.213,0,0,1,5.734-40.427c2.081-8.625,32.565,1.04,29.74,6.989-4.552,9.583-6.5,26.5-6.886,35.235C354.05,469.772,338.136,470.795,331.887,463.292Z" transform="translate(-153.466 -192.182)" fill="#ede7ff"/><path d="M360.469,467.988a31.751,31.751,0,0,0,.046,5.211c2.193,4.221,11.505,8.01,8.885,12.416-1.394,2.345-5.744,2.454-10.372.074-.2,3.329.586,13.212-2.973,16.357-5.159,4.562-15.316,3.421-20.819-7.879-2.734-5.618-3.792-15.8-3.354-27.975C338.13,473.694,354.043,472.672,360.469,467.988Z" transform="translate(-153.46 -195.082)" fill="#8353f2"/><path d="M337.615,422.866a210.212,210.212,0,0,0-5.734,40.427c-.309,8.572.129,16.148,1.366,21.846-1.366-21.846,4.221-46.524,16.389-65.276C343.728,418.9,338.44,419.447,337.615,422.866Z" transform="translate(-153.46 -192.182)" fill="#efe9ff"/><path d="M333.878,465.174c1.918-16,7.207-32.125,15.764-45.316-3.861-.416-9.38-1.45-11.789,2.345a200.864,200.864,0,0,0-5.966,41.084A11.941,11.941,0,0,0,333.878,465.174Z" transform="translate(-153.466 -192.181)" fill="#efe9ff"/><path d="M331.81,468.766a87.584,87.584,0,0,0,1.434,19.271,110.55,110.55,0,0,1,.626-19.959,11.94,11.94,0,0,1-1.991-1.886C331.848,467.06,331.825,467.908,331.81,468.766Z" transform="translate(-153.458 -195.082)" fill="#ede7ff"/><path d="M332.549,455c.408-4.478.991-9.114,1.733-13.8,6.423,6.728,15.844,10,27.709,10.465-.208,1.38-.39,2.739-.553,4.067C350.929,460.025,337.756,459.131,332.549,455Z" transform="translate(-153.507 -193.532)" fill="#fff"/><path d="M334.04,448.91a8.486,8.486,0,0,0,3.12,1.266,16.382,16.382,0,0,0,1.637.375c.539.123,1.109.216,1.655.325s1.126.164,1.669.281,1.126.171,1.678.257c1.118.177,2.235.37,3.366.5l6.793,1.015c2.287.341,4.584.7,6.974,1.282l.033.008a.1.1,0,0,1-.017.2A66.631,66.631,0,0,1,346.86,454a47.166,47.166,0,0,1-6.894-1.534,22.632,22.632,0,0,1-3.3-1.288,6.826,6.826,0,0,1-2.808-2.157.1.1,0,0,1,.029-.14.1.1,0,0,1,.115,0Z" transform="translate(-153.587 -194.007)" fill="#d7cef2"/><path d="M383.416,433.7c4.771,4.415,69.759,1.313,72.379.327,8.515,4.585,9.528,24.154,28.657,24.154,9.088,0,19.159-10.071,19.159-10.071,10.153,15.065,20.141,9.17,23.58,5.4s3.767-14.246-1.474-23.744-12.773-15.557-19.814-15.557-15.557,9.17-15.557,9.17c-.71-4.033-.734-30.094-5.076-39.3-5.709-12.1-12.609-19.732-37.664-19.979s-64.022,8.342-67.794,11.791C371.216,383.754,377.93,428.623,383.416,433.7Z" transform="translate(-156.183 -188.75)" fill="#ede7ff"/><path d="M448.543,364.1c-18.144-.178-43.583,4.276-57.668,8.057-.7,5.09,3.544,22.47,7.863,24.942,17.58,10.062,83.491-4.567,85.722-12.716.417-1.528.386-4.513-2.554-7.858C476.4,368.883,467.877,364.293,448.543,364.1Z" transform="translate(-157.119 -188.75)" fill="#a79fbf"/><path d="M384.748,351.6c1.964-3.871,81.076-13.108,85.252-9.982s5.159,27.2,2.947,30.883-81.55,14.983-83.515,12.527S382.766,355.5,384.748,351.6Z" transform="translate(-156.714 -187.317)" fill="#ede7ff"/><path d="M439.4,344.306c-.657.822,3.564,33.528,4.912,34.143s30.163-4.609,31.318-6.141c3.009-3.991.676-28-2.312-30.274C472.619,341.507,440.5,342.914,439.4,344.306Z" transform="translate(-160.128 -187.375)" fill="#a79fbf"/><ellipse cx="8.08" cy="7.991" rx="8.08" ry="7.991" transform="translate(257.167 174.53) rotate(-82.068)" fill="#cac1ea"/><ellipse cx="8.08" cy="7.991" rx="8.08" ry="7.991" transform="translate(256.499 174.273) rotate(-82.068)" fill="#a79fbf"/><path d="M476.347,456.565a18.833,18.833,0,0,0,8.84,4.9c11.564-5.034,15.786-21.9,11.4-34.165C496.423,437.313,484.3,454.169,476.347,456.565Z" transform="translate(-162.424 -192.67)" fill="#fff"/><path d="M479.7,458.985a20.079,20.079,0,0,0,7.962-5.112,29.641,29.641,0,0,0,5.545-7.679,34.913,34.913,0,0,0,2.9-9.174,49.548,49.548,0,0,0,.613-9.717.078.078,0,0,1,.073-.082.079.079,0,0,1,.082.07,49.988,49.988,0,0,1,0,9.839,35.889,35.889,0,0,1-2.543,9.581,23.355,23.355,0,0,1-5.6,8.285,15.123,15.123,0,0,1-9,4.142.079.079,0,0,1-.083-.073.082.082,0,0,1,.058-.081Z" transform="translate(-162.628 -192.665)" fill="#d7cef2"/><path d="M533.3,433.083c-5.24-9.5-12.773-15.557-19.814-15.557s-15.557,9.17-15.557,9.17c6.877,2.292,16.867,18.009,9.106,28.3a46.692,46.692,0,0,0,4.158-3.564c10.153,15.065,20.141,9.17,23.58,5.4S538.538,442.581,533.3,433.083Z" transform="translate(-163.762 -192.064)" fill="#8353f2"/><path d="M517.081,456.678c-3.275-1.474-9.661-6.386-10.153-17.8-.819,4.309-7.269,15.634-20.142,16.544s-25.055-16.1-23.741-18.963,16.048-9.423,18.238-26.617c-4.2,11.3-19.548,20.142-33.574,21.149-1.474-7.934-7.193-11.978-15.178-10.368s-12.226,9.849-17.353,10.343c-3.716.356-23.477-3.266-36.17-6.719,1.381,6.146,3.047,10.837,4.612,12.288,4.771,4.415,69.759,1.313,72.379.327,8.515,4.585,9.528,24.154,28.657,24.154,9.088,0,19.159-10.071,19.159-10.071,10.153,15.065,20.141,9.17,23.58,5.4A9.991,9.991,0,0,0,529.5,451.7C526.441,457.265,520.205,458.084,517.081,456.678Z" transform="translate(-156.388 -191.587)" fill="#a79fbf"/><path d="M454.4,467.732a231.457,231.457,0,0,0-6.315-44.52c-2.292-9.5-35.862,1.146-32.751,7.692,5.014,10.553,7.162,29.183,7.584,38.8C430,474.867,447.521,475.995,454.4,467.732Z" transform="translate(-158.628 -192.182)" fill="#ede7ff"/><path d="M422.751,472.9a35.2,35.2,0,0,1-.051,5.74c-2.415,4.646-12.67,8.817-9.784,13.673,1.535,2.579,6.325,2.7,11.422.082.218,3.667-.645,14.549,3.275,18.009,5.684,5.024,16.867,3.767,22.926-8.678,3.012-6.191,4.176-17.4,3.694-30.807C447.352,479.188,429.827,478.059,422.751,472.9Z" transform="translate(-158.459 -195.375)" fill="#8353f2"/><path d="M454.126,458.6c-.45-4.931-1.092-10.036-1.911-15.2-7.072,7.41-17.447,11.018-30.514,11.525.229,1.52.431,3.017.61,4.479C433.885,464.134,448.392,463.149,454.126,458.6Z" transform="translate(-159.036 -193.668)" fill="#fff"/><path d="M452.845,452.016a10.591,10.591,0,0,1-.435.979l-.657.855a12.055,12.055,0,0,1-1.59,1.389,18.5,18.5,0,0,1-3.611,1.991,29.561,29.561,0,0,1-3.829,1.313c-1.3.325-2.613.583-3.928.8-.657.094-1.324.159-1.986.213s-1.323.148-1.989.144a36.907,36.907,0,0,1-3.985-.075,26.782,26.782,0,0,1-7.821-1.657l-.032-.012a.114.114,0,0,1,.049-.22,73.046,73.046,0,0,0,15.428-.69,51.883,51.883,0,0,0,7.557-1.565,24.509,24.509,0,0,0,3.606-1.345,7.3,7.3,0,0,0,3.022-2.24.116.116,0,0,1,.2.11Z" transform="translate(-159.11 -194.192)" fill="#d7cef2"/><path d="M406.424,360.349c22.981,7.7,21.5,69.106-15.337,73.043Z" transform="translate(-157.137 -188.518)" fill="#a78fee"/><path d="M419.89,356.837a5.032,5.032,0,0,1-4.468-2.708c-11.6-22.247-28.158-29.475-36.206-27.5-4.156,1.019-6.264,4.485-6.264,10.306a5.034,5.034,0,1,1-10.068,0c0-10.438,5.21-17.946,13.936-20.084,13.447-3.292,34.09,6.856,47.527,32.628a5.036,5.036,0,0,1-4.459,7.362Z" transform="translate(-155.388 -185.783)" fill="#fff"/><path d="M376.863,328.116a5.1,5.1,0,0,0-.063-1.3c-.026-.141-.057-.281-.094-.419a7.194,7.194,0,0,0-4.393-4.763,5.487,5.487,0,0,0-3.167-.168,17.084,17.084,0,0,0-1.327,1.407,4.766,4.766,0,0,1,4.237-.507,6.329,6.329,0,0,1,3.983,4.6,4.107,4.107,0,0,1-.094,1.93A6.962,6.962,0,0,1,376.863,328.116Z" transform="translate(-155.694 -186.097)" fill="#d7cef2"/><path d="M374.254,331.3a5.286,5.286,0,0,0-.432-1.032c-.069-.125-.144-.247-.223-.366a7.2,7.2,0,0,0-5.693-3.107,5.5,5.5,0,0,0-2.986.809c-.206.469-.4.953-.573,1.45a4.73,4.73,0,0,1,3.549-1.486,6.334,6.334,0,0,1,5.253,3.076,4.063,4.063,0,0,1,.54,2.1,10,10,0,0,1,.565-1.447Z" transform="translate(-155.479 -186.438)" fill="#d7cef2"/><path d="M372.96,338a4.822,4.822,0,0,0-1.327-2.33,7.153,7.153,0,0,0-6.649-1.709,5.628,5.628,0,0,0-1.914.938c-.039.375-.084.745-.11,1.126a4.749,4.749,0,0,1,2.228-1.313,6.34,6.34,0,0,1,5.9,1.511,3.94,3.94,0,0,1,1.073,3.946l.281.075a4.992,4.992,0,0,0,.522-2.222Z" transform="translate(-155.393 -186.868)" fill="#d7cef2"/><path d="M373.667,335.229l.144.086c.025-.178.054-.354.085-.526a4.482,4.482,0,0,1-.23.44Z" transform="translate(-156.057 -186.933)" fill="#d7cef2"/><path d="M406.708,336.165a7.187,7.187,0,0,0,4.092-5.011,5.607,5.607,0,0,0,0-2.27q-.6-.548-1.209-1.07a4.713,4.713,0,0,1,.45,3.189,6.327,6.327,0,0,1-3.988,4.584,3.929,3.929,0,0,1-3.137-.211q.673.574,1.346,1.19a4.941,4.941,0,0,0,2.036-.247C406.437,336.274,406.574,336.221,406.708,336.165Z" transform="translate(-157.871 -186.501)" fill="#d7cef2"/><path d="M384,324.584a7.186,7.186,0,0,0-.713-6.431,5.52,5.52,0,0,0-2.049-1.823c-.608.047-1.205.114-1.792.208a4.723,4.723,0,0,1,3.2,2.049,6.326,6.326,0,0,1,.484,6.055,4,4,0,0,1-1.64,1.774,12.533,12.533,0,0,1,1.383-.094,5.081,5.081,0,0,0,.951-1.346Q383.916,324.786,384,324.584Z" transform="translate(-156.415 -185.788)" fill="#d7cef2"/><path d="M428.227,352.3a4.736,4.736,0,0,1-.74,3.7,6.336,6.336,0,0,1-5.469,2.679,4.366,4.366,0,0,1-.715-.119,4.963,4.963,0,0,0,4.5-.034,7.308,7.308,0,0,0,1.026-.7,5.03,5.03,0,0,0,1.4-5.521Z" transform="translate(-159.011 -188.019)" fill="#d7cef2"/><path d="M411.958,342.534c.143-.026.286-.058.428-.094a7.2,7.2,0,0,0,4.765-4.38,5.627,5.627,0,0,0,.325-2.086c-.32-.383-.643-.75-.966-1.126a4.716,4.716,0,0,1-.087,2.956,6.327,6.327,0,0,1-4.6,3.972,3.93,3.93,0,0,1-3.846-1.371h0q.9.981,1.782,2.04a4.913,4.913,0,0,0,2.2.088Z" transform="translate(-158.184 -186.937)" fill="#d7cef2"/><path d="M400.393,331.539q.193-.1.375-.216a7.185,7.185,0,0,0,3.258-5.588,5.534,5.534,0,0,0-.524-2.611q-.838-.546-1.674-1.047a4.726,4.726,0,0,1,1.427,3.626,6.321,6.321,0,0,1-3.22,5.15,4,4,0,0,1-2.477.438q.586.375,1.177.776A5.052,5.052,0,0,0,400.393,331.539Z" transform="translate(-157.538 -186.145)" fill="#d7cef2"/><path d="M378.312,327.265a8.443,8.443,0,0,1,1.313-.477,5.012,5.012,0,0,0,.552-1.647c.022-.142.037-.281.049-.428a7.191,7.191,0,0,0-2.586-5.936,5.517,5.517,0,0,0-2.417-1.119q-.827.316-1.6.7a4.716,4.716,0,0,1,3.538,1.02,6.326,6.326,0,0,1,2.251,5.642,3.978,3.978,0,0,1-1.1,2.241Z" transform="translate(-156.054 -185.871)" fill="#d7cef2"/><path d="M417.249,350.227c.146-.007.293-.02.438-.038a7.2,7.2,0,0,0,5.3-3.714,5.6,5.6,0,0,0,.612-2.126c-.281-.433-.563-.852-.844-1.275a4.707,4.707,0,0,1-.457,3.048,6.33,6.33,0,0,1-5.09,3.332,3.925,3.925,0,0,1-3.071-1.169c.358.529.714,1.067,1.066,1.62a4.95,4.95,0,0,0,2.042.322Z" transform="translate(-158.567 -187.447)" fill="#d7cef2"/><path d="M388.519,326.022q.14-.164.266-.341a7.185,7.185,0,0,0,.91-6.4,5.467,5.467,0,0,0-2.028-2.668c-.893-.144-1.774-.247-2.638-.3l-.007.043a4.887,4.887,0,0,1,3.946,3.189,6.323,6.323,0,0,1-1.038,5.983,4.147,4.147,0,0,1-1.458,1.108q.556.1,1.13.241a5.185,5.185,0,0,0,.916-.849Z" transform="translate(-156.761 -185.787)" fill="#d7cef2"/><path d="M393.978,327.517a4.1,4.1,0,0,1-1.843.82q.546.231,1.1.491a5.15,5.15,0,0,0,1.219-.7c.114-.087.225-.181.333-.281A7.187,7.187,0,0,0,397,321.77a5.481,5.481,0,0,0-1.284-2.872q-1.344-.552-2.67-.988l-.011.027a4.89,4.89,0,0,1,3.2,3.94A6.326,6.326,0,0,1,393.978,327.517Z" transform="translate(-157.202 -185.886)" fill="#d7cef2"/><path d="M354.836,339.167c.563-6.859,25.726-4.784,25.162,2.071Z" transform="translate(-154.889 -186.943)" fill="#a79fbf"/><path d="M354.836,339.167l5.084.418A46.317,46.317,0,0,1,372.2,335.71C364.933,334.1,355.185,334.926,354.836,339.167Z" transform="translate(-154.889 -186.943)" fill="#efe9ff"/><path d="M383.1,343.858c-33.651-15.966-73.008,6.388-73.2,48.145s58.707,56,84.006,35.125S416.754,359.824,383.1,343.858Z" transform="translate(-152.103 -187.175)" fill="#fff"/><path d="M383.228,343.91a53.663,53.663,0,0,0-13.667-4.382,76.793,76.793,0,0,0-24.64,8.9,7.357,7.357,0,0,1,5.752,2.5c3.088,3.784,1.131,10.49-4.369,14.98s-12.464,5.06-15.552,1.277a7.442,7.442,0,0,1-1.242-6.378c-10.051,11.049-16.305,25.845-17.578,43.834,10.273,31.842,59.544,41.155,82.1,22.537C419.335,406.3,416.88,359.877,383.228,343.91Z" transform="translate(-152.228 -187.227)" fill="#ede7ff"/><path d="M393.472,417.8c-16.77-7.215-6.819-39.167,11.015-31.447C423.074,394.4,412.074,425.8,393.472,417.8Z" transform="translate(-156.752 -190.057)" fill="#a78fee"/><path d="M316.18,417.584c13.549,13.582,51.589,11.537,71.733-7.129l13.866,5.9C393.428,461.055,326.259,458.6,316.18,417.584Z" transform="translate(-152.492 -191.625)" fill="#9e36b3"/><path d="M405.793,416.35l-13.866-5.9a52.96,52.96,0,0,1-10.974,7.734c-.448,7.7,2.891,15.674,9.349,19.2a15.532,15.532,0,0,0,3.1,1.331,38.473,38.473,0,0,0,12.391-22.366Z" transform="translate(-156.506 -191.625)" fill="#8d10a0"/><path d="M386.273,416.962c-16.338,15.606-48.484,23.544-66.281,6.546C333.748,433.354,365.922,431.143,386.273,416.962Z" transform="translate(-152.728 -192.029)" fill="#efe9ff"/><path d="M371.741,443.987a52.912,52.912,0,0,1-33.8-.26c23.745,12.68,59.262,4.707,65.19-27.006l-.639-.272C398.081,425.071,388.835,438.268,371.741,443.987Z" transform="translate(-153.842 -191.997)" fill="#8d10a0"/><path d="M397.6,416.54c-14.559-3.733-6.721-32.939,8.348-27.662C422.711,394.751,415,421,397.6,416.54Z" transform="translate(-157.062 -190.248)" fill="#7f5ce6"/><ellipse cx="6.939" cy="9.759" rx="6.939" ry="9.759" transform="translate(296.252 215.64) rotate(-4.042)" fill="#cac1ea"/><ellipse cx="5.951" cy="8.368" rx="5.951" ry="8.368" transform="translate(298.322 216.889) rotate(-4.042)" fill="#a79fbf"/><ellipse cx="8.709" cy="7.683" rx="8.709" ry="7.683" transform="translate(292.809 185.943) rotate(-86.56)" fill="#cac1ea"/><ellipse cx="7.468" cy="6.588" rx="7.468" ry="6.588" transform="translate(295.068 184.835) rotate(-86.56)" fill="#a79fbf"/><path d="M467.678,418.573c-4.056,0-4.738-10.125-.419-10.358,14.239-.769,20.542-9.807,20.509-17.85-.034-8.525-7.208-17.969-23.226-18.846-5.584-.306-5.009-10.659.767-10.347,9.952.538,18.321,4.1,24.238,9.725a26.826,26.826,0,0,1,8.6,19.427c.05,12.4-9.329,26.531-30.034,28.233C467.965,418.567,467.826,418.573,467.678,418.573Z" transform="translate(-161.451 -188.569)" fill="#fff"/><path d="M471.047,410.964c-.281.044-.563.086-.844.123-.975,3.016-.226,7.833,1.979,10.13.323-.052.639-.111.955-.169C470.256,419.071,469.92,413.786,471.047,410.964Z" transform="translate(-162.017 -191.657)" fill="#d7cef2"/><path d="M470.157,361.66c-.335-.052-.669-.1-1.008-.148-2.439,2.329-3.043,7.286-1.356,10.287.333.042.657.094.981.144C466.737,369.192,467.406,363.609,470.157,361.66Z" transform="translate(-161.834 -188.59)" fill="#d7cef2"/><path d="M486.075,402.661a28.372,28.372,0,0,0,8.946,5.169c.143-.208.281-.42.414-.631-3.127-.6-7.41-3.746-8.944-5.124C486.356,402.27,486.219,402.466,486.075,402.661Z" transform="translate(-163.027 -191.106)" fill="#d7cef2"/><path d="M488.795,387.173a43.771,43.771,0,0,1,9.872-3.206c-.066-.208-.136-.416-.207-.623a34.846,34.846,0,0,0-9.88,3.18C488.656,386.74,488.728,386.961,488.795,387.173Z" transform="translate(-163.183 -189.944)" fill="#d7cef2"/><path d="M489.32,395.1q-.061.358-.136.716c2.72.07,8.119.606,9.512.516.345,0,.647-.009.923-.024.036-.233.068-.469.094-.7C497.345,395.734,492.081,395.185,489.32,395.1Z" transform="translate(-163.22 -190.673)" fill="#d7cef2"/><path d="M480.791,407.5c-.213.134-.429.265-.65.393a16,16,0,0,0,5.291,8.757c.22-.129.431-.265.647-.4C483.323,414.6,481.064,409.681,480.791,407.5Z" transform="translate(-162.66 -191.442)" fill="#d7cef2"/><path d="M483.68,378.873c.17.161.337.324.5.489,1.483-2.328,5.909-5.809,8.119-6.416-.163-.176-.326-.352-.494-.525a17.031,17.031,0,0,0-8.124,6.452Z" transform="translate(-162.879 -189.267)" fill="#d7cef2"/><path d="M476.542,374.128c.258.109.512.219.762.335-.588-2.733,2.042-7.638,4.553-9.246q-.376-.18-.759-.352C478.481,366.725,476.24,371.135,476.542,374.128Z" transform="translate(-162.435 -188.798)" fill="#d7cef2"/><ellipse cx="32.308" cy="20.806" rx="32.308" ry="20.806" transform="translate(87.809 147.523)" fill="#efe9ff"/><ellipse cx="3.132" cy="3.132" rx="3.132" ry="3.132" transform="translate(103.011 165.196)" fill="#b1a5d7"/><ellipse cx="3.132" cy="3.132" rx="3.132" ry="3.132" transform="translate(116.985 165.196)" fill="#b1a5d7"/><ellipse cx="3.132" cy="3.132" rx="3.132" ry="3.132" transform="translate(130.957 165.196)" fill="#b1a5d7"/></g></g></svg>