<svg xmlns="http://www.w3.org/2000/svg" width="677.049" height="115.91" viewBox="0 0 677.049 115.91"><g transform="translate(-1070.072 -532.233)"><path d="M512.371,41.636,477.494,6.759a23.073,23.073,0,0,0-32.634,0L432.743,18.874,420.627,6.759a23.074,23.074,0,0,0-32.635,0L353.115,41.636a23.077,23.077,0,0,0,0,32.635l34.878,34.878a23.074,23.074,0,0,0,32.635,0l12.116-12.116,12.117,12.116a23.073,23.073,0,0,0,32.634,0l34.878-34.878a23.075,23.075,0,0,0,0-32.635M408.829,97.351a6.392,6.392,0,0,1-9.037,0L364.914,62.473a6.388,6.388,0,0,1,0-9.037l34.878-34.878a6.39,6.39,0,0,1,9.037,0l12.116,12.117L409.981,41.636a23.1,23.1,0,0,0,0,32.635l10.963,10.963Zm34.878-43.914a6.39,6.39,0,0,1,0,9.037L432.743,73.435,421.781,62.473a6.4,6.4,0,0,1,0-9.037l10.963-10.963Zm11.7-11.894L444.542,30.674l12.117-12.117a6.39,6.39,0,0,1,9.037,0l34.878,34.878a6.392,6.392,0,0,1,0,9.037L465.7,97.35a6.391,6.391,0,0,1-9.037,0L444.542,85.235,455.5,74.272a23.075,23.075,0,0,0,.2-32.433" transform="translate(975.993 532.234)" fill="#8353f2"/><path d="M476.564,42.044,464.781,53.827H488.3Z" transform="translate(943.95 520.857)" fill="#5e3abe"/><path d="M464.781,128.623H488.3L476.563,116.84Z" transform="translate(943.95 500.62)" fill="#5e3abe"/><path d="M80.008,41.9H32.595a32.095,32.095,0,0,0,0,64.19H80.008a32.095,32.095,0,0,0,0-64.19Zm0,53.248H32.595a21.153,21.153,0,0,1,0-42.307H80.008a21.153,21.153,0,0,1,0,42.307Z" transform="translate(1069.572 520.896)" fill="#50e2aa"/><path d="M363.145,72.93a21.246,21.246,0,0,0-11.616-13.44,23.078,23.078,0,0,0,1.587,30.878l3.979,3.98a21.1,21.1,0,0,0,6.873-15.591c0-.505-.024-1.005-.059-1.5a6.349,6.349,0,0,1-.867-3.2,6.427,6.427,0,0,1,.1-1.121" transform="translate(975.993 516.138)" fill="#8353f2"/><path d="M369.231,79.035a6.347,6.347,0,0,0,.867,3.2,21.015,21.015,0,0,0-.764-4.326,6.426,6.426,0,0,0-.1,1.121" transform="translate(969.804 511.152)" fill="#fff"/><path d="M340.212,58.671l-6.1,6.1a6.34,6.34,0,0,0-1.77,3.4A21.008,21.008,0,0,1,333.1,72.5c.035.5.059,1,.059,1.5a21.181,21.181,0,0,1-21.153,21.153H264.595a21.153,21.153,0,0,1,0-42.307h47.413a21.016,21.016,0,0,1,8.714,1.886,23.477,23.477,0,0,1,1.587-1.756l6.392-6.392A31.941,31.941,0,0,0,312.008,41.9H264.595a32.095,32.095,0,0,0,0,64.19h47.413a32.1,32.1,0,0,0,28.2-47.423Z" transform="translate(1006.799 520.896)" fill="#50e2aa"/><path d="M124.388,91.181a8.388,8.388,0,0,1,0-16.777h95.555a8.388,8.388,0,0,1,0,16.777Z" transform="translate(1038.321 512.103)" fill="#50e2aa"/><path d="M219.943,91.931H124.388a9.138,9.138,0,0,1,0-18.277h95.555a9.138,9.138,0,1,1,0,18.277ZM124.388,75.154a7.638,7.638,0,0,0,0,15.277h95.555a7.638,7.638,0,1,0,0-15.277Z" transform="translate(1038.321 512.103)" fill="#fff"/><path d="M219.808,74.633a8.024,8.024,0,0,1,0,16.047H124.253a8.024,8.024,0,0,1,0-16.047Zm0-.729H124.253a8.753,8.753,0,0,0,0,17.506h95.555a8.753,8.753,0,0,0,0-17.506" transform="translate(1038.456 512.237)" fill="#50e2aa"/><path d="M219.808,92.16H124.253a9.5,9.5,0,0,1,0-19.006h95.555a9.5,9.5,0,1,1,0,19.006ZM124.253,75.383a7.274,7.274,0,0,0,0,14.547h95.555a7.274,7.274,0,0,0,0-14.547Z" transform="translate(1038.456 512.237)" fill="#fff"/><path d="M775.693,74h0a32.094,32.094,0,0,0,32.095,32.095H855.2a32.095,32.095,0,0,0,0-64.19H807.788A32.094,32.094,0,0,0,775.693,74Zm10.941,0a21.177,21.177,0,0,1,21.153-21.153H855.2a21.153,21.153,0,0,1,0,42.307H807.788A21.177,21.177,0,0,1,786.634,74Z" transform="translate(859.826 520.896)" fill="#50e2aa"/><path d="M623.3,41.9H575.892A31.948,31.948,0,0,0,559.2,46.583l6.392,6.393a23.347,23.347,0,0,1,1.587,1.756,21.018,21.018,0,0,1,8.714-1.886H623.3a21.153,21.153,0,0,1,0,42.307H575.892a21.063,21.063,0,0,1-14.13-5.432l.131-.131A21.1,21.1,0,0,1,555.018,74c0-.505.024-1.006.059-1.5a21,21,0,0,1,.764-4.325,6.344,6.344,0,0,0-1.769-3.4l-6.1-6.1a32.067,32.067,0,0,0,6.041,38.522l-.141.141a31.975,31.975,0,0,0,22.024,8.76H623.3a32.095,32.095,0,0,0,0-64.19Z" transform="translate(922.495 520.896)" fill="#50e2aa"/><path d="M667.581,91.181a8.388,8.388,0,1,1,0-16.777h95.555a8.388,8.388,0,0,1,0,16.777Z" transform="translate(891.348 512.103)" fill="#50e2aa"/><path d="M763.136,91.931H667.581a9.138,9.138,0,1,1,0-18.277h95.555a9.138,9.138,0,0,1,0,18.277ZM667.581,75.154a7.638,7.638,0,1,0,0,15.277h95.555a7.638,7.638,0,0,0,0-15.277Z" transform="translate(891.348 512.103)" fill="#fff"/><path d="M763,74.633a8.024,8.024,0,0,1,0,16.047H667.446a8.024,8.024,0,0,1,0-16.047Zm0-.729H667.446a8.753,8.753,0,0,0,0,17.506H763A8.753,8.753,0,0,0,763,73.9" transform="translate(891.483 512.237)" fill="#50e2aa"/><path d="M763,92.16H667.446a9.5,9.5,0,0,1,0-19.006H763a9.5,9.5,0,0,1,0,19.006ZM667.446,75.383a7.274,7.274,0,0,0,0,14.547H763a7.274,7.274,0,0,0,0-14.547Z" transform="translate(891.483 512.237)" fill="#fff"/></g></svg>