<svg xmlns="http://www.w3.org/2000/svg" xmlns:xlink="http://www.w3.org/1999/xlink" width="608" height="299" viewBox="0 0 608 299">
  <defs>
    <clipPath id="clip-path">
      <rect id="Rectangle_1049" data-name="Rectangle 1049" width="25.6" height="43.677" fill="#8353f2" stroke="#8353f2" stroke-width="0.5"/>
    </clipPath>
    <clipPath id="clip-path-2">
      <rect id="Rectangle_1050" data-name="Rectangle 1050" width="41.355" height="41.382" fill="#8353f2"/>
    </clipPath>
  </defs>
  <g id="Groupe_3178" data-name="Groupe 3178" transform="translate(-965 -311)">
    <path id="Tracé_2594" data-name="Tracé 2594" d="M-3106.66-1899.944h48.956v208.461h-78.626" transform="translate(4248 2258)" fill="none" stroke="#8353f2" stroke-width="2"/>
    <path id="Tracé_2595" data-name="Tracé 2595" d="M-3087.374-1899.944h-48.956v208.461h78.626" transform="translate(4489.626 2258)" fill="none" stroke="#8353f2" stroke-width="2"/>
    <circle id="Ellipse_6479" data-name="Ellipse 6479" cx="44" cy="44" r="44" transform="translate(1387 311)" fill="#303a55"/>
    <circle id="Ellipse_6485" data-name="Ellipse 6485" cx="44" cy="44" r="44" transform="translate(1485 341)" fill="#303a55"/>
    <circle id="Ellipse_6486" data-name="Ellipse 6486" cx="44" cy="44" r="44" transform="translate(1485 497)" fill="#303a55"/>
    <circle id="Ellipse_6481" data-name="Ellipse 6481" cx="44" cy="44" r="44" transform="translate(1387 522)" fill="#303a55"/>
    <path id="Tracé_2587" data-name="Tracé 2587" d="M24.575,13.932,32.38,6.126A1.24,1.24,0,0,1,34.5,7V25.822a1.24,1.24,0,0,1-2.117.876l-7.805-7.805m-18.6,8.682H20.854a3.721,3.721,0,0,0,3.721-3.721V8.971A3.721,3.721,0,0,0,20.854,5.25H5.971A3.721,3.721,0,0,0,2.25,8.971V23.854a3.721,3.721,0,0,0,3.721,3.721Z" transform="translate(1415.397 338.925)" fill="none" stroke="#fff" stroke-linecap="round" stroke-linejoin="round" stroke-width="2"/>
    <path id="Tracé_2589" data-name="Tracé 2589" d="M29.973,15.557v12.2a2.218,2.218,0,0,1-2.218,2.218H6.686a2.218,2.218,0,0,1-2.218-2.218v-12.2m12.2-9.426a3.881,3.881,0,1,0-3.881,3.881h3.881m0-3.881v3.881m0-3.881a3.881,3.881,0,1,1,3.881,3.881H16.666m0,0v19.96M3.913,15.557H30.527a1.664,1.664,0,0,0,1.663-1.663V11.676a1.664,1.664,0,0,0-1.663-1.663H3.913A1.664,1.664,0,0,0,2.25,11.676v2.218A1.664,1.664,0,0,0,3.913,15.557Z" transform="translate(1512.25 369.25)" fill="none" stroke="#fff" stroke-linecap="round" stroke-linejoin="round" stroke-width="2"/>
    <path id="Tracé_2590" data-name="Tracé 2590" d="M2.25,10h28.6M2.25,11.1h28.6M6.65,18.8h8.8m-8.8,3.3h4.4m-5.5,4.4h22a3.3,3.3,0,0,0,3.3-3.3V7.8a3.3,3.3,0,0,0-3.3-3.3h-22a3.3,3.3,0,0,0-3.3,3.3V23.2a3.3,3.3,0,0,0,3.3,3.3Z" transform="translate(1512.25 526.341)" fill="none" stroke="#fff" stroke-linecap="round" stroke-linejoin="round" stroke-width="2"/>
    <path id="Tracé_2592" data-name="Tracé 2592" d="M11.276,11.927l15.053-4.3m0,9.394V22.4a3.225,3.225,0,0,1-2.339,3.1l-1.893.541a2.585,2.585,0,1,1-1.419-4.971l3.312-.946A3.226,3.226,0,0,0,26.329,17.02Zm0,0V2.25l-15.053,4.3v14.77m0,0V26.7a3.225,3.225,0,0,1-2.339,3.1l-1.893.541a2.585,2.585,0,1,1-1.419-4.971l3.312-.946a3.226,3.226,0,0,0,2.34-3.1Z" transform="translate(1415.75 549.25)" fill="none" stroke="#fff" stroke-linecap="round" stroke-linejoin="round" stroke-width="2"/>
    <circle id="Ellipse_6482" data-name="Ellipse 6482" cx="44" cy="44" r="44" transform="translate(1154 610) rotate(180)" fill="#d1dbf7"/>
    <circle id="Ellipse_6483" data-name="Ellipse 6483" cx="44" cy="44" r="44" transform="translate(1154 402) rotate(180)" fill="#d1dbf7"/>
    <circle id="Ellipse_6487" data-name="Ellipse 6487" cx="44" cy="44" r="44" transform="translate(1053 429) rotate(180)" fill="#d1dbf7"/>
    <ellipse id="Ellipse_6488" data-name="Ellipse 6488" cx="44" cy="44.5" rx="44" ry="44.5" transform="translate(1053 577) rotate(180)" fill="#d1dbf7"/>
    <path id="Tracé_2591" data-name="Tracé 2591" d="M11.352,20.112a7.778,7.778,0,0,1,11,0M6.638,15.4a14.443,14.443,0,0,1,20.427,0M1.924,10.684a21.11,21.11,0,0,1,29.855,0M17.637,24.826l-.785.785-.785-.785a1.111,1.111,0,0,1,1.57,0Z" transform="translate(1093.576 343)" fill="none" stroke="#8353f2" stroke-linecap="round" stroke-linejoin="round" stroke-width="2"/>
    <path id="Tracé_2593" data-name="Tracé 2593" d="M17.669,32.339a14.676,14.676,0,0,0,14.206-11m-14.206,11a14.676,14.676,0,0,1-14.206-11m14.206,11C21.72,32.339,25,25.77,25,17.669S21.72,3,17.669,3m0,29.339c-4.05,0-7.335-6.569-7.335-14.669S13.619,3,17.669,3m0,0a14.665,14.665,0,0,1,12.784,7.468M17.669,3A14.665,14.665,0,0,0,4.886,10.468m25.567,0a19.483,19.483,0,0,1-12.784,4.756A19.483,19.483,0,0,1,4.886,10.468m25.567,0a14.726,14.726,0,0,1,1.423,10.873m0,0A29.207,29.207,0,0,1,17.669,25,29.207,29.207,0,0,1,3.463,21.342m0,0A14.726,14.726,0,0,1,4.886,10.468" transform="translate(990.884 366.884)" fill="none" stroke="#8353f2" stroke-linecap="round" stroke-linejoin="round" stroke-width="1.5"/>
    <line id="Ligne_1226" data-name="Ligne 1226" x2="111" transform="translate(1079.5 461.5)" fill="none" stroke="#8353f2" stroke-width="2"/>
    <line id="Ligne_1227" data-name="Ligne 1227" x2="111" transform="translate(1353.296 461.5)" fill="none" stroke="#8353f2" stroke-width="2"/>
    <ellipse id="Ellipse_6484" data-name="Ellipse 6484" cx="44.5" cy="43.5" rx="44.5" ry="43.5" transform="translate(1124 506) rotate(180)" fill="#d1dbf7"/>
    <circle id="Ellipse_6480" data-name="Ellipse 6480" cx="44" cy="44" r="44" transform="translate(1418 417)" fill="#303a55"/>
    <path id="Tracé_2588" data-name="Tracé 2588" d="M21.438,8.385a2.614,2.614,0,0,1,.641-1.533,2.632,2.632,0,0,0,.558-1.6c0-1.657-1.61-3-3.6-3s-3.6,1.343-3.6,3A2.632,2.632,0,0,0,16,6.852a2.614,2.614,0,0,1,.641,1.533h0a1.023,1.023,0,0,1-1.051,1.028q-3.337-.1-6.657-.48a77.458,77.458,0,0,1,.5,7.846,1.049,1.049,0,0,1-1.052,1.06h0A2.614,2.614,0,0,1,6.852,17.2a2.634,2.634,0,0,0-1.6-.558c-1.657,0-3,1.61-3,3.6s1.343,3.6,3,3.6a2.632,2.632,0,0,0,1.6-.558,2.614,2.614,0,0,1,1.533-.641h0a.849.849,0,0,1,.851.911A76.817,76.817,0,0,1,8.21,31.634q3.641.456,7.381.566a1.023,1.023,0,0,0,1.051-1.028h0A2.614,2.614,0,0,0,16,29.638a2.634,2.634,0,0,1-.558-1.6c0-1.655,1.612-3,3.6-3s3.6,1.343,3.6,3a2.632,2.632,0,0,1-.558,1.6,2.612,2.612,0,0,0-.64,1.533h0a.925.925,0,0,0,.975.927,76.915,76.915,0,0,0,8.678-1.007q.652-3.746.931-7.543a.851.851,0,0,0-.852-.911h0a2.614,2.614,0,0,0-1.533.641,2.632,2.632,0,0,1-1.6.558c-1.655,0-3-1.61-3-3.6s1.343-3.6,3-3.6a2.628,2.628,0,0,1,1.6.558,2.614,2.614,0,0,0,1.535.641h0a1.049,1.049,0,0,0,1.052-1.06,77.425,77.425,0,0,0-.592-8.571,76.977,76.977,0,0,1-9.22,1.1.924.924,0,0,1-.975-.927h0Z" transform="translate(1445.25 444.25)" fill="none" stroke="#fff" stroke-linecap="round" stroke-linejoin="round" stroke-width="2"/>
    <g id="Groupe_1783" data-name="Groupe 1783" transform="translate(78.863 14.231)">
      <path id="Tracé_1631" data-name="Tracé 1631" d="M416.639,17.626,401.874,2.861a9.768,9.768,0,0,0-13.816,0l-5.13,5.129L377.8,2.861a9.769,9.769,0,0,0-13.816,0L349.217,17.626a9.77,9.77,0,0,0,0,13.816l14.766,14.766a9.769,9.769,0,0,0,13.816,0l5.13-5.129,5.13,5.129a9.768,9.768,0,0,0,13.816,0l14.766-14.766a9.769,9.769,0,0,0,0-13.816M372.8,41.213a2.706,2.706,0,0,1-3.826,0L354.213,26.448a2.7,2.7,0,0,1,0-3.826L368.978,7.856a2.705,2.705,0,0,1,3.826,0l5.129,5.13-4.641,4.641a9.781,9.781,0,0,0,0,13.816l4.641,4.641ZM387.57,22.622a2.705,2.705,0,0,1,0,3.826l-4.641,4.641-4.641-4.641a2.708,2.708,0,0,1,0-3.826l4.641-4.641Zm4.955-5.035-4.6-4.6,5.13-5.13a2.705,2.705,0,0,1,3.826,0l14.766,14.766a2.706,2.706,0,0,1,0,3.826L396.879,41.213a2.706,2.706,0,0,1-3.826,0l-5.13-5.129,4.641-4.641a9.769,9.769,0,0,0,.085-13.731" transform="translate(809.922 420.234)" fill="#8353f2"/>
      <path id="Tracé_1632" data-name="Tracé 1632" d="M469.769,42.044l-4.988,4.988h9.958Z" transform="translate(728.068 391.173)" fill="#5e3abe"/>
      <path id="Tracé_1633" data-name="Tracé 1633" d="M464.781,121.828h9.958l-4.97-4.988Z" transform="translate(728.068 339.475)" fill="#5e3abe"/>
      <path id="Tracé_1636" data-name="Tracé 1636" d="M353.463,65.18a8.995,8.995,0,0,0-4.918-5.69,9.77,9.77,0,0,0,.672,13.072l1.685,1.685a8.934,8.934,0,0,0,2.91-6.6c0-.214-.01-.426-.025-.636a2.688,2.688,0,0,1-.367-1.357,2.723,2.723,0,0,1,.044-.475" transform="translate(809.922 379.114)" fill="#8353f2"/>
      <path id="Tracé_1637" data-name="Tracé 1637" d="M369.231,78.389a2.687,2.687,0,0,0,.367,1.357,8.894,8.894,0,0,0-.323-1.831,2.717,2.717,0,0,0-.044.475" transform="translate(794.111 366.38)" fill="#fff"/>
      <path id="Tracé_1638" data-name="Tracé 1638" d="M278.1,49l-2.584,2.584a2.684,2.684,0,0,0-.749,1.438,8.9,8.9,0,0,1,.323,1.831c.015.211.025.422.025.636a8.967,8.967,0,0,1-8.955,8.955H246.087a8.955,8.955,0,0,1,0-17.911H266.16a8.9,8.9,0,0,1,3.689.8,9.939,9.939,0,0,1,.672-.744l2.706-2.706A13.522,13.522,0,0,0,266.16,41.9H246.087a13.588,13.588,0,0,0,0,27.175H266.16A13.591,13.591,0,0,0,278.1,49Z" transform="translate(888.619 391.27)" fill="#50e2aa"/>
      <path id="Tracé_1639" data-name="Tracé 1639" d="M119.551,81.507a3.551,3.551,0,1,1,0-7.1H160a3.551,3.551,0,1,1,0,7.1Z" transform="translate(969.143 368.806)" fill="#50e2aa" stroke="#fff" stroke-width="1.5"/>
      <path id="Tracé_1640" data-name="Tracé 1640" d="M159.659,74.213a3.4,3.4,0,1,1,0,6.794H119.206a3.4,3.4,0,1,1,0-6.794Zm0-.309H119.206a3.706,3.706,0,1,0,0,7.411h40.454a3.706,3.706,0,1,0,0-7.411" transform="translate(969.488 369.152)" fill="#50e2aa" stroke="#fff" stroke-width="1.5"/>
      <path id="Tracé_1643" data-name="Tracé 1643" d="M577.618,41.9H557.546a13.525,13.525,0,0,0-7.067,1.981l2.706,2.706a9.887,9.887,0,0,1,.672.744,8.9,8.9,0,0,1,3.689-.8h20.072a8.955,8.955,0,1,1,0,17.911H557.546a8.917,8.917,0,0,1-5.982-2.3l.055-.056a8.933,8.933,0,0,1-2.91-6.6c0-.214.01-.426.025-.636a8.89,8.89,0,0,1,.323-1.831,2.686,2.686,0,0,0-.749-1.438L545.724,49a13.576,13.576,0,0,0,2.558,16.308l-.06.06a13.537,13.537,0,0,0,9.324,3.709h20.072a13.588,13.588,0,1,0,0-27.175Z" transform="translate(673.259 391.27)" fill="#50e2aa"/>
      <path id="Tracé_1644" data-name="Tracé 1644" d="M662.744,81.507a3.551,3.551,0,1,1,0-7.1H703.2a3.551,3.551,0,1,1,0,7.1Z" transform="translate(593.692 368.806)" fill="#50e2aa" stroke="#fff" stroke-width="1.5"/>
      <path id="Tracé_1645" data-name="Tracé 1645" d="M702.852,74.213a3.4,3.4,0,0,1,0,6.794H662.4a3.4,3.4,0,1,1,0-6.794Zm0-.309H662.4a3.706,3.706,0,1,0,0,7.411h40.454a3.706,3.706,0,0,0,0-7.411" transform="translate(594.037 369.152)" fill="#50e2aa" stroke="#fff" stroke-width="1.5"/>
    </g>
    <g id="Groupe_1786" data-name="Groupe 1786" transform="translate(996.2 510.661)">
      <g id="Groupe_1785" data-name="Groupe 1785" clip-path="url(#clip-path)">
        <path id="Tracé_2605" data-name="Tracé 2605" d="M21.564,66.259c.676,0,1.325,0,1.975,0A1.967,1.967,0,0,1,25.7,68.4c0,.4,0,.81,0,1.215a.493.493,0,0,1-.53.549c-.13.007-.26.006-.39.006H1.141c-.85,0-.931-.083-.932-.95,0-.3-.007-.608,0-.911a1.979,1.979,0,0,1,2.058-2.048c.578-.011,1.157-.015,1.735,0,.281.009.39-.085.464-.367Q6.432,58.37,8.423,50.85q1.661-6.311,3.324-12.621a.452.452,0,0,0-.22-.594,2.443,2.443,0,0,1-.93-2.76,2.487,2.487,0,0,1,4.725-.048,2.4,2.4,0,0,1-.877,2.77.556.556,0,0,0-.242.737q3.628,13.749,7.236,27.5c.033.125.073.249.124.423M20.5,66.234c-.182-.694-.346-1.363-.54-2.024-.033-.111-.183-.211-.3-.269q-3.239-1.6-6.488-3.171a.7.7,0,0,0-.547-.006c-2.145,1.092-4.282,2.2-6.417,3.312-.108.056-.245.148-.274.25-.178.62-.329,1.247-.5,1.908ZM1.247,69.148H24.688c0-.182,0-.337,0-.493,0-1.127-.248-1.38-1.369-1.38-6.8,0-13.595.024-20.392-.016-1.739-.01-1.78.569-1.681,1.889M12.737,54,8.243,57.226c1.539.751,3,1.469,4.465,2.168a.568.568,0,0,0,.431-.047c1.412-.721,2.818-1.455,4.225-2.187a1.916,1.916,0,0,0,.2-.144L12.737,54m-2.431-6.323c-.264,1-.517,1.927-.744,2.86a.437.437,0,0,0,.154.371c.919.6,1.849,1.174,2.783,1.745a.38.38,0,0,0,.334.02c1.013-.711,2.015-1.437,3.056-2.185l-5.583-2.81m4.3-3.855-3.686,3.028,5.169,2.6L14.6,43.818m4.989,18.959-1.307-4.965-4.29,2.225,5.6,2.741M7.581,58.023,6.3,62.9l5.458-2.835L7.581,58.023M10.85,45.6c1.174-.965,2.245-1.84,3.306-2.728a.379.379,0,0,0,.1-.317q-.534-2.112-1.1-4.215c-.023-.087-.133-.15-.2-.224-.066.078-.167.147-.193.237-.168.595-.321,1.194-.478,1.792L10.85,45.6M17.8,55.979l-1.245-4.725-2.934,2.107L17.8,55.979M14.432,35.613a1.477,1.477,0,0,0-1.484-1.48A1.515,1.515,0,0,0,11.482,35.6a1.482,1.482,0,0,0,1.48,1.482,1.438,1.438,0,0,0,1.47-1.474M8.133,55.93l.086.064,3.588-2.577L9.22,51.8,8.133,55.93" transform="translate(-0.165 -26.493)" fill="#8353f2" stroke="#8353f2" stroke-width="0.5"/>
        <path id="Tracé_2606" data-name="Tracé 2606" d="M104.756,9.224a10.988,10.988,0,0,1-4.557,8.63c-.114.089-.228.177-.348.257a.478.478,0,0,1-.725-.082.49.49,0,0,1,.128-.723c.458-.375.94-.725,1.363-1.136a9.464,9.464,0,0,0,3.09-7.524,9.847,9.847,0,0,0-4.045-7.4c-.113-.09-.23-.175-.347-.26-.287-.21-.395-.477-.168-.778A.472.472,0,0,1,99.9.17a23.929,23.929,0,0,1,1.939,1.725,10.645,10.645,0,0,1,2.913,7.329" transform="translate(-79.156 0)" fill="#8353f2" stroke="#8353f2" stroke-width="0.5"/>
        <path id="Tracé_2607" data-name="Tracé 2607" d="M0,9.244A11.111,11.111,0,0,1,4.845.31c.283-.21.57-.246.792.068s.057.573-.217.769A10.78,10.78,0,0,0,2.8,3.773,9.538,9.538,0,0,0,4.511,16.658c.305.265.632.505.948.757.254.2.4.448.168.74a.51.51,0,0,1-.77.052A11.044,11.044,0,0,1,0,9.244" transform="translate(0 -0.118)" fill="#8353f2" stroke="#8353f2" stroke-width="0.5"/>
        <path id="Tracé_2608" data-name="Tracé 2608" d="M22.1,11.53a2.808,2.808,0,0,1-.412.411,7.45,7.45,0,0,0-2.982,3.925,6.892,6.892,0,0,0,2.512,7.513c.194.15.4.288.593.436.307.231.39.54.189.775a.524.524,0,0,1-.773.042,8.687,8.687,0,0,1-3.037-3.428,7.834,7.834,0,0,1,2.362-9.663,7.275,7.275,0,0,1,.812-.575c.345-.2.73.028.736.562" transform="translate(-13.914 -8.71)" fill="#8353f2" stroke="#8353f2" stroke-width="0.5"/>
        <path id="Tracé_2609" data-name="Tracé 2609" d="M91.411,17.92a8.254,8.254,0,0,1-3.866,6.686.5.5,0,0,1-.763-.081c-.233-.325-.065-.572.217-.762a7.6,7.6,0,0,0,2.87-3.388,6.9,6.9,0,0,0-2.609-8.361c-.106-.076-.214-.148-.318-.225-.254-.188-.364-.429-.171-.708a.488.488,0,0,1,.754-.107,8.868,8.868,0,0,1,2.94,3.183,8.084,8.084,0,0,1,.946,3.764" transform="translate(-69.287 -8.669)" fill="#8353f2" stroke="#8353f2" stroke-width="0.5"/>
        <path id="Tracé_2610" data-name="Tracé 2610" d="M34.815,26.606a5.336,5.336,0,0,1,2.929-4.651.492.492,0,0,1,.75.156c.178.325.024.572-.287.746a4.443,4.443,0,0,0-2.191,2.57,4.131,4.131,0,0,0,1.969,4.781c.135.083.33.138.389.258a.893.893,0,0,1,.1.615.414.414,0,0,1-.616.21,5.338,5.338,0,0,1-2.974-4.009c-.036-.228-.046-.459-.066-.676" transform="translate(-27.832 -17.467)" fill="#8353f2" stroke="#8353f2" stroke-width="0.5"/>
        <path id="Tracé_2611" data-name="Tracé 2611" d="M77.9,26.377a5.412,5.412,0,0,1-2.958,4.892.476.476,0,0,1-.731-.2c-.166-.309-.007-.515.247-.686a9.494,9.494,0,0,0,.954-.671,4.03,4.03,0,0,0-.14-6.327,7.059,7.059,0,0,0-.752-.508c-.291-.176-.492-.393-.3-.737s.48-.324.783-.152a5.351,5.351,0,0,1,2.612,3.047,11.083,11.083,0,0,1,.284,1.343" transform="translate(-59.271 -17.484)" fill="#8353f2" stroke="#8353f2" stroke-width="0.5"/>
      </g>
    </g>
    <g id="Groupe_1788" data-name="Groupe 1788" transform="translate(1089.323 545.309)">
      <g id="Groupe_1787" data-name="Groupe 1787" transform="translate(0 0)" clip-path="url(#clip-path-2)">
        <path id="Tracé_2612" data-name="Tracé 2612" d="M48.692,28.375a9.149,9.149,0,0,1-.683.879c-1.456,1.475-2.927,2.938-4.394,4.4a1.305,1.305,0,0,1-2.1,0q-3.7-3.7-7.4-7.4a1.3,1.3,0,0,1,.008-2.1c.648-.647,1.3-1.289,1.962-1.945l-1.072-.986c-1.354,1.36-2.752,2.76-4.14,4.169a.487.487,0,0,0-.092.358,8.014,8.014,0,0,1-1.679,6.129,1.309,1.309,0,0,1-2.192.125l-9.367-9.369a1.312,1.312,0,0,1,.143-2.218A8.337,8.337,0,0,1,22.3,18.686a.776.776,0,0,0,.459-.178q2.354-2.329,4.688-4.68a1.151,1.151,0,0,0,.085-.1l-1.078-1.045-1.811,1.814c-.829.829-1.45.834-2.269.015L15.064,7.2a1.306,1.306,0,0,1-.011-2.1q2.283-2.286,4.569-4.57a1.3,1.3,0,0,1,2.1.007q3.7,3.7,7.4,7.4a1.3,1.3,0,0,1-.013,2.1l-1.511,1.516a.616.616,0,0,0-.05.069l1.046,1.047c.107-.1.216-.192.317-.293Q31.276,10,33.646,7.632A2.093,2.093,0,0,1,36.9,7.617q2.132,2.124,4.255,4.256a2.084,2.084,0,0,1-.021,3.254c-1.675,1.676-3.352,3.35-5.012,5.008l1.022,1.007c.5-.5,1.035-1.043,1.577-1.582a1.276,1.276,0,0,1,2.011,0q3.729,3.725,7.45,7.458a5.2,5.2,0,0,1,.5.713ZM30.343,23.924c.093-.08.155-.128.21-.183q4.823-4.822,9.644-9.648c.445-.446.443-.76,0-1.2q-2.109-2.115-4.222-4.225c-.559-.559-.824-.56-1.378-.006q-4.937,4.937-9.873,9.875c-.091.091-.175.188-.3.318a8.257,8.257,0,0,1,5.914,5.072M28.1,8.984,20.674,1.567,16.1,6.138l7.414,7.419L28.1,8.984M47.177,28.047l-7.424-7.43-4.6,4.6,7.43,7.43,4.594-4.6m-19.2,2.977a6.708,6.708,0,0,0-9.433-9.433l9.433,9.433" transform="translate(-7.337 0)" fill="#8353f2"/>
        <path id="Tracé_2613" data-name="Tracé 2613" d="M13.971,67.42c-.764-.135-1.543-.214-2.29-.413A14.9,14.9,0,0,1,.425,55.764,19.865,19.865,0,0,1,.007,52.5c-.056-.617.215-.929.677-.93s.677.287.7.888a13.622,13.622,0,0,0,3.407,8.84,13.444,13.444,0,0,0,8.573,4.6c.532.071,1.07.112,1.606.135.374.015.713.067.845.469a.772.772,0,0,1-.386.921Z" transform="translate(0 -26.038)" fill="#8353f2"/>
        <path id="Tracé_2614" data-name="Tracé 2614" d="M19.04,63.3A11.078,11.078,0,0,1,8.58,54.538a17.669,17.669,0,0,1-.242-2.159.676.676,0,0,1,.647-.808c.436-.024.726.244.739.761a9.67,9.67,0,0,0,9.049,9.533c.2.014.4.02.6.042a.67.67,0,0,1,.677.738.689.689,0,0,1-.73.651c-.094,0-.189,0-.283,0" transform="translate(-4.209 -26.04)" fill="#8353f2"/>
        <path id="Tracé_2615" data-name="Tracé 2615" d="M23.4,59.165a6.919,6.919,0,0,1-6.673-6.153,5.723,5.723,0,0,1-.056-.722.7.7,0,0,1,1.4-.072,13.906,13.906,0,0,0,.186,1.392,5.455,5.455,0,0,0,5.1,4.141,1.42,1.42,0,0,1,.674.2.62.62,0,0,1,.194.764.76.76,0,0,1-.82.451" transform="translate(-8.42 -26.04)" fill="#8353f2"/>
      </g>
    </g>
    <g id="cell-phone-svgrepo-com" transform="translate(1062.682 443.309)">
      <path id="Tracé_2618" data-name="Tracé 2618" d="M24.893,0H8.744A2.794,2.794,0,0,0,5.951,2.8V35.589a2.792,2.792,0,0,0,2.793,2.793H24.893a2.794,2.794,0,0,0,2.793-2.793V2.8A2.8,2.8,0,0,0,24.893,0ZM12.834,1.7h7.972c.2,0,.365.3.365.673s-.164.674-.365.674H12.834c-.2,0-.364-.3-.364-.674S12.631,1.7,12.834,1.7ZM16.82,35.622a1.783,1.783,0,1,1,1.78-1.785A1.786,1.786,0,0,1,16.82,35.622Zm8.774-6.111H8.045V4.718H25.594V29.512Z" transform="translate(0)" fill="#8353f2"/>
    </g>
  </g>
</svg>
