<svg xmlns="http://www.w3.org/2000/svg" xmlns:xlink="http://www.w3.org/1999/xlink" width="608" height="299" viewBox="0 0 608 299"><defs><clipPath id="a"><rect width="25.6" height="43.677" fill="#8353f2" stroke="#8353f2" stroke-width="0.5"/></clipPath><clipPath id="b"><rect width="41.355" height="41.382" fill="#8353f2"/></clipPath></defs><g transform="translate(-965 -311)"><path d="M-3056.7-1690.484h-79.626v-2h77.626v-206.461h-47.956v-2h49.956Z" transform="translate(4248 2258)" fill="#8353f2"/><path d="M-3057.7-1690.484h-79.626v-210.461h49.956v2h-47.956v206.461h77.626Z" transform="translate(4489.626 2258)" fill="#8353f2"/><circle cx="44" cy="44" r="44" transform="translate(1387 311)" fill="#303a55"/><circle cx="44" cy="44" r="44" transform="translate(1485 341)" fill="#303a55"/><circle cx="44" cy="44" r="44" transform="translate(1485 497)" fill="#303a55"/><circle cx="44" cy="44" r="44" transform="translate(1387 522)" fill="#303a55"/><path d="M5.971,4.25H20.854a4.726,4.726,0,0,1,4.721,4.721V15.34L31.527,5.6a1,1,0,0,1,.146-.186A2.24,2.24,0,0,1,35.5,7v18.82a2.24,2.24,0,0,1-3.823,1.584l-6.1-6.1v2.547a4.726,4.726,0,0,1-4.721,4.721H5.971A4.726,4.726,0,0,1,1.25,23.854V8.971A4.726,4.726,0,0,1,5.971,4.25Zm17.6,14.636V8.971A2.724,2.724,0,0,0,20.854,6.25H5.971A2.724,2.724,0,0,0,3.25,8.971V23.854a2.724,2.724,0,0,0,2.721,2.721H20.854a2.724,2.724,0,0,0,2.721-2.721V18.9S23.575,18.891,23.575,18.886Zm9.682,7.175a.24.24,0,0,0,.24-.24V7a.239.239,0,0,0-.148-.221.243.243,0,0,0-.2.008L25.839,18.743l7.249,7.249A.239.239,0,0,0,33.257,26.061Z" transform="translate(1415.397 338.925)" fill="#fff"/><path d="M12.785,1.25A4.027,4.027,0,0,1,16.39,3.363q.147.248.276.524.13-.276.276-.524A4.027,4.027,0,0,1,20.547,1.25a4.879,4.879,0,0,1,3.938,7.762h6.042a2.666,2.666,0,0,1,2.663,2.663v2.218a2.666,2.666,0,0,1-2.663,2.663H8.876L30.4,26.853a1,1,0,0,1,.569.9,3.221,3.221,0,0,1-3.218,3.218H6.686a3.221,3.221,0,0,1-3.218-3.218V16.52A2.668,2.668,0,0,1,1.25,13.893V11.676A2.666,2.666,0,0,1,3.913,9.012H8.847A4.879,4.879,0,0,1,12.785,1.25Zm2.864,7.762a10.233,10.233,0,0,0-.98-4.631A2.022,2.022,0,0,0,12.785,3.25a2.881,2.881,0,0,0,0,5.762Zm4.9,0a2.881,2.881,0,1,0,0-5.762,2.022,2.022,0,0,0-1.884,1.131,10.233,10.233,0,0,0-.98,4.631Zm-7.762,2H3.913a.664.664,0,0,0-.663.663v2.218a.664.664,0,0,0,.663.663H30.527a.664.664,0,0,0,.663-.663V11.676a.664.664,0,0,0-.663-.663ZM28.834,28.319,5.468,17.144V27.755a1.219,1.219,0,0,0,1.218,1.218H27.755A1.219,1.219,0,0,0,28.834,28.319Z" transform="translate(1512.25 369.25)" fill="#fff"/><path d="M5.55,3.5h22a4.3,4.3,0,0,1,4.3,4.3V23.2a4.3,4.3,0,0,1-4.3,4.3h-22a4.3,4.3,0,0,1-4.3-4.3V7.8A4.3,4.3,0,0,1,5.55,3.5Zm22,22a2.3,2.3,0,0,0,2.3-2.3V7.8a2.3,2.3,0,0,0-2.3-2.3h-22a2.3,2.3,0,0,0-2.3,2.3V23.2a2.3,2.3,0,0,0,2.3,2.3Z" transform="translate(1512.25 526.341)" fill="#fff"/><path d="M26.329,1.25a1,1,0,0,1,1,1V22.4a4.243,4.243,0,0,1-3.064,4.062L22.372,27A3.585,3.585,0,1,1,20.4,20.105l3.312-.946a2.235,2.235,0,0,0,1.614-2.139V3.576L12.276,7.305V26.7a4.243,4.243,0,0,1-3.064,4.062L7.319,31.3a3.585,3.585,0,1,1-1.969-6.894l3.312-.946a2.235,2.235,0,0,0,1.614-2.139V6.551A1,1,0,0,1,11,5.589l15.053-4.3A1,1,0,0,1,26.329,1.25ZM21.385,25.138a1.591,1.591,0,0,0,.438-.062l1.893-.541A2.235,2.235,0,0,0,25.329,22.4V20.61a4.183,4.183,0,0,1-1.065.473l-3.312.946a1.585,1.585,0,0,0,.432,3.109Zm-15.053,4.3a1.591,1.591,0,0,0,.438-.062l1.893-.541A2.235,2.235,0,0,0,10.276,26.7V24.91a4.183,4.183,0,0,1-1.065.473L5.9,26.329a1.585,1.585,0,0,0,.432,3.109Z" transform="translate(1415.75 549.25)" fill="#fff"/><circle cx="44" cy="44" r="44" transform="translate(1154 610) rotate(180)" fill="#d1dbf7"/><circle cx="44" cy="44" r="44" transform="translate(1154 402) rotate(180)" fill="#d1dbf7"/><circle cx="44" cy="44" r="44" transform="translate(1053 429) rotate(180)" fill="#d1dbf7"/><ellipse cx="44" cy="44.5" rx="44" ry="44.5" transform="translate(1053 577) rotate(180)" fill="#d1dbf7"/><path d="M16.852,26.611a1,1,0,0,1-.707-.293l-.785-.785a1,1,0,0,1,0-1.415,2.111,2.111,0,0,1,2.984,0,1,1,0,0,1,0,1.415l-.785.785A1,1,0,0,1,16.852,26.611Zm5.5-5.5a1,1,0,0,1-.356-.066,30.887,30.887,0,0,1-3.512-1.536c-.6-.324-1.6-.865-1.428-1.781a1.125,1.125,0,0,1,1.172-.895,8.819,8.819,0,0,1,4.832,2.57,1,1,0,0,1-.707,1.707ZM27.065,16.4a1,1,0,0,1-.356-.066,56.572,56.572,0,0,1-6.42-2.807c-1.531-.83-2.385-1.489-2.217-2.4a1.218,1.218,0,0,1,1.333-.96,9.81,9.81,0,0,1,3.646,1.162,18.253,18.253,0,0,1,4.722,3.362,1,1,0,0,1-.707,1.707Zm4.714-4.714a1,1,0,0,1-.356-.066A83.473,83.473,0,0,1,22.1,7.542c-2.361-1.28-3.176-2.1-3.007-3.016.044-.241.283-1.025,1.495-1.025,1.948,0,7.591,2.164,11.9,6.476a1,1,0,0,1-.707,1.707Z" transform="translate(1093.576 343)" fill="#8353f2"/><path d="M28.212,28.751a.815.815,0,0,1-.7-.384c-.254-.4-.226-.9.633-2.5.644-1.2,1.644-2.8,2.973-4.748-.038-1.932-.037-3.432,0-4.461.019-.473.046-.844.081-1.1a1.138,1.138,0,0,1,.46-.9.777.777,0,0,1,.781-.007c.366.208.47.6.555,1.349a15.744,15.744,0,0,1-.4,5.534v0a18.731,18.731,0,0,1-2.066,4.845,12.564,12.564,0,0,1-1.078,1.537c-.45.534-.771.774-1.109.826A.886.886,0,0,1,28.212,28.751Zm-21.085,0a.885.885,0,0,1-.136-.011c-.338-.053-.659-.292-1.109-.826A12.564,12.564,0,0,1,4.8,26.376a18.733,18.733,0,0,1-2.065-4.841l0-.013A15.476,15.476,0,0,1,4.23,10.1l.005-.009a18.922,18.922,0,0,1,2.5-3.412c1.487-1.61,1.922-1.575,2.155-1.556a.782.782,0,0,1,.679.513c.167.454-.037.874-.948,1.955-.522.619-1.256,1.416-2.155,2.34q2.148.311,4.01.613a19.136,19.136,0,0,1,1.336-3.587c1.519-3.038,3.6-4.712,5.857-4.712s4.338,1.673,5.857,4.712a24.506,24.506,0,0,1,2.228,10.708,23.15,23.15,0,0,1-.465,4.907c-.4,1.766-1.028,2.654-1.912,2.715a1.429,1.429,0,0,1-1.051-.379,2.74,2.74,0,0,1-1.758.68,22.381,22.381,0,0,1-2.9.161,30.313,30.313,0,0,1-5.378-.48,1.33,1.33,0,0,1-.329.017,1.3,1.3,0,0,1-.62-.2q-.664-.142-1.32-.314a29.893,29.893,0,0,1-4.395-1.526c.649,1.014,1.172,1.89,1.563,2.619.859,1.6.887,2.1.633,2.5A.815.815,0,0,1,7.127,28.751Zm6.623-4.763a28.877,28.877,0,0,0,3.919.267c.62,0,1.169-.017,1.64-.046-.6-.133-1.386-.286-2.423-.459q-1.241-.207-2.789-.422Q13.925,23.693,13.75,23.987Zm6.822-8.257q.4,1.882.807,3.374c.959,3.548,1.655,4.431,1.888,4.64a4.766,4.766,0,0,0,.632-1.838,22.93,22.93,0,0,0,.356-4.236A22.994,22.994,0,0,0,22.185,7.632,9.084,9.084,0,0,0,20.04,4.725a4.183,4.183,0,0,0-1.49-.844q.692,4.9,1.393,8.685c1.742.578,2.4,1.132,2.352,1.879C22.232,15.344,21.116,15.621,20.572,15.731ZM12.041,23.7l.064.013a2.67,2.67,0,0,0,.417-.6l-.8-.1A2.9,2.9,0,0,0,12.041,23.7ZM7.986,22.573q1.11.4,2.25.706-.067-.219-.128-.462Q9.089,22.7,7.986,22.573Zm6.69-.679q1.95.277,3.4.54a23.941,23.941,0,0,1,3.064.711l.017.006A22.548,22.548,0,0,1,20.126,20.2q-.523-1.814-1.046-4.272c-.445.033-.922.049-1.411.049q-.707,0-1.409-.049-.523,2.455-1.046,4.272Q14.942,21.138,14.676,21.893Zm-3.316-.437q.936.115,1.794.228c.24-.646.511-1.487.806-2.581q.4-1.476.8-3.339a20.314,20.314,0,0,1-3.544-.843c-.086.895-.131,1.814-.131,2.747A24.228,24.228,0,0,0,11.36,21.457Zm-7.291-.808q3.134.317,5.746.623a26.585,26.585,0,0,1-.23-3.6,29.834,29.834,0,0,1,.18-3.3,20.279,20.279,0,0,1-4.643-2.739,13.989,13.989,0,0,0-1.053,9.014Zm12.495-6.207c.376.022.756.032,1.134.032s.749-.012,1.077-.032q-.069-.348-.138-.706c-.435-.123-.953-.258-1.571-.4l-.276-.064Q16.677,13.87,16.564,14.442ZM11.407,13.4a18.811,18.811,0,0,0,3.658.892q.13-.652.26-1.343-1.645-.339-3.712-.692Q11.5,12.82,11.407,13.4ZM7.737,11.639a18.775,18.775,0,0,0,2.244,1.193q.07-.414.152-.819Q8.99,11.827,7.737,11.639Zm9.324.153q.653.149,1.221.3l.051.013q-.333-1.85-.664-3.952Q17.366,10.075,17.061,11.792Zm-5.1-1q2.012.345,3.632.678.6-3.383,1.2-7.594a4.183,4.183,0,0,0-1.49.844,9.084,9.084,0,0,0-2.145,2.907A17.517,17.517,0,0,0,11.962,10.8Zm18.491.422a.749.749,0,0,1-.53-.219c-1.384-1.381-2.492-2.558-3.206-3.4-.911-1.081-1.115-1.5-.948-1.955a.782.782,0,0,1,.679-.513c.234-.019.669-.054,2.155,1.556a18.917,18.917,0,0,1,2.5,3.417.75.75,0,0,1-.653,1.118Z" transform="translate(990.884 366.884)" fill="#8353f2"/><path d="M111,1H0V-1H111Z" transform="translate(1079.5 461.5)" fill="#8353f2"/><path d="M111,1H0V-1H111Z" transform="translate(1353.296 461.5)" fill="#8353f2"/><ellipse cx="44.5" cy="43.5" rx="44.5" ry="43.5" transform="translate(1124 506) rotate(180)" fill="#d1dbf7"/><circle cx="44" cy="44" r="44" transform="translate(1418 417)" fill="#303a55"/><path d="M19.04,1.25a4.967,4.967,0,0,1,3.184,1.11,3.735,3.735,0,0,1,1.413,2.889,3.626,3.626,0,0,1-.763,2.21,1.9,1.9,0,0,0-.432.85,76.3,76.3,0,0,0,9.012-1.082,1,1,0,0,1,1.171.86,78.731,78.731,0,0,1,.6,8.681,2.049,2.049,0,0,1-2.049,2.074H31.17A3.591,3.591,0,0,1,29.033,18a1.623,1.623,0,0,0-1-.354,2.361,2.361,0,0,0-2,2.6,2.361,2.361,0,0,0,2,2.6,1.644,1.644,0,0,0,1-.353,3.593,3.593,0,0,1,2.14-.846,1.851,1.851,0,0,1,1.85,1.983c-.187,2.552-.5,5.123-.943,7.643a1,1,0,0,1-.814.814,78.217,78.217,0,0,1-8.791,1.02c-.039,0-.076,0-.112,0a1.928,1.928,0,0,1-1.922-1.929,3.587,3.587,0,0,1,.843-2.138,1.645,1.645,0,0,0,.354-1,2.361,2.361,0,0,0-2.6-2,2.965,2.965,0,0,0-1.9.647,1.773,1.773,0,0,0-.694,1.348,1.642,1.642,0,0,0,.346.992l.008.011a3.593,3.593,0,0,1,.845,2.135,2.034,2.034,0,0,1-.608,1.454,2.013,2.013,0,0,1-1.469.577c-2.5-.072-5.015-.265-7.479-.573a1,1,0,0,1-.86-1.171,76.131,76.131,0,0,0,1-7.8,2.147,2.147,0,0,0-.768.419,3.625,3.625,0,0,1-2.209.762A3.735,3.735,0,0,1,2.36,23.424a5.123,5.123,0,0,1,0-6.369,3.735,3.735,0,0,1,2.889-1.413h.007a3.652,3.652,0,0,1,2.207.765,1.682,1.682,0,0,0,.924.434.055.055,0,0,0,.038-.014.049.049,0,0,0,.014-.035,76.777,76.777,0,0,0-.5-7.743A1,1,0,0,1,9.049,7.941c2.173.251,4.384.411,6.571.473a.023.023,0,0,0,.015-.007.024.024,0,0,0,.007-.017s0,0,0-.005a1.689,1.689,0,0,0-.437-.929,3.625,3.625,0,0,1-.762-2.209A3.735,3.735,0,0,1,15.855,2.36,4.966,4.966,0,0,1,19.04,1.25Zm1.4,7.134a3.592,3.592,0,0,1,.845-2.137,1.645,1.645,0,0,0,.354-1,2.361,2.361,0,0,0-2.6-2,2.361,2.361,0,0,0-2.6,2,1.644,1.644,0,0,0,.353,1,3.6,3.6,0,0,1,.846,2.136,2.034,2.034,0,0,1-.608,1.454,2.014,2.014,0,0,1-1.469.577c-1.831-.053-3.676-.171-5.5-.353.221,2.228.348,4.479.377,6.706A2.049,2.049,0,0,1,8.389,18.84H8.382A3.59,3.59,0,0,1,6.247,18l-.011-.008a1.642,1.642,0,0,0-.992-.346,2.362,2.362,0,0,0-1.995,2.6,2.361,2.361,0,0,0,2,2.6,1.644,1.644,0,0,0,1-.353,3.593,3.593,0,0,1,2.14-.846,1.849,1.849,0,0,1,1.848,1.985C10.059,26,9.771,28.4,9.376,30.764c2.065.229,4.161.376,6.244.436a.023.023,0,0,0,.015-.007.023.023,0,0,0,.007-.017s0,0,0-.005a1.681,1.681,0,0,0-.434-.924,3.652,3.652,0,0,1-.766-2.207s0,0,0-.007c0-2.2,2.063-4,4.6-4a4.966,4.966,0,0,1,3.185,1.11,3.735,3.735,0,0,1,1.413,2.888,3.626,3.626,0,0,1-.763,2.21,1.882,1.882,0,0,0-.431.851,76.248,76.248,0,0,0,7.781-.871c.357-2.171.621-4.377.787-6.568a2.138,2.138,0,0,0-.77.419,3.625,3.625,0,0,1-2.209.762,3.735,3.735,0,0,1-2.888-1.413,5.122,5.122,0,0,1,0-6.369,3.735,3.735,0,0,1,2.888-1.413,3.626,3.626,0,0,1,2.21.763,1.687,1.687,0,0,0,.929.437.049.049,0,0,0,.052-.049c-.033-2.466-.188-4.956-.461-7.415a78.393,78.393,0,0,1-8.292.934c-.039,0-.074,0-.11,0a1.924,1.924,0,0,1-1.924-1.928Z" transform="translate(1445.25 444.25)" fill="#fff"/><g transform="translate(78.863 14.231)"><path d="M416.639,17.626,401.874,2.861a9.768,9.768,0,0,0-13.816,0l-5.13,5.129L377.8,2.861a9.769,9.769,0,0,0-13.816,0L349.217,17.626a9.77,9.77,0,0,0,0,13.816l14.766,14.766a9.769,9.769,0,0,0,13.816,0l5.13-5.129,5.13,5.129a9.768,9.768,0,0,0,13.816,0l14.766-14.766a9.769,9.769,0,0,0,0-13.816M372.8,41.213a2.706,2.706,0,0,1-3.826,0L354.213,26.448a2.7,2.7,0,0,1,0-3.826L368.978,7.856a2.705,2.705,0,0,1,3.826,0l5.129,5.13-4.641,4.641a9.781,9.781,0,0,0,0,13.816l4.641,4.641ZM387.57,22.622a2.705,2.705,0,0,1,0,3.826l-4.641,4.641-4.641-4.641a2.708,2.708,0,0,1,0-3.826l4.641-4.641Zm4.955-5.035-4.6-4.6,5.13-5.13a2.705,2.705,0,0,1,3.826,0l14.766,14.766a2.706,2.706,0,0,1,0,3.826L396.879,41.213a2.706,2.706,0,0,1-3.826,0l-5.13-5.129,4.641-4.641a9.769,9.769,0,0,0,.085-13.731" transform="translate(809.922 420.234)" fill="#8353f2"/><path d="M469.769,42.044l-4.988,4.988h9.958Z" transform="translate(728.068 391.173)" fill="#5e3abe"/><path d="M464.781,121.828h9.958l-4.97-4.988Z" transform="translate(728.068 339.475)" fill="#5e3abe"/><path d="M353.463,65.18a8.995,8.995,0,0,0-4.918-5.69,9.77,9.77,0,0,0,.672,13.072l1.685,1.685a8.934,8.934,0,0,0,2.91-6.6c0-.214-.01-.426-.025-.636a2.688,2.688,0,0,1-.367-1.357,2.723,2.723,0,0,1,.044-.475" transform="translate(809.922 379.114)" fill="#8353f2"/><path d="M369.231,78.389a2.687,2.687,0,0,0,.367,1.357,8.894,8.894,0,0,0-.323-1.831,2.717,2.717,0,0,0-.044.475" transform="translate(794.111 366.38)" fill="#fff"/><path d="M278.1,49l-2.584,2.584a2.684,2.684,0,0,0-.749,1.438,8.9,8.9,0,0,1,.323,1.831c.015.211.025.422.025.636a8.967,8.967,0,0,1-8.955,8.955H246.087a8.955,8.955,0,0,1,0-17.911H266.16a8.9,8.9,0,0,1,3.689.8,9.939,9.939,0,0,1,.672-.744l2.706-2.706A13.522,13.522,0,0,0,266.16,41.9H246.087a13.588,13.588,0,0,0,0,27.175H266.16A13.591,13.591,0,0,0,278.1,49Z" transform="translate(888.619 391.27)" fill="#50e2aa"/><path d="M119.551,81.507a3.551,3.551,0,1,1,0-7.1H160a3.551,3.551,0,1,1,0,7.1Z" transform="translate(969.143 368.806)" fill="#50e2aa"/><path d="M160,82.257H119.551a4.3,4.3,0,1,1,0-8.6H160a4.3,4.3,0,1,1,0,8.6Zm-40.454-7.1a2.8,2.8,0,1,0,0,5.6H160a2.8,2.8,0,1,0,0-5.6Z" transform="translate(969.143 368.806)" fill="#fff"/><path d="M159.659,74.213a3.4,3.4,0,1,1,0,6.794H119.206a3.4,3.4,0,1,1,0-6.794Zm0-.309H119.206a3.706,3.706,0,1,0,0,7.411h40.454a3.706,3.706,0,1,0,0-7.411" transform="translate(969.488 369.152)" fill="#50e2aa"/><path d="M159.659,82.065H119.206a4.456,4.456,0,0,1,0-8.911h40.454a4.456,4.456,0,1,1,0,8.911Zm-40.454-7.1a2.647,2.647,0,1,0,0,5.294h40.454a2.647,2.647,0,1,0,0-5.294Z" transform="translate(969.488 369.152)" fill="#fff"/><path d="M577.618,41.9H557.546a13.525,13.525,0,0,0-7.067,1.981l2.706,2.706a9.887,9.887,0,0,1,.672.744,8.9,8.9,0,0,1,3.689-.8h20.072a8.955,8.955,0,1,1,0,17.911H557.546a8.917,8.917,0,0,1-5.982-2.3l.055-.056a8.933,8.933,0,0,1-2.91-6.6c0-.214.01-.426.025-.636a8.89,8.89,0,0,1,.323-1.831,2.686,2.686,0,0,0-.749-1.438L545.724,49a13.576,13.576,0,0,0,2.558,16.308l-.06.06a13.537,13.537,0,0,0,9.324,3.709h20.072a13.588,13.588,0,1,0,0-27.175Z" transform="translate(673.259 391.27)" fill="#50e2aa"/><path d="M662.744,81.507a3.551,3.551,0,1,1,0-7.1H703.2a3.551,3.551,0,1,1,0,7.1Z" transform="translate(593.692 368.806)" fill="#50e2aa"/><path d="M703.2,82.257H662.744a4.3,4.3,0,1,1,0-8.6H703.2a4.3,4.3,0,1,1,0,8.6Zm-40.454-7.1a2.8,2.8,0,1,0,0,5.6H703.2a2.8,2.8,0,1,0,0-5.6Z" transform="translate(593.692 368.806)" fill="#fff"/><path d="M702.852,74.213a3.4,3.4,0,0,1,0,6.794H662.4a3.4,3.4,0,1,1,0-6.794Zm0-.309H662.4a3.706,3.706,0,1,0,0,7.411h40.454a3.706,3.706,0,0,0,0-7.411" transform="translate(594.037 369.152)" fill="#50e2aa"/><path d="M702.852,82.065H662.4a4.456,4.456,0,0,1,0-8.911h40.454a4.456,4.456,0,1,1,0,8.911Zm-40.454-7.1a2.647,2.647,0,1,0,0,5.294h40.454a2.647,2.647,0,0,0,0-5.294Z" transform="translate(594.037 369.152)" fill="#fff"/></g><g transform="translate(996.2 510.661)"><g clip-path="url(#a)"><path d="M21.564,66.259c.676,0,1.325,0,1.975,0A1.967,1.967,0,0,1,25.7,68.4c0,.4,0,.81,0,1.215a.493.493,0,0,1-.53.549c-.13.007-.26.006-.39.006H1.141c-.85,0-.931-.083-.932-.95,0-.3-.007-.608,0-.911a1.979,1.979,0,0,1,2.058-2.048c.578-.011,1.157-.015,1.735,0,.281.009.39-.085.464-.367Q6.432,58.37,8.423,50.85q1.661-6.311,3.324-12.621a.452.452,0,0,0-.22-.594,2.443,2.443,0,0,1-.93-2.76,2.487,2.487,0,0,1,4.725-.048,2.4,2.4,0,0,1-.877,2.77.556.556,0,0,0-.242.737q3.628,13.749,7.236,27.5c.033.125.073.249.124.423M20.5,66.234c-.182-.694-.346-1.363-.54-2.024-.033-.111-.183-.211-.3-.269q-3.239-1.6-6.488-3.171a.7.7,0,0,0-.547-.006c-2.145,1.092-4.282,2.2-6.417,3.312-.108.056-.245.148-.274.25-.178.62-.329,1.247-.5,1.908ZM1.247,69.148H24.688c0-.182,0-.337,0-.493,0-1.127-.248-1.38-1.369-1.38-6.8,0-13.595.024-20.392-.016-1.739-.01-1.78.569-1.681,1.889M12.737,54,8.243,57.226c1.539.751,3,1.469,4.465,2.168a.568.568,0,0,0,.431-.047c1.412-.721,2.818-1.455,4.225-2.187a1.916,1.916,0,0,0,.2-.144L12.737,54m-2.431-6.323c-.264,1-.517,1.927-.744,2.86a.437.437,0,0,0,.154.371c.919.6,1.849,1.174,2.783,1.745a.38.38,0,0,0,.334.02c1.013-.711,2.015-1.437,3.056-2.185l-5.583-2.81m4.3-3.855-3.686,3.028,5.169,2.6L14.6,43.818m4.989,18.959-1.307-4.965-4.29,2.225,5.6,2.741M7.581,58.023,6.3,62.9l5.458-2.835L7.581,58.023M10.85,45.6c1.174-.965,2.245-1.84,3.306-2.728a.379.379,0,0,0,.1-.317q-.534-2.112-1.1-4.215c-.023-.087-.133-.15-.2-.224-.066.078-.167.147-.193.237-.168.595-.321,1.194-.478,1.792L10.85,45.6M17.8,55.979l-1.245-4.725-2.934,2.107L17.8,55.979M14.432,35.613a1.477,1.477,0,0,0-1.484-1.48A1.515,1.515,0,0,0,11.482,35.6a1.482,1.482,0,0,0,1.48,1.482,1.438,1.438,0,0,0,1.47-1.474M8.133,55.93l.086.064,3.588-2.577L9.22,51.8,8.133,55.93" transform="translate(-0.165 -26.493)" fill="#8353f2"/><path d="M12.961,70.42H1.141c-.993,0-1.181-.191-1.182-1.2,0-.09,0-.179,0-.269,0-.212,0-.432,0-.649a2.223,2.223,0,0,1,2.3-2.291c.328-.006.616-.009.881-.009.31,0,.593,0,.866.012h.026c.116,0,.141,0,.188-.181.944-3.615,1.911-7.289,2.847-10.841q.554-2.1,1.108-4.206.482-1.833.963-3.667c.771-2.936,1.568-5.971,2.361-8.955.05-.187.04-.214-.12-.324A2.682,2.682,0,0,1,10.359,34.8a2.734,2.734,0,0,1,2.58-1.909h.033a2.737,2.737,0,0,1,2.586,1.856,2.639,2.639,0,0,1-.971,3.056c-.2.137-.215.194-.143.468,2,7.563,4.017,15.255,5.972,22.693l1.264,4.811c.019.074.042.15.068.236h1.79a2.221,2.221,0,0,1,2.413,2.39c0,.239,0,.478,0,.717q0,.249,0,.5a.737.737,0,0,1-.767.8c-.093.005-.184.006-.292.006H12.961ZM3.146,66.5c-.262,0-.547,0-.872.009A1.733,1.733,0,0,0,.461,68.317c-.006.209,0,.424,0,.631,0,.091,0,.181,0,.272a1.487,1.487,0,0,0,.076.625c.073.075.42.075.606.075H24.893c.1,0,.183,0,.265-.005.22-.012.294-.087.294-.3q0-.251,0-.5c0-.238,0-.475,0-.713a1.728,1.728,0,0,0-1.915-1.892c-.442,0-.884,0-1.334,0h-.826l-.053-.179-.048-.161c-.03-.1-.055-.182-.078-.269l-1.264-4.811c-1.955-7.438-3.976-15.13-5.972-22.692a.8.8,0,0,1,.341-1.006,2.143,2.143,0,0,0,.783-2.483,2.237,2.237,0,0,0-2.113-1.518h-.027a2.235,2.235,0,0,0-2.109,1.56,2.185,2.185,0,0,0,.833,2.479.693.693,0,0,1,.32.865c-.793,2.983-1.59,6.018-2.361,8.953q-.481,1.834-.964,3.667-.553,2.1-1.108,4.206c-.936,3.552-1.9,7.226-2.847,10.84a.637.637,0,0,1-.672.555H4C3.729,66.506,3.451,66.5,3.146,66.5Zm21.793,2.9H1.015L1,69.167c-.058-.763-.071-1.332.281-1.712a2.076,2.076,0,0,1,1.6-.446h.046c2.7.016,5.659.023,9.325.023q2.766,0,5.532,0t5.533,0a1.742,1.742,0,0,1,1.282.34,1.756,1.756,0,0,1,.337,1.291c0,.115,0,.231,0,.357ZM1.48,68.9H24.438c0-.083,0-.163,0-.243,0-.521-.056-.8-.191-.937s-.412-.193-.928-.193q-2.766,0-5.532,0t-5.533,0c-3.667,0-6.631-.007-9.328-.023H2.883c-.663,0-1.057.091-1.238.286S1.447,68.38,1.48,68.9Zm19.342-2.414H5.108l.08-.312q.065-.254.127-.5c.123-.488.239-.949.373-1.414a.722.722,0,0,1,.4-.4c2.163-1.125,4.281-2.225,6.419-3.313a.839.839,0,0,1,.372-.08.935.935,0,0,1,.4.083c2.2,1.063,4.422,2.152,6.49,3.172a.789.789,0,0,1,.432.423c.146.5.272.985.406,1.5q.067.261.137.527Zm-15.07-.5H20.174l-.056-.216c-.132-.512-.256-1-.4-1.48a.523.523,0,0,0-.175-.123c-2.067-1.019-4.283-2.108-6.486-3.17a.444.444,0,0,0-.18-.034.348.348,0,0,0-.145.025C10.6,62.074,8.48,63.173,6.318,64.3a.512.512,0,0,0-.152.107c-.13.453-.245.907-.366,1.388Zm.163-2.6,1.5-5.719,4.9,2.4Zm1.831-5L6.685,62.42,11.2,60.074Zm12.226,4.86-6.534-3.2,5.008-2.6ZM14.549,60.03l4.661,2.282-1.089-4.135Zm-1.708-.361a.558.558,0,0,1-.241-.05c-1.167-.556-2.314-1.116-3.528-1.71l-.939-.459-.376-.183,4.97-3.573L18.006,57l-.3.218-.076.058a.985.985,0,0,1-.154.106l-.511.266c-1.216.633-2.474,1.288-3.716,1.922A.949.949,0,0,1,12.841,59.669Zm-.027-.5.027,0a.451.451,0,0,0,.183-.046c1.24-.633,2.5-1.288,3.712-1.92l.356-.186L12.746,54.3,8.728,57.185l.564.275c1.213.593,2.358,1.153,3.522,1.707Zm5.391-2.641-.536-.336-4.179-2.618-.316-.2,3.531-2.536Zm-4.134-3.18L17.4,55.432l-.992-3.763ZM8.216,56.3l-.368-.275L9.065,51.4l3.191,2Zm1.159-4.115-.865,3.288,2.848-2.046Zm3.33.759a.672.672,0,0,1-.336-.087C11.283,52.2,10.4,51.643,9.58,51.113a.679.679,0,0,1-.261-.639c.175-.72.364-1.429.564-2.181q.09-.337.182-.684l.079-.3,6.227,3.134-.335.241-.608.437c-.841.605-1.635,1.177-2.45,1.75A.464.464,0,0,1,12.7,52.949ZM9.857,50.7c.812.526,1.693,1.078,2.772,1.738a.213.213,0,0,0,.076.014h.006c.806-.566,1.592-1.132,2.424-1.731l.273-.2-4.94-2.486-.1.387c-.2.745-.386,1.449-.559,2.16A.265.265,0,0,0,9.857,50.7Zm6.611-.775L10.461,46.9l4.284-3.519Zm-5.1-3.127L15.7,48.977l-1.243-4.718Zm-.96-.512,1.632-6.2.106-.405c.119-.456.242-.928.374-1.391a.624.624,0,0,1,.189-.276c.021-.02.04-.039.053-.054l.181-.214.192.2c.013.014.033.031.055.05a.574.574,0,0,1,.207.281c.406,1.517.766,2.9,1.1,4.218a.623.623,0,0,1-.184.57c-.854.714-1.717,1.422-2.63,2.172Zm2.55-7.711c-.114.409-.223.826-.328,1.23l-.106.406-1.239,4.708.081-.067c.91-.747,1.77-1.453,2.62-2.164a.189.189,0,0,0,.024-.076C13.692,41.341,13.348,40.019,12.961,38.572Zm.005-1.235h-.006a1.732,1.732,0,0,1-1.239-.525,1.681,1.681,0,0,1-.49-1.212,1.761,1.761,0,0,1,1.711-1.718h.032a1.727,1.727,0,1,1-.009,3.454Zm.009-2.954h-.023a1.272,1.272,0,0,0-1.221,1.226,1.185,1.185,0,0,0,.347.853,1.235,1.235,0,0,0,.884.375h0a1.227,1.227,0,0,0,.013-2.454Z" transform="translate(-0.165 -26.493)" fill="#8353f2"/><path d="M104.756,9.224a10.988,10.988,0,0,1-4.557,8.63c-.114.089-.228.177-.348.257a.478.478,0,0,1-.725-.082.49.49,0,0,1,.128-.723c.458-.375.94-.725,1.363-1.136a9.464,9.464,0,0,0,3.09-7.524,9.847,9.847,0,0,0-4.045-7.4c-.113-.09-.23-.175-.347-.26-.287-.21-.395-.477-.168-.778A.472.472,0,0,1,99.9.17a23.929,23.929,0,0,1,1.939,1.725,10.645,10.645,0,0,1,2.913,7.329" transform="translate(-79.156 0)" fill="#8353f2"/><path d="M99.491,18.489a.682.682,0,0,1-.569-.315.738.738,0,0,1,.173-1.061c.135-.111.274-.221.408-.327a12.161,12.161,0,0,0,.939-.8A9.287,9.287,0,0,0,102.3,4.623a10.95,10.95,0,0,0-2.8-3.178c-.095-.075-.2-.149-.293-.22l-.047-.034a.87.87,0,0,1-.385-.565.743.743,0,0,1,.165-.565.7.7,0,0,1,.569-.311.855.855,0,0,1,.551.231c.174.15.354.3.529.446a15.42,15.42,0,0,1,1.429,1.3,10.842,10.842,0,0,1,2.98,7.495v.012a11.23,11.23,0,0,1-4.654,8.82c-.126.1-.24.186-.363.268A.9.9,0,0,1,99.491,18.489ZM99.516.25c-.021,0-.086,0-.169.111a.269.269,0,0,0-.07.192.419.419,0,0,0,.186.235l.046.034c.1.074.206.151.308.232a10.113,10.113,0,0,1,4.139,7.579,9.71,9.71,0,0,1-3.166,7.717,12.533,12.533,0,0,1-.978.829c-.133.1-.27.213-.4.321-.2.162-.157.281-.083.384s.122.1.162.1a.426.426,0,0,0,.22-.085c.109-.073.216-.155.333-.247a10.752,10.752,0,0,0,4.461-8.434,10.362,10.362,0,0,0-2.846-7.158A15.047,15.047,0,0,0,100.276.811c-.176-.147-.358-.3-.535-.452A.38.38,0,0,0,99.516.25Z" transform="translate(-79.156 0)" fill="#8353f2"/><path d="M0,9.244A11.111,11.111,0,0,1,4.845.31c.283-.21.57-.246.792.068s.057.573-.217.769A10.78,10.78,0,0,0,2.8,3.773,9.538,9.538,0,0,0,4.511,16.658c.305.265.632.505.948.757.254.2.4.448.168.74a.51.51,0,0,1-.77.052A11.044,11.044,0,0,1,0,9.244" transform="translate(0 -0.118)" fill="#8353f2"/><path d="M5.249,18.607a.914.914,0,0,1-.539-.2,12.415,12.415,0,0,1-3.6-3.975A11.257,11.257,0,0,1-.25,9.251V9.236A11.316,11.316,0,0,1,1.128,4.06,12.541,12.541,0,0,1,4.7.109.942.942,0,0,1,5.251-.1a.709.709,0,0,1,.59.336c.13.184.364.66-.275,1.117A10.588,10.588,0,0,0,3,3.916a9.352,9.352,0,0,0-1.641,6.561A9.677,9.677,0,0,0,4.675,16.47c.2.175.42.344.631.508.1.08.207.161.309.242a.879.879,0,0,1,.377.579.685.685,0,0,1-.17.514A.721.721,0,0,1,5.249,18.607Zm-5-9.363a10.76,10.76,0,0,0,1.3,4.947,11.92,11.92,0,0,0,3.457,3.813.442.442,0,0,0,.244.1A.229.229,0,0,0,5.433,18a.212.212,0,0,0,.062-.145c0-.037-.034-.118-.191-.243-.1-.08-.2-.159-.3-.238-.216-.168-.44-.341-.652-.526a10.176,10.176,0,0,1-3.481-6.3A9.851,9.851,0,0,1,2.592,3.631,11.086,11.086,0,0,1,5.275.944c.3-.217.226-.325.158-.421C5.344.4,5.276.4,5.251.4a.484.484,0,0,0-.257.113A12.047,12.047,0,0,0,1.565,4.3,10.818,10.818,0,0,0,.25,9.245Z" transform="translate(0 -0.118)" fill="#8353f2"/><path d="M22.1,11.53a2.808,2.808,0,0,1-.412.411,7.45,7.45,0,0,0-2.982,3.925,6.892,6.892,0,0,0,2.512,7.513c.194.15.4.288.593.436.307.231.39.54.189.775a.524.524,0,0,1-.773.042,8.687,8.687,0,0,1-3.037-3.428,7.834,7.834,0,0,1,2.362-9.663,7.275,7.275,0,0,1,.812-.575c.345-.2.73.028.736.562" transform="translate(-13.914 -8.71)" fill="#8353f2"/><path d="M21.631,25.032a.972.972,0,0,1-.543-.192,8.974,8.974,0,0,1-3.122-3.526,7.845,7.845,0,0,1-.583-5.362A8.368,8.368,0,0,1,20.4,11.346a7.5,7.5,0,0,1,.84-.594.753.753,0,0,1,.378-.107.8.8,0,0,1,.734.882v.1l-.073.074c-.019.019-.045.05-.073.082a2.122,2.122,0,0,1-.373.359,7.161,7.161,0,0,0-2.887,3.795,6.663,6.663,0,0,0,2.427,7.242c.107.083.221.165.331.245.087.062.173.125.258.189a.925.925,0,0,1,.394.619.671.671,0,0,1-.165.519A.723.723,0,0,1,21.631,25.032Zm-.015-13.887a.254.254,0,0,0-.126.038,7.083,7.083,0,0,0-.783.555,7.873,7.873,0,0,0-2.838,4.333,7.351,7.351,0,0,0,.546,5.024,8.481,8.481,0,0,0,2.952,3.33.52.52,0,0,0,.264.107.23.23,0,0,0,.18-.1.173.173,0,0,0,.049-.139.45.45,0,0,0-.2-.274c-.083-.062-.166-.122-.25-.183-.114-.082-.232-.167-.346-.256a7.159,7.159,0,0,1-2.6-7.785,7.642,7.642,0,0,1,3.077-4.055,1.692,1.692,0,0,0,.283-.277l.016-.018C21.819,11.263,21.732,11.145,21.616,11.145Z" transform="translate(-13.914 -8.71)" fill="#8353f2"/><path d="M91.411,17.92a8.254,8.254,0,0,1-3.866,6.686.5.5,0,0,1-.763-.081c-.233-.325-.065-.572.217-.762a7.6,7.6,0,0,0,2.87-3.388,6.9,6.9,0,0,0-2.609-8.361c-.106-.076-.214-.148-.318-.225-.254-.188-.364-.429-.171-.708a.488.488,0,0,1,.754-.107,8.868,8.868,0,0,1,2.94,3.183,8.084,8.084,0,0,1,.946,3.764" transform="translate(-69.287 -8.669)" fill="#8353f2"/><path d="M87.164,24.995a.7.7,0,0,1-.585-.325.713.713,0,0,1-.147-.551.886.886,0,0,1,.428-.563,7.308,7.308,0,0,0,2.779-3.277,6.318,6.318,0,0,0,.215-4.376,7.185,7.185,0,0,0-2.739-3.685l-.127-.089c-.064-.044-.13-.09-.195-.138a.758.758,0,0,1,.37-1.4.906.906,0,0,1,.5.172,9.164,9.164,0,0,1,3.021,3.272,8.37,8.37,0,0,1,.976,3.877v.016a8.485,8.485,0,0,1-3.974,6.881A.926.926,0,0,1,87.164,24.995Zm0-13.9c-.027,0-.1,0-.187.129-.054.078-.128.185.114.365.059.044.119.086.183.13l.132.093a7.161,7.161,0,0,1,2.694,8.66,7.792,7.792,0,0,1-2.961,3.5c-.127.085-.2.17-.215.237a.242.242,0,0,0,.061.172c.083.116.153.116.179.116a.454.454,0,0,0,.239-.1,8.009,8.009,0,0,0,3.757-6.482,7.879,7.879,0,0,0-.916-3.642,8.669,8.669,0,0,0-2.859-3.094A.434.434,0,0,0,87.164,11.094Z" transform="translate(-69.287 -8.669)" fill="#8353f2"/><path d="M34.815,26.606a5.336,5.336,0,0,1,2.929-4.651.492.492,0,0,1,.75.156c.178.325.024.572-.287.746a4.443,4.443,0,0,0-2.191,2.57,4.131,4.131,0,0,0,1.969,4.781c.135.083.33.138.389.258a.893.893,0,0,1,.1.615.414.414,0,0,1-.616.21,5.338,5.338,0,0,1-2.974-4.009c-.036-.228-.046-.459-.066-.676" transform="translate(-27.832 -17.467)" fill="#8353f2"/><path d="M38.092,31.6a.742.742,0,0,1-.355-.093,5.606,5.606,0,0,1-3.1-4.19c-.026-.166-.039-.33-.051-.488-.005-.069-.011-.136-.017-.2l0-.017v-.017a5.6,5.6,0,0,1,3.056-4.858.957.957,0,0,1,.471-.138.693.693,0,0,1,.621.391.754.754,0,0,1-.385,1.084A4.164,4.164,0,0,0,36.254,25.5a3.868,3.868,0,0,0,1.862,4.493c.03.019.07.038.112.059a.722.722,0,0,1,.369.3,1.137,1.137,0,0,1,.11.81A.651.651,0,0,1,38.092,31.6Zm-3.026-5c.006.063.011.128.016.194.012.149.024.3.047.45a5.067,5.067,0,0,0,2.846,3.827.253.253,0,0,0,.117.033A.149.149,0,0,0,38.237,31a.674.674,0,0,0-.086-.413.83.83,0,0,0-.142-.08,1.734,1.734,0,0,1-.157-.083A4.81,4.81,0,0,1,35.9,28.183a4.1,4.1,0,0,1-.121-2.832,4.7,4.7,0,0,1,2.308-2.713c.316-.177.24-.316.19-.408-.063-.116-.131-.131-.182-.131a.478.478,0,0,0-.225.072A5.068,5.068,0,0,0,35.066,26.6Z" transform="translate(-27.832 -17.467)" fill="#8353f2"/><path d="M77.9,26.377a5.412,5.412,0,0,1-2.958,4.892.476.476,0,0,1-.731-.2c-.166-.309-.007-.515.247-.686a9.494,9.494,0,0,0,.954-.671,4.03,4.03,0,0,0-.14-6.327,7.059,7.059,0,0,0-.752-.508c-.291-.176-.492-.393-.3-.737s.48-.324.783-.152a5.351,5.351,0,0,1,2.612,3.047,11.083,11.083,0,0,1,.284,1.343" transform="translate(-59.271 -17.484)" fill="#8353f2"/><path d="M74.63,31.614a.724.724,0,0,1-.639-.425.714.714,0,0,1,.328-1.012c.08-.054.16-.106.241-.159a6.17,6.17,0,0,0,.688-.494,3.78,3.78,0,0,0-.132-5.943,6.833,6.833,0,0,0-.726-.49c-.611-.37-.548-.788-.387-1.074a.7.7,0,0,1,.626-.4,1.023,1.023,0,0,1,.5.149,5.622,5.622,0,0,1,2.727,3.188,7.6,7.6,0,0,1,.239,1.077c.019.114.036.212.052.292l.006.029v.03a5.661,5.661,0,0,1-3.085,5.1A.885.885,0,0,1,74.63,31.614Zm0-9.493c-.036,0-.11,0-.19.142-.062.11-.115.2.21.4a7.277,7.277,0,0,1,.779.526,4.279,4.279,0,0,1,.149,6.711,6.64,6.64,0,0,1-.743.535c-.079.051-.157.1-.235.155-.265.178-.217.266-.167.36.087.162.168.162.2.162a.406.406,0,0,0,.189-.062A5.158,5.158,0,0,0,77.649,26.4c-.016-.082-.032-.175-.049-.28a7.2,7.2,0,0,0-.222-1.007,5.072,5.072,0,0,0-2.5-2.906A.551.551,0,0,0,74.627,22.12Z" transform="translate(-59.271 -17.484)" fill="#8353f2"/></g></g><g transform="translate(1089.323 545.309)"><g transform="translate(0 0)" clip-path="url(#b)"><path d="M48.692,28.375a9.149,9.149,0,0,1-.683.879c-1.456,1.475-2.927,2.938-4.394,4.4a1.305,1.305,0,0,1-2.1,0q-3.7-3.7-7.4-7.4a1.3,1.3,0,0,1,.008-2.1c.648-.647,1.3-1.289,1.962-1.945l-1.072-.986c-1.354,1.36-2.752,2.76-4.14,4.169a.487.487,0,0,0-.092.358,8.014,8.014,0,0,1-1.679,6.129,1.309,1.309,0,0,1-2.192.125l-9.367-9.369a1.312,1.312,0,0,1,.143-2.218A8.337,8.337,0,0,1,22.3,18.686a.776.776,0,0,0,.459-.178q2.354-2.329,4.688-4.68a1.151,1.151,0,0,0,.085-.1l-1.078-1.045-1.811,1.814c-.829.829-1.45.834-2.269.015L15.064,7.2a1.306,1.306,0,0,1-.011-2.1q2.283-2.286,4.569-4.57a1.3,1.3,0,0,1,2.1.007q3.7,3.7,7.4,7.4a1.3,1.3,0,0,1-.013,2.1l-1.511,1.516a.616.616,0,0,0-.05.069l1.046,1.047c.107-.1.216-.192.317-.293Q31.276,10,33.646,7.632A2.093,2.093,0,0,1,36.9,7.617q2.132,2.124,4.255,4.256a2.084,2.084,0,0,1-.021,3.254c-1.675,1.676-3.352,3.35-5.012,5.008l1.022,1.007c.5-.5,1.035-1.043,1.577-1.582a1.276,1.276,0,0,1,2.011,0q3.729,3.725,7.45,7.458a5.2,5.2,0,0,1,.5.713ZM30.343,23.924c.093-.08.155-.128.21-.183q4.823-4.822,9.644-9.648c.445-.446.443-.76,0-1.2q-2.109-2.115-4.222-4.225c-.559-.559-.824-.56-1.378-.006q-4.937,4.937-9.873,9.875c-.091.091-.175.188-.3.318a8.257,8.257,0,0,1,5.914,5.072M28.1,8.984,20.674,1.567,16.1,6.138l7.414,7.419L28.1,8.984M47.177,28.047l-7.424-7.43-4.6,4.6,7.43,7.43,4.594-4.6m-19.2,2.977a6.708,6.708,0,0,0-9.433-9.433l9.433,9.433" transform="translate(-7.337 0)" fill="#8353f2"/><path d="M13.971,67.42c-.764-.135-1.543-.214-2.29-.413A14.9,14.9,0,0,1,.425,55.764,19.865,19.865,0,0,1,.007,52.5c-.056-.617.215-.929.677-.93s.677.287.7.888a13.622,13.622,0,0,0,3.407,8.84,13.444,13.444,0,0,0,8.573,4.6c.532.071,1.07.112,1.606.135.374.015.713.067.845.469a.772.772,0,0,1-.386.921Z" transform="translate(0 -26.038)" fill="#8353f2"/><path d="M19.04,63.3A11.078,11.078,0,0,1,8.58,54.538a17.669,17.669,0,0,1-.242-2.159.676.676,0,0,1,.647-.808c.436-.024.726.244.739.761a9.67,9.67,0,0,0,9.049,9.533c.2.014.4.02.6.042a.67.67,0,0,1,.677.738.689.689,0,0,1-.73.651c-.094,0-.189,0-.283,0" transform="translate(-4.209 -26.04)" fill="#8353f2"/><path d="M23.4,59.165a6.919,6.919,0,0,1-6.673-6.153,5.723,5.723,0,0,1-.056-.722.7.7,0,0,1,1.4-.072,13.906,13.906,0,0,0,.186,1.392,5.455,5.455,0,0,0,5.1,4.141,1.42,1.42,0,0,1,.674.2.62.62,0,0,1,.194.764.76.76,0,0,1-.82.451" transform="translate(-8.42 -26.04)" fill="#8353f2"/></g></g><g transform="translate(1062.682 443.309)"><path d="M24.893,0H8.744A2.794,2.794,0,0,0,5.951,2.8V35.589a2.792,2.792,0,0,0,2.793,2.793H24.893a2.794,2.794,0,0,0,2.793-2.793V2.8A2.8,2.8,0,0,0,24.893,0ZM12.834,1.7h7.972c.2,0,.365.3.365.673s-.164.674-.365.674H12.834c-.2,0-.364-.3-.364-.674S12.631,1.7,12.834,1.7ZM16.82,35.622a1.783,1.783,0,1,1,1.78-1.785A1.786,1.786,0,0,1,16.82,35.622Zm8.774-6.111H8.045V4.718H25.594V29.512Z" transform="translate(0)" fill="#8353f2"/></g></g></svg>