<svg xmlns="http://www.w3.org/2000/svg" width="24" height="24" viewBox="0 0 24 24"><g transform="translate(17029 10127)"><rect width="24" height="24" transform="translate(-17029 -10127)" fill="none"/><path d="M19.352,27a1.682,1.682,0,0,1-1.162-.458L7.231,16.107a1.513,1.513,0,0,1,0-2.214L18.19,3.458a1.7,1.7,0,0,1,2.325,0,1.513,1.513,0,0,1,0,2.214L10.718,15l9.8,9.328a1.513,1.513,0,0,1,0,2.214A1.682,1.682,0,0,1,19.352,27Z" transform="translate(-17003.004 -10100) rotate(180)" fill="#fff"/></g></svg>