<svg xmlns="http://www.w3.org/2000/svg" width="45" height="45" viewBox="0 0 45 45"><g transform="translate(-51.949 -5617)"><g transform="translate(51.95 5617)" opacity="0.25"><circle cx="22.5" cy="22.5" r="22.5" fill="#dcf0ff"/></g><g transform="translate(173.949 5730)"><path d="M-104.8-97a6.19,6.19,0,0,1,6.3,6.2,6.19,6.19,0,0,1-6.2,6.3,6.19,6.19,0,0,1-6.3-6.2h0A6.253,6.253,0,0,1-104.8-97Zm9.9.4c1.7,0,3.1,2.6,3.1,5.9h0c0,3.2-1.4,5.9-3.1,5.9S-98-87.4-98-90.7s1.4-5.9,3.1-5.9Zm4.8.6c.6,0,1.1,2.4,1.1,5.3s-.5,5.3-1.1,5.3-1.1-2.4-1.1-5.3C-91.2-93.7-90.7-96-90.1-96Z" fill="#fff"/></g></g></svg>