<svg xmlns="http://www.w3.org/2000/svg" xmlns:xlink="http://www.w3.org/1999/xlink" width="176" height="102" viewBox="0 0 176 102"><defs><clipPath id="a"><rect width="93.439" height="34.538" transform="translate(0)" fill="#fff"/></clipPath></defs><g transform="translate(16521 7226)"><g transform="translate(-16479.719 -7193)" clip-path="url(#a)" style="isolation:isolate"><path d="M93.35,18.507A14.354,14.354,0,0,0,77.52,5.837a13.294,13.294,0,0,0-8.6,4.047,15.056,15.056,0,0,1,3.134,4.548l.013.216a8.888,8.888,0,1,1,8.009,14.273,9.006,9.006,0,0,1-6.735-1.933,8.681,8.681,0,0,1-3.062-4.737,7.363,7.363,0,0,1-.142-1.035c0-.032,0-.064,0-.1a12.723,12.723,0,0,0-12.7-12.314c-.39,0-.776.024-1.157.059a15.1,15.1,0,0,1,9.409-3.416h.158L65.912,0a20.563,20.563,0,0,0-13.6,5.06,22.269,22.269,0,0,0-5.163,6.517,14.319,14.319,0,0,0-25.764,8.615h0a8.963,8.963,0,0,1-8.536,8.536h-2.6l6.214-5.152.008.008c.05-.042.093-.09.142-.133l.3-.252.007-.039A10.029,10.029,0,1,0,0,15.881H5.444a4.591,4.591,0,1,1,7.674,3.393L1.186,29.167H1.18v.007l-.02.016.02.024v4.962H6.671v0h5.691l.926-.017A14.41,14.41,0,0,0,26.832,20.2l.021-.337a8.883,8.883,0,1,1,8.871,9.224,9.115,9.115,0,0,1-6.092-2.569,15.389,15.389,0,0,1-2.346,5.259A14.284,14.284,0,0,0,47.1,28.894a12.676,12.676,0,0,0,20.623.078,13.91,13.91,0,0,0,2.183,2.243,14.56,14.56,0,0,0,9.158,3.211,14.868,14.868,0,0,0,1.617-.088A14.336,14.336,0,0,0,93.35,18.507m-28.5,3.219h-.007l.005.031a7.179,7.179,0,1,1,.012-.237c0,.07-.009.137-.011.205" transform="translate(0 0)" fill="#fff"/></g><rect width="176" height="102" transform="translate(-16521 -7226)" fill="none"/></g></svg>