<svg xmlns="http://www.w3.org/2000/svg" width="176" height="102" viewBox="0 0 176 102"><g transform="translate(16729 6845)"><g transform="translate(-16692.359 -6821.16)"><g transform="translate(-24.166 19.9)"><g transform="translate(0)"><path d="M24.421,27.262H20.211l-.3.708a6.721,6.721,0,0,0-.63,1.987.876.876,0,0,0,.335.748,1.334,1.334,0,0,0,.866.256v.374H17.2v-.374a1.927,1.927,0,0,0,1.1-.512,6.562,6.562,0,0,0,.866-1.712c.02-.079.157-.394.394-.944L22.788,20.1H23.1l3.7,8.8.512,1.161a1.65,1.65,0,0,0,.453.61,1.667,1.667,0,0,0,.866.275v.374H24.284v-.374a3.3,3.3,0,0,0,1.082-.118.446.446,0,0,0,.275-.472,4.4,4.4,0,0,0-.374-1.063Zm-.138-.374-1.968-4.722-1.948,4.722Z" transform="translate(-17.2 -20.061)" fill="#fff"/><path d="M105.038,30.15,109.072,21h3.4v.374h-.413a2.434,2.434,0,0,0-1.063.138.7.7,0,0,0-.335.512,10.435,10.435,0,0,0-.079,1.751v5.431a15.313,15.313,0,0,0,.059,1.712.9.9,0,0,0,.335.61,1.778,1.778,0,0,0,1.023.2h.492V32.1H107.2v-.374h.394a1.981,1.981,0,0,0,.984-.177.906.906,0,0,0,.354-.551,10.9,10.9,0,0,0,.079-1.771V22.141l-4.388,9.937h-.394L99.8,22.141v6.493a12.362,12.362,0,0,0,.079,1.81,1.386,1.386,0,0,0,.512.846,2.075,2.075,0,0,0,1.2.413v.374H97.6V31.7a1.955,1.955,0,0,0,1.161-.394,1.489,1.489,0,0,0,.551-.846,12.473,12.473,0,0,0,.1-1.869V23.755a10.321,10.321,0,0,0-.079-1.712A.745.745,0,0,0,99,21.512a2.543,2.543,0,0,0-1.082-.138h-.3V21h3.365Z" transform="translate(-81.78 -20.784)" fill="#fff"/><path d="M202.106,26.462v2.322a15.309,15.309,0,0,0,.059,1.712.9.9,0,0,0,.335.61,1.744,1.744,0,0,0,1,.2h.374v.374H198.8V31.3h.3a1.93,1.93,0,0,0,.984-.177.906.906,0,0,0,.354-.551,13.985,13.985,0,0,0,.079-1.771v-5.45a10.322,10.322,0,0,0-.079-1.712.69.69,0,0,0-.335-.531,2.655,2.655,0,0,0-1.1-.138h-.2V20.6l1.4-.039q1.653-.059,2.6-.059a9.961,9.961,0,0,1,2.637.275,3.012,3.012,0,0,1,1.515.964,2.567,2.567,0,0,1,.59,1.732,3,3,0,0,1-.413,1.594,2.647,2.647,0,0,1-1.161,1.063,6.975,6.975,0,0,1-2.656.354h-1.2Zm0-.413h.787a4.689,4.689,0,0,0,1.535-.2,1.766,1.766,0,0,0,.984-.807,2.8,2.8,0,0,0,.394-1.515,2.63,2.63,0,0,0-.669-2.007,3.083,3.083,0,0,0-2.184-.649,8.374,8.374,0,0,0-.846.039Z" transform="translate(-163.067 -20.382)" fill="#fff"/><path d="M276.984,28.812l-.079,3.266H267.5V31.7h.335a1.93,1.93,0,0,0,.984-.177.906.906,0,0,0,.354-.551,10.9,10.9,0,0,0,.079-1.771v-5.45a10.322,10.322,0,0,0-.079-1.712.745.745,0,0,0-.335-.531,2.543,2.543,0,0,0-1.082-.138h-.236V21h5.313v.374h-.512a2.434,2.434,0,0,0-1.063.138.7.7,0,0,0-.335.512,10.435,10.435,0,0,0-.079,1.751v5.8a10.7,10.7,0,0,0,.059,1.5.7.7,0,0,0,.354.472,2.794,2.794,0,0,0,1.24.177h.846a4.793,4.793,0,0,0,1.515-.177,2.029,2.029,0,0,0,.944-.787,5.866,5.866,0,0,0,.807-1.928h.374Z" transform="translate(-218.249 -20.784)" fill="#fff"/><path d="M339.9,21.374V21h5.057v.374h-.236a2.434,2.434,0,0,0-1.062.138.7.7,0,0,0-.335.512,10.437,10.437,0,0,0-.079,1.751v5.431a15.329,15.329,0,0,0,.059,1.712.9.9,0,0,0,.335.61,1.778,1.778,0,0,0,1.023.2H345V32.1h-5.057v-.374h.335a1.93,1.93,0,0,0,.984-.177.906.906,0,0,0,.354-.551,13.988,13.988,0,0,0,.079-1.771v-5.47a10.322,10.322,0,0,0-.079-1.712.69.69,0,0,0-.335-.531,2.655,2.655,0,0,0-1.1-.138H339.9Z" transform="translate(-276.403 -20.784)" fill="#fff"/><path d="M391.574,23.656H391.2L391.259,21H402l.059,2.656h-.354a4.06,4.06,0,0,0-.512-1.574,1.306,1.306,0,0,0-.708-.59,4.778,4.778,0,0,0-1.279-.118h-1.771v7.812A15.308,15.308,0,0,0,397.5,30.9a.9.9,0,0,0,.335.61,1.744,1.744,0,0,0,1,.2h.531v.374h-5.529V31.7h.571a1.93,1.93,0,0,0,.984-.177.906.906,0,0,0,.354-.551,10.894,10.894,0,0,0,.079-1.771V21.374h-1.633a7.15,7.15,0,0,0-1.436.1,1.305,1.305,0,0,0-.689.61A4.493,4.493,0,0,0,391.574,23.656Z" transform="translate(-317.609 -20.784)" fill="#fff"/><path d="M479.8,21h3.7v.374a1.975,1.975,0,0,0-1.1.335,1.227,1.227,0,0,0-.453.63,6.943,6.943,0,0,0-.079,1.358v3.68a13.75,13.75,0,0,1-.118,2.105,3.078,3.078,0,0,1-.63,1.338,3.861,3.861,0,0,1-1.476,1.063,5.873,5.873,0,0,1-2.2.394,5.655,5.655,0,0,1-2.5-.512,3.169,3.169,0,0,1-1.456-1.3,4.413,4.413,0,0,1-.433-2.145V23.755a10.323,10.323,0,0,0-.079-1.712.745.745,0,0,0-.335-.531,2.543,2.543,0,0,0-1.082-.138H471.3V21h5.057v.374h-.216a2.434,2.434,0,0,0-1.063.138.7.7,0,0,0-.335.512,10.438,10.438,0,0,0-.079,1.751v3.483a13,13,0,0,0,.177,2.578,2.26,2.26,0,0,0,.945,1.318,3.431,3.431,0,0,0,2.066.571,4.442,4.442,0,0,0,1.85-.374,3.137,3.137,0,0,0,1.24-.944,2.6,2.6,0,0,0,.492-1.161,13.794,13.794,0,0,0,.1-1.889V23.538a6.439,6.439,0,0,0-.1-1.318.974.974,0,0,0-.453-.59,2.7,2.7,0,0,0-1.1-.275V21Z" transform="translate(-381.947 -20.784)" fill="#fff"/><path d="M558.079,20.516l1.83-.1q2.273-.118,3.07-.118a8.137,8.137,0,0,1,3.837.748,4.673,4.673,0,0,1,2.046,2.046,6.3,6.3,0,0,1,.669,2.971,6.206,6.206,0,0,1-.374,2.223,4.683,4.683,0,0,1-1,1.673,4.014,4.014,0,0,1-1.5,1,5.99,5.99,0,0,1-1.614.433,20.3,20.3,0,0,1-2.145.079H558V31.1h.453a1.93,1.93,0,0,0,.984-.177.906.906,0,0,0,.354-.551,10.894,10.894,0,0,0,.079-1.771V23.271a10.313,10.313,0,0,0-.079-1.712.745.745,0,0,0-.334-.531,2.543,2.543,0,0,0-1.082-.138h-.335v-.374Zm3.4.236v7.4c0,1.1.02,1.791.059,2.105a.855.855,0,0,0,.374.669,2.643,2.643,0,0,0,1.3.2,6.332,6.332,0,0,0,2.381-.394,3.21,3.21,0,0,0,1.554-1.554,6.275,6.275,0,0,0,.63-2.971,8.064,8.064,0,0,0-.354-2.5,4.446,4.446,0,0,0-1.043-1.791,3.7,3.7,0,0,0-1.5-.944,7.829,7.829,0,0,0-2.125-.256C562.329,20.713,561.916,20.713,561.483,20.753Z" transform="translate(-451.588 -20.221)" fill="#fff"/><path d="M654.012,28.615h.394l-.236,3.443H645v-.374h.236a1.768,1.768,0,0,0,1.063-.216,1.1,1.1,0,0,0,.315-.551,14.317,14.317,0,0,0,.059-1.732V23.755a10.218,10.218,0,0,0-.079-1.673.733.733,0,0,0-.315-.551,2.3,2.3,0,0,0-1.043-.157V21h7.91l.256,2.755h-.393a4.472,4.472,0,0,0-.649-1.653,1.628,1.628,0,0,0-.905-.61,8.442,8.442,0,0,0-1.673-.118h-1.535v4.644h1.181a2.964,2.964,0,0,0,1.122-.138.812.812,0,0,0,.433-.413,4.287,4.287,0,0,0,.1-1.1h.394v3.8h-.394a3.383,3.383,0,0,0-.157-1.24.719.719,0,0,0-.453-.413,3.817,3.817,0,0,0-1-.1h-1.22v2.617a5.533,5.533,0,0,0,.256,2.322q.266.354,1.358.354h.826a4.166,4.166,0,0,0,1.436-.216,2.7,2.7,0,0,0,1.082-.925A5.807,5.807,0,0,0,654.012,28.615Z" transform="translate(-521.469 -20.784)" fill="#fff"/><path d="M721.5,31.076V27.515h.413C722.385,29.837,723.468,31,725.2,31a2.362,2.362,0,0,0,1.81-.669,2.11,2.11,0,0,0,.649-1.5,1.915,1.915,0,0,0-.571-1.4,7,7,0,0,0-2.066-1.2,13.377,13.377,0,0,1-2.007-1,3.056,3.056,0,0,1-1.063-1.122,2.92,2.92,0,0,1-.374-1.456,2.585,2.585,0,0,1,.826-1.968,2.866,2.866,0,0,1,2.086-.787,3.646,3.646,0,0,1,1.318.236,3.5,3.5,0,0,1,1.279.944,1.781,1.781,0,0,0,.433-.964h.354v2.892H727.5a3.843,3.843,0,0,0-1.1-1.987,2.605,2.605,0,0,0-1.83-.728,1.86,1.86,0,0,0-1.456.531,1.765,1.765,0,0,0,.118,2.479,7.46,7.46,0,0,0,2.066,1.2c.945.433,1.653.767,2.086,1.023a2.763,2.763,0,0,1,1.043,1.082,3.189,3.189,0,0,1,.394,1.594,3.011,3.011,0,0,1-.945,2.3,3.562,3.562,0,0,1-2.538.885,3.854,3.854,0,0,1-3.03-1.4,2.655,2.655,0,0,0-.394,1.082H721.5Z" transform="translate(-582.916 -19.9)" fill="#fff"/></g><g transform="translate(24.517 18.299)"><path d="M146.6,116.442h.177v1.909H146.6a1.376,1.376,0,0,0-.256-.571,2.322,2.322,0,0,1-1.85.807,2.568,2.568,0,0,1-2.7-2.735,3.506,3.506,0,0,1,.354-1.535,2.42,2.42,0,0,1,.964-1.063,2.689,2.689,0,0,1,1.358-.354,2.224,2.224,0,0,1,1.1.256,2.631,2.631,0,0,1,.748.551,2.442,2.442,0,0,0,.216-.708h.177l.039,2.066h-.177a2.314,2.314,0,0,0-.748-1.535,1.958,1.958,0,0,0-1.259-.433,1.609,1.609,0,0,0-1.358.689,3.393,3.393,0,0,0-.512,2.007,2.811,2.811,0,0,0,.551,1.889,1.742,1.742,0,0,0,1.377.649,2.252,2.252,0,0,0,.905-.216,1.537,1.537,0,0,0,.728-.728A2.188,2.188,0,0,0,146.6,116.442Z" transform="translate(-141.8 -112.9)" fill="#fff"/><path d="M180.6,124.746a1.5,1.5,0,0,1,.453-.61,1,1,0,0,1,.61-.236.564.564,0,0,1,.413.157.525.525,0,0,1,.157.335.269.269,0,0,1-.275.275c-.138,0-.236-.1-.315-.3-.039-.138-.118-.2-.216-.2a.648.648,0,0,0-.413.236,1.231,1.231,0,0,0-.315.492,3.191,3.191,0,0,0-.059.689v.59a5.047,5.047,0,0,0,.02.669.247.247,0,0,0,.118.216.722.722,0,0,0,.354.079h.118v.177H179.5v-.177h.079a.822.822,0,0,0,.354-.059.231.231,0,0,0,.118-.2,5.061,5.061,0,0,0,.02-.689v-.925a5.051,5.051,0,0,0-.02-.669.247.247,0,0,0-.118-.216.555.555,0,0,0-.354-.079H179.5v-.177a7.6,7.6,0,0,0,.984-.236A2.5,2.5,0,0,1,180.6,124.746Z" transform="translate(-172.082 -121.736)" fill="#fff"/><path d="M206.371,116.786h-2.3a2.671,2.671,0,0,0-.02.354,2.581,2.581,0,0,0,.275,1.318.877.877,0,0,0,.807.433,1.059,1.059,0,0,0,1.043-.649h.2a1.113,1.113,0,0,1-.512.649,1.549,1.549,0,0,1-.826.236,1.578,1.578,0,0,1-.787-.216,1.6,1.6,0,0,1-.61-.59,1.77,1.77,0,0,1-.236-.944,1.9,1.9,0,0,1,.453-1.3,1.445,1.445,0,0,1,1.141-.512,1.3,1.3,0,0,1,1,.394A1.278,1.278,0,0,1,206.371,116.786Zm-.708-.157c0-.059.02-.118.02-.157a.74.74,0,0,0-.216-.551.7.7,0,0,0-.512-.2c-.492,0-.787.3-.885.905Zm-1.2-1.692h-.138l.61-.944a1.991,1.991,0,0,1,.3-.394.409.409,0,0,1,.236-.1.192.192,0,0,1,.177.079.223.223,0,0,1,.059.157.328.328,0,0,1-.079.216,6.9,6.9,0,0,1-.551.492Z" transform="translate(-191.279 -113.382)" fill="#fff"/><path d="M233.486,126.814h.157a.626.626,0,0,1-.669.689.6.6,0,0,1-.433-.138.818.818,0,0,1-.216-.433,4.371,4.371,0,0,1-.728.433,1.418,1.418,0,0,1-.59.138.84.84,0,0,1-.571-.2.635.635,0,0,1-.236-.512.915.915,0,0,1,.413-.728,4.857,4.857,0,0,1,1.122-.61l.63-.256v-.157a2.547,2.547,0,0,0-.039-.492.513.513,0,0,0-.236-.275.91.91,0,0,0-.492-.118c-.413,0-.63.138-.669.413s-.157.413-.335.413c-.157,0-.256-.079-.256-.236s.118-.315.335-.492A1.6,1.6,0,0,1,231.7,124a1.684,1.684,0,0,1,.787.157.761.761,0,0,1,.374.374,1.679,1.679,0,0,1,.1.63V126.5a3.459,3.459,0,0,0,.039.61.2.2,0,0,0,.216.138C233.329,127.207,233.427,127.07,233.486,126.814Zm-1.181-1.417-.433.177c-.689.275-1.043.63-1.043,1.063a.554.554,0,0,0,.138.413.461.461,0,0,0,.354.157,1.026,1.026,0,0,0,.433-.118,4.589,4.589,0,0,0,.571-.374V125.4Z" transform="translate(-212.806 -121.816)" fill="#fff"/><path d="M259.046,120.52h-1v2.007a3.458,3.458,0,0,0,.039.61.386.386,0,0,0,.177.256.47.47,0,0,0,.275.1.647.647,0,0,0,.512-.335l.138.079a.732.732,0,0,1-.374.394.935.935,0,0,1-.492.138.809.809,0,0,1-.512-.177.851.851,0,0,1-.275-.394,3.693,3.693,0,0,1-.059-.807V120.52H257v-.177a.83.83,0,0,0,.59-.275,1.263,1.263,0,0,0,.335-.767h.138v1.043h1v.177Z" transform="translate(-234.332 -118.041)" fill="#fff"/><path d="M281.071,125.22h-2.3a2.669,2.669,0,0,0-.02.354,2.581,2.581,0,0,0,.275,1.318.877.877,0,0,0,.807.433,1.059,1.059,0,0,0,1.043-.649h.2a1.113,1.113,0,0,1-.512.649,1.549,1.549,0,0,1-.826.236,1.577,1.577,0,0,1-.787-.216,1.6,1.6,0,0,1-.61-.59,1.771,1.771,0,0,1-.236-.944,1.9,1.9,0,0,1,.453-1.3,1.445,1.445,0,0,1,1.141-.512,1.3,1.3,0,0,1,1,.394A1.278,1.278,0,0,1,281.071,125.22Zm-.708-.157c0-.059.02-.118.02-.157a.74.74,0,0,0-.216-.551.7.7,0,0,0-.512-.2c-.492,0-.787.3-.885.905Z" transform="translate(-251.28 -121.816)" fill="#fff"/><path d="M307.324,124.439V126.6a4.872,4.872,0,0,0,.02.669.283.283,0,0,0,.118.2.805.805,0,0,0,.374.059v.177a2.12,2.12,0,0,0-.905.138h-.039a1.774,1.774,0,0,1-.138-.767,1.582,1.582,0,0,1-.571.571,1.285,1.285,0,0,1-.708.2,1.2,1.2,0,0,1-.59-.157.721.721,0,0,1-.354-.374,1.8,1.8,0,0,1-.1-.649v-1.122a5.613,5.613,0,0,0-.02-.708.408.408,0,0,0-.118-.2.906.906,0,0,0-.394-.059V124.4h1.122v2.283a2.712,2.712,0,0,0,.039.492.518.518,0,0,0,.2.275.648.648,0,0,0,.374.118.928.928,0,0,0,.59-.2,1.145,1.145,0,0,0,.394-.433,1.877,1.877,0,0,0,.1-.649v-.748a4.529,4.529,0,0,0-.02-.649.273.273,0,0,0-.1-.2c-.059-.059-.177-.079-.374-.079h-.079v-.177h1.181Z" transform="translate(-272.004 -122.137)" fill="#fff"/><path d="M335.7,124.746a1.5,1.5,0,0,1,.453-.61,1,1,0,0,1,.61-.236.564.564,0,0,1,.413.157.525.525,0,0,1,.157.335.269.269,0,0,1-.275.275c-.138,0-.236-.1-.315-.3-.039-.138-.118-.2-.216-.2a.647.647,0,0,0-.413.236,1.231,1.231,0,0,0-.315.492,3.192,3.192,0,0,0-.059.689v.59a5.047,5.047,0,0,0,.02.669.247.247,0,0,0,.118.216.722.722,0,0,0,.354.079h.118v.177H334.6v-.177h.079a.822.822,0,0,0,.354-.059.231.231,0,0,0,.118-.2,5.057,5.057,0,0,0,.02-.689v-.925a5.047,5.047,0,0,0-.02-.669.247.247,0,0,0-.118-.216.555.555,0,0,0-.354-.079H334.6v-.177a7.6,7.6,0,0,0,.984-.236A2.5,2.5,0,0,1,335.7,124.746Z" transform="translate(-296.663 -121.736)" fill="#fff"/><path d="M379.914,115.717v-1.3a5.048,5.048,0,0,0-.02-.669.247.247,0,0,0-.118-.216.722.722,0,0,0-.354-.079h-.079v-.177a3.532,3.532,0,0,0,1.063-.177h.079v4.447a5.437,5.437,0,0,0,.02.708.287.287,0,0,0,.118.177.906.906,0,0,0,.394.059v.177a5.526,5.526,0,0,0-1.043.1,2.348,2.348,0,0,1-.039-.59,2.44,2.44,0,0,1-.61.453,1.573,1.573,0,0,1-.649.157,1.429,1.429,0,0,1-1.1-.512,1.968,1.968,0,0,1,0-2.558,1.491,1.491,0,0,1,1.141-.492,1.7,1.7,0,0,1,.63.118A1.681,1.681,0,0,1,379.914,115.717Zm0,.216a2.082,2.082,0,0,0-.531-.354,1.3,1.3,0,0,0-.531-.118,1.008,1.008,0,0,0-.767.354,2.363,2.363,0,0,0,.02,2.322.967.967,0,0,0,.767.374,1.165,1.165,0,0,0,.571-.138,1.659,1.659,0,0,0,.492-.433v-2.007Z" transform="translate(-330.8 -113.061)" fill="#fff"/><path d="M410.371,125.22h-2.3a2.669,2.669,0,0,0-.02.354,2.582,2.582,0,0,0,.275,1.318.877.877,0,0,0,.807.433,1.059,1.059,0,0,0,1.043-.649h.2a1.113,1.113,0,0,1-.512.649,1.549,1.549,0,0,1-.826.236,1.578,1.578,0,0,1-.787-.216,1.6,1.6,0,0,1-.61-.59,1.77,1.77,0,0,1-.236-.944,1.9,1.9,0,0,1,.453-1.3,1.445,1.445,0,0,1,1.141-.512,1.3,1.3,0,0,1,1,.394A1.189,1.189,0,0,1,410.371,125.22Zm-.689-.157c0-.059.02-.118.02-.157a.74.74,0,0,0-.216-.551.7.7,0,0,0-.512-.2c-.492,0-.787.3-.885.905Z" transform="translate(-355.138 -121.816)" fill="#fff"/><path d="M454.507,119.188h-.256l-1.889-4.349a2.65,2.65,0,0,1-.157-.413,1.09,1.09,0,0,0-.335-.512.869.869,0,0,0-.571-.138V113.6h2.361v.177a1.892,1.892,0,0,0-.59.059.246.246,0,0,0-.157.256,1.811,1.811,0,0,0,.2.551l1.574,3.64,1.259-3.03a3.333,3.333,0,0,0,.315-.984q0-.472-.649-.472v-.177h1.673v.177a.657.657,0,0,0-.453.177,1.283,1.283,0,0,0-.335.512l-.374.866Z" transform="translate(-390.4 -113.462)" fill="#fff"/><path d="M486.6,125.591a1.783,1.783,0,0,1,.512-1.279,1.706,1.706,0,0,1,1.259-.512,1.823,1.823,0,0,1,1.259,3.089,1.808,1.808,0,0,1-1.24.472,1.676,1.676,0,0,1-1.24-.492A1.535,1.535,0,0,1,486.6,125.591Zm.669.02a1.973,1.973,0,0,0,.3,1.24.977.977,0,0,0,.807.354.952.952,0,0,0,.807-.354,2.927,2.927,0,0,0,0-2.479,1.057,1.057,0,0,0-1.614,0A2.051,2.051,0,0,0,487.269,125.61Z" transform="translate(-418.754 -121.655)" fill="#fff"/><path d="M515.4,127.2l.767-1.83a1.888,1.888,0,0,0,.157-.453c0-.138-.157-.2-.453-.216v-.177h1.161v.177a.556.556,0,0,0-.394.138,1.921,1.921,0,0,0-.315.571l-1.476,3.562a2.311,2.311,0,0,1-.374.689.447.447,0,0,1-.354.177c-.177,0-.256-.079-.256-.236q0-.266.413-.472c.157-.079.275-.138.334-.177a.6.6,0,0,0,.157-.275l.315-.787-1.24-2.656a1.855,1.855,0,0,0-.276-.453.608.608,0,0,0-.374-.1V124.5h1.515v.177c-.276,0-.394.059-.394.157a2.049,2.049,0,0,0,.157.394Z" transform="translate(-440.12 -122.217)" fill="#fff"/><path d="M545.786,126.814h.157a.626.626,0,0,1-.669.689.6.6,0,0,1-.433-.138.817.817,0,0,1-.216-.433,4.371,4.371,0,0,1-.728.433,1.419,1.419,0,0,1-.59.138.84.84,0,0,1-.571-.2.634.634,0,0,1-.236-.512.915.915,0,0,1,.413-.728,4.856,4.856,0,0,1,1.122-.61l.63-.256v-.157a2.542,2.542,0,0,0-.039-.492.441.441,0,0,0-.236-.275.91.91,0,0,0-.492-.118c-.413,0-.63.138-.669.413s-.157.413-.335.413a.223.223,0,0,1-.256-.236c0-.157.118-.315.334-.492A1.6,1.6,0,0,1,544,124a1.684,1.684,0,0,1,.787.157.761.761,0,0,1,.374.374,1.68,1.68,0,0,1,.1.63V126.5a3.463,3.463,0,0,0,.039.61.2.2,0,0,0,.216.138A.5.5,0,0,0,545.786,126.814Zm-1.181-1.417-.433.177c-.689.275-1.043.63-1.043,1.063a.554.554,0,0,0,.138.413.461.461,0,0,0,.354.157,1.026,1.026,0,0,0,.433-.118,4.589,4.589,0,0,0,.571-.374V125.4Z" transform="translate(-463.655 -121.816)" fill="#fff"/><path d="M572.478,124.386a.974.974,0,0,1,.689-.394.407.407,0,0,1,.3.1.287.287,0,0,1,.1.236c0,.177-.079.275-.236.275-.1,0-.157-.059-.236-.157-.059-.1-.118-.157-.177-.157a.51.51,0,0,0-.335.216,1.3,1.3,0,0,1,.216.708,1.176,1.176,0,0,1-.354.846,1.614,1.614,0,0,1-1.161.413c-.571.02-.846.138-.846.354,0,.1.059.177.2.216a3.711,3.711,0,0,0,.807.1,5.415,5.415,0,0,1,1.023.118.949.949,0,0,1,.571.374,1.032,1.032,0,0,1,.216.649,1.02,1.02,0,0,1-.433.866,2.087,2.087,0,0,1-1.259.335,2.168,2.168,0,0,1-1.2-.3.863.863,0,0,1-.453-.728.618.618,0,0,1,.138-.413.441.441,0,0,1,.374-.157.249.249,0,0,1,.118.02.891.891,0,0,0-.256.59.717.717,0,0,0,.334.59,1.715,1.715,0,0,0,1,.236,1.568,1.568,0,0,0,.925-.236.725.725,0,0,0,.335-.61.6.6,0,0,0-.3-.571,2.761,2.761,0,0,0-1.043-.2,2.429,2.429,0,0,1-1.122-.216.5.5,0,0,1-.256-.453c0-.354.256-.571.748-.669a1.629,1.629,0,0,1-.571-.512,1.1,1.1,0,0,1-.2-.649,1.153,1.153,0,0,1,.393-.866,1.341,1.341,0,0,1,.945-.354A1.278,1.278,0,0,1,572.478,124.386Zm-1.81.885a1.152,1.152,0,0,0,.216.767.686.686,0,0,0,.551.236.734.734,0,0,0,.531-.236,1.262,1.262,0,0,0,.216-.826,1.152,1.152,0,0,0-.236-.826.712.712,0,0,0-.531-.216.615.615,0,0,0-.551.275A1.348,1.348,0,0,0,570.667,125.271Z" transform="translate(-485.663 -121.808)" fill="#fff"/><path d="M601.271,125.22h-2.3a2.665,2.665,0,0,0-.02.354,2.581,2.581,0,0,0,.276,1.318.877.877,0,0,0,.807.433,1.059,1.059,0,0,0,1.043-.649h.2a1.113,1.113,0,0,1-.512.649,1.549,1.549,0,0,1-.826.236,1.578,1.578,0,0,1-.787-.216,1.6,1.6,0,0,1-.61-.59,1.77,1.77,0,0,1-.236-.944,1.9,1.9,0,0,1,.453-1.3,1.445,1.445,0,0,1,1.141-.512,1.3,1.3,0,0,1,1,.394A1.279,1.279,0,0,1,601.271,125.22Zm-.708-.157c0-.059.02-.118.02-.157a.74.74,0,0,0-.216-.551.7.7,0,0,0-.512-.2c-.492,0-.787.3-.885.905Z" transform="translate(-508.475 -121.816)" fill="#fff"/><path d="M624.9,127.442V126.36h.157c.177.63.512.944.984.944a.565.565,0,0,0,.453-.177.635.635,0,0,0,.157-.413.649.649,0,0,0-.157-.433,2.363,2.363,0,0,0-.649-.394,2.575,2.575,0,0,1-.728-.492.857.857,0,0,1-.216-.571,1,1,0,0,1,.236-.63.786.786,0,0,1,.649-.3.842.842,0,0,1,.708.354.923.923,0,0,0,.157-.3h.157v1.023h-.157a1.465,1.465,0,0,0-.315-.63.7.7,0,0,0-.551-.256.549.549,0,0,0-.393.157.493.493,0,0,0-.157.354.538.538,0,0,0,.157.374,2.38,2.38,0,0,0,.61.374,1.972,1.972,0,0,1,.846.61,1.316,1.316,0,0,1,.157.571.963.963,0,0,1-.276.708,1.031,1.031,0,0,1-.708.275,1.072,1.072,0,0,1-.807-.374.749.749,0,0,0-.177.354H624.9Z" transform="translate(-529.841 -121.736)" fill="#fff"/></g></g><rect width="165.66" height="7.871" transform="translate(-34.3 38.475)" fill="none"/></g><rect width="176" height="102" transform="translate(-16729 -6845)" fill="none"/></g></svg>