<svg xmlns="http://www.w3.org/2000/svg" width="176" height="102" viewBox="0 0 176 102"><g transform="translate(16729 6970)"><path d="M156.266,81.2a6.423,6.423,0,0,0-6.687,6.746c0,4.043,2.972,6.746,7.251,6.746a8.944,8.944,0,0,0,3.425-.637L162.081,91l-.242-.141a10.362,10.362,0,0,1-4.718,1.247c-2.209,0-4.124-1.117-4.336-3.049h9.774v-.884c0-4.467-2.708-6.984-6.285-6.984m-3.49,5.46A3.18,3.18,0,0,1,156.1,83.6a2.949,2.949,0,0,1,3.258,3.053ZM222.868,81.2a6.419,6.419,0,0,0-6.687,6.746c0,4.043,2.972,6.746,7.251,6.746a8.9,8.9,0,0,0,3.418-.637L228.682,91l-.242-.13a10.382,10.382,0,0,1-4.721,1.247c-2.209,0-4.116-1.117-4.332-3.049h9.767c.423-5.034-2.277-7.87-6.285-7.87m-3.488,5.461a3.177,3.177,0,0,1,3.306-3.053,2.954,2.954,0,0,1,3.262,3.053ZM178.072,81.2a6.423,6.423,0,0,0-6.687,6.746c0,4.043,2.972,6.746,7.252,6.746a8.929,8.929,0,0,0,3.425-.637L183.886,91l-.245-.13a10.337,10.337,0,0,1-4.713,1.247c-2.209,0-4.124-1.117-4.336-3.049h9.778c.423-5.034-2.283-7.87-6.293-7.87m-3.484,5.461a3.18,3.18,0,0,1,3.314-3.053,2.951,2.951,0,0,1,3.258,3.053Zm-62.749-2.278V84.33a4.21,4.21,0,0,0,3.284-4.147c0-3.455-2.939-4.765-5.791-4.765H99.68V75.7l.972.826c1.166.953,1.315,1.135,1.315,2V94.375h6.817c3.573,0,7.159-1.284,7.159-5.409a4.512,4.512,0,0,0-4.087-4.579m-6.527-6.079H108.1c1.88,0,2.459.261,3.028.8a2.158,2.158,0,0,1,.632,1.635,2.124,2.124,0,0,1-.65,1.582,3.609,3.609,0,0,1-2.716.8H105.33Zm3.1,13.172h-3.1V86.02h3.232c2.724,0,4,.7,4,2.677,0,2.49-2.407,2.785-4.138,2.785M122.293,77.16a2.062,2.062,0,1,1-2.062-1.936,1.974,1.974,0,0,1,2.08,1.928m-5.4,4.371h4.93V94.368h-3.21V84.26c0-1.061-.06-1.232-1.211-2.122l-.509-.406Zm25.514-6.671,1.007.648c.914.585,1.051.864,1.051,1.679v5.956H144.4a5.271,5.271,0,0,0-4.354-1.954c-3.659,0-6.2,2.945-6.2,6.746s2.381,6.746,6.333,6.746a4.967,4.967,0,0,0,4.41-2.234h.052l.334,1.928h2.708V74.621h-5.263Zm-1.6,16.936a3.854,3.854,0,1,1,3.771-3.853,3.725,3.725,0,0,1-3.771,3.853m68.092-16.936.445.295c1.546.979,1.739,1.262,1.739,2.934v5.073h-.082a5.277,5.277,0,0,0-4.354-1.954c-3.659,0-6.2,2.945-6.2,6.746s2.378,6.746,6.316,6.746a4.958,4.958,0,0,0,4.41-2.234h.056l.338,1.928h2.708V74.621h-5.386Zm-1.486,16.936a3.854,3.854,0,1,1,3.767-3.853,3.725,3.725,0,0,1-3.767,3.856m31.993-10.424v3.1a6.406,6.406,0,0,0-1.546-.242,3.233,3.233,0,0,0-3.448,3.24v6.88h-3.2V84.874c0-1.616-.085-1.861-1.389-2.684l-.806-.532v-.141h5.405v2.04h.056a4.086,4.086,0,0,1,3.793-2.356,4.208,4.208,0,0,1,1.148.186m-71.184.081h2.972v2.739h-2.972V94.368h-3.217V85.311c0-1.076-.216-1.314-1.486-2.323l-1.635-1.333v-.188h3.124V79.126c0-3.488,2.27-5.7,7.181-4.721l.743,2.724-.156.127c-2.567-1.012-4.554-.373-4.554,1.861Zm30.366,4.786v8.114h-3.206V87.219c0-1.415-.368-3.127-2.6-3.127-2.11,0-2.939,1.552-2.939,3.265v7.011h-3.2v-9.5c0-1.616-.085-1.861-1.389-2.684l-.78-.532v-.141h5.238V83.47h.052a4.965,4.965,0,0,1,4.087-2.278c3.028,0,4.774,2.077,4.774,5.056m-65.789,5.54.1.067s-1.593,2.554-1.59,2.554c-2.6.711-5.55-.045-5.55-4.244V84.952c0-.83-.134-.786-1.931-2.271l-1.163-1.009V81.52h3.113l1.17-3.719h2.032v3.723h3.429v2.724h-3.429v5.826c0,2.319,1.586,2.375,3.819,1.713" transform="translate(-16811.617 -7003.434)" fill="#fff"/><rect width="176" height="102" transform="translate(-16729 -6970)" fill="none"/></g></svg>