<svg xmlns="http://www.w3.org/2000/svg" width="176" height="102" viewBox="0 0 176 102"><g transform="translate(16937 6970)"><g transform="translate(-16904.285 -6942.741)"><path d="M1299.847,323.074a11.28,11.28,0,0,0-8.231-3.394,10.906,10.906,0,0,0-8.062,3.394,11.334,11.334,0,0,0-3.394,8.316,11.145,11.145,0,0,0,3.394,8.231,10.905,10.905,0,0,0,8.062,3.394,11.417,11.417,0,0,0,8.231-3.394,11.068,11.068,0,0,0,3.31-8.231,11.322,11.322,0,0,0-3.31-8.316m-3.9,12.559a5.406,5.406,0,0,1-4.243,1.782,5.7,5.7,0,0,1-4.243-1.782,6.566,6.566,0,0,1-1.782-4.328,5.631,5.631,0,0,1,1.782-4.328,5.407,5.407,0,0,1,4.243-1.782,5.31,5.31,0,0,1,4.328,1.782,6.469,6.469,0,0,1,1.782,4.328,7.124,7.124,0,0,1-1.867,4.328" transform="translate(-1204.722 -300.842)" fill="#fff"/><path d="M14.171,221.682a13.226,13.226,0,0,0-10.1,4.243,14.655,14.655,0,0,0,.085,20.366,13.508,13.508,0,0,0,10.1,4.158,13.414,13.414,0,0,0,8.571-2.885,14.713,14.713,0,0,0,5.007-7.552h-5.77a10.02,10.02,0,0,1-3.14,3.649,8.4,8.4,0,0,1-4.752,1.358,8.326,8.326,0,0,1-6.195-2.631,8.412,8.412,0,0,1-2.631-6.195,8.65,8.65,0,0,1,2.631-6.364,8.463,8.463,0,0,1,6.195-2.631,8.9,8.9,0,0,1,4.752,1.443,10.02,10.02,0,0,1,3.14,3.649h5.77a13.6,13.6,0,0,0-5.007-7.552,12.608,12.608,0,0,0-8.655-3.055" transform="translate(0 -208.614)" fill="#fff"/><path d="M681.881,316.722c-3.734-.085-6.364.933-7.807,2.885a8.409,8.409,0,0,0-1.527,4.837h5.516a3,3,0,0,1,.849-1.952,3.127,3.127,0,0,1,2.885-1.018,5.189,5.189,0,0,1,2.715.509,1.958,1.958,0,0,1,.933,1.867,1.777,1.777,0,0,1-1.273,1.7l-4.243.764a15.007,15.007,0,0,0-4.752,1.443,6.155,6.155,0,0,0-2.97,6.025,5.916,5.916,0,0,0,1.867,4.752,7.592,7.592,0,0,0,4.582,1.527,11.358,11.358,0,0,0,7.128-2.291v2.291H691.3V323.68c0-2.715-.933-4.582-2.8-5.516a15.029,15.029,0,0,0-6.619-1.443m2.291,12.559,1.018-.594v2.291c0,1.867-.509,3.225-1.527,3.9a5.6,5.6,0,0,1-3.394,1.1,2.829,2.829,0,0,1-1.952-.594,2.8,2.8,0,0,1-.849-2.206,2.676,2.676,0,0,1,1.358-2.461,6.974,6.974,0,0,1,2.631-.764Z" transform="translate(-632.579 -298.053)" fill="#fff"/><rect width="5.516" height="28.852" transform="translate(30.634 13.068)" fill="#fff"/><g transform="translate(62.2 18.923)"><path d="M1064.685,321.714a8.478,8.478,0,0,0-3.9,3.14v-2.8h-5.261v22.063h5.516V333.509c0-1.782.17-3.14.764-3.819a4.8,4.8,0,0,1,1.867-2.037,5.564,5.564,0,0,1,2.97-.933l1.7.085v-5.6l-1.443-.085Z" transform="translate(-1055.52 -321.12)" fill="#fff"/></g><rect width="18.838" height="5.007" transform="translate(95.933 16.055) rotate(-45.032)" fill="#fff"/><rect width="5.007" height="14.341" transform="translate(85.197)" fill="#fff"/><rect width="14.595" height="5.007" transform="translate(101.829 25.118)" fill="#fff"/></g><rect width="176" height="102" transform="translate(-16937 -6970)" fill="none"/></g></svg>