<svg xmlns="http://www.w3.org/2000/svg" width="176" height="102" viewBox="0 0 176 102"><g transform="translate(16937 7226)"><g transform="translate(-16938.867 -7369.635)"><g transform="translate(34.582 175.635)"><g transform="translate(0 1.049)"><path d="M6.464,0h-10.5V27.672h10.5A14.644,14.644,0,0,0,16.882,23.88a13.529,13.529,0,0,0,3.944-10.044A13.534,13.534,0,0,0,16.882,3.791,14.644,14.644,0,0,0,6.464,0M1.857,5.544h4.55c5.258,0,8.273,3.022,8.273,8.292,0,5.192-3.093,8.292-8.273,8.292H1.857Z" transform="translate(4.036 0)" fill="#fff"/></g><g transform="translate(26.854)"><path d="M2.131,0A3.443,3.443,0,0,0-1.33,3.5,3.424,3.424,0,0,0,2.131,6.962,3.434,3.434,0,0,0,5.612,3.5,3.454,3.454,0,0,0,2.131,0" transform="translate(1.33)" fill="#fff"/></g><path d="M45.048,198.687h5.544v-19.3H45.048Z" transform="translate(-17.476 -169.966)" fill="#fff"/><g transform="translate(35.946 8.918)"><path d="M8.923,1.362A7.507,7.507,0,0,0,3.331-.851,8.512,8.512,0,0,0-2.892,1.861,10.277,10.277,0,0,0-5.571,9a10.246,10.246,0,0,0,2.679,7.125,8.519,8.519,0,0,0,6.223,2.708,7.4,7.4,0,0,0,5.554-2.16v.7c0,2.978-1.916,4.756-5.127,4.756a10.908,10.908,0,0,1-6.086-1.884l-.234-.154-2,4.572.158.111a15.053,15.053,0,0,0,8.374,2.317c6.414,0,10.4-3.805,10.4-9.931V-.346H8.923ZM4.613,13.7A4.452,4.452,0,0,1,.109,9a4.463,4.463,0,0,1,4.5-4.718A4.406,4.406,0,0,1,9.1,9a4.443,4.443,0,0,1-4.484,4.7" transform="translate(5.571 0.851)" fill="#fff"/></g><g transform="translate(59.04)"><path d="M2.131,0A3.444,3.444,0,0,0-1.331,3.5,3.425,3.425,0,0,0,2.131,6.962,3.434,3.434,0,0,0,5.612,3.5,3.454,3.454,0,0,0,2.131,0" transform="translate(1.331)" fill="#fff"/></g><path d="M57.42,198.687h5.544v-19.3H57.42Z" transform="translate(2.339 -169.966)" fill="#fff"/><g transform="translate(68.238 8.917)"><path d="M8.638,8.169A5.26,5.26,0,0,1,4.713,10C2.125,10,.248,7.914.248,5.045S2.134.094,4.732.094A4.989,4.989,0,0,1,8.581,1.9l.152.163,4-3.338-.137-.18A9.434,9.434,0,0,0,4.868-5.1C-1.174-5.1-5.393-.928-5.393,5.045S-1.174,15.19,4.868,15.19a9.553,9.553,0,0,0,7.744-3.627l.14-.178L8.792,8Z" transform="translate(5.393 5.1)" fill="#fff"/></g><g transform="translate(109.363 2.022)"><path d="M6.108,16.291a17.811,17.811,0,0,1-2.953.237c-5.23,0-6.968-2.691-6.968-7.3v-19.4H1.7V8.653c0,2.121.612,2.855,2.353,2.994a9.9,9.9,0,0,0,2.057-.08Z" transform="translate(3.814 10.171)" fill="#fff"/></g><g transform="translate(87.622 8.917)"><path d="M9.139,8.5a7.4,7.4,0,0,1-4.545,1.7A4.292,4.292,0,0,1,.051,6.766H13.31l.028-.2a14.579,14.579,0,0,0,.1-1.741h0a10.569,10.569,0,0,0-2.613-7.3A8.954,8.954,0,0,0,4.05-5.305,9.471,9.471,0,0,0-2.993-2.471,10.394,10.394,0,0,0-5.706,4.9a10.066,10.066,0,0,0,2.792,7.315A9.931,9.931,0,0,0,4.3,14.984a11.976,11.976,0,0,0,6.915-1.919A8.764,8.764,0,0,0,12.8,11.627ZM4.011-.461c1.962,0,3.305,1.167,3.806,3.3H.068a3.821,3.821,0,0,1,3.944-3.3" transform="translate(5.706 5.305)" fill="#fff"/></g></g></g><rect width="176" height="102" transform="translate(-16937 -7226)" fill="none"/></g></svg>