<svg xmlns="http://www.w3.org/2000/svg" width="176" height="102" viewBox="0 0 176 102"><g transform="translate(4354 7446)"><g transform="translate(-4352.618 -7654.547)"><path d="M77.794,242.4,74.5,258.958l3.294,16.536h2.789l-3.294-16.536L80.583,242.4Z" transform="translate(-41.829 0)" fill="#fff"/><path d="M29.728,242.4,20.9,258.958l8.806,16.536h3.053l-8.828-16.536L32.759,242.4Z" transform="translate(0 0)" fill="#fff"/><path d="M118.3,242.4l3.316,16.558-3.294,16.536h2.789l3.294-16.536L121.089,242.4Z" transform="translate(-76.01 0)" fill="#fff"/><path d="M145.6,242.4l8.85,16.558-8.828,16.536h3.053l8.806-16.536L148.653,242.4Z" transform="translate(-97.315 0)" fill="#fff"/><g transform="translate(68.093 251.338)"><path d="M309.514,293.18l3.053-7.642,3.074,7.642Zm-.878,2.24H316.5l1.471,3.777H320.6l-6.522-16.1H311.1l-6.544,16.1h2.591Zm-7.247-12.3h-2.525v16.1h2.525Zm-7.73,16.075V283.1h-3.514l-5.117,12.452h-.022L279.8,283.1h-3.426v16.1h2.482V287.185h.066L283.93,299.2h2.152l5.029-12.056h.044V299.2h2.5Zm-32-16.075v16.1h10.365v-2.306h-7.862V292.17h7.093v-2.306h-7.093v-4.458h7.8V283.1h-10.3Zm-6.786,8.06a5.943,5.943,0,0,1-.878,3.162,6.548,6.548,0,0,1-1.164,1.3,6.422,6.422,0,0,1-3.953,1.23h-2.525V285.45H248.9a6.168,6.168,0,0,1,3.953,1.274,5.928,5.928,0,0,1,2.02,4.458m2.657,0a8.455,8.455,0,0,0-1.405-4.568,8.078,8.078,0,0,0-2.767-2.5,9.5,9.5,0,0,0-4.414-.988h-5.095v16.1h5.139a8.9,8.9,0,0,0,5.578-1.757,8.111,8.111,0,0,0,2.965-6.281m-18.908-8.06H236.1v16.1h2.525Z" transform="translate(-236.034 -283.1)" fill="#fff"/><path d="M291.448,376.3l-.835,1.845h.725l2.086-4.546H292.7l-.878,2-.944-2h-.769Zm-1.757-2.7h-.769v-.944h-.681v.944h-.571v.615h.593v1.493a.979.979,0,0,0,.242.747,1.073,1.073,0,0,0,.7.22,1.608,1.608,0,0,0,.483-.066v-.593a1.26,1.26,0,0,1-.264.022c-.329,0-.461-.132-.461-.4V374.2h.769V373.6Zm-3.36,3.031h.681V373.6h-.681Zm.022-3.711a.434.434,0,0,0,.307.132.447.447,0,0,0,.329-.132.434.434,0,0,0,.132-.307.369.369,0,0,0-.132-.307.447.447,0,0,0-.329-.132.45.45,0,0,0-.439.439.493.493,0,0,0,.132.307m-.769.681h-.769v-.944h-.681v.944h-.593v.615h.593v1.493a.979.979,0,0,0,.242.747,1.073,1.073,0,0,0,.7.22,1.608,1.608,0,0,0,.483-.066v-.593a1.457,1.457,0,0,1-.286.022c-.329,0-.461-.132-.461-.4V374.2h.769Zm-3.272,3.031h.681v-1.867a1.283,1.283,0,0,0-.286-.878,1.036,1.036,0,0,0-.856-.351c-.088,0-.2.022-.285.022a1.058,1.058,0,0,0-.329.154,1.035,1.035,0,0,0-.329.285v-.417h-.659v3.031h.681v-1.691a.731.731,0,0,1,.2-.549.7.7,0,0,1,.505-.2c.439,0,.681.307.681.769Zm-4.282-2.5a.91.91,0,0,1,.549.176.7.7,0,0,1,.242.505h-1.6a.87.87,0,0,1,.264-.505.787.787,0,0,1,.549-.176m1.471,1.186c0-.066.022-.132.022-.2a1.642,1.642,0,0,0-.4-1.142,1.405,1.405,0,0,0-1.1-.439,1.434,1.434,0,0,0-.791.22,1.377,1.377,0,0,0-.549.571,1.625,1.625,0,0,0-.2.791,1.561,1.561,0,0,0,1.581,1.581,1.884,1.884,0,0,0,.593-.11,1.266,1.266,0,0,0,.791-.813l-.571-.176a.763.763,0,0,1-.813.505.9.9,0,0,1-.9-.791Zm-4.436-.2a1.073,1.073,0,0,1-.242.681.913.913,0,0,1-.659.285.835.835,0,0,1-.659-.285.982.982,0,0,1-.264-.681.945.945,0,0,1,.264-.681.955.955,0,0,1,1.318,0,1.03,1.03,0,0,1,.242.681m-2.525,0a1.6,1.6,0,0,0,.2.769,1.715,1.715,0,0,0,.527.593,1.315,1.315,0,0,0,.769.22,2.284,2.284,0,0,0,.329-.044,1.462,1.462,0,0,0,.4-.176,1.023,1.023,0,0,0,.307-.307v.483h.659V372h-.681v2.02a.973.973,0,0,0-.461-.373,1.324,1.324,0,0,0-.527-.132,1.458,1.458,0,0,0-1.12.505,1.865,1.865,0,0,0-.4,1.1m-1.427,1.515h.681V373.6h-.681Zm.022-3.711a.434.434,0,0,0,.307.132.447.447,0,0,0,.329-.132.433.433,0,0,0,.132-.307.368.368,0,0,0-.132-.307.447.447,0,0,0-.329-.132.45.45,0,0,0-.439.439.4.4,0,0,0,.132.307m-3.228,2.2a1.073,1.073,0,0,1-.242.681.913.913,0,0,1-.659.285.835.835,0,0,1-.659-.285.982.982,0,0,1-.264-.681.945.945,0,0,1,.264-.681.955.955,0,0,1,1.318,0,.928.928,0,0,1,.242.681m-2.5,0a1.6,1.6,0,0,0,.2.769,1.715,1.715,0,0,0,.527.593,1.315,1.315,0,0,0,.769.22,2.283,2.283,0,0,0,.329-.044,1.131,1.131,0,0,0,.373-.176,1.023,1.023,0,0,0,.307-.307v.483h.659V372h-.659v2.02a.973.973,0,0,0-.461-.373,1.323,1.323,0,0,0-.527-.132,1.458,1.458,0,0,0-1.12.505,1.865,1.865,0,0,0-.4,1.1m-2.02-.988a.91.91,0,0,1,.549.176.7.7,0,0,1,.242.505h-1.6a.87.87,0,0,1,.264-.505.824.824,0,0,1,.549-.176m1.471,1.186c0-.066.022-.132.022-.2a1.642,1.642,0,0,0-.4-1.142,1.405,1.405,0,0,0-1.1-.439,1.434,1.434,0,0,0-.791.22,1.376,1.376,0,0,0-.549.571,1.624,1.624,0,0,0-.2.791,1.561,1.561,0,0,0,1.581,1.581,1.883,1.883,0,0,0,.593-.11,1.266,1.266,0,0,0,.791-.813l-.571-.176a.762.762,0,0,1-.813.505.9.9,0,0,1-.9-.791Zm-3.448-1.713h-.769v-.944h-.681v.944h-.593v.615h.593v1.493a.979.979,0,0,0,.242.747.965.965,0,0,0,.7.22,1.608,1.608,0,0,0,.483-.066v-.593a1.35,1.35,0,0,1-.285.022c-.329,0-.461-.132-.461-.4V374.2h.769Zm-3.272,3.031h.681v-1.867a1.283,1.283,0,0,0-.285-.878,1.036,1.036,0,0,0-.856-.351c-.088,0-.2.022-.285.022a1.059,1.059,0,0,0-.329.154,1.034,1.034,0,0,0-.329.285v-.417h-.659v3.031h.681v-1.691a.731.731,0,0,1,.2-.549.7.7,0,0,1,.505-.2c.439,0,.681.307.681.769Zm-4.282-2.5a.91.91,0,0,1,.549.176.7.7,0,0,1,.242.505h-1.6a.87.87,0,0,1,.264-.505.787.787,0,0,1,.549-.176m1.471,1.186c0-.066.022-.132.022-.2a1.642,1.642,0,0,0-.4-1.142,1.405,1.405,0,0,0-1.1-.439,1.434,1.434,0,0,0-.791.22,1.376,1.376,0,0,0-.549.571,1.624,1.624,0,0,0-.2.791A1.561,1.561,0,0,0,253.9,376.7a1.884,1.884,0,0,0,.593-.11,1.266,1.266,0,0,0,.791-.813l-.571-.176a.762.762,0,0,1-.813.505.9.9,0,0,1-.9-.791Zm-6.413,1.318h.681v-1.691a.865.865,0,0,1,.176-.549.613.613,0,0,1,.483-.2c.439,0,.659.286.659.747v1.713h.681v-1.867a1.438,1.438,0,0,0-.264-.878,1.026,1.026,0,0,0-.835-.351,1.469,1.469,0,0,0-.571.11,1.511,1.511,0,0,0-.483.373,1.02,1.02,0,0,0-.944-.505c-.088,0-.2.022-.285.022a1.333,1.333,0,0,0-.307.154,1.253,1.253,0,0,0-.307.285v-.417h-.659v3.031h.681v-1.691a.931.931,0,0,1,.176-.571.583.583,0,0,1,.483-.2c.439,0,.637.307.637.769Zm-3.624-1.537a1.03,1.03,0,0,1-.242.681.9.9,0,0,1-1.318,0,.945.945,0,0,1-.264-.681,1.03,1.03,0,0,1,.242-.681.955.955,0,0,1,1.318,0,.982.982,0,0,1,.264.681m-1.01,1.559a1.727,1.727,0,0,0,.307-.044,1.13,1.13,0,0,0,.373-.176.825.825,0,0,0,.307-.307v.505a.886.886,0,0,1-.988.9,1.016,1.016,0,0,1-.549-.176.661.661,0,0,1-.285-.417l-.637.176a.979.979,0,0,0,.307.571,1.73,1.73,0,0,0,1.208.461,2.023,2.023,0,0,0,.835-.176,1.52,1.52,0,0,0,.593-.527,1.481,1.481,0,0,0,.22-.835V373.6h-.659v.461a1.016,1.016,0,0,0-.461-.4,1.323,1.323,0,0,0-.527-.132,1.38,1.38,0,0,0-1.1.505,1.741,1.741,0,0,0-.4,1.054,1.609,1.609,0,0,0,.417,1.076,1.262,1.262,0,0,0,1.032.483m-4.282-3.053h-.681v1.867a1.709,1.709,0,0,0,.11.615,1.062,1.062,0,0,0,1.01.615,1.251,1.251,0,0,0,.285-.022,1.058,1.058,0,0,0,.329-.154,1.34,1.34,0,0,0,.329-.285v.417h.659v-3.031h-.681v1.691a.766.766,0,0,1-.2.549.7.7,0,0,1-.505.2c-.439,0-.659-.307-.659-.769Zm-2.262,1.8a.712.712,0,0,1-.2.527.766.766,0,0,1-.549.2.436.436,0,0,1-.483-.417.35.35,0,0,1,.176-.307.822.822,0,0,1,.4-.11h.659Zm.7,1.23a3.1,3.1,0,0,1-.022-.483V374.7a1.177,1.177,0,0,0-.11-.527,1.127,1.127,0,0,0-1.142-.615,1.708,1.708,0,0,0-.615.11,1.361,1.361,0,0,0-.483.373.759.759,0,0,0-.2.461l.615.132a.715.715,0,0,1,1.1-.373.4.4,0,0,1,.154.329c0,.176-.088.264-.285.264h-.373a1.563,1.563,0,0,0-.681.132.864.864,0,0,0-.593.813v.022a.763.763,0,0,0,.285.637,1.052,1.052,0,0,0,.725.264,1.4,1.4,0,0,0,.505-.11,1,1,0,0,0,.4-.351c0,.2.022.329.022.417h.7Z" transform="translate(-235.8 -352.477)" fill="#fff"/></g></g><rect width="176" height="102" transform="translate(-4354 -7446)" fill="none"/></g></svg>