<svg xmlns="http://www.w3.org/2000/svg" xmlns:xlink="http://www.w3.org/1999/xlink" width="176" height="102" viewBox="0 0 176 102"><defs><clipPath id="a"><rect width="131.909" height="25.79" fill="none"/></clipPath></defs><g transform="translate(16937 7097)"><g transform="translate(-16915.193 -7063.826)" clip-path="url(#a)"><path d="M596.216,12.676a3.422,3.422,0,1,1-1-2.424,3.426,3.426,0,0,1,1,2.424" transform="translate(-464.307 -7.29)" fill="#fff"/><path d="M426.544,31.887a9.508,9.508,0,1,0,9.508,9.508,9.508,9.508,0,0,0-9.508-9.508m5.207,9.508a5.209,5.209,0,1,1-5.207-5.212,5.209,5.209,0,0,1,5.207,5.212" transform="translate(-328.537 -25.12)" fill="#fff"/><path d="M516.185,31.887a9.508,9.508,0,1,0,9.508,9.508,9.508,9.508,0,0,0-9.508-9.508m5.207,9.508a5.209,5.209,0,1,1-5.207-5.212,5.209,5.209,0,0,1,5.207,5.212" transform="translate(-399.157 -25.12)" fill="#fff"/><path d="M99.144,31.887a9.508,9.508,0,1,0,9.5,9.506,9.508,9.508,0,0,0-9.5-9.506m5.206,9.508a5.209,5.209,0,1,1-5.206-5.212,5.209,5.209,0,0,1,5.206,5.212" transform="translate(-70.61 -25.12)" fill="#fff"/><path d="M9.516,31.887a9.508,9.508,0,1,0,9.508,9.508,9.508,9.508,0,0,0-9.508-9.508m5.21,9.508a5.212,5.212,0,1,1-5.21-5.214,5.212,5.212,0,0,1,5.21,5.214" transform="translate(-0.001 -25.12)" fill="#fff"/><path d="M345.219,0h-1.851a1.23,1.23,0,0,0-1.233,1.227l-.014,7.1-.244-.151a9.5,9.5,0,1,0,4.547,8.1l.02-15.047A1.23,1.23,0,0,0,345.219,0m-3.084,16.274a5.211,5.211,0,1,1-10.421-.079,5.311,5.311,0,0,1,5.129-5.132h.078a5.225,5.225,0,0,1,5.214,5.21" transform="translate(-257.929 0)" fill="#fff"/><path d="M192.626,37.7l.066.075h0a9.71,9.71,0,0,1,2.347-3.454,8.889,8.889,0,0,0-7.231-2.622,8.214,8.214,0,0,0-4.351,1.824v-.5a1.066,1.066,0,0,0-1.066-1.066h-2.073a1.09,1.09,0,0,0-1.088,1.089V49.616a1.066,1.066,0,0,0,1.065,1.066h2.079a1.09,1.09,0,0,0,1.089-1.087l.086-8.613a4.959,4.959,0,0,1,4.577-5.054,5.225,5.225,0,0,1,4.5,1.78" transform="translate(-141.195 -24.947)" fill="#fff"/><path d="M256.445,46.868l-2.53-1.4a.857.857,0,0,0-.975.066l-.452.29a5.806,5.806,0,0,1-2.8.782l-.234.005a7.678,7.678,0,0,1-1.4-.127,5.181,5.181,0,0,1-3.61-2.683l-.236-.564,14.154.006a9.659,9.659,0,0,1-.141-2.774,9.264,9.264,0,0,1,.15-.987,9.512,9.512,0,1,0-10.385,11.336l.522.04c.284.02.567.028.865.028.112,0,.217,0,.33-.009a9.9,9.9,0,0,0,6.133-2.068l.027-.016a.36.36,0,0,0,.074-.049l.671-.6a.755.755,0,0,0,.247-.659.815.815,0,0,0-.417-.618m-7.388-10.7a5.139,5.139,0,0,1,4.787,3.2l-9.585-.011a5.172,5.172,0,0,1,4.8-3.188" transform="translate(-188.715 -25.103)" fill="#fff"/></g><rect width="176" height="102" transform="translate(-16937 -7097)" fill="none"/></g></svg>