<svg xmlns="http://www.w3.org/2000/svg" xmlns:xlink="http://www.w3.org/1999/xlink" width="176" height="102" viewBox="0 0 176 102"><defs><clipPath id="a"><rect width="150.966" height="36.263" fill="#fff"/></clipPath></defs><g transform="translate(4695 7446)"><g transform="translate(-4682.483 -7412.864)"><g clip-path="url(#a)"><path d="M5.411,10.821A5.411,5.411,0,1,0,0,5.411a5.4,5.4,0,0,0,5.411,5.411m12.708,0a5.411,5.411,0,1,0-5.411-5.411,5.4,5.4,0,0,0,5.411,5.411M36.238,5.411A5.411,5.411,0,1,1,30.827,0a5.4,5.4,0,0,1,5.411,5.411M18.119,23.529a5.411,5.411,0,1,0-5.411-5.411,5.4,5.4,0,0,0,5.411,5.411m5.411,7.323a5.411,5.411,0,1,1-5.411-5.411,5.4,5.4,0,0,1,5.411,5.411M123.863,13.715a1.775,1.775,0,1,0-1.812-1.787,1.753,1.753,0,0,0,1.812,1.787m-35.458,4.63H86.367V15.477h2.038V13.665A2.8,2.8,0,0,1,91.4,10.67h2.642v2.642H92.23a.833.833,0,0,0-.78.5.691.691,0,0,0-.05.327v1.309h2.642V18.32H91.4v9.387H88.405ZM42.73,13.916h5.033v13.79h3.12V13.916h5.058V10.922H42.73ZM60.824,27.958a5.689,5.689,0,0,0,5.637-3.85h-3.12a2.78,2.78,0,0,1-2.517,1.309,3.242,3.242,0,0,1-3.246-2.869h9.135l.05-.327a5.137,5.137,0,0,0,.075-.856,5.969,5.969,0,0,0-5.989-6.115,6.088,6.088,0,0,0-6.241,6.367,6.047,6.047,0,0,0,6.216,6.342m0-10.192a3,3,0,0,1,2.995,2.768H57.578a3.2,3.2,0,0,1,3.246-2.768m7.8-6.845H71.62V27.707H68.625ZM79.648,27.958a5.661,5.661,0,0,0,5.637-3.85h-3.12a2.814,2.814,0,0,1-2.517,1.309A3.242,3.242,0,0,1,76.4,22.548h9.135l.05-.327a5.2,5.2,0,0,0,.075-.881,5.969,5.969,0,0,0-5.989-6.115,6.088,6.088,0,0,0-6.241,6.367,6.054,6.054,0,0,0,6.216,6.367m0-10.192a3,3,0,0,1,2.995,2.768H76.4a3.239,3.239,0,0,1,3.246-2.768m21.088,10.192a6.088,6.088,0,0,0,6.241-6.367,6.242,6.242,0,1,0-12.482,0,6.088,6.088,0,0,0,6.241,6.367m0-9.965a3.333,3.333,0,0,1,3.246,3.6,3.264,3.264,0,1,1-6.493,0,3.348,3.348,0,0,1,3.246-3.6m8.053-2.517h2.768l.252,1.208h.126a3.065,3.065,0,0,1,.805-.7,4.744,4.744,0,0,1,2.542-.73c2.768,0,4.807,2.038,4.807,5.159v7.3h-2.995V20.635a2.642,2.642,0,1,0-5.285,0v7.071h-2.995V15.477ZM133.4,27.958a5.655,5.655,0,0,0,5.763-4.807h-2.995A2.717,2.717,0,0,1,133.4,25.19a3.318,3.318,0,0,1-3.246-3.6,3.318,3.318,0,0,1,3.246-3.6,2.823,2.823,0,0,1,2.768,1.913h2.995a5.667,5.667,0,0,0-5.763-4.681,6.088,6.088,0,0,0-6.241,6.367,6.088,6.088,0,0,0,6.241,6.367m14.822-1.434H148.1a3.171,3.171,0,0,1-.83.7,4.927,4.927,0,0,1-2.642.73c-2.793,0-4.454-1.711-4.454-3.724,0-2.391,1.686-4.077,5.033-4.077h2.768v-.252a2.1,2.1,0,0,0-2.164-2.29,2.06,2.06,0,0,0-2.164,1.56h-2.995c.252-2.013,1.887-3.951,5.159-3.951,3.12,0,5.159,2.064,5.159,4.681v7.8h-2.517ZM148,22.447H145.48c-1.56,0-2.29.6-2.29,1.56s.7,1.56,1.913,1.56a2.594,2.594,0,0,0,2.869-2.768v-.352Zm-22.649-6.971h-2.995v12.23h2.995Zm-20.409-5.159h-3.12l-2.29,3.473h2.517Z" fill="#fff"/></g></g><rect width="176" height="102" transform="translate(-4695 -7446)" fill="none"/></g></svg>