<svg xmlns="http://www.w3.org/2000/svg" width="176" height="102" viewBox="0 0 176 102"><g transform="translate(16729 7226)"><g transform="translate(-16711.332 -7197.592)"><g transform="translate(28.87 14.208)"><path d="M109.508-665.4h-2.27a1.639,1.639,0,0,0-1.638,1.638v16.774a1.639,1.639,0,0,0,1.638,1.638h2.27a1.639,1.639,0,0,0,1.638-1.638v-16.774a1.638,1.638,0,0,0-1.638-1.638" transform="translate(-105.6 665.4)" fill="#fff"/></g><g transform="translate(1.332 14.191)"><path d="M-26.39-665.483A3.541,3.541,0,0,0-29.6-663.4l-6.007,12.781c-.137.307-.427.785-.666.785s-.529-.495-.665-.785L-42.994-663.4a3.541,3.541,0,0,0-3.208-2.082h-3.5l9.539,18.463c.939,1.826,2.884,1.775,3.874,1.775,1.365,0,2.969-.068,3.822-1.775l9.539-18.48H-26.39Z" transform="translate(49.7 665.5)" fill="#fff"/></g><g transform="translate(124.549 9.498)"><path d="M599.146-693.662a1.639,1.639,0,0,0-1.638-1.638h-2.27a1.639,1.639,0,0,0-1.638,1.638v16.569a5.467,5.467,0,0,0,2.509,5.068c1.553,1.024,3.362,1.467,6.706,1.467h1.826a1.624,1.624,0,0,0,1.621-1.638v-1.775H604.9c-.99,0-3.072-.034-4.3-.87-1.6-1.058-1.468-2.952-1.468-4.317v-14.5Z" transform="translate(-593.6 695.3)" fill="#fff"/></g><g transform="translate(62.855 9.495)"><path d="M290.342-659.27c-.99,0-3.072-.034-4.3-.87-1.6-1.058-1.468-2.952-1.468-4.317v-8.054h5.358a1.639,1.639,0,0,0,1.638-1.638v-1.741h-7v-3.072a1.639,1.639,0,0,0-1.638-1.638h-2.27a1.639,1.639,0,0,0-1.638,1.638v3.072H267.493v-3.072a1.639,1.639,0,0,0-1.638-1.638h-2.27a1.639,1.639,0,0,0-1.638,1.638v3.072H258.5v1.775a1.639,1.639,0,0,0,1.638,1.638h1.809v10.085a5.467,5.467,0,0,0,2.508,5.068c1.553,1.024,3.362,1.468,6.706,1.468h1.826a1.624,1.624,0,0,0,1.621-1.638v-1.775h-1.365c-.99,0-3.072-.034-4.3-.87-1.6-1.058-1.467-2.952-1.467-4.317v-8.054h11.535v10.085a5.467,5.467,0,0,0,2.508,5.068c1.553,1.024,3.345,1.467,6.706,1.467h1.809a1.639,1.639,0,0,0,1.638-1.638V-659.3h-1.331Z" transform="translate(-258.5 680.6)" fill="#fff"/></g><g transform="translate(37.542 14.146)"><path d="M157.512-653.638c0,.529-.137,1.177-1.229,1.177h-7.867c-2,0-3.618.9-3.618,2.048v-2.048c.051-1.331,0-2.423,1.143-3.447,1.5-1.365,3.771-1.331,5.239-1.331a9.208,9.208,0,0,1,4.727.9,3.274,3.274,0,0,1,1.6,2.7m4.914,11.5v-1.775H150.192c-2.031,0-4.351-.222-5.051-2.372a11.935,11.935,0,0,1-.324-2.764h14.556a4.2,4.2,0,0,0,2.7-.751,3.545,3.545,0,0,0,1.177-3.02c0-2.526-.614-5.017-3.549-6.5-2.3-1.177-5.341-1.28-8.259-1.28-2.355,0-6.621,0-9.351,1.894-2.747,1.894-2.986,4.658-2.986,8.4,0,2.645.137,5.409,1.792,7.286,2.082,2.338,5.1,2.543,7.645,2.543h12.269a1.684,1.684,0,0,0,1.621-1.655" transform="translate(-139.1 660.6)" fill="#fff"/></g><g transform="translate(97.308 14.146)"><path d="M463.112-653.638c0,.529-.137,1.177-1.229,1.177h-7.867c-2,0-3.618.9-3.618,2.048v-2.048c.051-1.331,0-2.423,1.126-3.447,1.5-1.365,3.788-1.331,5.239-1.331a9.141,9.141,0,0,1,4.727.9,3.251,3.251,0,0,1,1.621,2.7m4.914,11.5v-1.775H455.792c-2.031,0-4.351-.222-5.051-2.372a11.935,11.935,0,0,1-.324-2.764h14.556a4.2,4.2,0,0,0,2.7-.751,3.545,3.545,0,0,0,1.177-3.02c0-2.526-.614-5.017-3.549-6.5-2.321-1.177-5.341-1.28-8.276-1.28-2.355,0-6.621,0-9.351,1.894s-2.969,4.658-2.969,8.4c0,2.645.137,5.409,1.792,7.286,2.082,2.338,5.1,2.543,7.662,2.543h12.269a1.682,1.682,0,0,0,1.6-1.655" transform="translate(-444.7 660.6)" fill="#fff"/></g><g transform="translate(28.87 8.592)"><path d="M109.508-702.5h-2.27a1.635,1.635,0,0,0-1.638,1.621v3.976h.017a2.659,2.659,0,0,1,2.747-1.894h1.126a1.639,1.639,0,0,0,1.638-1.638v-.444a1.62,1.62,0,0,0-1.621-1.621" transform="translate(-105.6 702.5)" fill="#fff"/></g></g><rect width="176" height="102" transform="translate(-16729 -7226)" fill="none"/></g></svg>