<svg xmlns="http://www.w3.org/2000/svg" width="176" height="102" viewBox="0 0 176 102"><g transform="translate(16729 7097)"><g transform="translate(-19940.988 -6254.833)"><g transform="translate(3249 -801.312)"><g transform="translate(0 0)"><path d="M428.15,444.492a3.309,3.309,0,0,0-4.667.343L409.757,460.8a3.309,3.309,0,1,0,5.01,4.323l13.727-15.965A3.313,3.313,0,0,0,428.15,444.492Z" transform="translate(-377.284 -443.688)" fill="#fff"/><path d="M286.612,446.216a3.31,3.31,0,0,0-4.669.375l-10.737,13a3.246,3.246,0,0,1-1.815.706,3.185,3.185,0,0,1-1.825-.706l-10.737-13a3.309,3.309,0,1,0-5.039,4.291l11.043,12.944c.126.149,3.158,3.7,5.988,3.826.19.009.379.009.565,0s.374.006.565,0c2.83-.13,5.862-3.677,5.988-3.826l11.043-12.944A3.314,3.314,0,0,0,286.612,446.216Z" transform="translate(-251.001 -445.077)" fill="#fff"/><path d="M557.125,462.2l-11.043-12.944c-.126-.149-3.158-3.7-5.988-3.826-.191-.009-.379-.009-.565,0s-.374-.006-.565,0c-2.83.13-5.862,3.677-5.988,3.826l-5.391,6.319h0l-.029.035-3.563,4.176a3.031,3.031,0,0,1-1.539.51,3.185,3.185,0,0,1-1.824-.706l-4.81-6a3.309,3.309,0,1,0-5.039,4.29l5.115,5.941c.126.149,3.158,3.7,5.988,3.826.191.009.378.009.565,0s.374.006.564,0c1.528-.07,2.769-.265,5.442-3.087,1.229-1.3,9.254-11.073,9.254-11.073a3.245,3.245,0,0,1,1.815-.706,3.185,3.185,0,0,1,1.825.706l10.737,13a3.309,3.309,0,1,0,5.039-4.291Z" transform="translate(-458.06 -445.077)" fill="#fff"/><path d="M643.191,508.477l-.156-.021h-2.842l-.16.021a2.74,2.74,0,0,0-2.336,3.17,2.642,2.642,0,0,0,1.046,1.624,3.14,3.14,0,0,0,1.366.543h0c.013,0,.086,0,.086,0h2.879l.072-.006a3.119,3.119,0,0,0,1.335-.537,2.641,2.641,0,0,0,1.046-1.624A2.74,2.74,0,0,0,643.191,508.477Z" transform="translate(-560.121 -495.469)" fill="#fff"/></g></g></g><rect width="176" height="102" transform="translate(-16729 -7097)" fill="none"/></g></svg>